%TF.GenerationSoftware,KiCad,Pcbnew,9.0.7*%
%TF.CreationDate,2026-03-16T20:17:23-07:00*%
%TF.ProjectId,Game Console,47616d65-2043-46f6-9e73-6f6c652e6b69,0*%
%TF.SameCoordinates,Original*%
%TF.FileFunction,Copper,L1,Top*%
%TF.FilePolarity,Positive*%
%FSLAX46Y46*%
G04 Gerber Fmt 4.6, Leading zero omitted, Abs format (unit mm)*
G04 Created by KiCad (PCBNEW 9.0.7) date 2026-03-16 20:17:23*
%MOMM*%
%LPD*%
G01*
G04 APERTURE LIST*
%TA.AperFunction,ComponentPad*%
%ADD10C,2.000000*%
%TD*%
%TA.AperFunction,ComponentPad*%
%ADD11R,1.700000X1.700000*%
%TD*%
%TA.AperFunction,ComponentPad*%
%ADD12C,1.700000*%
%TD*%
%TA.AperFunction,ComponentPad*%
%ADD13C,1.727200*%
%TD*%
%TA.AperFunction,ComponentPad*%
%ADD14R,1.727200X1.727200*%
%TD*%
%TA.AperFunction,ComponentPad*%
%ADD15R,2.000000X2.000000*%
%TD*%
%TA.AperFunction,ViaPad*%
%ADD16C,0.600000*%
%TD*%
%TA.AperFunction,Conductor*%
%ADD17C,0.200000*%
%TD*%
G04 APERTURE END LIST*
D10*
%TO.P,SW6,1,1*%
%TO.N,Net-(Ard-PM1-7)*%
X167300000Y-110250000D03*
X173800000Y-110250000D03*
%TO.P,SW6,2,2*%
%TO.N,GND*%
X167300000Y-114750000D03*
X173800000Y-114750000D03*
%TD*%
%TO.P,SW1,1,1*%
%TO.N,Net-(Ard-PM1-2)*%
X96900000Y-74750000D03*
X103400000Y-74750000D03*
%TO.P,SW1,2,2*%
%TO.N,GND*%
X96900000Y-79250000D03*
X103400000Y-79250000D03*
%TD*%
D11*
%TO.P,SSD1306,1,Pin_1*%
%TO.N,GND*%
X136000000Y-80925000D03*
D12*
%TO.P,SSD1306,2,Pin_2*%
%TO.N,VCC*%
X138540000Y-80925000D03*
%TO.P,SSD1306,3,Pin_3*%
%TO.N,Net-(SSD1306-Pin_3)*%
X141080000Y-80925000D03*
%TO.P,SSD1306,4,Pin_4*%
%TO.N,Net-(SSD1306-Pin_4)*%
X143620000Y-80925000D03*
%TD*%
D13*
%TO.P,Ard-PM1,A0,A0*%
%TO.N,unconnected-(Ard-PM1-PadA0)*%
X186040000Y-72950000D03*
%TO.P,Ard-PM1,A1,A1*%
%TO.N,unconnected-(Ard-PM1-PadA1)*%
X183500000Y-72950000D03*
%TO.P,Ard-PM1,A2,A2*%
%TO.N,unconnected-(Ard-PM1-PadA2)*%
X180960000Y-72950000D03*
%TO.P,Ard-PM1,A3,A3*%
%TO.N,unconnected-(Ard-PM1-PadA3)*%
X178420000Y-72950000D03*
%TO.P,Ard-PM1,A4,A4*%
%TO.N,Net-(SSD1306-Pin_4)*%
X179690000Y-75490000D03*
%TO.P,Ard-PM1,A5,A5*%
%TO.N,Net-(SSD1306-Pin_3)*%
X177150000Y-75490000D03*
%TO.P,Ard-PM1,A6,A6*%
%TO.N,unconnected-(Ard-PM1-PadA6)*%
X196200000Y-78030000D03*
%TO.P,Ard-PM1,A7,A7*%
%TO.N,unconnected-(Ard-PM1-PadA7)*%
X196200000Y-75490000D03*
%TO.P,Ard-PM1,D0*%
%TO.N,N/C*%
X170800000Y-88190000D03*
%TO.P,Ard-PM1,D1*%
X168260000Y-88190000D03*
%TO.P,Ard-PM1,D2,2*%
%TO.N,Net-(Ard-PM1-2)*%
X178420000Y-88190000D03*
%TO.P,Ard-PM1,D3,3*%
%TO.N,Net-(Ard-PM1-3)*%
X180960000Y-88190000D03*
%TO.P,Ard-PM1,D4,4*%
%TO.N,Net-(Ard-PM1-4)*%
X183500000Y-88190000D03*
%TO.P,Ard-PM1,D5,5*%
%TO.N,Net-(Ard-PM1-5)*%
X186040000Y-88190000D03*
%TO.P,Ard-PM1,D6,6*%
%TO.N,Net-(Ard-PM1-6)*%
X188580000Y-88190000D03*
%TO.P,Ard-PM1,D7,7*%
%TO.N,Net-(Ard-PM1-7)*%
X191120000Y-88190000D03*
%TO.P,Ard-PM1,D8,8*%
%TO.N,unconnected-(Ard-PM1-8-PadD8)*%
X193660000Y-88190000D03*
%TO.P,Ard-PM1,D9,9*%
%TO.N,Net-(Ard-PM1-9)*%
X196200000Y-88190000D03*
%TO.P,Ard-PM1,D10,10*%
%TO.N,unconnected-(Ard-PM1-10-PadD10)*%
X196200000Y-72950000D03*
%TO.P,Ard-PM1,D11,11*%
%TO.N,unconnected-(Ard-PM1-11-PadD11)*%
X193660000Y-72950000D03*
%TO.P,Ard-PM1,D12,12*%
%TO.N,unconnected-(Ard-PM1-12-PadD12)*%
X191120000Y-72950000D03*
%TO.P,Ard-PM1,D13,13*%
%TO.N,unconnected-(Ard-PM1-13-PadD13)*%
X188580000Y-72950000D03*
%TO.P,Ard-PM1,DTR,DTR*%
%TO.N,unconnected-(Ard-PM1-PadDTR)*%
X165720000Y-86920000D03*
D14*
%TO.P,Ard-PM1,GND1,GND*%
%TO.N,Net-(Ard-PM1-GND-PadGND1)*%
X175880000Y-88190000D03*
%TO.P,Ard-PM1,GND2,GND*%
%TO.N,GND*%
X170800000Y-72950000D03*
%TO.P,Ard-PM1,GND3,GND*%
X196200000Y-80570000D03*
%TO.P,Ard-PM1,GND4*%
%TO.N,N/C*%
X165720000Y-76760000D03*
%TO.P,Ard-PM1,GND5*%
X165720000Y-74220000D03*
D13*
%TO.P,Ard-PM1,RAW,RAW*%
%TO.N,unconnected-(Ard-PM1-PadRAW)*%
X168260000Y-72950000D03*
%TO.P,Ard-PM1,RST1,RST*%
%TO.N,unconnected-(Ard-PM1-RST-PadRST1)*%
X173340000Y-88190000D03*
%TO.P,Ard-PM1,RST2*%
%TO.N,N/C*%
X173340000Y-72950000D03*
%TO.P,Ard-PM1,RXI,RXI*%
%TO.N,unconnected-(Ard-PM1-PadRXI)*%
X165720000Y-81840000D03*
%TO.P,Ard-PM1,TXO,TXO*%
%TO.N,unconnected-(Ard-PM1-PadTXO)*%
X165720000Y-84380000D03*
%TO.P,Ard-PM1,Vcc1,VCC*%
%TO.N,Net-(Ard-PM1-VCC-PadVcc1)*%
X175880000Y-72950000D03*
%TO.P,Ard-PM1,Vcc2,VCC*%
%TO.N,VCC*%
X165720000Y-79300000D03*
%TD*%
D10*
%TO.P,SW5,1,1*%
%TO.N,Net-(Ard-PM1-6)*%
X182800000Y-100450000D03*
X189300000Y-100450000D03*
%TO.P,SW5,2,2*%
%TO.N,GND*%
X182800000Y-104950000D03*
X189300000Y-104950000D03*
%TD*%
%TO.P,SW3,1,1*%
%TO.N,Net-(Ard-PM1-4)*%
X84750000Y-84100000D03*
X91250000Y-84100000D03*
%TO.P,SW3,2,2*%
%TO.N,GND*%
X84750000Y-88600000D03*
X91250000Y-88600000D03*
%TD*%
%TO.P,SW4,1,1*%
%TO.N,Net-(Ard-PM1-5)*%
X108300000Y-84450000D03*
X114800000Y-84450000D03*
%TO.P,SW4,2,2*%
%TO.N,GND*%
X108300000Y-88950000D03*
X114800000Y-88950000D03*
%TD*%
%TO.P,SW2,1,1*%
%TO.N,Net-(Ard-PM1-3)*%
X96300000Y-93250000D03*
X102800000Y-93250000D03*
%TO.P,SW2,2,2*%
%TO.N,GND*%
X96300000Y-97750000D03*
X102800000Y-97750000D03*
%TD*%
D15*
%TO.P,BZ1,1,+*%
%TO.N,GND*%
X96600000Y-111650000D03*
D10*
%TO.P,BZ1,2,-*%
%TO.N,Net-(Ard-PM1-9)*%
X104200000Y-111650000D03*
%TD*%
D16*
%TO.N,Net-(Ard-PM1-6)*%
X189300000Y-93150000D03*
%TO.N,Net-(SSD1306-Pin_3)*%
X168000000Y-80350000D03*
%TO.N,Net-(SSD1306-Pin_4)*%
X146200000Y-88624000D03*
X169500000Y-80050000D03*
%TO.N,Net-(Ard-PM1-9)*%
X173200000Y-106550000D03*
%TO.N,GND*%
X161500000Y-70550000D03*
%TO.N,VCC*%
X144300000Y-87424000D03*
%TO.N,Net-(Ard-PM1-4)*%
X140799997Y-92650000D03*
%TO.N,Net-(Ard-PM1-3)*%
X141600000Y-93050000D03*
%TO.N,Net-(Ard-PM1-5)*%
X171200000Y-79050000D03*
%TO.N,Net-(Ard-PM1-2)*%
X173800000Y-77950000D03*
X179000000Y-83950000D03*
%TD*%
D17*
%TO.N,Net-(Ard-PM1-6)*%
X182800000Y-100450000D02*
X189300000Y-100450000D01*
X189300000Y-100450000D02*
X189300000Y-93150000D01*
%TO.N,Net-(SSD1306-Pin_3)*%
X144024000Y-88024000D02*
X141080000Y-85080000D01*
X158118300Y-80464600D02*
X150558900Y-88024000D01*
X167885400Y-80464600D02*
X158118300Y-80464600D01*
X141080000Y-85080000D02*
X141080000Y-80925000D01*
X150558900Y-88024000D02*
X144024000Y-88024000D01*
X168000000Y-80350000D02*
X167885400Y-80464600D01*
%TO.N,Net-(Ard-PM1-7)*%
X173800000Y-105510000D02*
X191120000Y-88190000D01*
X167300000Y-110250000D02*
X173800000Y-110250000D01*
X173800000Y-110250000D02*
X173800000Y-105510000D01*
%TO.N,Net-(SSD1306-Pin_4)*%
X146200000Y-88624000D02*
X150526000Y-88624000D01*
X166400000Y-83150000D02*
X169500000Y-80050000D01*
X150526000Y-88624000D02*
X156000000Y-83150000D01*
X156000000Y-83150000D02*
X166400000Y-83150000D01*
%TO.N,Net-(Ard-PM1-9)*%
X172600000Y-106550000D02*
X173200000Y-106550000D01*
X109300000Y-106550000D02*
X172600000Y-106550000D01*
X104200000Y-111650000D02*
X109300000Y-106550000D01*
%TO.N,GND*%
X168400000Y-70550000D02*
X161500000Y-70550000D01*
X170800000Y-72950000D02*
X168400000Y-70550000D01*
%TO.N,VCC*%
X150607900Y-87407900D02*
X158715800Y-79300000D01*
X165720000Y-79300000D02*
X158715800Y-79300000D01*
X150607900Y-87407900D02*
X150591800Y-87424000D01*
X150591800Y-87424000D02*
X144300000Y-87424000D01*
%TO.N,Net-(Ard-PM1-4)*%
X140600997Y-92849000D02*
X140799997Y-92650000D01*
X104300000Y-90050000D02*
X107099000Y-92849000D01*
X84750000Y-84100000D02*
X91250000Y-84100000D01*
X108400000Y-92849000D02*
X140600997Y-92849000D01*
X107099000Y-92849000D02*
X108400000Y-92849000D01*
X91250000Y-84100000D02*
X97200000Y-90050000D01*
X97200000Y-90050000D02*
X104300000Y-90050000D01*
%TO.N,Net-(Ard-PM1-3)*%
X102800000Y-93250000D02*
X141400000Y-93250000D01*
X96300000Y-93250000D02*
X102800000Y-93250000D01*
X141400000Y-93250000D02*
X141600000Y-93050000D01*
%TO.N,Net-(Ard-PM1-5)*%
X108300000Y-84450000D02*
X114800000Y-84450000D01*
X114800000Y-84450000D02*
X121114600Y-78135400D01*
X121114600Y-78135400D02*
X170285400Y-78135400D01*
X170285400Y-78135400D02*
X171200000Y-79050000D01*
%TO.N,Net-(Ard-PM1-2)*%
X179000000Y-83950000D02*
X179000000Y-84450000D01*
X172600000Y-76750000D02*
X173800000Y-77950000D01*
X103400000Y-74750000D02*
X105094600Y-73055400D01*
X178420000Y-85030000D02*
X178420000Y-88190000D01*
X179000000Y-84450000D02*
X178420000Y-85030000D01*
X96900000Y-74750000D02*
X103400000Y-74750000D01*
X170413006Y-76750000D02*
X172600000Y-76750000D01*
X105094600Y-73055400D02*
X166718406Y-73055400D01*
X166718406Y-73055400D02*
X170413006Y-76750000D01*
%TD*%
%TA.AperFunction,Conductor*%
%TO.N,GND*%
G36*
X201203736Y-68850726D02*
G01*
X201493796Y-68868271D01*
X201508659Y-68870076D01*
X201790798Y-68921780D01*
X201805335Y-68925363D01*
X202079172Y-69010695D01*
X202093163Y-69016000D01*
X202354743Y-69133727D01*
X202367989Y-69140680D01*
X202613465Y-69289075D01*
X202625776Y-69297573D01*
X202851573Y-69474473D01*
X202862781Y-69484403D01*
X203065596Y-69687218D01*
X203075526Y-69698426D01*
X203195481Y-69851538D01*
X203252422Y-69924217D01*
X203260928Y-69936540D01*
X203409316Y-70182004D01*
X203416275Y-70195263D01*
X203533997Y-70456831D01*
X203539306Y-70470832D01*
X203624635Y-70744663D01*
X203628219Y-70759201D01*
X203679923Y-71041340D01*
X203681728Y-71056205D01*
X203699274Y-71346263D01*
X203699500Y-71353750D01*
X203699500Y-117546249D01*
X203699274Y-117553736D01*
X203681728Y-117843794D01*
X203679923Y-117858659D01*
X203628219Y-118140798D01*
X203624635Y-118155336D01*
X203539306Y-118429167D01*
X203533997Y-118443168D01*
X203416275Y-118704736D01*
X203409316Y-118717995D01*
X203260928Y-118963459D01*
X203252422Y-118975782D01*
X203075526Y-119201573D01*
X203065596Y-119212781D01*
X202862781Y-119415596D01*
X202851573Y-119425526D01*
X202625782Y-119602422D01*
X202613459Y-119610928D01*
X202367995Y-119759316D01*
X202354736Y-119766275D01*
X202093168Y-119883997D01*
X202079167Y-119889306D01*
X201805336Y-119974635D01*
X201790798Y-119978219D01*
X201508659Y-120029923D01*
X201493794Y-120031728D01*
X201203736Y-120049274D01*
X201196249Y-120049500D01*
X82303751Y-120049500D01*
X82296264Y-120049274D01*
X82006205Y-120031728D01*
X81991340Y-120029923D01*
X81709201Y-119978219D01*
X81694663Y-119974635D01*
X81420832Y-119889306D01*
X81406831Y-119883997D01*
X81145263Y-119766275D01*
X81132004Y-119759316D01*
X80886540Y-119610928D01*
X80874217Y-119602422D01*
X80648426Y-119425526D01*
X80637218Y-119415596D01*
X80434403Y-119212781D01*
X80424473Y-119201573D01*
X80247573Y-118975776D01*
X80239075Y-118963465D01*
X80090680Y-118717989D01*
X80083727Y-118704743D01*
X79966000Y-118443163D01*
X79960693Y-118429167D01*
X79890908Y-118205220D01*
X79875363Y-118155335D01*
X79871780Y-118140798D01*
X79844506Y-117991971D01*
X79820075Y-117858657D01*
X79818271Y-117843794D01*
X79800726Y-117553736D01*
X79800500Y-117546249D01*
X79800500Y-116897648D01*
X81699500Y-116897648D01*
X81699500Y-117102351D01*
X81731522Y-117304534D01*
X81794781Y-117499223D01*
X81887715Y-117681613D01*
X82008028Y-117847213D01*
X82152786Y-117991971D01*
X82252272Y-118064250D01*
X82318390Y-118112287D01*
X82434607Y-118171503D01*
X82500776Y-118205218D01*
X82500778Y-118205218D01*
X82500781Y-118205220D01*
X82605137Y-118239127D01*
X82695465Y-118268477D01*
X82796557Y-118284488D01*
X82897648Y-118300500D01*
X82897649Y-118300500D01*
X83102351Y-118300500D01*
X83102352Y-118300500D01*
X83304534Y-118268477D01*
X83499219Y-118205220D01*
X83681610Y-118112287D01*
X83774590Y-118044732D01*
X83847213Y-117991971D01*
X83847215Y-117991968D01*
X83847219Y-117991966D01*
X83991966Y-117847219D01*
X83991968Y-117847215D01*
X83991971Y-117847213D01*
X84044732Y-117774590D01*
X84112287Y-117681610D01*
X84205220Y-117499219D01*
X84268477Y-117304534D01*
X84300500Y-117102352D01*
X84300500Y-116897648D01*
X199699500Y-116897648D01*
X199699500Y-117102351D01*
X199731522Y-117304534D01*
X199794781Y-117499223D01*
X199887715Y-117681613D01*
X200008028Y-117847213D01*
X200152786Y-117991971D01*
X200252272Y-118064250D01*
X200318390Y-118112287D01*
X200434607Y-118171503D01*
X200500776Y-118205218D01*
X200500778Y-118205218D01*
X200500781Y-118205220D01*
X200605137Y-118239127D01*
X200695465Y-118268477D01*
X200796557Y-118284488D01*
X200897648Y-118300500D01*
X200897649Y-118300500D01*
X201102351Y-118300500D01*
X201102352Y-118300500D01*
X201304534Y-118268477D01*
X201499219Y-118205220D01*
X201681610Y-118112287D01*
X201774590Y-118044732D01*
X201847213Y-117991971D01*
X201847215Y-117991968D01*
X201847219Y-117991966D01*
X201991966Y-117847219D01*
X201991968Y-117847215D01*
X201991971Y-117847213D01*
X202044732Y-117774590D01*
X202112287Y-117681610D01*
X202205220Y-117499219D01*
X202268477Y-117304534D01*
X202300500Y-117102352D01*
X202300500Y-116897648D01*
X202268477Y-116695466D01*
X202205220Y-116500781D01*
X202205218Y-116500778D01*
X202205218Y-116500776D01*
X202171503Y-116434607D01*
X202112287Y-116318390D01*
X202104556Y-116307749D01*
X201991971Y-116152786D01*
X201847213Y-116008028D01*
X201681613Y-115887715D01*
X201681612Y-115887714D01*
X201681610Y-115887713D01*
X201624653Y-115858691D01*
X201499223Y-115794781D01*
X201304534Y-115731522D01*
X201129995Y-115703878D01*
X201102352Y-115699500D01*
X200897648Y-115699500D01*
X200873329Y-115703351D01*
X200695465Y-115731522D01*
X200500776Y-115794781D01*
X200318386Y-115887715D01*
X200152786Y-116008028D01*
X200008028Y-116152786D01*
X199887715Y-116318386D01*
X199794781Y-116500776D01*
X199731522Y-116695465D01*
X199699500Y-116897648D01*
X84300500Y-116897648D01*
X84268477Y-116695466D01*
X84205220Y-116500781D01*
X84205218Y-116500778D01*
X84205218Y-116500776D01*
X84171503Y-116434607D01*
X84112287Y-116318390D01*
X84104556Y-116307749D01*
X83991971Y-116152786D01*
X83847213Y-116008028D01*
X83681613Y-115887715D01*
X83681612Y-115887714D01*
X83681610Y-115887713D01*
X83624653Y-115858691D01*
X83499223Y-115794781D01*
X83304534Y-115731522D01*
X83129995Y-115703878D01*
X83102352Y-115699500D01*
X82897648Y-115699500D01*
X82873329Y-115703351D01*
X82695465Y-115731522D01*
X82500776Y-115794781D01*
X82318386Y-115887715D01*
X82152786Y-116008028D01*
X82008028Y-116152786D01*
X81887715Y-116318386D01*
X81794781Y-116500776D01*
X81731522Y-116695465D01*
X81699500Y-116897648D01*
X79800500Y-116897648D01*
X79800500Y-114631947D01*
X165800000Y-114631947D01*
X165800000Y-114868052D01*
X165836934Y-115101247D01*
X165909897Y-115325802D01*
X166017087Y-115536174D01*
X166077338Y-115619104D01*
X166077340Y-115619105D01*
X166776212Y-114920233D01*
X166787482Y-114962292D01*
X166859890Y-115087708D01*
X166962292Y-115190110D01*
X167087708Y-115262518D01*
X167129765Y-115273787D01*
X166430893Y-115972658D01*
X166513828Y-116032914D01*
X166724197Y-116140102D01*
X166948752Y-116213065D01*
X166948751Y-116213065D01*
X167181948Y-116250000D01*
X167418052Y-116250000D01*
X167651247Y-116213065D01*
X167875802Y-116140102D01*
X168086163Y-116032918D01*
X168086169Y-116032914D01*
X168169104Y-115972658D01*
X168169105Y-115972658D01*
X167470233Y-115273787D01*
X167512292Y-115262518D01*
X167637708Y-115190110D01*
X167740110Y-115087708D01*
X167812518Y-114962292D01*
X167823787Y-114920233D01*
X168522658Y-115619105D01*
X168522658Y-115619104D01*
X168582914Y-115536169D01*
X168582918Y-115536163D01*
X168690102Y-115325802D01*
X168763065Y-115101247D01*
X168800000Y-114868052D01*
X168800000Y-114631947D01*
X172300000Y-114631947D01*
X172300000Y-114868052D01*
X172336934Y-115101247D01*
X172409897Y-115325802D01*
X172517087Y-115536174D01*
X172577338Y-115619104D01*
X172577340Y-115619105D01*
X173276212Y-114920233D01*
X173287482Y-114962292D01*
X173359890Y-115087708D01*
X173462292Y-115190110D01*
X173587708Y-115262518D01*
X173629765Y-115273787D01*
X172930893Y-115972658D01*
X173013828Y-116032914D01*
X173224197Y-116140102D01*
X173448752Y-116213065D01*
X173448751Y-116213065D01*
X173681948Y-116250000D01*
X173918052Y-116250000D01*
X174151247Y-116213065D01*
X174375802Y-116140102D01*
X174586163Y-116032918D01*
X174586169Y-116032914D01*
X174669104Y-115972658D01*
X174669105Y-115972658D01*
X173970233Y-115273787D01*
X174012292Y-115262518D01*
X174137708Y-115190110D01*
X174240110Y-115087708D01*
X174312518Y-114962292D01*
X174323787Y-114920234D01*
X175022658Y-115619105D01*
X175022658Y-115619104D01*
X175082914Y-115536169D01*
X175082918Y-115536163D01*
X175190102Y-115325802D01*
X175263065Y-115101247D01*
X175300000Y-114868052D01*
X175300000Y-114631947D01*
X175263065Y-114398752D01*
X175190102Y-114174197D01*
X175082914Y-113963828D01*
X175022658Y-113880894D01*
X175022658Y-113880893D01*
X174323787Y-114579765D01*
X174312518Y-114537708D01*
X174240110Y-114412292D01*
X174137708Y-114309890D01*
X174012292Y-114237482D01*
X173970234Y-114226212D01*
X174669105Y-113527340D01*
X174669104Y-113527338D01*
X174586174Y-113467087D01*
X174375802Y-113359897D01*
X174151247Y-113286934D01*
X174151248Y-113286934D01*
X173918052Y-113250000D01*
X173681948Y-113250000D01*
X173448752Y-113286934D01*
X173224197Y-113359897D01*
X173013830Y-113467084D01*
X172930894Y-113527340D01*
X173629766Y-114226212D01*
X173587708Y-114237482D01*
X173462292Y-114309890D01*
X173359890Y-114412292D01*
X173287482Y-114537708D01*
X173276212Y-114579766D01*
X172577340Y-113880894D01*
X172517084Y-113963830D01*
X172409897Y-114174197D01*
X172336934Y-114398752D01*
X172300000Y-114631947D01*
X168800000Y-114631947D01*
X168763065Y-114398752D01*
X168690102Y-114174197D01*
X168582914Y-113963828D01*
X168522658Y-113880894D01*
X168522658Y-113880893D01*
X167823787Y-114579765D01*
X167812518Y-114537708D01*
X167740110Y-114412292D01*
X167637708Y-114309890D01*
X167512292Y-114237482D01*
X167470234Y-114226212D01*
X168169105Y-113527340D01*
X168169104Y-113527339D01*
X168086174Y-113467087D01*
X167875802Y-113359897D01*
X167651247Y-113286934D01*
X167651248Y-113286934D01*
X167418052Y-113250000D01*
X167181948Y-113250000D01*
X166948752Y-113286934D01*
X166724197Y-113359897D01*
X166513830Y-113467084D01*
X166430894Y-113527340D01*
X167129766Y-114226212D01*
X167087708Y-114237482D01*
X166962292Y-114309890D01*
X166859890Y-114412292D01*
X166787482Y-114537708D01*
X166776212Y-114579766D01*
X166077340Y-113880894D01*
X166017084Y-113963830D01*
X165909897Y-114174197D01*
X165836934Y-114398752D01*
X165800000Y-114631947D01*
X79800500Y-114631947D01*
X79800500Y-110602155D01*
X95100000Y-110602155D01*
X95100000Y-111400000D01*
X96166988Y-111400000D01*
X96134075Y-111457007D01*
X96100000Y-111584174D01*
X96100000Y-111715826D01*
X96134075Y-111842993D01*
X96166988Y-111900000D01*
X95100000Y-111900000D01*
X95100000Y-112697844D01*
X95106401Y-112757372D01*
X95106403Y-112757379D01*
X95156645Y-112892086D01*
X95156649Y-112892093D01*
X95242809Y-113007187D01*
X95242812Y-113007190D01*
X95357906Y-113093350D01*
X95357913Y-113093354D01*
X95492620Y-113143596D01*
X95492627Y-113143598D01*
X95552155Y-113149999D01*
X95552172Y-113150000D01*
X96350000Y-113150000D01*
X96350000Y-112083012D01*
X96407007Y-112115925D01*
X96534174Y-112150000D01*
X96665826Y-112150000D01*
X96792993Y-112115925D01*
X96850000Y-112083012D01*
X96850000Y-113150000D01*
X97647828Y-113150000D01*
X97647844Y-113149999D01*
X97707372Y-113143598D01*
X97707379Y-113143596D01*
X97842086Y-113093354D01*
X97842093Y-113093350D01*
X97957187Y-113007190D01*
X97957190Y-113007187D01*
X98043350Y-112892093D01*
X98043354Y-112892086D01*
X98093596Y-112757379D01*
X98093598Y-112757372D01*
X98099999Y-112697844D01*
X98100000Y-112697827D01*
X98100000Y-111900000D01*
X97033012Y-111900000D01*
X97065925Y-111842993D01*
X97100000Y-111715826D01*
X97100000Y-111584174D01*
X97065925Y-111457007D01*
X97033012Y-111400000D01*
X98100000Y-111400000D01*
X98100000Y-110602172D01*
X98099999Y-110602155D01*
X98093598Y-110542627D01*
X98093596Y-110542620D01*
X98043354Y-110407913D01*
X98043350Y-110407906D01*
X97957190Y-110292812D01*
X97957187Y-110292809D01*
X97842093Y-110206649D01*
X97842086Y-110206645D01*
X97707379Y-110156403D01*
X97707372Y-110156401D01*
X97647844Y-110150000D01*
X96850000Y-110150000D01*
X96850000Y-111216988D01*
X96792993Y-111184075D01*
X96665826Y-111150000D01*
X96534174Y-111150000D01*
X96407007Y-111184075D01*
X96350000Y-111216988D01*
X96350000Y-110150000D01*
X95552155Y-110150000D01*
X95492627Y-110156401D01*
X95492620Y-110156403D01*
X95357913Y-110206645D01*
X95357906Y-110206649D01*
X95242812Y-110292809D01*
X95242809Y-110292812D01*
X95156649Y-110407906D01*
X95156645Y-110407913D01*
X95106403Y-110542620D01*
X95106401Y-110542627D01*
X95100000Y-110602155D01*
X79800500Y-110602155D01*
X79800500Y-97631947D01*
X94800000Y-97631947D01*
X94800000Y-97868052D01*
X94836934Y-98101247D01*
X94909897Y-98325802D01*
X95017087Y-98536174D01*
X95077338Y-98619104D01*
X95077340Y-98619105D01*
X95776212Y-97920233D01*
X95787482Y-97962292D01*
X95859890Y-98087708D01*
X95962292Y-98190110D01*
X96087708Y-98262518D01*
X96129765Y-98273787D01*
X95430893Y-98972658D01*
X95513828Y-99032914D01*
X95724197Y-99140102D01*
X95948752Y-99213065D01*
X95948751Y-99213065D01*
X96181948Y-99250000D01*
X96418052Y-99250000D01*
X96651247Y-99213065D01*
X96875802Y-99140102D01*
X97086163Y-99032918D01*
X97086169Y-99032914D01*
X97169104Y-98972658D01*
X97169105Y-98972658D01*
X96470233Y-98273787D01*
X96512292Y-98262518D01*
X96637708Y-98190110D01*
X96740110Y-98087708D01*
X96812518Y-97962292D01*
X96823787Y-97920233D01*
X97522658Y-98619105D01*
X97522658Y-98619104D01*
X97582914Y-98536169D01*
X97582918Y-98536163D01*
X97690102Y-98325802D01*
X97763065Y-98101247D01*
X97800000Y-97868052D01*
X97800000Y-97631947D01*
X101300000Y-97631947D01*
X101300000Y-97868052D01*
X101336934Y-98101247D01*
X101409897Y-98325802D01*
X101517087Y-98536174D01*
X101577338Y-98619104D01*
X101577340Y-98619105D01*
X102276212Y-97920233D01*
X102287482Y-97962292D01*
X102359890Y-98087708D01*
X102462292Y-98190110D01*
X102587708Y-98262518D01*
X102629765Y-98273787D01*
X101930893Y-98972658D01*
X102013828Y-99032914D01*
X102224197Y-99140102D01*
X102448752Y-99213065D01*
X102448751Y-99213065D01*
X102681948Y-99250000D01*
X102918052Y-99250000D01*
X103151247Y-99213065D01*
X103375802Y-99140102D01*
X103586163Y-99032918D01*
X103586169Y-99032914D01*
X103669104Y-98972658D01*
X103669105Y-98972658D01*
X102970233Y-98273787D01*
X103012292Y-98262518D01*
X103137708Y-98190110D01*
X103240110Y-98087708D01*
X103312518Y-97962292D01*
X103323787Y-97920234D01*
X104022658Y-98619105D01*
X104022658Y-98619104D01*
X104082914Y-98536169D01*
X104082918Y-98536163D01*
X104190102Y-98325802D01*
X104263065Y-98101247D01*
X104300000Y-97868052D01*
X104300000Y-97631947D01*
X104263065Y-97398752D01*
X104190102Y-97174197D01*
X104082914Y-96963828D01*
X104022658Y-96880894D01*
X104022658Y-96880893D01*
X103323787Y-97579765D01*
X103312518Y-97537708D01*
X103240110Y-97412292D01*
X103137708Y-97309890D01*
X103012292Y-97237482D01*
X102970234Y-97226212D01*
X103669105Y-96527340D01*
X103669104Y-96527338D01*
X103586174Y-96467087D01*
X103375802Y-96359897D01*
X103151247Y-96286934D01*
X103151248Y-96286934D01*
X102918052Y-96250000D01*
X102681948Y-96250000D01*
X102448752Y-96286934D01*
X102224197Y-96359897D01*
X102013830Y-96467084D01*
X101930894Y-96527340D01*
X102629766Y-97226212D01*
X102587708Y-97237482D01*
X102462292Y-97309890D01*
X102359890Y-97412292D01*
X102287482Y-97537708D01*
X102276212Y-97579766D01*
X101577340Y-96880894D01*
X101517084Y-96963830D01*
X101409897Y-97174197D01*
X101336934Y-97398752D01*
X101300000Y-97631947D01*
X97800000Y-97631947D01*
X97763065Y-97398752D01*
X97690102Y-97174197D01*
X97582914Y-96963828D01*
X97522658Y-96880894D01*
X97522658Y-96880893D01*
X96823787Y-97579765D01*
X96812518Y-97537708D01*
X96740110Y-97412292D01*
X96637708Y-97309890D01*
X96512292Y-97237482D01*
X96470234Y-97226212D01*
X97169105Y-96527340D01*
X97169104Y-96527339D01*
X97086174Y-96467087D01*
X96875802Y-96359897D01*
X96651247Y-96286934D01*
X96651248Y-96286934D01*
X96418052Y-96250000D01*
X96181948Y-96250000D01*
X95948752Y-96286934D01*
X95724197Y-96359897D01*
X95513830Y-96467084D01*
X95430894Y-96527340D01*
X96129766Y-97226212D01*
X96087708Y-97237482D01*
X95962292Y-97309890D01*
X95859890Y-97412292D01*
X95787482Y-97537708D01*
X95776212Y-97579766D01*
X95077340Y-96880894D01*
X95017084Y-96963830D01*
X94909897Y-97174197D01*
X94836934Y-97398752D01*
X94800000Y-97631947D01*
X79800500Y-97631947D01*
X79800500Y-88481947D01*
X83250000Y-88481947D01*
X83250000Y-88718052D01*
X83286934Y-88951247D01*
X83359897Y-89175802D01*
X83467087Y-89386174D01*
X83527338Y-89469104D01*
X83527340Y-89469105D01*
X84226212Y-88770233D01*
X84237482Y-88812292D01*
X84309890Y-88937708D01*
X84412292Y-89040110D01*
X84537708Y-89112518D01*
X84579765Y-89123787D01*
X83880893Y-89822658D01*
X83963828Y-89882914D01*
X84174197Y-89990102D01*
X84398752Y-90063065D01*
X84398751Y-90063065D01*
X84631948Y-90100000D01*
X84868052Y-90100000D01*
X85101247Y-90063065D01*
X85325802Y-89990102D01*
X85536163Y-89882918D01*
X85536169Y-89882914D01*
X85619104Y-89822658D01*
X85619105Y-89822658D01*
X84920233Y-89123787D01*
X84962292Y-89112518D01*
X85087708Y-89040110D01*
X85190110Y-88937708D01*
X85262518Y-88812292D01*
X85273787Y-88770234D01*
X85972658Y-89469105D01*
X85972658Y-89469104D01*
X86032914Y-89386169D01*
X86032918Y-89386163D01*
X86140102Y-89175802D01*
X86213065Y-88951247D01*
X86250000Y-88718052D01*
X86250000Y-88481947D01*
X89750000Y-88481947D01*
X89750000Y-88718052D01*
X89786934Y-88951247D01*
X89859897Y-89175802D01*
X89967087Y-89386174D01*
X90027338Y-89469104D01*
X90027340Y-89469105D01*
X90726212Y-88770233D01*
X90737482Y-88812292D01*
X90809890Y-88937708D01*
X90912292Y-89040110D01*
X91037708Y-89112518D01*
X91079765Y-89123787D01*
X90380893Y-89822658D01*
X90463828Y-89882914D01*
X90674197Y-89990102D01*
X90898752Y-90063065D01*
X90898751Y-90063065D01*
X91131948Y-90100000D01*
X91368052Y-90100000D01*
X91601247Y-90063065D01*
X91825802Y-89990102D01*
X92036163Y-89882918D01*
X92036169Y-89882914D01*
X92119104Y-89822658D01*
X92119105Y-89822658D01*
X91420233Y-89123787D01*
X91462292Y-89112518D01*
X91587708Y-89040110D01*
X91690110Y-88937708D01*
X91762518Y-88812292D01*
X91773787Y-88770233D01*
X92472658Y-89469105D01*
X92472658Y-89469104D01*
X92532914Y-89386169D01*
X92532918Y-89386163D01*
X92640102Y-89175802D01*
X92713065Y-88951247D01*
X92750000Y-88718052D01*
X92750000Y-88481947D01*
X92713065Y-88248752D01*
X92640102Y-88024197D01*
X92532914Y-87813828D01*
X92472658Y-87730894D01*
X92472658Y-87730893D01*
X91773787Y-88429765D01*
X91762518Y-88387708D01*
X91690110Y-88262292D01*
X91587708Y-88159890D01*
X91462292Y-88087482D01*
X91420234Y-88076212D01*
X92119105Y-87377340D01*
X92119104Y-87377338D01*
X92036174Y-87317087D01*
X91825802Y-87209897D01*
X91601247Y-87136934D01*
X91601248Y-87136934D01*
X91368052Y-87100000D01*
X91131948Y-87100000D01*
X90898752Y-87136934D01*
X90674197Y-87209897D01*
X90463830Y-87317084D01*
X90380894Y-87377340D01*
X91079766Y-88076212D01*
X91037708Y-88087482D01*
X90912292Y-88159890D01*
X90809890Y-88262292D01*
X90737482Y-88387708D01*
X90726212Y-88429765D01*
X90027340Y-87730894D01*
X89967084Y-87813830D01*
X89859897Y-88024197D01*
X89786934Y-88248752D01*
X89750000Y-88481947D01*
X86250000Y-88481947D01*
X86213065Y-88248752D01*
X86140102Y-88024197D01*
X86032914Y-87813828D01*
X85972658Y-87730894D01*
X85972658Y-87730893D01*
X85273787Y-88429765D01*
X85262518Y-88387708D01*
X85190110Y-88262292D01*
X85087708Y-88159890D01*
X84962292Y-88087482D01*
X84920234Y-88076212D01*
X85619105Y-87377340D01*
X85619104Y-87377339D01*
X85536174Y-87317087D01*
X85325802Y-87209897D01*
X85101247Y-87136934D01*
X85101248Y-87136934D01*
X84868052Y-87100000D01*
X84631948Y-87100000D01*
X84398752Y-87136934D01*
X84174197Y-87209897D01*
X83963830Y-87317084D01*
X83880894Y-87377340D01*
X84579766Y-88076212D01*
X84537708Y-88087482D01*
X84412292Y-88159890D01*
X84309890Y-88262292D01*
X84237482Y-88387708D01*
X84226212Y-88429766D01*
X83527340Y-87730894D01*
X83467084Y-87813830D01*
X83359897Y-88024197D01*
X83286934Y-88248752D01*
X83250000Y-88481947D01*
X79800500Y-88481947D01*
X79800500Y-83981902D01*
X83249500Y-83981902D01*
X83249500Y-84218097D01*
X83286446Y-84451368D01*
X83359433Y-84675996D01*
X83432153Y-84818715D01*
X83466657Y-84886433D01*
X83605483Y-85077510D01*
X83772490Y-85244517D01*
X83963567Y-85383343D01*
X84036441Y-85420474D01*
X84174003Y-85490566D01*
X84174005Y-85490566D01*
X84174008Y-85490568D01*
X84266292Y-85520553D01*
X84398631Y-85563553D01*
X84631903Y-85600500D01*
X84631908Y-85600500D01*
X84868097Y-85600500D01*
X85101368Y-85563553D01*
X85325992Y-85490568D01*
X85536433Y-85383343D01*
X85727510Y-85244517D01*
X85894517Y-85077510D01*
X86033343Y-84886433D01*
X86093583Y-84768204D01*
X86141558Y-84717409D01*
X86204068Y-84700500D01*
X89795932Y-84700500D01*
X89862971Y-84720185D01*
X89906416Y-84768203D01*
X89966657Y-84886433D01*
X90105483Y-85077510D01*
X90272490Y-85244517D01*
X90463567Y-85383343D01*
X90536441Y-85420474D01*
X90674003Y-85490566D01*
X90674005Y-85490566D01*
X90674008Y-85490568D01*
X90766292Y-85520553D01*
X90898631Y-85563553D01*
X91131903Y-85600500D01*
X91131908Y-85600500D01*
X91368097Y-85600500D01*
X91474126Y-85583705D01*
X91601368Y-85563553D01*
X91727566Y-85522547D01*
X91797404Y-85520553D01*
X91853562Y-85552797D01*
X96831284Y-90530520D01*
X96831286Y-90530521D01*
X96831290Y-90530524D01*
X96968209Y-90609573D01*
X96968216Y-90609577D01*
X97120943Y-90650501D01*
X97120945Y-90650501D01*
X97286654Y-90650501D01*
X97286670Y-90650500D01*
X103999903Y-90650500D01*
X104066942Y-90670185D01*
X104087584Y-90686819D01*
X105838583Y-92437819D01*
X105872068Y-92499142D01*
X105867084Y-92568834D01*
X105825212Y-92624767D01*
X105759748Y-92649184D01*
X105750902Y-92649500D01*
X104254068Y-92649500D01*
X104187029Y-92629815D01*
X104143583Y-92581795D01*
X104122138Y-92539707D01*
X104083343Y-92463567D01*
X103944517Y-92272490D01*
X103777510Y-92105483D01*
X103586433Y-91966657D01*
X103535311Y-91940609D01*
X103375996Y-91859433D01*
X103151368Y-91786446D01*
X102918097Y-91749500D01*
X102918092Y-91749500D01*
X102681908Y-91749500D01*
X102681903Y-91749500D01*
X102448631Y-91786446D01*
X102224003Y-91859433D01*
X102013566Y-91966657D01*
X101904550Y-92045862D01*
X101822490Y-92105483D01*
X101822488Y-92105485D01*
X101822487Y-92105485D01*
X101655485Y-92272487D01*
X101655485Y-92272488D01*
X101655483Y-92272490D01*
X101599532Y-92349500D01*
X101516657Y-92463566D01*
X101456417Y-92581795D01*
X101408442Y-92632591D01*
X101345932Y-92649500D01*
X97754068Y-92649500D01*
X97687029Y-92629815D01*
X97643583Y-92581795D01*
X97622138Y-92539707D01*
X97583343Y-92463567D01*
X97444517Y-92272490D01*
X97277510Y-92105483D01*
X97086433Y-91966657D01*
X97035311Y-91940609D01*
X96875996Y-91859433D01*
X96651368Y-91786446D01*
X96418097Y-91749500D01*
X96418092Y-91749500D01*
X96181908Y-91749500D01*
X96181903Y-91749500D01*
X95948631Y-91786446D01*
X95724003Y-91859433D01*
X95513566Y-91966657D01*
X95404550Y-92045862D01*
X95322490Y-92105483D01*
X95322488Y-92105485D01*
X95322487Y-92105485D01*
X95155485Y-92272487D01*
X95155485Y-92272488D01*
X95155483Y-92272490D01*
X95099532Y-92349500D01*
X95016657Y-92463566D01*
X94909433Y-92674003D01*
X94836446Y-92898631D01*
X94799500Y-93131902D01*
X94799500Y-93368097D01*
X94836446Y-93601368D01*
X94909433Y-93825996D01*
X95016657Y-94036433D01*
X95155483Y-94227510D01*
X95322490Y-94394517D01*
X95513567Y-94533343D01*
X95612991Y-94584002D01*
X95724003Y-94640566D01*
X95724005Y-94640566D01*
X95724008Y-94640568D01*
X95844412Y-94679689D01*
X95948631Y-94713553D01*
X96181903Y-94750500D01*
X96181908Y-94750500D01*
X96418097Y-94750500D01*
X96651368Y-94713553D01*
X96875992Y-94640568D01*
X97086433Y-94533343D01*
X97277510Y-94394517D01*
X97444517Y-94227510D01*
X97583343Y-94036433D01*
X97643583Y-93918204D01*
X97691558Y-93867409D01*
X97754068Y-93850500D01*
X101345932Y-93850500D01*
X101412971Y-93870185D01*
X101456416Y-93918203D01*
X101516657Y-94036433D01*
X101655483Y-94227510D01*
X101822490Y-94394517D01*
X102013567Y-94533343D01*
X102112991Y-94584002D01*
X102224003Y-94640566D01*
X102224005Y-94640566D01*
X102224008Y-94640568D01*
X102344412Y-94679689D01*
X102448631Y-94713553D01*
X102681903Y-94750500D01*
X102681908Y-94750500D01*
X102918097Y-94750500D01*
X103151368Y-94713553D01*
X103375992Y-94640568D01*
X103586433Y-94533343D01*
X103777510Y-94394517D01*
X103944517Y-94227510D01*
X104083343Y-94036433D01*
X104143583Y-93918204D01*
X104191558Y-93867409D01*
X104254068Y-93850500D01*
X141320939Y-93850500D01*
X141320943Y-93850501D01*
X141479057Y-93850501D01*
X141484987Y-93848911D01*
X141499137Y-93848781D01*
X141505314Y-93850533D01*
X141515004Y-93850850D01*
X141515098Y-93849903D01*
X141521156Y-93850500D01*
X141521158Y-93850500D01*
X141678844Y-93850500D01*
X141678845Y-93850499D01*
X141833497Y-93819737D01*
X141979179Y-93759394D01*
X142110289Y-93671789D01*
X142221789Y-93560289D01*
X142309394Y-93429179D01*
X142369737Y-93283497D01*
X142400500Y-93128842D01*
X142400500Y-92971158D01*
X142400500Y-92971155D01*
X142400499Y-92971153D01*
X142389627Y-92916498D01*
X142369737Y-92816503D01*
X142350812Y-92770814D01*
X142309397Y-92670827D01*
X142309390Y-92670814D01*
X142221789Y-92539711D01*
X142221786Y-92539707D01*
X142110292Y-92428213D01*
X142110288Y-92428210D01*
X141979185Y-92340609D01*
X141979172Y-92340602D01*
X141833501Y-92280264D01*
X141833489Y-92280261D01*
X141678845Y-92249500D01*
X141678842Y-92249500D01*
X141561424Y-92249500D01*
X141494385Y-92229815D01*
X141458322Y-92194390D01*
X141421789Y-92139715D01*
X141421783Y-92139707D01*
X141310289Y-92028213D01*
X141310285Y-92028210D01*
X141179182Y-91940609D01*
X141179169Y-91940602D01*
X141033498Y-91880264D01*
X141033486Y-91880261D01*
X140878842Y-91849500D01*
X140878839Y-91849500D01*
X140721155Y-91849500D01*
X140721152Y-91849500D01*
X140566507Y-91880261D01*
X140566495Y-91880264D01*
X140420824Y-91940602D01*
X140420811Y-91940609D01*
X140289708Y-92028210D01*
X140289704Y-92028213D01*
X140178207Y-92139710D01*
X140142340Y-92193391D01*
X140088728Y-92238196D01*
X140039238Y-92248500D01*
X107399098Y-92248500D01*
X107332059Y-92228815D01*
X107311417Y-92212181D01*
X105312315Y-90213080D01*
X104787590Y-89688355D01*
X104787588Y-89688352D01*
X104668717Y-89569481D01*
X104668709Y-89569475D01*
X104543863Y-89497396D01*
X104543860Y-89497395D01*
X104531785Y-89490423D01*
X104379057Y-89449499D01*
X104220943Y-89449499D01*
X104213347Y-89449499D01*
X104213331Y-89449500D01*
X97500098Y-89449500D01*
X97433059Y-89429815D01*
X97412417Y-89413181D01*
X96831183Y-88831947D01*
X106800000Y-88831947D01*
X106800000Y-89068052D01*
X106836934Y-89301247D01*
X106909897Y-89525802D01*
X107017087Y-89736174D01*
X107077338Y-89819104D01*
X107077340Y-89819105D01*
X107776212Y-89120233D01*
X107787482Y-89162292D01*
X107859890Y-89287708D01*
X107962292Y-89390110D01*
X108087708Y-89462518D01*
X108129765Y-89473787D01*
X107430893Y-90172658D01*
X107513828Y-90232914D01*
X107724197Y-90340102D01*
X107948752Y-90413065D01*
X107948751Y-90413065D01*
X108181948Y-90450000D01*
X108418052Y-90450000D01*
X108651247Y-90413065D01*
X108875802Y-90340102D01*
X109086163Y-90232918D01*
X109086169Y-90232914D01*
X109169104Y-90172658D01*
X109169105Y-90172658D01*
X108470233Y-89473787D01*
X108512292Y-89462518D01*
X108637708Y-89390110D01*
X108740110Y-89287708D01*
X108812518Y-89162292D01*
X108823787Y-89120233D01*
X109522658Y-89819105D01*
X109522658Y-89819104D01*
X109582914Y-89736169D01*
X109582918Y-89736163D01*
X109690102Y-89525802D01*
X109763065Y-89301247D01*
X109800000Y-89068052D01*
X109800000Y-88831947D01*
X113300000Y-88831947D01*
X113300000Y-89068052D01*
X113336934Y-89301247D01*
X113409897Y-89525802D01*
X113517087Y-89736174D01*
X113577338Y-89819104D01*
X113577340Y-89819105D01*
X114276212Y-89120233D01*
X114287482Y-89162292D01*
X114359890Y-89287708D01*
X114462292Y-89390110D01*
X114587708Y-89462518D01*
X114629765Y-89473787D01*
X113930893Y-90172658D01*
X114013828Y-90232914D01*
X114224197Y-90340102D01*
X114448752Y-90413065D01*
X114448751Y-90413065D01*
X114681948Y-90450000D01*
X114918052Y-90450000D01*
X115151247Y-90413065D01*
X115375802Y-90340102D01*
X115586163Y-90232918D01*
X115586169Y-90232914D01*
X115669104Y-90172658D01*
X115669105Y-90172658D01*
X114970233Y-89473787D01*
X115012292Y-89462518D01*
X115137708Y-89390110D01*
X115240110Y-89287708D01*
X115312518Y-89162292D01*
X115323787Y-89120233D01*
X116022658Y-89819105D01*
X116022658Y-89819104D01*
X116082914Y-89736169D01*
X116082918Y-89736163D01*
X116190102Y-89525802D01*
X116263065Y-89301247D01*
X116300000Y-89068052D01*
X116300000Y-88831947D01*
X116263065Y-88598752D01*
X116190102Y-88374197D01*
X116082914Y-88163828D01*
X116022658Y-88080894D01*
X116022658Y-88080893D01*
X115323787Y-88779765D01*
X115312518Y-88737708D01*
X115240110Y-88612292D01*
X115137708Y-88509890D01*
X115012292Y-88437482D01*
X114970234Y-88426212D01*
X115669105Y-87727340D01*
X115669104Y-87727338D01*
X115586174Y-87667087D01*
X115375802Y-87559897D01*
X115151247Y-87486934D01*
X115151248Y-87486934D01*
X114918052Y-87450000D01*
X114681948Y-87450000D01*
X114448752Y-87486934D01*
X114224197Y-87559897D01*
X114013830Y-87667084D01*
X113930894Y-87727340D01*
X114629766Y-88426212D01*
X114587708Y-88437482D01*
X114462292Y-88509890D01*
X114359890Y-88612292D01*
X114287482Y-88737708D01*
X114276212Y-88779766D01*
X113577340Y-88080894D01*
X113517084Y-88163830D01*
X113409897Y-88374197D01*
X113336934Y-88598752D01*
X113300000Y-88831947D01*
X109800000Y-88831947D01*
X109763065Y-88598752D01*
X109690102Y-88374197D01*
X109582914Y-88163828D01*
X109522658Y-88080894D01*
X109522658Y-88080893D01*
X108823787Y-88779765D01*
X108812518Y-88737708D01*
X108740110Y-88612292D01*
X108637708Y-88509890D01*
X108512292Y-88437482D01*
X108470234Y-88426212D01*
X109169105Y-87727340D01*
X109169104Y-87727339D01*
X109086174Y-87667087D01*
X108875802Y-87559897D01*
X108651247Y-87486934D01*
X108651248Y-87486934D01*
X108418052Y-87450000D01*
X108181948Y-87450000D01*
X107948752Y-87486934D01*
X107724197Y-87559897D01*
X107513830Y-87667084D01*
X107430894Y-87727340D01*
X108129766Y-88426212D01*
X108087708Y-88437482D01*
X107962292Y-88509890D01*
X107859890Y-88612292D01*
X107787482Y-88737708D01*
X107776212Y-88779766D01*
X107077340Y-88080894D01*
X107017084Y-88163830D01*
X106909897Y-88374197D01*
X106836934Y-88598752D01*
X106800000Y-88831947D01*
X96831183Y-88831947D01*
X95861516Y-87862280D01*
X92702798Y-84703563D01*
X92669313Y-84642240D01*
X92672547Y-84577566D01*
X92713553Y-84451368D01*
X92738623Y-84293084D01*
X92750500Y-84218097D01*
X92750500Y-83981902D01*
X92713553Y-83748631D01*
X92655780Y-83570827D01*
X92640568Y-83524008D01*
X92640566Y-83524005D01*
X92640566Y-83524003D01*
X92584002Y-83412991D01*
X92533343Y-83313567D01*
X92394517Y-83122490D01*
X92227510Y-82955483D01*
X92036433Y-82816657D01*
X91825996Y-82709433D01*
X91601368Y-82636446D01*
X91368097Y-82599500D01*
X91368092Y-82599500D01*
X91131908Y-82599500D01*
X91131903Y-82599500D01*
X90898631Y-82636446D01*
X90674003Y-82709433D01*
X90463566Y-82816657D01*
X90354550Y-82895862D01*
X90272490Y-82955483D01*
X90272488Y-82955485D01*
X90272487Y-82955485D01*
X90105485Y-83122487D01*
X90105485Y-83122488D01*
X90105483Y-83122490D01*
X90085859Y-83149500D01*
X89966657Y-83313566D01*
X89906417Y-83431795D01*
X89858442Y-83482591D01*
X89795932Y-83499500D01*
X86204068Y-83499500D01*
X86137029Y-83479815D01*
X86093583Y-83431795D01*
X86033343Y-83313567D01*
X85894517Y-83122490D01*
X85727510Y-82955483D01*
X85536433Y-82816657D01*
X85325996Y-82709433D01*
X85101368Y-82636446D01*
X84868097Y-82599500D01*
X84868092Y-82599500D01*
X84631908Y-82599500D01*
X84631903Y-82599500D01*
X84398631Y-82636446D01*
X84174003Y-82709433D01*
X83963566Y-82816657D01*
X83854550Y-82895862D01*
X83772490Y-82955483D01*
X83772488Y-82955485D01*
X83772487Y-82955485D01*
X83605485Y-83122487D01*
X83605485Y-83122488D01*
X83605483Y-83122490D01*
X83585859Y-83149500D01*
X83466657Y-83313566D01*
X83359433Y-83524003D01*
X83286446Y-83748631D01*
X83249500Y-83981902D01*
X79800500Y-83981902D01*
X79800500Y-79131947D01*
X95400000Y-79131947D01*
X95400000Y-79368052D01*
X95436934Y-79601247D01*
X95509897Y-79825802D01*
X95617087Y-80036174D01*
X95677338Y-80119104D01*
X95677340Y-80119105D01*
X96376212Y-79420233D01*
X96387482Y-79462292D01*
X96459890Y-79587708D01*
X96562292Y-79690110D01*
X96687708Y-79762518D01*
X96729765Y-79773787D01*
X96030893Y-80472658D01*
X96113828Y-80532914D01*
X96324197Y-80640102D01*
X96548752Y-80713065D01*
X96548751Y-80713065D01*
X96781948Y-80750000D01*
X97018052Y-80750000D01*
X97251247Y-80713065D01*
X97475802Y-80640102D01*
X97686163Y-80532918D01*
X97686169Y-80532914D01*
X97769104Y-80472658D01*
X97769105Y-80472658D01*
X97070233Y-79773787D01*
X97112292Y-79762518D01*
X97237708Y-79690110D01*
X97340110Y-79587708D01*
X97412518Y-79462292D01*
X97423787Y-79420234D01*
X98122658Y-80119105D01*
X98122658Y-80119104D01*
X98182914Y-80036169D01*
X98182918Y-80036163D01*
X98290102Y-79825802D01*
X98363065Y-79601247D01*
X98400000Y-79368052D01*
X98400000Y-79131947D01*
X101900000Y-79131947D01*
X101900000Y-79368052D01*
X101936934Y-79601247D01*
X102009897Y-79825802D01*
X102117087Y-80036174D01*
X102177338Y-80119104D01*
X102177340Y-80119105D01*
X102876212Y-79420233D01*
X102887482Y-79462292D01*
X102959890Y-79587708D01*
X103062292Y-79690110D01*
X103187708Y-79762518D01*
X103229765Y-79773787D01*
X102530893Y-80472658D01*
X102613828Y-80532914D01*
X102824197Y-80640102D01*
X103048752Y-80713065D01*
X103048751Y-80713065D01*
X103281948Y-80750000D01*
X103518052Y-80750000D01*
X103751247Y-80713065D01*
X103975802Y-80640102D01*
X104186163Y-80532918D01*
X104186169Y-80532914D01*
X104269104Y-80472658D01*
X104269105Y-80472658D01*
X103570233Y-79773787D01*
X103612292Y-79762518D01*
X103737708Y-79690110D01*
X103840110Y-79587708D01*
X103912518Y-79462292D01*
X103923787Y-79420233D01*
X104622658Y-80119105D01*
X104622658Y-80119104D01*
X104682914Y-80036169D01*
X104682918Y-80036163D01*
X104790102Y-79825802D01*
X104863065Y-79601247D01*
X104900000Y-79368052D01*
X104900000Y-79131947D01*
X104863065Y-78898752D01*
X104790102Y-78674197D01*
X104682914Y-78463828D01*
X104622658Y-78380894D01*
X104622658Y-78380893D01*
X103923787Y-79079765D01*
X103912518Y-79037708D01*
X103840110Y-78912292D01*
X103737708Y-78809890D01*
X103612292Y-78737482D01*
X103570234Y-78726212D01*
X104269105Y-78027340D01*
X104269104Y-78027338D01*
X104186174Y-77967087D01*
X103975802Y-77859897D01*
X103751247Y-77786934D01*
X103751248Y-77786934D01*
X103518052Y-77750000D01*
X103281948Y-77750000D01*
X103048752Y-77786934D01*
X102824197Y-77859897D01*
X102613830Y-77967084D01*
X102530894Y-78027340D01*
X103229766Y-78726212D01*
X103187708Y-78737482D01*
X103062292Y-78809890D01*
X102959890Y-78912292D01*
X102887482Y-79037708D01*
X102876212Y-79079766D01*
X102177340Y-78380894D01*
X102117084Y-78463830D01*
X102009897Y-78674197D01*
X101936934Y-78898752D01*
X101900000Y-79131947D01*
X98400000Y-79131947D01*
X98363065Y-78898752D01*
X98290102Y-78674197D01*
X98182914Y-78463828D01*
X98122658Y-78380894D01*
X98122658Y-78380893D01*
X97423787Y-79079765D01*
X97412518Y-79037708D01*
X97340110Y-78912292D01*
X97237708Y-78809890D01*
X97112292Y-78737482D01*
X97070234Y-78726212D01*
X97769105Y-78027340D01*
X97769104Y-78027339D01*
X97686174Y-77967087D01*
X97475802Y-77859897D01*
X97251247Y-77786934D01*
X97251248Y-77786934D01*
X97018052Y-77750000D01*
X96781948Y-77750000D01*
X96548752Y-77786934D01*
X96324197Y-77859897D01*
X96113830Y-77967084D01*
X96030894Y-78027340D01*
X96729766Y-78726212D01*
X96687708Y-78737482D01*
X96562292Y-78809890D01*
X96459890Y-78912292D01*
X96387482Y-79037708D01*
X96376212Y-79079765D01*
X95677340Y-78380894D01*
X95617084Y-78463830D01*
X95509897Y-78674197D01*
X95436934Y-78898752D01*
X95400000Y-79131947D01*
X79800500Y-79131947D01*
X79800500Y-74631902D01*
X95399500Y-74631902D01*
X95399500Y-74868097D01*
X95436446Y-75101368D01*
X95509433Y-75325996D01*
X95588490Y-75481153D01*
X95616657Y-75536433D01*
X95755483Y-75727510D01*
X95922490Y-75894517D01*
X96113567Y-76033343D01*
X96212991Y-76084002D01*
X96324003Y-76140566D01*
X96324005Y-76140566D01*
X96324008Y-76140568D01*
X96390209Y-76162078D01*
X96548631Y-76213553D01*
X96781903Y-76250500D01*
X96781908Y-76250500D01*
X97018097Y-76250500D01*
X97251368Y-76213553D01*
X97251371Y-76213552D01*
X97475992Y-76140568D01*
X97686433Y-76033343D01*
X97877510Y-75894517D01*
X98044517Y-75727510D01*
X98183343Y-75536433D01*
X98243583Y-75418204D01*
X98291558Y-75367409D01*
X98354068Y-75350500D01*
X101945932Y-75350500D01*
X102012971Y-75370185D01*
X102056416Y-75418203D01*
X102116657Y-75536433D01*
X102255483Y-75727510D01*
X102422490Y-75894517D01*
X102613567Y-76033343D01*
X102712991Y-76084002D01*
X102824003Y-76140566D01*
X102824005Y-76140566D01*
X102824008Y-76140568D01*
X102890209Y-76162078D01*
X103048631Y-76213553D01*
X103281903Y-76250500D01*
X103281908Y-76250500D01*
X103518097Y-76250500D01*
X103751368Y-76213553D01*
X103751371Y-76213552D01*
X103975992Y-76140568D01*
X104186433Y-76033343D01*
X104377510Y-75894517D01*
X104544517Y-75727510D01*
X104683343Y-75536433D01*
X104790568Y-75325992D01*
X104863553Y-75101368D01*
X104884935Y-74966367D01*
X104900500Y-74868097D01*
X104900500Y-74631902D01*
X104872781Y-74456896D01*
X104863553Y-74398632D01*
X104822547Y-74272433D01*
X104820553Y-74202593D01*
X104852796Y-74146437D01*
X105307016Y-73692219D01*
X105368339Y-73658734D01*
X105394697Y-73655900D01*
X164231900Y-73655900D01*
X164298939Y-73675585D01*
X164344694Y-73728389D01*
X164355900Y-73779900D01*
X164355900Y-75131470D01*
X164355901Y-75131476D01*
X164362308Y-75191083D01*
X164412602Y-75325928D01*
X164412603Y-75325930D01*
X164479797Y-75415689D01*
X164504214Y-75481153D01*
X164489363Y-75549426D01*
X164479797Y-75564311D01*
X164412603Y-75654069D01*
X164412602Y-75654071D01*
X164362308Y-75788917D01*
X164355901Y-75848516D01*
X164355900Y-75848527D01*
X164355900Y-76680958D01*
X164355901Y-77410900D01*
X164336216Y-77477939D01*
X164283413Y-77523694D01*
X164231901Y-77534900D01*
X121201269Y-77534900D01*
X121201253Y-77534899D01*
X121193657Y-77534899D01*
X121035543Y-77534899D01*
X120928187Y-77563665D01*
X120882810Y-77575824D01*
X120882809Y-77575825D01*
X120832696Y-77604759D01*
X120832695Y-77604760D01*
X120789289Y-77629820D01*
X120745885Y-77654879D01*
X120745882Y-77654881D01*
X120634078Y-77766686D01*
X115403563Y-82997200D01*
X115342240Y-83030685D01*
X115277564Y-83027450D01*
X115151370Y-82986447D01*
X114918097Y-82949500D01*
X114918092Y-82949500D01*
X114681908Y-82949500D01*
X114681903Y-82949500D01*
X114448631Y-82986446D01*
X114224003Y-83059433D01*
X114013566Y-83166657D01*
X113911791Y-83240602D01*
X113822490Y-83305483D01*
X113822488Y-83305485D01*
X113822487Y-83305485D01*
X113655485Y-83472487D01*
X113655485Y-83472488D01*
X113655483Y-83472490D01*
X113595862Y-83554550D01*
X113516657Y-83663566D01*
X113515898Y-83665056D01*
X113462333Y-83770185D01*
X113456417Y-83781795D01*
X113408442Y-83832591D01*
X113345932Y-83849500D01*
X109754068Y-83849500D01*
X109687029Y-83829815D01*
X109643583Y-83781795D01*
X109583343Y-83663567D01*
X109444517Y-83472490D01*
X109277510Y-83305483D01*
X109086433Y-83166657D01*
X108875996Y-83059433D01*
X108651368Y-82986446D01*
X108418097Y-82949500D01*
X108418092Y-82949500D01*
X108181908Y-82949500D01*
X108181903Y-82949500D01*
X107948631Y-82986446D01*
X107724003Y-83059433D01*
X107513566Y-83166657D01*
X107411791Y-83240602D01*
X107322490Y-83305483D01*
X107322488Y-83305485D01*
X107322487Y-83305485D01*
X107155485Y-83472487D01*
X107155485Y-83472488D01*
X107155483Y-83472490D01*
X107095862Y-83554550D01*
X107016657Y-83663566D01*
X106909433Y-83874003D01*
X106836446Y-84098631D01*
X106799500Y-84331902D01*
X106799500Y-84568097D01*
X106836446Y-84801368D01*
X106909433Y-85025996D01*
X106977230Y-85159054D01*
X107016657Y-85236433D01*
X107155483Y-85427510D01*
X107322490Y-85594517D01*
X107513567Y-85733343D01*
X107612991Y-85784002D01*
X107724003Y-85840566D01*
X107724005Y-85840566D01*
X107724008Y-85840568D01*
X107843899Y-85879523D01*
X107948631Y-85913553D01*
X108181903Y-85950500D01*
X108181908Y-85950500D01*
X108418097Y-85950500D01*
X108651368Y-85913553D01*
X108875992Y-85840568D01*
X109086433Y-85733343D01*
X109277510Y-85594517D01*
X109444517Y-85427510D01*
X109583343Y-85236433D01*
X109643583Y-85118204D01*
X109691558Y-85067409D01*
X109754068Y-85050500D01*
X113345932Y-85050500D01*
X113412971Y-85070185D01*
X113456416Y-85118203D01*
X113516657Y-85236433D01*
X113655483Y-85427510D01*
X113822490Y-85594517D01*
X114013567Y-85733343D01*
X114112991Y-85784002D01*
X114224003Y-85840566D01*
X114224005Y-85840566D01*
X114224008Y-85840568D01*
X114343899Y-85879523D01*
X114448631Y-85913553D01*
X114681903Y-85950500D01*
X114681908Y-85950500D01*
X114918097Y-85950500D01*
X115151368Y-85913553D01*
X115375992Y-85840568D01*
X115586433Y-85733343D01*
X115777510Y-85594517D01*
X115944517Y-85427510D01*
X116083343Y-85236433D01*
X116190568Y-85025992D01*
X116263553Y-84801368D01*
X116266953Y-84779902D01*
X116300500Y-84568097D01*
X116300500Y-84331902D01*
X116263553Y-84098635D01*
X116263553Y-84098632D01*
X116222547Y-83972433D01*
X116220553Y-83902593D01*
X116252796Y-83846437D01*
X121327016Y-78772219D01*
X121388339Y-78738734D01*
X121414697Y-78735900D01*
X158131302Y-78735900D01*
X158198341Y-78755585D01*
X158244096Y-78808389D01*
X158254040Y-78877547D01*
X158225015Y-78941103D01*
X158218983Y-78947581D01*
X150379384Y-86787181D01*
X150318061Y-86820666D01*
X150291703Y-86823500D01*
X144879766Y-86823500D01*
X144812727Y-86803815D01*
X144810875Y-86802602D01*
X144679185Y-86714609D01*
X144679172Y-86714602D01*
X144533501Y-86654264D01*
X144533489Y-86654261D01*
X144378845Y-86623500D01*
X144378842Y-86623500D01*
X144221158Y-86623500D01*
X144221155Y-86623500D01*
X144066510Y-86654261D01*
X144066498Y-86654264D01*
X143920827Y-86714602D01*
X143920816Y-86714608D01*
X143791439Y-86801055D01*
X143724762Y-86821932D01*
X143657382Y-86803447D01*
X143634868Y-86785633D01*
X142689803Y-85840568D01*
X141716819Y-84867583D01*
X141683334Y-84806260D01*
X141680500Y-84779902D01*
X141680500Y-82210718D01*
X141700185Y-82143679D01*
X141748207Y-82100233D01*
X141787815Y-82080052D01*
X141787815Y-82080051D01*
X141787816Y-82080051D01*
X141879193Y-82013661D01*
X141959786Y-81955109D01*
X141959788Y-81955106D01*
X141959792Y-81955104D01*
X142110104Y-81804792D01*
X142110106Y-81804788D01*
X142110109Y-81804786D01*
X142235048Y-81632820D01*
X142235047Y-81632820D01*
X142235051Y-81632816D01*
X142239514Y-81624054D01*
X142287488Y-81573259D01*
X142355308Y-81556463D01*
X142421444Y-81578999D01*
X142460486Y-81624056D01*
X142464951Y-81632820D01*
X142589890Y-81804786D01*
X142740213Y-81955109D01*
X142912179Y-82080048D01*
X142912181Y-82080049D01*
X142912184Y-82080051D01*
X143101588Y-82176557D01*
X143303757Y-82242246D01*
X143513713Y-82275500D01*
X143513714Y-82275500D01*
X143726286Y-82275500D01*
X143726287Y-82275500D01*
X143936243Y-82242246D01*
X144138412Y-82176557D01*
X144327816Y-82080051D01*
X144414471Y-82017093D01*
X144499786Y-81955109D01*
X144499788Y-81955106D01*
X144499792Y-81955104D01*
X144650104Y-81804792D01*
X144650106Y-81804788D01*
X144650109Y-81804786D01*
X144775048Y-81632820D01*
X144775047Y-81632820D01*
X144775051Y-81632816D01*
X144871557Y-81443412D01*
X144937246Y-81241243D01*
X144970500Y-81031287D01*
X144970500Y-80818713D01*
X144937246Y-80608757D01*
X144871557Y-80406588D01*
X144775051Y-80217184D01*
X144775049Y-80217181D01*
X144775048Y-80217179D01*
X144650109Y-80045213D01*
X144499786Y-79894890D01*
X144327820Y-79769951D01*
X144138414Y-79673444D01*
X144138413Y-79673443D01*
X144138412Y-79673443D01*
X143936243Y-79607754D01*
X143936241Y-79607753D01*
X143936240Y-79607753D01*
X143774957Y-79582208D01*
X143726287Y-79574500D01*
X143513713Y-79574500D01*
X143465042Y-79582208D01*
X143303760Y-79607753D01*
X143303757Y-79607754D01*
X143106679Y-79671789D01*
X143101585Y-79673444D01*
X142912179Y-79769951D01*
X142740213Y-79894890D01*
X142589890Y-80045213D01*
X142464949Y-80217182D01*
X142460484Y-80225946D01*
X142412509Y-80276742D01*
X142344688Y-80293536D01*
X142278553Y-80270998D01*
X142239516Y-80225946D01*
X142235050Y-80217182D01*
X142110109Y-80045213D01*
X141959786Y-79894890D01*
X141787820Y-79769951D01*
X141598414Y-79673444D01*
X141598413Y-79673443D01*
X141598412Y-79673443D01*
X141396243Y-79607754D01*
X141396241Y-79607753D01*
X141396240Y-79607753D01*
X141234957Y-79582208D01*
X141186287Y-79574500D01*
X140973713Y-79574500D01*
X140925042Y-79582208D01*
X140763760Y-79607753D01*
X140763757Y-79607754D01*
X140566679Y-79671789D01*
X140561585Y-79673444D01*
X140372179Y-79769951D01*
X140200213Y-79894890D01*
X140049890Y-80045213D01*
X139924949Y-80217182D01*
X139920484Y-80225946D01*
X139872509Y-80276742D01*
X139804688Y-80293536D01*
X139738553Y-80270998D01*
X139699516Y-80225946D01*
X139695050Y-80217182D01*
X139570109Y-80045213D01*
X139419786Y-79894890D01*
X139247820Y-79769951D01*
X139058414Y-79673444D01*
X139058413Y-79673443D01*
X139058412Y-79673443D01*
X138856243Y-79607754D01*
X138856241Y-79607753D01*
X138856240Y-79607753D01*
X138694957Y-79582208D01*
X138646287Y-79574500D01*
X138433713Y-79574500D01*
X138385042Y-79582208D01*
X138223760Y-79607753D01*
X138223757Y-79607754D01*
X138026679Y-79671789D01*
X138021585Y-79673444D01*
X137832179Y-79769951D01*
X137660215Y-79894889D01*
X137546285Y-80008819D01*
X137484962Y-80042303D01*
X137415270Y-80037319D01*
X137359337Y-79995447D01*
X137342422Y-79964470D01*
X137293354Y-79832913D01*
X137293350Y-79832906D01*
X137207190Y-79717812D01*
X137207187Y-79717809D01*
X137092093Y-79631649D01*
X137092086Y-79631645D01*
X136957379Y-79581403D01*
X136957372Y-79581401D01*
X136897844Y-79575000D01*
X136250000Y-79575000D01*
X136250000Y-80491988D01*
X136192993Y-80459075D01*
X136065826Y-80425000D01*
X135934174Y-80425000D01*
X135807007Y-80459075D01*
X135750000Y-80491988D01*
X135750000Y-79575000D01*
X135102155Y-79575000D01*
X135042627Y-79581401D01*
X135042620Y-79581403D01*
X134907913Y-79631645D01*
X134907906Y-79631649D01*
X134792812Y-79717809D01*
X134792809Y-79717812D01*
X134706649Y-79832906D01*
X134706645Y-79832913D01*
X134656403Y-79967620D01*
X134656401Y-79967627D01*
X134650000Y-80027155D01*
X134650000Y-80675000D01*
X135566988Y-80675000D01*
X135534075Y-80732007D01*
X135500000Y-80859174D01*
X135500000Y-80990826D01*
X135534075Y-81117993D01*
X135566988Y-81175000D01*
X134650000Y-81175000D01*
X134650000Y-81822844D01*
X134656401Y-81882372D01*
X134656403Y-81882379D01*
X134706645Y-82017086D01*
X134706649Y-82017093D01*
X134792809Y-82132187D01*
X134792812Y-82132190D01*
X134907906Y-82218350D01*
X134907913Y-82218354D01*
X135042620Y-82268596D01*
X135042627Y-82268598D01*
X135102155Y-82274999D01*
X135102172Y-82275000D01*
X135750000Y-82275000D01*
X135750000Y-81358012D01*
X135807007Y-81390925D01*
X135934174Y-81425000D01*
X136065826Y-81425000D01*
X136192993Y-81390925D01*
X136250000Y-81358012D01*
X136250000Y-82275000D01*
X136897828Y-82275000D01*
X136897844Y-82274999D01*
X136957372Y-82268598D01*
X136957379Y-82268596D01*
X137092086Y-82218354D01*
X137092093Y-82218350D01*
X137207187Y-82132190D01*
X137207190Y-82132187D01*
X137293350Y-82017093D01*
X137293354Y-82017086D01*
X137342422Y-81885529D01*
X137384293Y-81829595D01*
X137449757Y-81805178D01*
X137518030Y-81820030D01*
X137546285Y-81841181D01*
X137660213Y-81955109D01*
X137832179Y-82080048D01*
X137832181Y-82080049D01*
X137832184Y-82080051D01*
X138021588Y-82176557D01*
X138223757Y-82242246D01*
X138433713Y-82275500D01*
X138433714Y-82275500D01*
X138646286Y-82275500D01*
X138646287Y-82275500D01*
X138856243Y-82242246D01*
X139058412Y-82176557D01*
X139247816Y-82080051D01*
X139334471Y-82017093D01*
X139419786Y-81955109D01*
X139419788Y-81955106D01*
X139419792Y-81955104D01*
X139570104Y-81804792D01*
X139570106Y-81804788D01*
X139570109Y-81804786D01*
X139695048Y-81632820D01*
X139695047Y-81632820D01*
X139695051Y-81632816D01*
X139699514Y-81624054D01*
X139747488Y-81573259D01*
X139815308Y-81556463D01*
X139881444Y-81578999D01*
X139920486Y-81624056D01*
X139924951Y-81632820D01*
X140049890Y-81804786D01*
X140200213Y-81955109D01*
X140372184Y-82080051D01*
X140372184Y-82080052D01*
X140411793Y-82100233D01*
X140462590Y-82148206D01*
X140479500Y-82210718D01*
X140479500Y-84993330D01*
X140479499Y-84993348D01*
X140479499Y-85159054D01*
X140479498Y-85159054D01*
X140502398Y-85244517D01*
X140520423Y-85311785D01*
X140542339Y-85349744D01*
X140587238Y-85427512D01*
X140599479Y-85448714D01*
X140599481Y-85448717D01*
X140718349Y-85567585D01*
X140718354Y-85567589D01*
X143655284Y-88504520D01*
X143655286Y-88504521D01*
X143655290Y-88504524D01*
X143792209Y-88583573D01*
X143792216Y-88583577D01*
X143944943Y-88624501D01*
X143944945Y-88624501D01*
X144110654Y-88624501D01*
X144110670Y-88624500D01*
X145282152Y-88624500D01*
X145349191Y-88644185D01*
X145394946Y-88696989D01*
X145403769Y-88724308D01*
X145430261Y-88857491D01*
X145430264Y-88857501D01*
X145490602Y-89003172D01*
X145490609Y-89003185D01*
X145578210Y-89134288D01*
X145578213Y-89134292D01*
X145689707Y-89245786D01*
X145689711Y-89245789D01*
X145820814Y-89333390D01*
X145820827Y-89333397D01*
X145966498Y-89393735D01*
X145966503Y-89393737D01*
X146121153Y-89424499D01*
X146121156Y-89424500D01*
X146121158Y-89424500D01*
X146278844Y-89424500D01*
X146278845Y-89424499D01*
X146433497Y-89393737D01*
X146579179Y-89333394D01*
X146623838Y-89303554D01*
X146710875Y-89245398D01*
X146777553Y-89224520D01*
X146779766Y-89224500D01*
X150439331Y-89224500D01*
X150439347Y-89224501D01*
X150446943Y-89224501D01*
X150605054Y-89224501D01*
X150605057Y-89224501D01*
X150757785Y-89183577D01*
X150807904Y-89154639D01*
X150894716Y-89104520D01*
X151006520Y-88992716D01*
X151006520Y-88992714D01*
X151016728Y-88982507D01*
X151016729Y-88982504D01*
X156212416Y-83786819D01*
X156273739Y-83753334D01*
X156300097Y-83750500D01*
X164319566Y-83750500D01*
X164386605Y-83770185D01*
X164432360Y-83822989D01*
X164442304Y-83892147D01*
X164437497Y-83912818D01*
X164389489Y-84060571D01*
X164370019Y-84183501D01*
X164355900Y-84272643D01*
X164355900Y-84487357D01*
X164368687Y-84568092D01*
X164389489Y-84699428D01*
X164455837Y-84903630D01*
X164455838Y-84903633D01*
X164539287Y-85067409D01*
X164553317Y-85094944D01*
X164679523Y-85268651D01*
X164831349Y-85420477D01*
X164971837Y-85522548D01*
X165008998Y-85549547D01*
X165007624Y-85551437D01*
X165048030Y-85596152D01*
X165059411Y-85665089D01*
X165031715Y-85729235D01*
X165008314Y-85749511D01*
X165008998Y-85750453D01*
X165005056Y-85753316D01*
X165005056Y-85753317D01*
X164831349Y-85879523D01*
X164831347Y-85879525D01*
X164831346Y-85879525D01*
X164679525Y-86031346D01*
X164679525Y-86031347D01*
X164679523Y-86031349D01*
X164625322Y-86105949D01*
X164553317Y-86205055D01*
X164455838Y-86396366D01*
X164455837Y-86396369D01*
X164389489Y-86600571D01*
X164355900Y-86812643D01*
X164355900Y-87027356D01*
X164389489Y-87239428D01*
X164455837Y-87443630D01*
X164455838Y-87443633D01*
X164553317Y-87634944D01*
X164679523Y-87808651D01*
X164831349Y-87960477D01*
X165005056Y-88086683D01*
X165098888Y-88134492D01*
X165196366Y-88184161D01*
X165196369Y-88184162D01*
X165298470Y-88217336D01*
X165400573Y-88250511D01*
X165612643Y-88284100D01*
X165612644Y-88284100D01*
X165827356Y-88284100D01*
X165827357Y-88284100D01*
X166039427Y-88250511D01*
X166243633Y-88184161D01*
X166434944Y-88086683D01*
X166608651Y-87960477D01*
X166703097Y-87866030D01*
X166764416Y-87832548D01*
X166834108Y-87837532D01*
X166890042Y-87879403D01*
X166914459Y-87944867D01*
X166913248Y-87973112D01*
X166895900Y-88082643D01*
X166895900Y-88297356D01*
X166929489Y-88509428D01*
X166995837Y-88713630D01*
X166995838Y-88713633D01*
X167079380Y-88877591D01*
X167093317Y-88904944D01*
X167219523Y-89078651D01*
X167371349Y-89230477D01*
X167545056Y-89356683D01*
X167638888Y-89404492D01*
X167736366Y-89454161D01*
X167736369Y-89454162D01*
X167838470Y-89487336D01*
X167940573Y-89520511D01*
X168152643Y-89554100D01*
X168152644Y-89554100D01*
X168367356Y-89554100D01*
X168367357Y-89554100D01*
X168579427Y-89520511D01*
X168783633Y-89454161D01*
X168974944Y-89356683D01*
X169148651Y-89230477D01*
X169300477Y-89078651D01*
X169426683Y-88904944D01*
X169426683Y-88904943D01*
X169429547Y-88901002D01*
X169431478Y-88902405D01*
X169475927Y-88862078D01*
X169544840Y-88850558D01*
X169609042Y-88878125D01*
X169629478Y-88901709D01*
X169630453Y-88901002D01*
X169633316Y-88904943D01*
X169633317Y-88904944D01*
X169759523Y-89078651D01*
X169911349Y-89230477D01*
X170085056Y-89356683D01*
X170178888Y-89404492D01*
X170276366Y-89454161D01*
X170276369Y-89454162D01*
X170378470Y-89487336D01*
X170480573Y-89520511D01*
X170692643Y-89554100D01*
X170692644Y-89554100D01*
X170907356Y-89554100D01*
X170907357Y-89554100D01*
X171119427Y-89520511D01*
X171323633Y-89454161D01*
X171514944Y-89356683D01*
X171688651Y-89230477D01*
X171840477Y-89078651D01*
X171966683Y-88904944D01*
X171966683Y-88904943D01*
X171969547Y-88901002D01*
X171971478Y-88902405D01*
X172015927Y-88862078D01*
X172084840Y-88850558D01*
X172149042Y-88878125D01*
X172169478Y-88901709D01*
X172170453Y-88901002D01*
X172173316Y-88904943D01*
X172173317Y-88904944D01*
X172299523Y-89078651D01*
X172451349Y-89230477D01*
X172625056Y-89356683D01*
X172718888Y-89404492D01*
X172816366Y-89454161D01*
X172816369Y-89454162D01*
X172918470Y-89487336D01*
X173020573Y-89520511D01*
X173232643Y-89554100D01*
X173232644Y-89554100D01*
X173447356Y-89554100D01*
X173447357Y-89554100D01*
X173659427Y-89520511D01*
X173863633Y-89454161D01*
X174054944Y-89356683D01*
X174228651Y-89230477D01*
X174324954Y-89134173D01*
X174386273Y-89100691D01*
X174455965Y-89105675D01*
X174511899Y-89147546D01*
X174528814Y-89178524D01*
X174572602Y-89295928D01*
X174572606Y-89295935D01*
X174658852Y-89411144D01*
X174658855Y-89411147D01*
X174774064Y-89497393D01*
X174774071Y-89497397D01*
X174908917Y-89547691D01*
X174908916Y-89547691D01*
X174915844Y-89548435D01*
X174968527Y-89554100D01*
X176791472Y-89554099D01*
X176851083Y-89547691D01*
X176985931Y-89497396D01*
X177101146Y-89411146D01*
X177187396Y-89295931D01*
X177231186Y-89178523D01*
X177273055Y-89122591D01*
X177338519Y-89098173D01*
X177406792Y-89113024D01*
X177435048Y-89134176D01*
X177531349Y-89230477D01*
X177705056Y-89356683D01*
X177798888Y-89404492D01*
X177896366Y-89454161D01*
X177896369Y-89454162D01*
X177998470Y-89487336D01*
X178100573Y-89520511D01*
X178312643Y-89554100D01*
X178312644Y-89554100D01*
X178527356Y-89554100D01*
X178527357Y-89554100D01*
X178739427Y-89520511D01*
X178943633Y-89454161D01*
X179134944Y-89356683D01*
X179308651Y-89230477D01*
X179460477Y-89078651D01*
X179586683Y-88904944D01*
X179586683Y-88904943D01*
X179589547Y-88901002D01*
X179591478Y-88902405D01*
X179635927Y-88862078D01*
X179704840Y-88850558D01*
X179769042Y-88878125D01*
X179789478Y-88901709D01*
X179790453Y-88901002D01*
X179793316Y-88904943D01*
X179793317Y-88904944D01*
X179919523Y-89078651D01*
X180071349Y-89230477D01*
X180245056Y-89356683D01*
X180338888Y-89404492D01*
X180436366Y-89454161D01*
X180436369Y-89454162D01*
X180538470Y-89487336D01*
X180640573Y-89520511D01*
X180852643Y-89554100D01*
X180852644Y-89554100D01*
X181067356Y-89554100D01*
X181067357Y-89554100D01*
X181279427Y-89520511D01*
X181483633Y-89454161D01*
X181674944Y-89356683D01*
X181848651Y-89230477D01*
X182000477Y-89078651D01*
X182126683Y-88904944D01*
X182126683Y-88904943D01*
X182129547Y-88901002D01*
X182131478Y-88902405D01*
X182175927Y-88862078D01*
X182244840Y-88850558D01*
X182309042Y-88878125D01*
X182329478Y-88901709D01*
X182330453Y-88901002D01*
X182333316Y-88904943D01*
X182333317Y-88904944D01*
X182459523Y-89078651D01*
X182611349Y-89230477D01*
X182785056Y-89356683D01*
X182878888Y-89404492D01*
X182976366Y-89454161D01*
X182976369Y-89454162D01*
X183078470Y-89487336D01*
X183180573Y-89520511D01*
X183392643Y-89554100D01*
X183392644Y-89554100D01*
X183607356Y-89554100D01*
X183607357Y-89554100D01*
X183819427Y-89520511D01*
X184023633Y-89454161D01*
X184214944Y-89356683D01*
X184388651Y-89230477D01*
X184540477Y-89078651D01*
X184666683Y-88904944D01*
X184666683Y-88904943D01*
X184669547Y-88901002D01*
X184671478Y-88902405D01*
X184715927Y-88862078D01*
X184784840Y-88850558D01*
X184849042Y-88878125D01*
X184869478Y-88901709D01*
X184870453Y-88901002D01*
X184873316Y-88904943D01*
X184873317Y-88904944D01*
X184999523Y-89078651D01*
X185151349Y-89230477D01*
X185325056Y-89356683D01*
X185418888Y-89404492D01*
X185516366Y-89454161D01*
X185516369Y-89454162D01*
X185618470Y-89487336D01*
X185720573Y-89520511D01*
X185932643Y-89554100D01*
X185932644Y-89554100D01*
X186147356Y-89554100D01*
X186147357Y-89554100D01*
X186359427Y-89520511D01*
X186563633Y-89454161D01*
X186754944Y-89356683D01*
X186928651Y-89230477D01*
X187080477Y-89078651D01*
X187206683Y-88904944D01*
X187206683Y-88904943D01*
X187209547Y-88901002D01*
X187211478Y-88902405D01*
X187255927Y-88862078D01*
X187324840Y-88850558D01*
X187389042Y-88878125D01*
X187409478Y-88901709D01*
X187410453Y-88901002D01*
X187413316Y-88904943D01*
X187413317Y-88904944D01*
X187539523Y-89078651D01*
X187691349Y-89230477D01*
X187865056Y-89356683D01*
X187958888Y-89404492D01*
X188056366Y-89454161D01*
X188056369Y-89454162D01*
X188158470Y-89487336D01*
X188260573Y-89520511D01*
X188472643Y-89554100D01*
X188472644Y-89554100D01*
X188607302Y-89554100D01*
X188674341Y-89573785D01*
X188720096Y-89626589D01*
X188730040Y-89695747D01*
X188701015Y-89759303D01*
X188694983Y-89765781D01*
X173319481Y-105141282D01*
X173319479Y-105141285D01*
X173269361Y-105228094D01*
X173269359Y-105228096D01*
X173240425Y-105278209D01*
X173240424Y-105278210D01*
X173240423Y-105278215D01*
X173199499Y-105430943D01*
X173199499Y-105430945D01*
X173199499Y-105599046D01*
X173199500Y-105599059D01*
X173199500Y-105632152D01*
X173179815Y-105699191D01*
X173127011Y-105744946D01*
X173099692Y-105753769D01*
X172966508Y-105780261D01*
X172966498Y-105780264D01*
X172820827Y-105840602D01*
X172820814Y-105840609D01*
X172689125Y-105928602D01*
X172622447Y-105949480D01*
X172620234Y-105949500D01*
X109379057Y-105949500D01*
X109220943Y-105949500D01*
X109068215Y-105990423D01*
X109068214Y-105990423D01*
X109068212Y-105990424D01*
X109068209Y-105990425D01*
X109018096Y-106019359D01*
X109018095Y-106019360D01*
X108974689Y-106044420D01*
X108931285Y-106069479D01*
X108931282Y-106069481D01*
X108819478Y-106181286D01*
X104803563Y-110197200D01*
X104742240Y-110230685D01*
X104677564Y-110227450D01*
X104551370Y-110186447D01*
X104318097Y-110149500D01*
X104318092Y-110149500D01*
X104081908Y-110149500D01*
X104081903Y-110149500D01*
X103848631Y-110186446D01*
X103624003Y-110259433D01*
X103413566Y-110366657D01*
X103356783Y-110407913D01*
X103222490Y-110505483D01*
X103222488Y-110505485D01*
X103222487Y-110505485D01*
X103055485Y-110672487D01*
X103055485Y-110672488D01*
X103055483Y-110672490D01*
X102995862Y-110754550D01*
X102916657Y-110863566D01*
X102809433Y-111074003D01*
X102736446Y-111298631D01*
X102699500Y-111531902D01*
X102699500Y-111768097D01*
X102736446Y-112001368D01*
X102809433Y-112225996D01*
X102916657Y-112436433D01*
X103055483Y-112627510D01*
X103222490Y-112794517D01*
X103413567Y-112933343D01*
X103512991Y-112984002D01*
X103624003Y-113040566D01*
X103624005Y-113040566D01*
X103624008Y-113040568D01*
X103744412Y-113079689D01*
X103848631Y-113113553D01*
X104081903Y-113150500D01*
X104081908Y-113150500D01*
X104318097Y-113150500D01*
X104551368Y-113113553D01*
X104775992Y-113040568D01*
X104986433Y-112933343D01*
X105177510Y-112794517D01*
X105344517Y-112627510D01*
X105483343Y-112436433D01*
X105590568Y-112225992D01*
X105663553Y-112001368D01*
X105688637Y-111842993D01*
X105700500Y-111768097D01*
X105700500Y-111531902D01*
X105663553Y-111298635D01*
X105663553Y-111298632D01*
X105622547Y-111172433D01*
X105620553Y-111102593D01*
X105652796Y-111046437D01*
X109512416Y-107186819D01*
X109573739Y-107153334D01*
X109600097Y-107150500D01*
X172520943Y-107150500D01*
X172620234Y-107150500D01*
X172687273Y-107170185D01*
X172689125Y-107171398D01*
X172820814Y-107259390D01*
X172820827Y-107259397D01*
X172966498Y-107319735D01*
X172966503Y-107319737D01*
X173076987Y-107341713D01*
X173099691Y-107346230D01*
X173161602Y-107378615D01*
X173196176Y-107439330D01*
X173199500Y-107467847D01*
X173199500Y-108795931D01*
X173179815Y-108862970D01*
X173131796Y-108906415D01*
X173013568Y-108966655D01*
X172879896Y-109063774D01*
X172822490Y-109105483D01*
X172822488Y-109105485D01*
X172822487Y-109105485D01*
X172655485Y-109272487D01*
X172655485Y-109272488D01*
X172655483Y-109272490D01*
X172595862Y-109354550D01*
X172516657Y-109463566D01*
X172456417Y-109581795D01*
X172408442Y-109632591D01*
X172345932Y-109649500D01*
X168754068Y-109649500D01*
X168687029Y-109629815D01*
X168643583Y-109581795D01*
X168583342Y-109463566D01*
X168444517Y-109272490D01*
X168277510Y-109105483D01*
X168086433Y-108966657D01*
X168086429Y-108966655D01*
X167875996Y-108859433D01*
X167651368Y-108786446D01*
X167418097Y-108749500D01*
X167418092Y-108749500D01*
X167181908Y-108749500D01*
X167181903Y-108749500D01*
X166948631Y-108786446D01*
X166724003Y-108859433D01*
X166513566Y-108966657D01*
X166404550Y-109045862D01*
X166322490Y-109105483D01*
X166322488Y-109105485D01*
X166322487Y-109105485D01*
X166155485Y-109272487D01*
X166155485Y-109272488D01*
X166155483Y-109272490D01*
X166095862Y-109354550D01*
X166016657Y-109463566D01*
X165909433Y-109674003D01*
X165836446Y-109898631D01*
X165799500Y-110131902D01*
X165799500Y-110368097D01*
X165836446Y-110601368D01*
X165909433Y-110825996D01*
X166016657Y-111036433D01*
X166155483Y-111227510D01*
X166322490Y-111394517D01*
X166513567Y-111533343D01*
X166612991Y-111584002D01*
X166724003Y-111640566D01*
X166724005Y-111640566D01*
X166724008Y-111640568D01*
X166844412Y-111679689D01*
X166948631Y-111713553D01*
X167181903Y-111750500D01*
X167181908Y-111750500D01*
X167418097Y-111750500D01*
X167651368Y-111713553D01*
X167875992Y-111640568D01*
X168086433Y-111533343D01*
X168277510Y-111394517D01*
X168444517Y-111227510D01*
X168583343Y-111036433D01*
X168643583Y-110918204D01*
X168691558Y-110867409D01*
X168754068Y-110850500D01*
X172345932Y-110850500D01*
X172412971Y-110870185D01*
X172456416Y-110918203D01*
X172516657Y-111036433D01*
X172655483Y-111227510D01*
X172822490Y-111394517D01*
X173013567Y-111533343D01*
X173112991Y-111584002D01*
X173224003Y-111640566D01*
X173224005Y-111640566D01*
X173224008Y-111640568D01*
X173344412Y-111679689D01*
X173448631Y-111713553D01*
X173681903Y-111750500D01*
X173681908Y-111750500D01*
X173918097Y-111750500D01*
X174151368Y-111713553D01*
X174375992Y-111640568D01*
X174586433Y-111533343D01*
X174777510Y-111394517D01*
X174944517Y-111227510D01*
X175083343Y-111036433D01*
X175190568Y-110825992D01*
X175263553Y-110601368D01*
X175272858Y-110542620D01*
X175300500Y-110368097D01*
X175300500Y-110131902D01*
X175263553Y-109898631D01*
X175190566Y-109674003D01*
X175083342Y-109463566D01*
X174944517Y-109272490D01*
X174777510Y-109105483D01*
X174681971Y-109036070D01*
X174586431Y-108966655D01*
X174468204Y-108906415D01*
X174417409Y-108858441D01*
X174400500Y-108795931D01*
X174400500Y-105810096D01*
X174420185Y-105743057D01*
X174436814Y-105722420D01*
X175327287Y-104831947D01*
X181300000Y-104831947D01*
X181300000Y-105068052D01*
X181336934Y-105301247D01*
X181409897Y-105525802D01*
X181517087Y-105736174D01*
X181577338Y-105819104D01*
X181577340Y-105819105D01*
X182276212Y-105120233D01*
X182287482Y-105162292D01*
X182359890Y-105287708D01*
X182462292Y-105390110D01*
X182587708Y-105462518D01*
X182629765Y-105473787D01*
X181930893Y-106172658D01*
X182013828Y-106232914D01*
X182224197Y-106340102D01*
X182448752Y-106413065D01*
X182448751Y-106413065D01*
X182681948Y-106450000D01*
X182918052Y-106450000D01*
X183151247Y-106413065D01*
X183375802Y-106340102D01*
X183586163Y-106232918D01*
X183586169Y-106232914D01*
X183669104Y-106172658D01*
X183669105Y-106172658D01*
X182970233Y-105473787D01*
X183012292Y-105462518D01*
X183137708Y-105390110D01*
X183240110Y-105287708D01*
X183312518Y-105162292D01*
X183323787Y-105120233D01*
X184022658Y-105819105D01*
X184022658Y-105819104D01*
X184082914Y-105736169D01*
X184082918Y-105736163D01*
X184190102Y-105525802D01*
X184263065Y-105301247D01*
X184300000Y-105068052D01*
X184300000Y-104831947D01*
X187800000Y-104831947D01*
X187800000Y-105068052D01*
X187836934Y-105301247D01*
X187909897Y-105525802D01*
X188017087Y-105736174D01*
X188077338Y-105819104D01*
X188077340Y-105819105D01*
X188776212Y-105120233D01*
X188787482Y-105162292D01*
X188859890Y-105287708D01*
X188962292Y-105390110D01*
X189087708Y-105462518D01*
X189129765Y-105473787D01*
X188430893Y-106172658D01*
X188513828Y-106232914D01*
X188724197Y-106340102D01*
X188948752Y-106413065D01*
X188948751Y-106413065D01*
X189181948Y-106450000D01*
X189418052Y-106450000D01*
X189651247Y-106413065D01*
X189875802Y-106340102D01*
X190086163Y-106232918D01*
X190086169Y-106232914D01*
X190169104Y-106172658D01*
X190169105Y-106172658D01*
X189470233Y-105473787D01*
X189512292Y-105462518D01*
X189637708Y-105390110D01*
X189740110Y-105287708D01*
X189812518Y-105162292D01*
X189823787Y-105120234D01*
X190522658Y-105819105D01*
X190522658Y-105819104D01*
X190582914Y-105736169D01*
X190582918Y-105736163D01*
X190690102Y-105525802D01*
X190763065Y-105301247D01*
X190800000Y-105068052D01*
X190800000Y-104831947D01*
X190763065Y-104598752D01*
X190690102Y-104374197D01*
X190582914Y-104163828D01*
X190522658Y-104080894D01*
X190522658Y-104080893D01*
X189823787Y-104779765D01*
X189812518Y-104737708D01*
X189740110Y-104612292D01*
X189637708Y-104509890D01*
X189512292Y-104437482D01*
X189470234Y-104426212D01*
X190169105Y-103727340D01*
X190169104Y-103727338D01*
X190086174Y-103667087D01*
X189875802Y-103559897D01*
X189651247Y-103486934D01*
X189651248Y-103486934D01*
X189418052Y-103450000D01*
X189181948Y-103450000D01*
X188948752Y-103486934D01*
X188724197Y-103559897D01*
X188513830Y-103667084D01*
X188430894Y-103727340D01*
X189129766Y-104426212D01*
X189087708Y-104437482D01*
X188962292Y-104509890D01*
X188859890Y-104612292D01*
X188787482Y-104737708D01*
X188776212Y-104779766D01*
X188077340Y-104080894D01*
X188017084Y-104163830D01*
X187909897Y-104374197D01*
X187836934Y-104598752D01*
X187800000Y-104831947D01*
X184300000Y-104831947D01*
X184263065Y-104598752D01*
X184190102Y-104374197D01*
X184082914Y-104163828D01*
X184022658Y-104080894D01*
X184022658Y-104080893D01*
X183323787Y-104779765D01*
X183312518Y-104737708D01*
X183240110Y-104612292D01*
X183137708Y-104509890D01*
X183012292Y-104437482D01*
X182970234Y-104426212D01*
X183669105Y-103727340D01*
X183669104Y-103727339D01*
X183586174Y-103667087D01*
X183375802Y-103559897D01*
X183151247Y-103486934D01*
X183151248Y-103486934D01*
X182918052Y-103450000D01*
X182681948Y-103450000D01*
X182448752Y-103486934D01*
X182224197Y-103559897D01*
X182013830Y-103667084D01*
X181930894Y-103727340D01*
X182629766Y-104426212D01*
X182587708Y-104437482D01*
X182462292Y-104509890D01*
X182359890Y-104612292D01*
X182287482Y-104737708D01*
X182276212Y-104779765D01*
X181577340Y-104080894D01*
X181517084Y-104163830D01*
X181409897Y-104374197D01*
X181336934Y-104598752D01*
X181300000Y-104831947D01*
X175327287Y-104831947D01*
X179827332Y-100331902D01*
X181299500Y-100331902D01*
X181299500Y-100568097D01*
X181336446Y-100801368D01*
X181409433Y-101025996D01*
X181516657Y-101236433D01*
X181655483Y-101427510D01*
X181822490Y-101594517D01*
X182013567Y-101733343D01*
X182112991Y-101784002D01*
X182224003Y-101840566D01*
X182224005Y-101840566D01*
X182224008Y-101840568D01*
X182344412Y-101879689D01*
X182448631Y-101913553D01*
X182681903Y-101950500D01*
X182681908Y-101950500D01*
X182918097Y-101950500D01*
X183151368Y-101913553D01*
X183375992Y-101840568D01*
X183586433Y-101733343D01*
X183777510Y-101594517D01*
X183944517Y-101427510D01*
X184083343Y-101236433D01*
X184143583Y-101118204D01*
X184191558Y-101067409D01*
X184254068Y-101050500D01*
X187845932Y-101050500D01*
X187912971Y-101070185D01*
X187956416Y-101118203D01*
X188016657Y-101236433D01*
X188155483Y-101427510D01*
X188322490Y-101594517D01*
X188513567Y-101733343D01*
X188612991Y-101784002D01*
X188724003Y-101840566D01*
X188724005Y-101840566D01*
X188724008Y-101840568D01*
X188844412Y-101879689D01*
X188948631Y-101913553D01*
X189181903Y-101950500D01*
X189181908Y-101950500D01*
X189418097Y-101950500D01*
X189651368Y-101913553D01*
X189875992Y-101840568D01*
X190086433Y-101733343D01*
X190277510Y-101594517D01*
X190444517Y-101427510D01*
X190583343Y-101236433D01*
X190690568Y-101025992D01*
X190763553Y-100801368D01*
X190800500Y-100568097D01*
X190800500Y-100331902D01*
X190763553Y-100098631D01*
X190690566Y-99874003D01*
X190583342Y-99663566D01*
X190444517Y-99472490D01*
X190277510Y-99305483D01*
X190150308Y-99213065D01*
X190086431Y-99166655D01*
X189968204Y-99106415D01*
X189917409Y-99058441D01*
X189900500Y-98995931D01*
X189900500Y-93729765D01*
X189920185Y-93662726D01*
X189921398Y-93660874D01*
X190009390Y-93529185D01*
X190009390Y-93529184D01*
X190009394Y-93529179D01*
X190069737Y-93383497D01*
X190100500Y-93228842D01*
X190100500Y-93071158D01*
X190100500Y-93071155D01*
X190100499Y-93071153D01*
X190069737Y-92916503D01*
X190028314Y-92816498D01*
X190009397Y-92770827D01*
X190009390Y-92770814D01*
X189921789Y-92639711D01*
X189921786Y-92639707D01*
X189810292Y-92528213D01*
X189810288Y-92528210D01*
X189679185Y-92440609D01*
X189679172Y-92440602D01*
X189533501Y-92380264D01*
X189533489Y-92380261D01*
X189378845Y-92349500D01*
X189378842Y-92349500D01*
X189221158Y-92349500D01*
X189221155Y-92349500D01*
X189066510Y-92380261D01*
X189066498Y-92380264D01*
X188920827Y-92440602D01*
X188920814Y-92440609D01*
X188789711Y-92528210D01*
X188789707Y-92528213D01*
X188678213Y-92639707D01*
X188678210Y-92639711D01*
X188590609Y-92770814D01*
X188590602Y-92770827D01*
X188530264Y-92916498D01*
X188530261Y-92916510D01*
X188499500Y-93071153D01*
X188499500Y-93228846D01*
X188530261Y-93383489D01*
X188530264Y-93383501D01*
X188590602Y-93529172D01*
X188590609Y-93529185D01*
X188678602Y-93660874D01*
X188699480Y-93727551D01*
X188699500Y-93729765D01*
X188699500Y-98995931D01*
X188679815Y-99062970D01*
X188631796Y-99106415D01*
X188513568Y-99166655D01*
X188379896Y-99263774D01*
X188322490Y-99305483D01*
X188322488Y-99305485D01*
X188322487Y-99305485D01*
X188155485Y-99472487D01*
X188155485Y-99472488D01*
X188155483Y-99472490D01*
X188095862Y-99554550D01*
X188016657Y-99663566D01*
X187956417Y-99781795D01*
X187908442Y-99832591D01*
X187845932Y-99849500D01*
X184254068Y-99849500D01*
X184187029Y-99829815D01*
X184143583Y-99781795D01*
X184083342Y-99663566D01*
X183944517Y-99472490D01*
X183777510Y-99305483D01*
X183586433Y-99166657D01*
X183534316Y-99140102D01*
X183375996Y-99059433D01*
X183151368Y-98986446D01*
X182918097Y-98949500D01*
X182918092Y-98949500D01*
X182681908Y-98949500D01*
X182681903Y-98949500D01*
X182448631Y-98986446D01*
X182224003Y-99059433D01*
X182013566Y-99166657D01*
X181949692Y-99213065D01*
X181822490Y-99305483D01*
X181822488Y-99305485D01*
X181822487Y-99305485D01*
X181655485Y-99472487D01*
X181655485Y-99472488D01*
X181655483Y-99472490D01*
X181595862Y-99554550D01*
X181516657Y-99663566D01*
X181409433Y-99874003D01*
X181336446Y-100098631D01*
X181299500Y-100331902D01*
X179827332Y-100331902D01*
X190624685Y-89534548D01*
X190686006Y-89501065D01*
X190750681Y-89504299D01*
X190800573Y-89520511D01*
X191012643Y-89554100D01*
X191012644Y-89554100D01*
X191227356Y-89554100D01*
X191227357Y-89554100D01*
X191439427Y-89520511D01*
X191643633Y-89454161D01*
X191834944Y-89356683D01*
X192008651Y-89230477D01*
X192160477Y-89078651D01*
X192286683Y-88904944D01*
X192286683Y-88904943D01*
X192289547Y-88901002D01*
X192291478Y-88902405D01*
X192335927Y-88862078D01*
X192404840Y-88850558D01*
X192469042Y-88878125D01*
X192489478Y-88901709D01*
X192490453Y-88901002D01*
X192493316Y-88904943D01*
X192493317Y-88904944D01*
X192619523Y-89078651D01*
X192771349Y-89230477D01*
X192945056Y-89356683D01*
X193038888Y-89404492D01*
X193136366Y-89454161D01*
X193136369Y-89454162D01*
X193238470Y-89487336D01*
X193340573Y-89520511D01*
X193552643Y-89554100D01*
X193552644Y-89554100D01*
X193767356Y-89554100D01*
X193767357Y-89554100D01*
X193979427Y-89520511D01*
X194183633Y-89454161D01*
X194374944Y-89356683D01*
X194548651Y-89230477D01*
X194700477Y-89078651D01*
X194826683Y-88904944D01*
X194826683Y-88904943D01*
X194829547Y-88901002D01*
X194831478Y-88902405D01*
X194875927Y-88862078D01*
X194944840Y-88850558D01*
X195009042Y-88878125D01*
X195029478Y-88901709D01*
X195030453Y-88901002D01*
X195033316Y-88904943D01*
X195033317Y-88904944D01*
X195159523Y-89078651D01*
X195311349Y-89230477D01*
X195485056Y-89356683D01*
X195578888Y-89404492D01*
X195676366Y-89454161D01*
X195676369Y-89454162D01*
X195778470Y-89487336D01*
X195880573Y-89520511D01*
X196092643Y-89554100D01*
X196092644Y-89554100D01*
X196307356Y-89554100D01*
X196307357Y-89554100D01*
X196519427Y-89520511D01*
X196723633Y-89454161D01*
X196914944Y-89356683D01*
X197088651Y-89230477D01*
X197240477Y-89078651D01*
X197366683Y-88904944D01*
X197464161Y-88713633D01*
X197530511Y-88509427D01*
X197564100Y-88297357D01*
X197564100Y-88082643D01*
X197530511Y-87870573D01*
X197464161Y-87666367D01*
X197464161Y-87666366D01*
X197380266Y-87501715D01*
X197366683Y-87475056D01*
X197240477Y-87301349D01*
X197088651Y-87149523D01*
X196914944Y-87023317D01*
X196868203Y-86999501D01*
X196723633Y-86925838D01*
X196723630Y-86925837D01*
X196519428Y-86859489D01*
X196347821Y-86832309D01*
X196307357Y-86825900D01*
X196092643Y-86825900D01*
X196052185Y-86832308D01*
X195880571Y-86859489D01*
X195676369Y-86925837D01*
X195676366Y-86925838D01*
X195485055Y-87023317D01*
X195401433Y-87084073D01*
X195311349Y-87149523D01*
X195311347Y-87149525D01*
X195311346Y-87149525D01*
X195159525Y-87301346D01*
X195159525Y-87301347D01*
X195159523Y-87301349D01*
X195056147Y-87443633D01*
X195030453Y-87478998D01*
X195028562Y-87477624D01*
X194983848Y-87518030D01*
X194914911Y-87529411D01*
X194850765Y-87501715D01*
X194830488Y-87478314D01*
X194829547Y-87478998D01*
X194826682Y-87475055D01*
X194700477Y-87301349D01*
X194548651Y-87149523D01*
X194374944Y-87023317D01*
X194328203Y-86999501D01*
X194183633Y-86925838D01*
X194183630Y-86925837D01*
X193979428Y-86859489D01*
X193807821Y-86832309D01*
X193767357Y-86825900D01*
X193552643Y-86825900D01*
X193512185Y-86832308D01*
X193340571Y-86859489D01*
X193136369Y-86925837D01*
X193136366Y-86925838D01*
X192945055Y-87023317D01*
X192861433Y-87084073D01*
X192771349Y-87149523D01*
X192771347Y-87149525D01*
X192771346Y-87149525D01*
X192619525Y-87301346D01*
X192619525Y-87301347D01*
X192619523Y-87301349D01*
X192516147Y-87443633D01*
X192490453Y-87478998D01*
X192488562Y-87477624D01*
X192443848Y-87518030D01*
X192374911Y-87529411D01*
X192310765Y-87501715D01*
X192290488Y-87478314D01*
X192289547Y-87478998D01*
X192286682Y-87475055D01*
X192160477Y-87301349D01*
X192008651Y-87149523D01*
X191834944Y-87023317D01*
X191788203Y-86999501D01*
X191643633Y-86925838D01*
X191643630Y-86925837D01*
X191439428Y-86859489D01*
X191267821Y-86832309D01*
X191227357Y-86825900D01*
X191012643Y-86825900D01*
X190972185Y-86832308D01*
X190800571Y-86859489D01*
X190596369Y-86925837D01*
X190596366Y-86925838D01*
X190405055Y-87023317D01*
X190321433Y-87084073D01*
X190231349Y-87149523D01*
X190231347Y-87149525D01*
X190231346Y-87149525D01*
X190079525Y-87301346D01*
X190079525Y-87301347D01*
X190079523Y-87301349D01*
X189976147Y-87443633D01*
X189950453Y-87478998D01*
X189948562Y-87477624D01*
X189903848Y-87518030D01*
X189834911Y-87529411D01*
X189770765Y-87501715D01*
X189750488Y-87478314D01*
X189749547Y-87478998D01*
X189746682Y-87475055D01*
X189620477Y-87301349D01*
X189468651Y-87149523D01*
X189294944Y-87023317D01*
X189248203Y-86999501D01*
X189103633Y-86925838D01*
X189103630Y-86925837D01*
X188899428Y-86859489D01*
X188727821Y-86832309D01*
X188687357Y-86825900D01*
X188472643Y-86825900D01*
X188432185Y-86832308D01*
X188260571Y-86859489D01*
X188056369Y-86925837D01*
X188056366Y-86925838D01*
X187865055Y-87023317D01*
X187781433Y-87084073D01*
X187691349Y-87149523D01*
X187691347Y-87149525D01*
X187691346Y-87149525D01*
X187539525Y-87301346D01*
X187539525Y-87301347D01*
X187539523Y-87301349D01*
X187436147Y-87443633D01*
X187410453Y-87478998D01*
X187408562Y-87477624D01*
X187363848Y-87518030D01*
X187294911Y-87529411D01*
X187230765Y-87501715D01*
X187210488Y-87478314D01*
X187209547Y-87478998D01*
X187206682Y-87475055D01*
X187080477Y-87301349D01*
X186928651Y-87149523D01*
X186754944Y-87023317D01*
X186708203Y-86999501D01*
X186563633Y-86925838D01*
X186563630Y-86925837D01*
X186359428Y-86859489D01*
X186187821Y-86832309D01*
X186147357Y-86825900D01*
X185932643Y-86825900D01*
X185892185Y-86832308D01*
X185720571Y-86859489D01*
X185516369Y-86925837D01*
X185516366Y-86925838D01*
X185325055Y-87023317D01*
X185241433Y-87084073D01*
X185151349Y-87149523D01*
X185151347Y-87149525D01*
X185151346Y-87149525D01*
X184999525Y-87301346D01*
X184999525Y-87301347D01*
X184999523Y-87301349D01*
X184896147Y-87443633D01*
X184870453Y-87478998D01*
X184868562Y-87477624D01*
X184823848Y-87518030D01*
X184754911Y-87529411D01*
X184690765Y-87501715D01*
X184670488Y-87478314D01*
X184669547Y-87478998D01*
X184666682Y-87475055D01*
X184540477Y-87301349D01*
X184388651Y-87149523D01*
X184214944Y-87023317D01*
X184168203Y-86999501D01*
X184023633Y-86925838D01*
X184023630Y-86925837D01*
X183819428Y-86859489D01*
X183647821Y-86832309D01*
X183607357Y-86825900D01*
X183392643Y-86825900D01*
X183352185Y-86832308D01*
X183180571Y-86859489D01*
X182976369Y-86925837D01*
X182976366Y-86925838D01*
X182785055Y-87023317D01*
X182701433Y-87084073D01*
X182611349Y-87149523D01*
X182611347Y-87149525D01*
X182611346Y-87149525D01*
X182459525Y-87301346D01*
X182459525Y-87301347D01*
X182459523Y-87301349D01*
X182356147Y-87443633D01*
X182330453Y-87478998D01*
X182328562Y-87477624D01*
X182283848Y-87518030D01*
X182214911Y-87529411D01*
X182150765Y-87501715D01*
X182130488Y-87478314D01*
X182129547Y-87478998D01*
X182126682Y-87475055D01*
X182000477Y-87301349D01*
X181848651Y-87149523D01*
X181674944Y-87023317D01*
X181628203Y-86999501D01*
X181483633Y-86925838D01*
X181483630Y-86925837D01*
X181279428Y-86859489D01*
X181107821Y-86832309D01*
X181067357Y-86825900D01*
X180852643Y-86825900D01*
X180812185Y-86832308D01*
X180640571Y-86859489D01*
X180436369Y-86925837D01*
X180436366Y-86925838D01*
X180245055Y-87023317D01*
X180161433Y-87084073D01*
X180071349Y-87149523D01*
X180071347Y-87149525D01*
X180071346Y-87149525D01*
X179919525Y-87301346D01*
X179919525Y-87301347D01*
X179919523Y-87301349D01*
X179816147Y-87443633D01*
X179790453Y-87478998D01*
X179788562Y-87477624D01*
X179743848Y-87518030D01*
X179674911Y-87529411D01*
X179610765Y-87501715D01*
X179590488Y-87478314D01*
X179589547Y-87478998D01*
X179586682Y-87475055D01*
X179460477Y-87301349D01*
X179308651Y-87149523D01*
X179140505Y-87027357D01*
X179134942Y-87023315D01*
X179088204Y-86999501D01*
X179037409Y-86951527D01*
X179020500Y-86889017D01*
X179020500Y-85330096D01*
X179040185Y-85263057D01*
X179056815Y-85242419D01*
X179358506Y-84940727D01*
X179358511Y-84940724D01*
X179368714Y-84930520D01*
X179368716Y-84930520D01*
X179480520Y-84818716D01*
X179537665Y-84719737D01*
X179559577Y-84681785D01*
X179600501Y-84529057D01*
X179600501Y-84529054D01*
X179601562Y-84520997D01*
X179603018Y-84521188D01*
X179620186Y-84462725D01*
X179621399Y-84460873D01*
X179709390Y-84329185D01*
X179709390Y-84329184D01*
X179709394Y-84329179D01*
X179769737Y-84183497D01*
X179800500Y-84028842D01*
X179800500Y-83871158D01*
X179800500Y-83871155D01*
X179800499Y-83871153D01*
X179792276Y-83829815D01*
X179769737Y-83716503D01*
X179748427Y-83665056D01*
X179709397Y-83570827D01*
X179709390Y-83570814D01*
X179621789Y-83439711D01*
X179621786Y-83439707D01*
X179510292Y-83328213D01*
X179510288Y-83328210D01*
X179379185Y-83240609D01*
X179379172Y-83240602D01*
X179233501Y-83180264D01*
X179233489Y-83180261D01*
X179078845Y-83149500D01*
X179078842Y-83149500D01*
X178921158Y-83149500D01*
X178921155Y-83149500D01*
X178766510Y-83180261D01*
X178766498Y-83180264D01*
X178620827Y-83240602D01*
X178620814Y-83240609D01*
X178489711Y-83328210D01*
X178489707Y-83328213D01*
X178378213Y-83439707D01*
X178378210Y-83439711D01*
X178290609Y-83570814D01*
X178290602Y-83570827D01*
X178230264Y-83716498D01*
X178230261Y-83716510D01*
X178199500Y-83871153D01*
X178199500Y-84028846D01*
X178230261Y-84183489D01*
X178230264Y-84183501D01*
X178253328Y-84239182D01*
X178255464Y-84259057D01*
X178262451Y-84277788D01*
X178259123Y-84293084D01*
X178260797Y-84308651D01*
X178251848Y-84326528D01*
X178247599Y-84346061D01*
X178230913Y-84368349D01*
X178229522Y-84371130D01*
X178226448Y-84374315D01*
X178051286Y-84549478D01*
X177939481Y-84661282D01*
X177939480Y-84661284D01*
X177905733Y-84719737D01*
X177889361Y-84748094D01*
X177889359Y-84748096D01*
X177860425Y-84798209D01*
X177860424Y-84798210D01*
X177851567Y-84831264D01*
X177819499Y-84950943D01*
X177819499Y-84950945D01*
X177819499Y-85119046D01*
X177819500Y-85119059D01*
X177819500Y-86889017D01*
X177799815Y-86956056D01*
X177751796Y-86999501D01*
X177705057Y-87023315D01*
X177531350Y-87149522D01*
X177435048Y-87245824D01*
X177373724Y-87279308D01*
X177304033Y-87274324D01*
X177248100Y-87232452D01*
X177231185Y-87201474D01*
X177187398Y-87084073D01*
X177187393Y-87084064D01*
X177101147Y-86968855D01*
X177101144Y-86968852D01*
X176985935Y-86882606D01*
X176985928Y-86882602D01*
X176851082Y-86832308D01*
X176851083Y-86832308D01*
X176791483Y-86825901D01*
X176791481Y-86825900D01*
X176791473Y-86825900D01*
X176791464Y-86825900D01*
X174968529Y-86825900D01*
X174968523Y-86825901D01*
X174908916Y-86832308D01*
X174774071Y-86882602D01*
X174774064Y-86882606D01*
X174658855Y-86968852D01*
X174658852Y-86968855D01*
X174572606Y-87084064D01*
X174572602Y-87084071D01*
X174528814Y-87201475D01*
X174486943Y-87257409D01*
X174421479Y-87281826D01*
X174353206Y-87266974D01*
X174324951Y-87245823D01*
X174228653Y-87149525D01*
X174228651Y-87149523D01*
X174054944Y-87023317D01*
X174008203Y-86999501D01*
X173863633Y-86925838D01*
X173863630Y-86925837D01*
X173659428Y-86859489D01*
X173487821Y-86832309D01*
X173447357Y-86825900D01*
X173232643Y-86825900D01*
X173192185Y-86832308D01*
X173020571Y-86859489D01*
X172816369Y-86925837D01*
X172816366Y-86925838D01*
X172625055Y-87023317D01*
X172541433Y-87084073D01*
X172451349Y-87149523D01*
X172451347Y-87149525D01*
X172451346Y-87149525D01*
X172299525Y-87301346D01*
X172299525Y-87301347D01*
X172299523Y-87301349D01*
X172196147Y-87443633D01*
X172170453Y-87478998D01*
X172168562Y-87477624D01*
X172123848Y-87518030D01*
X172054911Y-87529411D01*
X171990765Y-87501715D01*
X171970488Y-87478314D01*
X171969547Y-87478998D01*
X171966682Y-87475055D01*
X171840477Y-87301349D01*
X171688651Y-87149523D01*
X171514944Y-87023317D01*
X171468203Y-86999501D01*
X171323633Y-86925838D01*
X171323630Y-86925837D01*
X171119428Y-86859489D01*
X170947821Y-86832309D01*
X170907357Y-86825900D01*
X170692643Y-86825900D01*
X170652185Y-86832308D01*
X170480571Y-86859489D01*
X170276369Y-86925837D01*
X170276366Y-86925838D01*
X170085055Y-87023317D01*
X170001433Y-87084073D01*
X169911349Y-87149523D01*
X169911347Y-87149525D01*
X169911346Y-87149525D01*
X169759525Y-87301346D01*
X169759525Y-87301347D01*
X169759523Y-87301349D01*
X169656147Y-87443633D01*
X169630453Y-87478998D01*
X169628562Y-87477624D01*
X169583848Y-87518030D01*
X169514911Y-87529411D01*
X169450765Y-87501715D01*
X169430488Y-87478314D01*
X169429547Y-87478998D01*
X169426682Y-87475055D01*
X169300477Y-87301349D01*
X169148651Y-87149523D01*
X168974944Y-87023317D01*
X168928203Y-86999501D01*
X168783633Y-86925838D01*
X168783630Y-86925837D01*
X168579428Y-86859489D01*
X168407821Y-86832309D01*
X168367357Y-86825900D01*
X168152643Y-86825900D01*
X168112185Y-86832308D01*
X167940571Y-86859489D01*
X167736369Y-86925837D01*
X167736366Y-86925838D01*
X167545055Y-87023317D01*
X167371350Y-87149522D01*
X167276905Y-87243967D01*
X167215581Y-87277451D01*
X167145890Y-87272467D01*
X167089957Y-87230595D01*
X167065540Y-87165130D01*
X167066750Y-87136895D01*
X167084100Y-87027357D01*
X167084100Y-86812643D01*
X167050511Y-86600573D01*
X166984161Y-86396367D01*
X166984161Y-86396366D01*
X166886682Y-86205055D01*
X166760477Y-86031349D01*
X166608651Y-85879523D01*
X166434944Y-85753317D01*
X166434943Y-85753316D01*
X166431002Y-85750453D01*
X166432405Y-85748521D01*
X166392078Y-85704073D01*
X166380558Y-85635160D01*
X166408125Y-85570958D01*
X166431709Y-85550521D01*
X166431002Y-85549547D01*
X166434944Y-85546683D01*
X166608651Y-85420477D01*
X166760477Y-85268651D01*
X166886683Y-85094944D01*
X166984161Y-84903633D01*
X167050511Y-84699427D01*
X167084100Y-84487357D01*
X167084100Y-84272643D01*
X167050511Y-84060573D01*
X166999181Y-83902593D01*
X166984162Y-83856369D01*
X166984161Y-83856366D01*
X166886684Y-83665058D01*
X166886683Y-83665056D01*
X166884760Y-83662409D01*
X166884339Y-83661229D01*
X166884137Y-83660900D01*
X166884206Y-83660857D01*
X166861278Y-83596607D01*
X166877099Y-83528552D01*
X166897390Y-83501843D01*
X169514662Y-80884572D01*
X169575983Y-80851089D01*
X169578150Y-80850638D01*
X169636085Y-80839113D01*
X169733497Y-80819737D01*
X169879179Y-80759394D01*
X169920167Y-80732007D01*
X170010289Y-80671789D01*
X170121786Y-80560292D01*
X170121789Y-80560289D01*
X170209394Y-80429179D01*
X170269737Y-80283497D01*
X170300500Y-80128842D01*
X170300500Y-79971158D01*
X170300500Y-79971155D01*
X170300499Y-79971153D01*
X170285329Y-79894889D01*
X170269737Y-79816503D01*
X170262901Y-79800000D01*
X170209397Y-79670827D01*
X170209390Y-79670814D01*
X170121789Y-79539711D01*
X170121786Y-79539707D01*
X170010292Y-79428213D01*
X170010288Y-79428210D01*
X169879185Y-79340609D01*
X169879172Y-79340602D01*
X169733501Y-79280264D01*
X169733489Y-79280261D01*
X169578845Y-79249500D01*
X169578842Y-79249500D01*
X169421158Y-79249500D01*
X169421155Y-79249500D01*
X169266510Y-79280261D01*
X169266498Y-79280264D01*
X169120827Y-79340602D01*
X169120814Y-79340609D01*
X168989711Y-79428210D01*
X168989707Y-79428213D01*
X168878213Y-79539707D01*
X168878210Y-79539711D01*
X168790609Y-79670814D01*
X168790604Y-79670823D01*
X168762712Y-79738163D01*
X168718871Y-79792566D01*
X168652577Y-79814631D01*
X168584878Y-79797352D01*
X168560470Y-79778391D01*
X168510292Y-79728213D01*
X168510288Y-79728210D01*
X168379185Y-79640609D01*
X168379172Y-79640602D01*
X168233501Y-79580264D01*
X168233489Y-79580261D01*
X168078845Y-79549500D01*
X168078842Y-79549500D01*
X167921158Y-79549500D01*
X167921155Y-79549500D01*
X167766510Y-79580261D01*
X167766498Y-79580264D01*
X167620827Y-79640602D01*
X167620814Y-79640609D01*
X167489711Y-79728210D01*
X167489707Y-79728213D01*
X167390140Y-79827781D01*
X167363212Y-79842484D01*
X167337394Y-79859077D01*
X167331193Y-79859968D01*
X167328817Y-79861266D01*
X167302459Y-79864100D01*
X167141684Y-79864100D01*
X167074645Y-79844415D01*
X167028890Y-79791611D01*
X167018946Y-79722453D01*
X167023753Y-79701782D01*
X167037798Y-79658555D01*
X167050511Y-79619427D01*
X167084100Y-79407357D01*
X167084100Y-79192643D01*
X167050511Y-78980573D01*
X167030392Y-78918652D01*
X167023753Y-78898218D01*
X167021758Y-78828376D01*
X167057839Y-78768544D01*
X167120540Y-78737716D01*
X167141684Y-78735900D01*
X169985303Y-78735900D01*
X170052342Y-78755585D01*
X170072984Y-78772219D01*
X170365425Y-79064660D01*
X170398910Y-79125983D01*
X170399361Y-79128149D01*
X170430261Y-79283491D01*
X170430264Y-79283501D01*
X170490602Y-79429172D01*
X170490609Y-79429185D01*
X170578210Y-79560288D01*
X170578213Y-79560292D01*
X170689707Y-79671786D01*
X170689711Y-79671789D01*
X170820814Y-79759390D01*
X170820827Y-79759397D01*
X170912460Y-79797352D01*
X170966503Y-79819737D01*
X171090567Y-79844415D01*
X171121153Y-79850499D01*
X171121156Y-79850500D01*
X171121158Y-79850500D01*
X171278844Y-79850500D01*
X171278845Y-79850499D01*
X171433497Y-79819737D01*
X171579179Y-79759394D01*
X171710289Y-79671789D01*
X171821789Y-79560289D01*
X171909394Y-79429179D01*
X171969737Y-79283497D01*
X172000500Y-79128842D01*
X172000500Y-78971158D01*
X172000500Y-78971155D01*
X172000499Y-78971153D01*
X171992569Y-78931286D01*
X171969737Y-78816503D01*
X171942398Y-78750500D01*
X171909397Y-78670827D01*
X171909390Y-78670814D01*
X171821789Y-78539711D01*
X171821786Y-78539707D01*
X171710292Y-78428213D01*
X171710288Y-78428210D01*
X171579185Y-78340609D01*
X171579172Y-78340602D01*
X171433501Y-78280264D01*
X171433489Y-78280261D01*
X171278151Y-78249362D01*
X171216240Y-78216977D01*
X171214713Y-78215477D01*
X170772989Y-77773754D01*
X170772988Y-77773752D01*
X170654117Y-77654881D01*
X170654116Y-77654880D01*
X170567304Y-77604760D01*
X170567304Y-77604759D01*
X170567300Y-77604758D01*
X170527685Y-77581885D01*
X170479471Y-77531318D01*
X170466250Y-77462711D01*
X170492219Y-77397847D01*
X170549133Y-77357319D01*
X170589688Y-77350500D01*
X172299903Y-77350500D01*
X172366942Y-77370185D01*
X172387584Y-77386819D01*
X172965425Y-77964660D01*
X172998910Y-78025983D01*
X172999361Y-78028149D01*
X173030261Y-78183491D01*
X173030264Y-78183501D01*
X173090602Y-78329172D01*
X173090609Y-78329185D01*
X173178210Y-78460288D01*
X173178213Y-78460292D01*
X173289707Y-78571786D01*
X173289711Y-78571789D01*
X173420814Y-78659390D01*
X173420827Y-78659397D01*
X173518853Y-78700000D01*
X173566503Y-78719737D01*
X173721153Y-78750499D01*
X173721156Y-78750500D01*
X173721158Y-78750500D01*
X173878844Y-78750500D01*
X173878845Y-78750499D01*
X174033497Y-78719737D01*
X174151592Y-78670821D01*
X174179172Y-78659397D01*
X174179172Y-78659396D01*
X174179179Y-78659394D01*
X174310289Y-78571789D01*
X174421789Y-78460289D01*
X174509394Y-78329179D01*
X174569737Y-78183497D01*
X174600500Y-78028842D01*
X174600500Y-77871158D01*
X174600500Y-77871155D01*
X174600499Y-77871153D01*
X174598260Y-77859897D01*
X174569737Y-77716503D01*
X174544212Y-77654879D01*
X174509397Y-77570827D01*
X174509390Y-77570814D01*
X174421789Y-77439711D01*
X174421786Y-77439707D01*
X174310292Y-77328213D01*
X174310288Y-77328210D01*
X174179185Y-77240609D01*
X174179172Y-77240602D01*
X174033501Y-77180264D01*
X174033491Y-77180261D01*
X173878149Y-77149361D01*
X173816238Y-77116976D01*
X173814660Y-77115425D01*
X173087590Y-76388355D01*
X173087588Y-76388352D01*
X172968717Y-76269481D01*
X172968709Y-76269475D01*
X172871848Y-76213553D01*
X172871846Y-76213552D01*
X172831790Y-76190425D01*
X172831789Y-76190424D01*
X172819263Y-76187067D01*
X172679057Y-76149499D01*
X172520943Y-76149499D01*
X172513347Y-76149499D01*
X172513331Y-76149500D01*
X170713103Y-76149500D01*
X170646064Y-76129815D01*
X170625422Y-76113181D01*
X168866402Y-74354161D01*
X168832917Y-74292838D01*
X168837901Y-74223146D01*
X168879773Y-74167213D01*
X168897784Y-74155997D01*
X168974944Y-74116683D01*
X169148651Y-73990477D01*
X169245342Y-73893785D01*
X169306661Y-73860303D01*
X169376353Y-73865287D01*
X169432287Y-73907158D01*
X169449202Y-73938136D01*
X169493045Y-74055686D01*
X169493049Y-74055693D01*
X169579209Y-74170787D01*
X169579212Y-74170790D01*
X169694306Y-74256950D01*
X169694313Y-74256954D01*
X169829020Y-74307196D01*
X169829027Y-74307198D01*
X169888555Y-74313599D01*
X169888572Y-74313600D01*
X170550000Y-74313600D01*
X170550000Y-73392251D01*
X170603919Y-73423381D01*
X170733120Y-73458000D01*
X170866880Y-73458000D01*
X170996081Y-73423381D01*
X171050000Y-73392251D01*
X171050000Y-74313600D01*
X171711428Y-74313600D01*
X171711444Y-74313599D01*
X171770972Y-74307198D01*
X171770979Y-74307196D01*
X171905686Y-74256954D01*
X171905693Y-74256950D01*
X172020787Y-74170790D01*
X172020790Y-74170787D01*
X172106950Y-74055693D01*
X172106955Y-74055684D01*
X172150797Y-73938137D01*
X172192668Y-73882203D01*
X172258132Y-73857785D01*
X172326405Y-73872636D01*
X172354660Y-73893788D01*
X172451349Y-73990477D01*
X172625056Y-74116683D01*
X172689463Y-74149500D01*
X172816366Y-74214161D01*
X172816369Y-74214162D01*
X172880777Y-74235089D01*
X173020573Y-74280511D01*
X173232643Y-74314100D01*
X173232644Y-74314100D01*
X173447356Y-74314100D01*
X173447357Y-74314100D01*
X173659427Y-74280511D01*
X173863633Y-74214161D01*
X174054944Y-74116683D01*
X174228651Y-73990477D01*
X174380477Y-73838651D01*
X174506683Y-73664944D01*
X174506683Y-73664943D01*
X174509547Y-73661002D01*
X174511478Y-73662405D01*
X174555927Y-73622078D01*
X174624840Y-73610558D01*
X174689042Y-73638125D01*
X174709478Y-73661709D01*
X174710453Y-73661002D01*
X174713316Y-73664943D01*
X174713317Y-73664944D01*
X174839523Y-73838651D01*
X174991349Y-73990477D01*
X175165056Y-74116683D01*
X175229463Y-74149500D01*
X175356366Y-74214161D01*
X175356369Y-74214162D01*
X175420777Y-74235089D01*
X175560573Y-74280511D01*
X175772643Y-74314100D01*
X175772644Y-74314100D01*
X175987355Y-74314100D01*
X175987357Y-74314100D01*
X176096889Y-74296751D01*
X176166180Y-74305705D01*
X176219632Y-74350701D01*
X176240272Y-74417452D01*
X176221548Y-74484766D01*
X176203967Y-74506905D01*
X176109522Y-74601350D01*
X175983317Y-74775055D01*
X175885838Y-74966366D01*
X175885837Y-74966369D01*
X175819489Y-75170571D01*
X175785900Y-75382643D01*
X175785900Y-75597356D01*
X175819489Y-75809428D01*
X175885837Y-76013630D01*
X175885838Y-76013633D01*
X175969652Y-76178125D01*
X175983317Y-76204944D01*
X176109523Y-76378651D01*
X176261349Y-76530477D01*
X176435056Y-76656683D01*
X176528888Y-76704492D01*
X176626366Y-76754161D01*
X176626369Y-76754162D01*
X176662308Y-76765839D01*
X176830573Y-76820511D01*
X177042643Y-76854100D01*
X177042644Y-76854100D01*
X177257356Y-76854100D01*
X177257357Y-76854100D01*
X177469427Y-76820511D01*
X177673633Y-76754161D01*
X177864944Y-76656683D01*
X178038651Y-76530477D01*
X178190477Y-76378651D01*
X178316683Y-76204944D01*
X178316683Y-76204943D01*
X178319547Y-76201002D01*
X178321478Y-76202405D01*
X178365927Y-76162078D01*
X178434840Y-76150558D01*
X178499042Y-76178125D01*
X178519478Y-76201709D01*
X178520453Y-76201002D01*
X178523316Y-76204943D01*
X178523317Y-76204944D01*
X178649523Y-76378651D01*
X178801349Y-76530477D01*
X178975056Y-76656683D01*
X179068888Y-76704492D01*
X179166366Y-76754161D01*
X179166369Y-76754162D01*
X179202308Y-76765839D01*
X179370573Y-76820511D01*
X179582643Y-76854100D01*
X179582644Y-76854100D01*
X179797356Y-76854100D01*
X179797357Y-76854100D01*
X180009427Y-76820511D01*
X180213633Y-76754161D01*
X180404944Y-76656683D01*
X180578651Y-76530477D01*
X180730477Y-76378651D01*
X180856683Y-76204944D01*
X180954161Y-76013633D01*
X181020511Y-75809427D01*
X181054100Y-75597357D01*
X181054100Y-75382643D01*
X181020511Y-75170573D01*
X180954161Y-74966367D01*
X180954161Y-74966366D01*
X180870266Y-74801715D01*
X180856683Y-74775056D01*
X180730477Y-74601349D01*
X180636033Y-74506905D01*
X180602548Y-74445582D01*
X180607532Y-74375890D01*
X180649404Y-74319957D01*
X180714868Y-74295540D01*
X180743104Y-74296750D01*
X180852643Y-74314100D01*
X180852645Y-74314100D01*
X181067356Y-74314100D01*
X181067357Y-74314100D01*
X181279427Y-74280511D01*
X181483633Y-74214161D01*
X181674944Y-74116683D01*
X181848651Y-73990477D01*
X182000477Y-73838651D01*
X182126683Y-73664944D01*
X182126683Y-73664943D01*
X182129547Y-73661002D01*
X182131478Y-73662405D01*
X182175927Y-73622078D01*
X182244840Y-73610558D01*
X182309042Y-73638125D01*
X182329478Y-73661709D01*
X182330453Y-73661002D01*
X182333316Y-73664943D01*
X182333317Y-73664944D01*
X182459523Y-73838651D01*
X182611349Y-73990477D01*
X182785056Y-74116683D01*
X182849463Y-74149500D01*
X182976366Y-74214161D01*
X182976369Y-74214162D01*
X183040777Y-74235089D01*
X183180573Y-74280511D01*
X183392643Y-74314100D01*
X183392644Y-74314100D01*
X183607356Y-74314100D01*
X183607357Y-74314100D01*
X183819427Y-74280511D01*
X184023633Y-74214161D01*
X184214944Y-74116683D01*
X184388651Y-73990477D01*
X184540477Y-73838651D01*
X184666683Y-73664944D01*
X184666683Y-73664943D01*
X184669547Y-73661002D01*
X184671478Y-73662405D01*
X184715927Y-73622078D01*
X184784840Y-73610558D01*
X184849042Y-73638125D01*
X184869478Y-73661709D01*
X184870453Y-73661002D01*
X184873316Y-73664943D01*
X184873317Y-73664944D01*
X184999523Y-73838651D01*
X185151349Y-73990477D01*
X185325056Y-74116683D01*
X185389463Y-74149500D01*
X185516366Y-74214161D01*
X185516369Y-74214162D01*
X185580777Y-74235089D01*
X185720573Y-74280511D01*
X185932643Y-74314100D01*
X185932644Y-74314100D01*
X186147356Y-74314100D01*
X186147357Y-74314100D01*
X186359427Y-74280511D01*
X186563633Y-74214161D01*
X186754944Y-74116683D01*
X186928651Y-73990477D01*
X187080477Y-73838651D01*
X187206683Y-73664944D01*
X187206683Y-73664943D01*
X187209547Y-73661002D01*
X187211478Y-73662405D01*
X187255927Y-73622078D01*
X187324840Y-73610558D01*
X187389042Y-73638125D01*
X187409478Y-73661709D01*
X187410453Y-73661002D01*
X187413316Y-73664943D01*
X187413317Y-73664944D01*
X187539523Y-73838651D01*
X187691349Y-73990477D01*
X187865056Y-74116683D01*
X187929463Y-74149500D01*
X188056366Y-74214161D01*
X188056369Y-74214162D01*
X188120777Y-74235089D01*
X188260573Y-74280511D01*
X188472643Y-74314100D01*
X188472644Y-74314100D01*
X188687356Y-74314100D01*
X188687357Y-74314100D01*
X188899427Y-74280511D01*
X189103633Y-74214161D01*
X189294944Y-74116683D01*
X189468651Y-73990477D01*
X189620477Y-73838651D01*
X189746683Y-73664944D01*
X189746683Y-73664943D01*
X189749547Y-73661002D01*
X189751478Y-73662405D01*
X189795927Y-73622078D01*
X189864840Y-73610558D01*
X189929042Y-73638125D01*
X189949478Y-73661709D01*
X189950453Y-73661002D01*
X189953316Y-73664943D01*
X189953317Y-73664944D01*
X190079523Y-73838651D01*
X190231349Y-73990477D01*
X190405056Y-74116683D01*
X190469463Y-74149500D01*
X190596366Y-74214161D01*
X190596369Y-74214162D01*
X190660777Y-74235089D01*
X190800573Y-74280511D01*
X191012643Y-74314100D01*
X191012644Y-74314100D01*
X191227356Y-74314100D01*
X191227357Y-74314100D01*
X191439427Y-74280511D01*
X191643633Y-74214161D01*
X191834944Y-74116683D01*
X192008651Y-73990477D01*
X192160477Y-73838651D01*
X192286683Y-73664944D01*
X192286683Y-73664943D01*
X192289547Y-73661002D01*
X192291478Y-73662405D01*
X192335927Y-73622078D01*
X192404840Y-73610558D01*
X192469042Y-73638125D01*
X192489478Y-73661709D01*
X192490453Y-73661002D01*
X192493316Y-73664943D01*
X192493317Y-73664944D01*
X192619523Y-73838651D01*
X192771349Y-73990477D01*
X192945056Y-74116683D01*
X193009463Y-74149500D01*
X193136366Y-74214161D01*
X193136369Y-74214162D01*
X193200777Y-74235089D01*
X193340573Y-74280511D01*
X193552643Y-74314100D01*
X193552644Y-74314100D01*
X193767356Y-74314100D01*
X193767357Y-74314100D01*
X193979427Y-74280511D01*
X194183633Y-74214161D01*
X194374944Y-74116683D01*
X194548651Y-73990477D01*
X194700477Y-73838651D01*
X194826683Y-73664944D01*
X194826683Y-73664943D01*
X194829547Y-73661002D01*
X194831478Y-73662405D01*
X194875927Y-73622078D01*
X194944840Y-73610558D01*
X195009042Y-73638125D01*
X195029478Y-73661709D01*
X195030453Y-73661002D01*
X195033316Y-73664943D01*
X195033317Y-73664944D01*
X195159523Y-73838651D01*
X195311349Y-73990477D01*
X195437037Y-74081795D01*
X195488998Y-74119547D01*
X195487624Y-74121437D01*
X195528030Y-74166152D01*
X195539411Y-74235089D01*
X195511715Y-74299235D01*
X195488314Y-74319511D01*
X195488998Y-74320453D01*
X195485056Y-74323316D01*
X195485056Y-74323317D01*
X195311349Y-74449523D01*
X195311347Y-74449525D01*
X195311346Y-74449525D01*
X195159525Y-74601346D01*
X195159525Y-74601347D01*
X195159523Y-74601349D01*
X195137325Y-74631902D01*
X195033317Y-74775055D01*
X194935838Y-74966366D01*
X194935837Y-74966369D01*
X194869489Y-75170571D01*
X194835900Y-75382643D01*
X194835900Y-75597356D01*
X194869489Y-75809428D01*
X194935837Y-76013630D01*
X194935838Y-76013633D01*
X195019652Y-76178125D01*
X195033317Y-76204944D01*
X195159523Y-76378651D01*
X195311349Y-76530477D01*
X195485055Y-76656682D01*
X195488998Y-76659547D01*
X195487624Y-76661437D01*
X195528030Y-76706152D01*
X195539411Y-76775089D01*
X195511715Y-76839235D01*
X195488314Y-76859511D01*
X195488998Y-76860453D01*
X195485056Y-76863316D01*
X195485056Y-76863317D01*
X195311349Y-76989523D01*
X195311347Y-76989525D01*
X195311346Y-76989525D01*
X195159525Y-77141346D01*
X195159525Y-77141347D01*
X195159523Y-77141349D01*
X195105322Y-77215949D01*
X195033317Y-77315055D01*
X194935838Y-77506366D01*
X194935837Y-77506369D01*
X194869489Y-77710571D01*
X194835900Y-77922643D01*
X194835900Y-78137356D01*
X194869489Y-78349428D01*
X194935837Y-78553630D01*
X194935838Y-78553633D01*
X195010417Y-78700000D01*
X195033317Y-78744944D01*
X195159523Y-78918651D01*
X195159525Y-78918653D01*
X195256211Y-79015339D01*
X195289696Y-79076662D01*
X195284712Y-79146354D01*
X195242840Y-79202287D01*
X195211863Y-79219202D01*
X195094313Y-79263045D01*
X195094306Y-79263049D01*
X194979212Y-79349209D01*
X194979209Y-79349212D01*
X194893049Y-79464306D01*
X194893045Y-79464313D01*
X194842803Y-79599020D01*
X194842801Y-79599027D01*
X194836400Y-79658555D01*
X194836400Y-80320000D01*
X195757749Y-80320000D01*
X195726619Y-80373919D01*
X195692000Y-80503120D01*
X195692000Y-80636880D01*
X195726619Y-80766081D01*
X195757749Y-80820000D01*
X194836400Y-80820000D01*
X194836400Y-81481444D01*
X194842801Y-81540972D01*
X194842803Y-81540979D01*
X194893045Y-81675686D01*
X194893049Y-81675693D01*
X194979209Y-81790787D01*
X194979212Y-81790790D01*
X195094306Y-81876950D01*
X195094313Y-81876954D01*
X195229020Y-81927196D01*
X195229027Y-81927198D01*
X195288555Y-81933599D01*
X195288572Y-81933600D01*
X195950000Y-81933600D01*
X195950000Y-81012251D01*
X196003919Y-81043381D01*
X196133120Y-81078000D01*
X196266880Y-81078000D01*
X196396081Y-81043381D01*
X196450000Y-81012251D01*
X196450000Y-81933600D01*
X197111428Y-81933600D01*
X197111444Y-81933599D01*
X197170972Y-81927198D01*
X197170979Y-81927196D01*
X197305686Y-81876954D01*
X197305693Y-81876950D01*
X197420787Y-81790790D01*
X197420790Y-81790787D01*
X197506950Y-81675693D01*
X197506954Y-81675686D01*
X197557196Y-81540979D01*
X197557198Y-81540972D01*
X197563599Y-81481444D01*
X197563600Y-81481427D01*
X197563600Y-80820000D01*
X196642251Y-80820000D01*
X196673381Y-80766081D01*
X196708000Y-80636880D01*
X196708000Y-80503120D01*
X196673381Y-80373919D01*
X196642251Y-80320000D01*
X197563600Y-80320000D01*
X197563600Y-79658572D01*
X197563599Y-79658555D01*
X197557198Y-79599027D01*
X197557196Y-79599020D01*
X197506954Y-79464313D01*
X197506950Y-79464306D01*
X197420790Y-79349212D01*
X197420787Y-79349209D01*
X197305693Y-79263049D01*
X197305686Y-79263045D01*
X197188136Y-79219202D01*
X197132202Y-79177331D01*
X197107785Y-79111866D01*
X197122637Y-79043593D01*
X197143782Y-79015345D01*
X197240477Y-78918651D01*
X197366683Y-78744944D01*
X197464161Y-78553633D01*
X197530511Y-78349427D01*
X197564100Y-78137357D01*
X197564100Y-77922643D01*
X197530511Y-77710573D01*
X197486729Y-77575824D01*
X197464162Y-77506369D01*
X197464161Y-77506366D01*
X197403248Y-77386819D01*
X197366683Y-77315056D01*
X197240477Y-77141349D01*
X197088651Y-76989523D01*
X196914944Y-76863317D01*
X196914943Y-76863316D01*
X196911002Y-76860453D01*
X196912405Y-76858521D01*
X196872078Y-76814073D01*
X196860558Y-76745160D01*
X196888125Y-76680958D01*
X196911709Y-76660521D01*
X196911002Y-76659547D01*
X196914945Y-76656682D01*
X197088651Y-76530477D01*
X197240477Y-76378651D01*
X197366683Y-76204944D01*
X197464161Y-76013633D01*
X197530511Y-75809427D01*
X197564100Y-75597357D01*
X197564100Y-75382643D01*
X197530511Y-75170573D01*
X197464161Y-74966367D01*
X197464161Y-74966366D01*
X197380266Y-74801715D01*
X197366683Y-74775056D01*
X197240477Y-74601349D01*
X197088651Y-74449523D01*
X196914944Y-74323317D01*
X196914943Y-74323316D01*
X196911002Y-74320453D01*
X196912405Y-74318521D01*
X196872078Y-74274073D01*
X196860558Y-74205160D01*
X196888125Y-74140958D01*
X196911709Y-74120521D01*
X196911002Y-74119547D01*
X196952637Y-74089297D01*
X197088651Y-73990477D01*
X197240477Y-73838651D01*
X197366683Y-73664944D01*
X197464161Y-73473633D01*
X197530511Y-73269427D01*
X197564100Y-73057357D01*
X197564100Y-72842643D01*
X197530511Y-72630573D01*
X197486729Y-72495824D01*
X197464162Y-72426369D01*
X197464161Y-72426366D01*
X197380266Y-72261715D01*
X197366683Y-72235056D01*
X197240477Y-72061349D01*
X197088651Y-71909523D01*
X197072307Y-71897648D01*
X199699500Y-71897648D01*
X199699500Y-72102351D01*
X199731522Y-72304534D01*
X199794781Y-72499223D01*
X199887715Y-72681613D01*
X200008028Y-72847213D01*
X200152786Y-72991971D01*
X200307749Y-73104556D01*
X200318390Y-73112287D01*
X200434607Y-73171503D01*
X200500776Y-73205218D01*
X200500778Y-73205218D01*
X200500781Y-73205220D01*
X200605137Y-73239127D01*
X200695465Y-73268477D01*
X200796557Y-73284488D01*
X200897648Y-73300500D01*
X200897649Y-73300500D01*
X201102351Y-73300500D01*
X201102352Y-73300500D01*
X201304534Y-73268477D01*
X201499219Y-73205220D01*
X201681610Y-73112287D01*
X201812928Y-73016880D01*
X201847213Y-72991971D01*
X201847215Y-72991968D01*
X201847219Y-72991966D01*
X201991966Y-72847219D01*
X201991968Y-72847215D01*
X201991971Y-72847213D01*
X202059752Y-72753919D01*
X202112287Y-72681610D01*
X202205220Y-72499219D01*
X202268477Y-72304534D01*
X202300500Y-72102352D01*
X202300500Y-71897648D01*
X202292051Y-71844306D01*
X202268477Y-71695465D01*
X202205218Y-71500776D01*
X202171503Y-71434607D01*
X202112287Y-71318390D01*
X202087380Y-71284108D01*
X201991971Y-71152786D01*
X201847213Y-71008028D01*
X201681613Y-70887715D01*
X201681612Y-70887714D01*
X201681610Y-70887713D01*
X201624653Y-70858691D01*
X201499223Y-70794781D01*
X201304534Y-70731522D01*
X201129995Y-70703878D01*
X201102352Y-70699500D01*
X200897648Y-70699500D01*
X200873329Y-70703351D01*
X200695465Y-70731522D01*
X200500776Y-70794781D01*
X200318386Y-70887715D01*
X200152786Y-71008028D01*
X200008028Y-71152786D01*
X199887715Y-71318386D01*
X199794781Y-71500776D01*
X199731522Y-71695465D01*
X199699500Y-71897648D01*
X197072307Y-71897648D01*
X196914944Y-71783317D01*
X196723633Y-71685838D01*
X196723630Y-71685837D01*
X196519428Y-71619489D01*
X196350940Y-71592803D01*
X196307357Y-71585900D01*
X196092643Y-71585900D01*
X196049060Y-71592803D01*
X195880571Y-71619489D01*
X195676369Y-71685837D01*
X195676366Y-71685838D01*
X195485055Y-71783317D01*
X195385949Y-71855322D01*
X195311349Y-71909523D01*
X195311347Y-71909525D01*
X195311346Y-71909525D01*
X195159525Y-72061346D01*
X195159525Y-72061347D01*
X195159523Y-72061349D01*
X195033318Y-72235055D01*
X195030453Y-72238998D01*
X195028562Y-72237624D01*
X194983848Y-72278030D01*
X194914911Y-72289411D01*
X194850765Y-72261715D01*
X194830488Y-72238314D01*
X194829547Y-72238998D01*
X194826682Y-72235055D01*
X194700477Y-72061349D01*
X194548651Y-71909523D01*
X194374944Y-71783317D01*
X194183633Y-71685838D01*
X194183630Y-71685837D01*
X193979428Y-71619489D01*
X193810940Y-71592803D01*
X193767357Y-71585900D01*
X193552643Y-71585900D01*
X193509060Y-71592803D01*
X193340571Y-71619489D01*
X193136369Y-71685837D01*
X193136366Y-71685838D01*
X192945055Y-71783317D01*
X192845949Y-71855322D01*
X192771349Y-71909523D01*
X192771347Y-71909525D01*
X192771346Y-71909525D01*
X192619525Y-72061346D01*
X192619525Y-72061347D01*
X192619523Y-72061349D01*
X192493318Y-72235055D01*
X192490453Y-72238998D01*
X192488562Y-72237624D01*
X192443848Y-72278030D01*
X192374911Y-72289411D01*
X192310765Y-72261715D01*
X192290488Y-72238314D01*
X192289547Y-72238998D01*
X192286682Y-72235055D01*
X192160477Y-72061349D01*
X192008651Y-71909523D01*
X191834944Y-71783317D01*
X191643633Y-71685838D01*
X191643630Y-71685837D01*
X191439428Y-71619489D01*
X191270940Y-71592803D01*
X191227357Y-71585900D01*
X191012643Y-71585900D01*
X190969060Y-71592803D01*
X190800571Y-71619489D01*
X190596369Y-71685837D01*
X190596366Y-71685838D01*
X190405055Y-71783317D01*
X190305949Y-71855322D01*
X190231349Y-71909523D01*
X190231347Y-71909525D01*
X190231346Y-71909525D01*
X190079525Y-72061346D01*
X190079525Y-72061347D01*
X190079523Y-72061349D01*
X189953318Y-72235055D01*
X189950453Y-72238998D01*
X189948562Y-72237624D01*
X189903848Y-72278030D01*
X189834911Y-72289411D01*
X189770765Y-72261715D01*
X189750488Y-72238314D01*
X189749547Y-72238998D01*
X189746682Y-72235055D01*
X189620477Y-72061349D01*
X189468651Y-71909523D01*
X189294944Y-71783317D01*
X189103633Y-71685838D01*
X189103630Y-71685837D01*
X188899428Y-71619489D01*
X188730940Y-71592803D01*
X188687357Y-71585900D01*
X188472643Y-71585900D01*
X188429060Y-71592803D01*
X188260571Y-71619489D01*
X188056369Y-71685837D01*
X188056366Y-71685838D01*
X187865055Y-71783317D01*
X187765949Y-71855322D01*
X187691349Y-71909523D01*
X187691347Y-71909525D01*
X187691346Y-71909525D01*
X187539525Y-72061346D01*
X187539525Y-72061347D01*
X187539523Y-72061349D01*
X187413318Y-72235055D01*
X187410453Y-72238998D01*
X187408562Y-72237624D01*
X187363848Y-72278030D01*
X187294911Y-72289411D01*
X187230765Y-72261715D01*
X187210488Y-72238314D01*
X187209547Y-72238998D01*
X187206682Y-72235055D01*
X187080477Y-72061349D01*
X186928651Y-71909523D01*
X186754944Y-71783317D01*
X186563633Y-71685838D01*
X186563630Y-71685837D01*
X186359428Y-71619489D01*
X186190940Y-71592803D01*
X186147357Y-71585900D01*
X185932643Y-71585900D01*
X185889060Y-71592803D01*
X185720571Y-71619489D01*
X185516369Y-71685837D01*
X185516366Y-71685838D01*
X185325055Y-71783317D01*
X185225949Y-71855322D01*
X185151349Y-71909523D01*
X185151347Y-71909525D01*
X185151346Y-71909525D01*
X184999525Y-72061346D01*
X184999525Y-72061347D01*
X184999523Y-72061349D01*
X184873318Y-72235055D01*
X184870453Y-72238998D01*
X184868562Y-72237624D01*
X184823848Y-72278030D01*
X184754911Y-72289411D01*
X184690765Y-72261715D01*
X184670488Y-72238314D01*
X184669547Y-72238998D01*
X184666682Y-72235055D01*
X184540477Y-72061349D01*
X184388651Y-71909523D01*
X184214944Y-71783317D01*
X184023633Y-71685838D01*
X184023630Y-71685837D01*
X183819428Y-71619489D01*
X183650940Y-71592803D01*
X183607357Y-71585900D01*
X183392643Y-71585900D01*
X183349060Y-71592803D01*
X183180571Y-71619489D01*
X182976369Y-71685837D01*
X182976366Y-71685838D01*
X182785055Y-71783317D01*
X182685949Y-71855322D01*
X182611349Y-71909523D01*
X182611347Y-71909525D01*
X182611346Y-71909525D01*
X182459525Y-72061346D01*
X182459525Y-72061347D01*
X182459523Y-72061349D01*
X182333318Y-72235055D01*
X182330453Y-72238998D01*
X182328562Y-72237624D01*
X182283848Y-72278030D01*
X182214911Y-72289411D01*
X182150765Y-72261715D01*
X182130488Y-72238314D01*
X182129547Y-72238998D01*
X182126682Y-72235055D01*
X182000477Y-72061349D01*
X181848651Y-71909523D01*
X181674944Y-71783317D01*
X181483633Y-71685838D01*
X181483630Y-71685837D01*
X181279428Y-71619489D01*
X181110940Y-71592803D01*
X181067357Y-71585900D01*
X180852643Y-71585900D01*
X180809060Y-71592803D01*
X180640571Y-71619489D01*
X180436369Y-71685837D01*
X180436366Y-71685838D01*
X180245055Y-71783317D01*
X180145949Y-71855322D01*
X180071349Y-71909523D01*
X180071347Y-71909525D01*
X180071346Y-71909525D01*
X179919525Y-72061346D01*
X179919525Y-72061347D01*
X179919523Y-72061349D01*
X179793318Y-72235055D01*
X179790453Y-72238998D01*
X179788562Y-72237624D01*
X179743848Y-72278030D01*
X179674911Y-72289411D01*
X179610765Y-72261715D01*
X179590488Y-72238314D01*
X179589547Y-72238998D01*
X179586682Y-72235055D01*
X179460477Y-72061349D01*
X179308651Y-71909523D01*
X179134944Y-71783317D01*
X178943633Y-71685838D01*
X178943630Y-71685837D01*
X178739428Y-71619489D01*
X178570940Y-71592803D01*
X178527357Y-71585900D01*
X178312643Y-71585900D01*
X178269060Y-71592803D01*
X178100571Y-71619489D01*
X177896369Y-71685837D01*
X177896366Y-71685838D01*
X177705055Y-71783317D01*
X177605949Y-71855322D01*
X177531349Y-71909523D01*
X177531347Y-71909525D01*
X177531346Y-71909525D01*
X177379525Y-72061346D01*
X177379525Y-72061347D01*
X177379523Y-72061349D01*
X177253318Y-72235055D01*
X177250453Y-72238998D01*
X177248562Y-72237624D01*
X177203848Y-72278030D01*
X177134911Y-72289411D01*
X177070765Y-72261715D01*
X177050488Y-72238314D01*
X177049547Y-72238998D01*
X177046682Y-72235055D01*
X176920477Y-72061349D01*
X176768651Y-71909523D01*
X176594944Y-71783317D01*
X176403633Y-71685838D01*
X176403630Y-71685837D01*
X176199428Y-71619489D01*
X176030940Y-71592803D01*
X175987357Y-71585900D01*
X175772643Y-71585900D01*
X175729060Y-71592803D01*
X175560571Y-71619489D01*
X175356369Y-71685837D01*
X175356366Y-71685838D01*
X175165055Y-71783317D01*
X175065949Y-71855322D01*
X174991349Y-71909523D01*
X174991347Y-71909525D01*
X174991346Y-71909525D01*
X174839525Y-72061346D01*
X174839525Y-72061347D01*
X174839523Y-72061349D01*
X174713318Y-72235055D01*
X174710453Y-72238998D01*
X174708562Y-72237624D01*
X174663848Y-72278030D01*
X174594911Y-72289411D01*
X174530765Y-72261715D01*
X174510488Y-72238314D01*
X174509547Y-72238998D01*
X174506682Y-72235055D01*
X174380477Y-72061349D01*
X174228651Y-71909523D01*
X174054944Y-71783317D01*
X173863633Y-71685838D01*
X173863630Y-71685837D01*
X173659428Y-71619489D01*
X173490940Y-71592803D01*
X173447357Y-71585900D01*
X173232643Y-71585900D01*
X173189060Y-71592803D01*
X173020571Y-71619489D01*
X172816369Y-71685837D01*
X172816366Y-71685838D01*
X172625055Y-71783317D01*
X172451350Y-71909522D01*
X172354660Y-72006212D01*
X172293336Y-72039696D01*
X172223645Y-72034712D01*
X172167712Y-71992840D01*
X172150797Y-71961863D01*
X172106954Y-71844313D01*
X172106950Y-71844306D01*
X172020790Y-71729212D01*
X172020787Y-71729209D01*
X171905693Y-71643049D01*
X171905686Y-71643045D01*
X171770979Y-71592803D01*
X171770972Y-71592801D01*
X171711444Y-71586400D01*
X171050000Y-71586400D01*
X171050000Y-72507748D01*
X170996081Y-72476619D01*
X170866880Y-72442000D01*
X170733120Y-72442000D01*
X170603919Y-72476619D01*
X170550000Y-72507748D01*
X170550000Y-71586400D01*
X169888555Y-71586400D01*
X169829027Y-71592801D01*
X169829020Y-71592803D01*
X169694313Y-71643045D01*
X169694306Y-71643049D01*
X169579212Y-71729209D01*
X169579209Y-71729212D01*
X169493049Y-71844306D01*
X169493045Y-71844313D01*
X169449202Y-71961863D01*
X169407330Y-72017797D01*
X169341866Y-72042214D01*
X169273593Y-72027362D01*
X169245339Y-72006211D01*
X169148653Y-71909525D01*
X169148651Y-71909523D01*
X168974944Y-71783317D01*
X168783633Y-71685838D01*
X168783630Y-71685837D01*
X168579428Y-71619489D01*
X168410940Y-71592803D01*
X168367357Y-71585900D01*
X168152643Y-71585900D01*
X168109060Y-71592803D01*
X167940571Y-71619489D01*
X167736369Y-71685837D01*
X167736366Y-71685838D01*
X167545055Y-71783317D01*
X167445949Y-71855322D01*
X167371349Y-71909523D01*
X167371347Y-71909525D01*
X167371346Y-71909525D01*
X167219525Y-72061346D01*
X167219525Y-72061347D01*
X167219523Y-72061349D01*
X167165322Y-72135949D01*
X167093317Y-72235055D01*
X167004804Y-72408772D01*
X166956829Y-72459568D01*
X166889008Y-72476363D01*
X166862226Y-72472252D01*
X166820926Y-72461186D01*
X166797463Y-72454899D01*
X166639349Y-72454899D01*
X166631753Y-72454899D01*
X166631737Y-72454900D01*
X105173657Y-72454900D01*
X105015542Y-72454900D01*
X104862815Y-72495823D01*
X104862814Y-72495823D01*
X104862812Y-72495824D01*
X104862809Y-72495825D01*
X104812696Y-72524759D01*
X104812695Y-72524760D01*
X104780240Y-72543498D01*
X104725885Y-72574879D01*
X104725882Y-72574881D01*
X104614078Y-72686686D01*
X104003563Y-73297200D01*
X103942240Y-73330685D01*
X103877564Y-73327450D01*
X103751370Y-73286447D01*
X103518097Y-73249500D01*
X103518092Y-73249500D01*
X103281908Y-73249500D01*
X103281903Y-73249500D01*
X103048631Y-73286446D01*
X102824003Y-73359433D01*
X102613566Y-73466657D01*
X102504550Y-73545862D01*
X102422490Y-73605483D01*
X102422488Y-73605485D01*
X102422487Y-73605485D01*
X102255485Y-73772487D01*
X102255485Y-73772488D01*
X102255483Y-73772490D01*
X102207416Y-73838649D01*
X102116657Y-73963566D01*
X102056417Y-74081795D01*
X102008442Y-74132591D01*
X101945932Y-74149500D01*
X98354068Y-74149500D01*
X98287029Y-74129815D01*
X98243583Y-74081795D01*
X98183343Y-73963567D01*
X98044517Y-73772490D01*
X97877510Y-73605483D01*
X97686433Y-73466657D01*
X97664854Y-73455662D01*
X97475996Y-73359433D01*
X97251368Y-73286446D01*
X97018097Y-73249500D01*
X97018092Y-73249500D01*
X96781908Y-73249500D01*
X96781903Y-73249500D01*
X96548631Y-73286446D01*
X96324003Y-73359433D01*
X96113566Y-73466657D01*
X96004550Y-73545862D01*
X95922490Y-73605483D01*
X95922488Y-73605485D01*
X95922487Y-73605485D01*
X95755485Y-73772487D01*
X95755485Y-73772488D01*
X95755483Y-73772490D01*
X95707416Y-73838649D01*
X95616657Y-73963566D01*
X95509433Y-74174003D01*
X95436446Y-74398631D01*
X95399500Y-74631902D01*
X79800500Y-74631902D01*
X79800500Y-71897648D01*
X81699500Y-71897648D01*
X81699500Y-72102351D01*
X81731522Y-72304534D01*
X81794781Y-72499223D01*
X81887715Y-72681613D01*
X82008028Y-72847213D01*
X82152786Y-72991971D01*
X82307749Y-73104556D01*
X82318390Y-73112287D01*
X82434607Y-73171503D01*
X82500776Y-73205218D01*
X82500778Y-73205218D01*
X82500781Y-73205220D01*
X82605137Y-73239127D01*
X82695465Y-73268477D01*
X82796557Y-73284488D01*
X82897648Y-73300500D01*
X82897649Y-73300500D01*
X83102351Y-73300500D01*
X83102352Y-73300500D01*
X83304534Y-73268477D01*
X83499219Y-73205220D01*
X83681610Y-73112287D01*
X83812928Y-73016880D01*
X83847213Y-72991971D01*
X83847215Y-72991968D01*
X83847219Y-72991966D01*
X83991966Y-72847219D01*
X83991968Y-72847215D01*
X83991971Y-72847213D01*
X84059752Y-72753919D01*
X84112287Y-72681610D01*
X84205220Y-72499219D01*
X84268477Y-72304534D01*
X84300500Y-72102352D01*
X84300500Y-71897648D01*
X84292051Y-71844306D01*
X84268477Y-71695465D01*
X84205218Y-71500776D01*
X84171503Y-71434607D01*
X84112287Y-71318390D01*
X84087380Y-71284108D01*
X83991971Y-71152786D01*
X83847213Y-71008028D01*
X83681613Y-70887715D01*
X83681612Y-70887714D01*
X83681610Y-70887713D01*
X83624653Y-70858691D01*
X83499223Y-70794781D01*
X83304534Y-70731522D01*
X83129995Y-70703878D01*
X83102352Y-70699500D01*
X82897648Y-70699500D01*
X82873329Y-70703351D01*
X82695465Y-70731522D01*
X82500776Y-70794781D01*
X82318386Y-70887715D01*
X82152786Y-71008028D01*
X82008028Y-71152786D01*
X81887715Y-71318386D01*
X81794781Y-71500776D01*
X81731522Y-71695465D01*
X81699500Y-71897648D01*
X79800500Y-71897648D01*
X79800500Y-71353750D01*
X79800726Y-71346263D01*
X79818271Y-71056205D01*
X79820076Y-71041340D01*
X79871780Y-70759201D01*
X79875364Y-70744663D01*
X79879459Y-70731522D01*
X79960696Y-70470822D01*
X79965998Y-70456841D01*
X80083731Y-70195249D01*
X80090676Y-70182016D01*
X80239080Y-69936526D01*
X80247567Y-69924230D01*
X80424480Y-69698417D01*
X80434395Y-69687226D01*
X80637226Y-69484395D01*
X80648417Y-69474480D01*
X80874230Y-69297567D01*
X80886526Y-69289080D01*
X81132016Y-69140676D01*
X81145249Y-69133731D01*
X81406841Y-69015998D01*
X81420822Y-69010696D01*
X81694668Y-68925362D01*
X81709197Y-68921780D01*
X81991344Y-68870075D01*
X82006201Y-68868271D01*
X82296264Y-68850726D01*
X82303751Y-68850500D01*
X82365892Y-68850500D01*
X201134108Y-68850500D01*
X201196249Y-68850500D01*
X201203736Y-68850726D01*
G37*
%TD.AperFunction*%
%TD*%
M02*
