M48
; DRILL file {KiCad 9.0.7} date 2026-04-09T14:54:16-0700
; FORMAT={-:-/ absolute / metric / decimal}
; #@! TF.CreationDate,2026-04-09T14:54:16-07:00
; #@! TF.GenerationSoftware,Kicad,Pcbnew,9.0.7
; #@! TF.FileFunction,Plated,1,2,PTH
FMAT,2
METRIC
; #@! TA.AperFunction,Plated,PTH,ViaDrill
T1C0.300
; #@! TA.AperFunction,Plated,PTH,ComponentDrill
T2C1.000
; #@! TA.AperFunction,Plated,PTH,ComponentDrill
T3C1.016
; #@! TA.AperFunction,Plated,PTH,ComponentDrill
T4C1.100
%
G90
G05
T1
X107.5Y-113.5
X113.0Y-115.0
X118.5Y-110.5
X123.0Y-98.5
X128.0Y-112.9
X133.0Y-111.0
X136.0Y-112.9
X136.0Y-114.1
X136.0Y-118.9
X146.5Y-119.0
X152.0Y-110.5
X152.0Y-112.0
X157.0Y-111.0
T2
X91.9Y-78.5
X99.5Y-78.5
X136.38Y-71.0
X138.92Y-71.0
X141.46Y-71.0
X144.0Y-71.0
X166.5Y-75.42
X166.5Y-77.96
X166.5Y-80.5
X166.5Y-83.04
X166.5Y-85.58
X166.5Y-88.12
T3
X124.22Y-102.15
X124.22Y-104.69
X124.22Y-107.23
X124.22Y-109.77
X124.22Y-112.31
X124.22Y-114.85
X126.76Y-100.88
X126.76Y-116.12
X129.3Y-100.88
X129.3Y-116.12
X131.84Y-100.88
X131.84Y-116.12
X134.38Y-100.88
X134.38Y-116.12
X135.65Y-103.42
X136.92Y-100.88
X136.92Y-116.12
X138.19Y-103.42
X139.46Y-100.88
X139.46Y-116.12
X142.0Y-100.88
X142.0Y-116.12
X144.54Y-100.88
X144.54Y-116.12
X147.08Y-100.88
X147.08Y-116.12
X149.62Y-100.88
X149.62Y-116.12
X152.16Y-100.88
X152.16Y-116.12
X154.7Y-100.88
X154.7Y-103.42
X154.7Y-105.96
X154.7Y-108.5
X154.7Y-116.12
T4
X88.5Y-100.5
X88.5Y-105.0
X95.0Y-100.5
X95.0Y-105.0
X98.0Y-93.0
X98.0Y-97.5
X98.0Y-108.0
X98.0Y-112.5
X104.5Y-93.0
X104.5Y-97.5
X104.5Y-108.0
X104.5Y-112.5
X107.5Y-100.5
X107.5Y-105.0
X114.0Y-100.5
X114.0Y-105.0
X171.5Y-110.0
X171.5Y-114.5
X178.0Y-110.0
X178.0Y-114.5
X183.5Y-100.5
X183.5Y-105.0
X190.0Y-100.5
X190.0Y-105.0
M30
