%TF.GenerationSoftware,KiCad,Pcbnew,9.0.7*%
%TF.CreationDate,2026-03-16T20:17:23-07:00*%
%TF.ProjectId,Game Console,47616d65-2043-46f6-9e73-6f6c652e6b69,0*%
%TF.SameCoordinates,Original*%
%TF.FileFunction,Legend,Bot*%
%TF.FilePolarity,Positive*%
%FSLAX46Y46*%
G04 Gerber Fmt 4.6, Leading zero omitted, Abs format (unit mm)*
G04 Created by KiCad (PCBNEW 9.0.7) date 2026-03-16 20:17:23*
%MOMM*%
%LPD*%
G01*
G04 APERTURE LIST*
%ADD10C,0.150000*%
G04 APERTURE END LIST*
D10*
X171538094Y-86739819D02*
X171538094Y-85739819D01*
X171538094Y-85739819D02*
X171299999Y-85739819D01*
X171299999Y-85739819D02*
X171157142Y-85787438D01*
X171157142Y-85787438D02*
X171061904Y-85882676D01*
X171061904Y-85882676D02*
X171014285Y-85977914D01*
X171014285Y-85977914D02*
X170966666Y-86168390D01*
X170966666Y-86168390D02*
X170966666Y-86311247D01*
X170966666Y-86311247D02*
X171014285Y-86501723D01*
X171014285Y-86501723D02*
X171061904Y-86596961D01*
X171061904Y-86596961D02*
X171157142Y-86692200D01*
X171157142Y-86692200D02*
X171299999Y-86739819D01*
X171299999Y-86739819D02*
X171538094Y-86739819D01*
X170347618Y-85739819D02*
X170252380Y-85739819D01*
X170252380Y-85739819D02*
X170157142Y-85787438D01*
X170157142Y-85787438D02*
X170109523Y-85835057D01*
X170109523Y-85835057D02*
X170061904Y-85930295D01*
X170061904Y-85930295D02*
X170014285Y-86120771D01*
X170014285Y-86120771D02*
X170014285Y-86358866D01*
X170014285Y-86358866D02*
X170061904Y-86549342D01*
X170061904Y-86549342D02*
X170109523Y-86644580D01*
X170109523Y-86644580D02*
X170157142Y-86692200D01*
X170157142Y-86692200D02*
X170252380Y-86739819D01*
X170252380Y-86739819D02*
X170347618Y-86739819D01*
X170347618Y-86739819D02*
X170442856Y-86692200D01*
X170442856Y-86692200D02*
X170490475Y-86644580D01*
X170490475Y-86644580D02*
X170538094Y-86549342D01*
X170538094Y-86549342D02*
X170585713Y-86358866D01*
X170585713Y-86358866D02*
X170585713Y-86120771D01*
X170585713Y-86120771D02*
X170538094Y-85930295D01*
X170538094Y-85930295D02*
X170490475Y-85835057D01*
X170490475Y-85835057D02*
X170442856Y-85787438D01*
X170442856Y-85787438D02*
X170347618Y-85739819D01*
M02*
