%TF.GenerationSoftware,KiCad,Pcbnew,9.0.7*%
%TF.CreationDate,2026-04-09T14:54:04-07:00*%
%TF.ProjectId,Game Console,47616d65-2043-46f6-9e73-6f6c652e6b69,0*%
%TF.SameCoordinates,Original*%
%TF.FileFunction,Legend,Top*%
%TF.FilePolarity,Positive*%
%FSLAX46Y46*%
G04 Gerber Fmt 4.6, Leading zero omitted, Abs format (unit mm)*
G04 Created by KiCad (PCBNEW 9.0.7) date 2026-04-09 14:54:04*
%MOMM*%
%LPD*%
G01*
G04 APERTURE LIST*
%ADD10C,0.150000*%
%ADD11C,0.080000*%
%ADD12C,0.120000*%
%ADD13C,0.000000*%
G04 APERTURE END LIST*
D10*
X174821428Y-107931009D02*
X174964285Y-107978628D01*
X174964285Y-107978628D02*
X175011904Y-108026247D01*
X175011904Y-108026247D02*
X175059523Y-108121485D01*
X175059523Y-108121485D02*
X175059523Y-108264342D01*
X175059523Y-108264342D02*
X175011904Y-108359580D01*
X175011904Y-108359580D02*
X174964285Y-108407200D01*
X174964285Y-108407200D02*
X174869047Y-108454819D01*
X174869047Y-108454819D02*
X174488095Y-108454819D01*
X174488095Y-108454819D02*
X174488095Y-107454819D01*
X174488095Y-107454819D02*
X174821428Y-107454819D01*
X174821428Y-107454819D02*
X174916666Y-107502438D01*
X174916666Y-107502438D02*
X174964285Y-107550057D01*
X174964285Y-107550057D02*
X175011904Y-107645295D01*
X175011904Y-107645295D02*
X175011904Y-107740533D01*
X175011904Y-107740533D02*
X174964285Y-107835771D01*
X174964285Y-107835771D02*
X174916666Y-107883390D01*
X174916666Y-107883390D02*
X174821428Y-107931009D01*
X174821428Y-107931009D02*
X174488095Y-107931009D01*
X100464286Y-90454819D02*
X100464286Y-91264342D01*
X100464286Y-91264342D02*
X100511905Y-91359580D01*
X100511905Y-91359580D02*
X100559524Y-91407200D01*
X100559524Y-91407200D02*
X100654762Y-91454819D01*
X100654762Y-91454819D02*
X100845238Y-91454819D01*
X100845238Y-91454819D02*
X100940476Y-91407200D01*
X100940476Y-91407200D02*
X100988095Y-91359580D01*
X100988095Y-91359580D02*
X101035714Y-91264342D01*
X101035714Y-91264342D02*
X101035714Y-90454819D01*
X101511905Y-91454819D02*
X101511905Y-90454819D01*
X101511905Y-90454819D02*
X101892857Y-90454819D01*
X101892857Y-90454819D02*
X101988095Y-90502438D01*
X101988095Y-90502438D02*
X102035714Y-90550057D01*
X102035714Y-90550057D02*
X102083333Y-90645295D01*
X102083333Y-90645295D02*
X102083333Y-90788152D01*
X102083333Y-90788152D02*
X102035714Y-90883390D01*
X102035714Y-90883390D02*
X101988095Y-90931009D01*
X101988095Y-90931009D02*
X101892857Y-90978628D01*
X101892857Y-90978628D02*
X101511905Y-90978628D01*
X134017200Y-75666666D02*
X134064819Y-75523809D01*
X134064819Y-75523809D02*
X134064819Y-75285714D01*
X134064819Y-75285714D02*
X134017200Y-75190476D01*
X134017200Y-75190476D02*
X133969580Y-75142857D01*
X133969580Y-75142857D02*
X133874342Y-75095238D01*
X133874342Y-75095238D02*
X133779104Y-75095238D01*
X133779104Y-75095238D02*
X133683866Y-75142857D01*
X133683866Y-75142857D02*
X133636247Y-75190476D01*
X133636247Y-75190476D02*
X133588628Y-75285714D01*
X133588628Y-75285714D02*
X133541009Y-75476190D01*
X133541009Y-75476190D02*
X133493390Y-75571428D01*
X133493390Y-75571428D02*
X133445771Y-75619047D01*
X133445771Y-75619047D02*
X133350533Y-75666666D01*
X133350533Y-75666666D02*
X133255295Y-75666666D01*
X133255295Y-75666666D02*
X133160057Y-75619047D01*
X133160057Y-75619047D02*
X133112438Y-75571428D01*
X133112438Y-75571428D02*
X133064819Y-75476190D01*
X133064819Y-75476190D02*
X133064819Y-75238095D01*
X133064819Y-75238095D02*
X133112438Y-75095238D01*
X134017200Y-74714285D02*
X134064819Y-74571428D01*
X134064819Y-74571428D02*
X134064819Y-74333333D01*
X134064819Y-74333333D02*
X134017200Y-74238095D01*
X134017200Y-74238095D02*
X133969580Y-74190476D01*
X133969580Y-74190476D02*
X133874342Y-74142857D01*
X133874342Y-74142857D02*
X133779104Y-74142857D01*
X133779104Y-74142857D02*
X133683866Y-74190476D01*
X133683866Y-74190476D02*
X133636247Y-74238095D01*
X133636247Y-74238095D02*
X133588628Y-74333333D01*
X133588628Y-74333333D02*
X133541009Y-74523809D01*
X133541009Y-74523809D02*
X133493390Y-74619047D01*
X133493390Y-74619047D02*
X133445771Y-74666666D01*
X133445771Y-74666666D02*
X133350533Y-74714285D01*
X133350533Y-74714285D02*
X133255295Y-74714285D01*
X133255295Y-74714285D02*
X133160057Y-74666666D01*
X133160057Y-74666666D02*
X133112438Y-74619047D01*
X133112438Y-74619047D02*
X133064819Y-74523809D01*
X133064819Y-74523809D02*
X133064819Y-74285714D01*
X133064819Y-74285714D02*
X133112438Y-74142857D01*
X134064819Y-73714285D02*
X133064819Y-73714285D01*
X133064819Y-73714285D02*
X133064819Y-73476190D01*
X133064819Y-73476190D02*
X133112438Y-73333333D01*
X133112438Y-73333333D02*
X133207676Y-73238095D01*
X133207676Y-73238095D02*
X133302914Y-73190476D01*
X133302914Y-73190476D02*
X133493390Y-73142857D01*
X133493390Y-73142857D02*
X133636247Y-73142857D01*
X133636247Y-73142857D02*
X133826723Y-73190476D01*
X133826723Y-73190476D02*
X133921961Y-73238095D01*
X133921961Y-73238095D02*
X134017200Y-73333333D01*
X134017200Y-73333333D02*
X134064819Y-73476190D01*
X134064819Y-73476190D02*
X134064819Y-73714285D01*
X134064819Y-72190476D02*
X134064819Y-72761904D01*
X134064819Y-72476190D02*
X133064819Y-72476190D01*
X133064819Y-72476190D02*
X133207676Y-72571428D01*
X133207676Y-72571428D02*
X133302914Y-72666666D01*
X133302914Y-72666666D02*
X133350533Y-72761904D01*
X133064819Y-71857142D02*
X133064819Y-71238095D01*
X133064819Y-71238095D02*
X133445771Y-71571428D01*
X133445771Y-71571428D02*
X133445771Y-71428571D01*
X133445771Y-71428571D02*
X133493390Y-71333333D01*
X133493390Y-71333333D02*
X133541009Y-71285714D01*
X133541009Y-71285714D02*
X133636247Y-71238095D01*
X133636247Y-71238095D02*
X133874342Y-71238095D01*
X133874342Y-71238095D02*
X133969580Y-71285714D01*
X133969580Y-71285714D02*
X134017200Y-71333333D01*
X134017200Y-71333333D02*
X134064819Y-71428571D01*
X134064819Y-71428571D02*
X134064819Y-71714285D01*
X134064819Y-71714285D02*
X134017200Y-71809523D01*
X134017200Y-71809523D02*
X133969580Y-71857142D01*
X133064819Y-70619047D02*
X133064819Y-70523809D01*
X133064819Y-70523809D02*
X133112438Y-70428571D01*
X133112438Y-70428571D02*
X133160057Y-70380952D01*
X133160057Y-70380952D02*
X133255295Y-70333333D01*
X133255295Y-70333333D02*
X133445771Y-70285714D01*
X133445771Y-70285714D02*
X133683866Y-70285714D01*
X133683866Y-70285714D02*
X133874342Y-70333333D01*
X133874342Y-70333333D02*
X133969580Y-70380952D01*
X133969580Y-70380952D02*
X134017200Y-70428571D01*
X134017200Y-70428571D02*
X134064819Y-70523809D01*
X134064819Y-70523809D02*
X134064819Y-70619047D01*
X134064819Y-70619047D02*
X134017200Y-70714285D01*
X134017200Y-70714285D02*
X133969580Y-70761904D01*
X133969580Y-70761904D02*
X133874342Y-70809523D01*
X133874342Y-70809523D02*
X133683866Y-70857142D01*
X133683866Y-70857142D02*
X133445771Y-70857142D01*
X133445771Y-70857142D02*
X133255295Y-70809523D01*
X133255295Y-70809523D02*
X133160057Y-70761904D01*
X133160057Y-70761904D02*
X133112438Y-70714285D01*
X133112438Y-70714285D02*
X133064819Y-70619047D01*
X133064819Y-69428571D02*
X133064819Y-69619047D01*
X133064819Y-69619047D02*
X133112438Y-69714285D01*
X133112438Y-69714285D02*
X133160057Y-69761904D01*
X133160057Y-69761904D02*
X133302914Y-69857142D01*
X133302914Y-69857142D02*
X133493390Y-69904761D01*
X133493390Y-69904761D02*
X133874342Y-69904761D01*
X133874342Y-69904761D02*
X133969580Y-69857142D01*
X133969580Y-69857142D02*
X134017200Y-69809523D01*
X134017200Y-69809523D02*
X134064819Y-69714285D01*
X134064819Y-69714285D02*
X134064819Y-69523809D01*
X134064819Y-69523809D02*
X134017200Y-69428571D01*
X134017200Y-69428571D02*
X133969580Y-69380952D01*
X133969580Y-69380952D02*
X133874342Y-69333333D01*
X133874342Y-69333333D02*
X133636247Y-69333333D01*
X133636247Y-69333333D02*
X133541009Y-69380952D01*
X133541009Y-69380952D02*
X133493390Y-69428571D01*
X133493390Y-69428571D02*
X133445771Y-69523809D01*
X133445771Y-69523809D02*
X133445771Y-69714285D01*
X133445771Y-69714285D02*
X133493390Y-69809523D01*
X133493390Y-69809523D02*
X133541009Y-69857142D01*
X133541009Y-69857142D02*
X133636247Y-69904761D01*
X122103104Y-115786666D02*
X122103104Y-115310476D01*
X122388819Y-115881904D02*
X121388819Y-115548571D01*
X121388819Y-115548571D02*
X122388819Y-115215238D01*
X122388819Y-114881904D02*
X121722152Y-114881904D01*
X121912628Y-114881904D02*
X121817390Y-114834285D01*
X121817390Y-114834285D02*
X121769771Y-114786666D01*
X121769771Y-114786666D02*
X121722152Y-114691428D01*
X121722152Y-114691428D02*
X121722152Y-114596190D01*
X122388819Y-113834285D02*
X121388819Y-113834285D01*
X122341200Y-113834285D02*
X122388819Y-113929523D01*
X122388819Y-113929523D02*
X122388819Y-114119999D01*
X122388819Y-114119999D02*
X122341200Y-114215237D01*
X122341200Y-114215237D02*
X122293580Y-114262856D01*
X122293580Y-114262856D02*
X122198342Y-114310475D01*
X122198342Y-114310475D02*
X121912628Y-114310475D01*
X121912628Y-114310475D02*
X121817390Y-114262856D01*
X121817390Y-114262856D02*
X121769771Y-114215237D01*
X121769771Y-114215237D02*
X121722152Y-114119999D01*
X121722152Y-114119999D02*
X121722152Y-113929523D01*
X121722152Y-113929523D02*
X121769771Y-113834285D01*
X122007866Y-113358094D02*
X122007866Y-112596190D01*
X122388819Y-112119999D02*
X121388819Y-112119999D01*
X121388819Y-112119999D02*
X121388819Y-111739047D01*
X121388819Y-111739047D02*
X121436438Y-111643809D01*
X121436438Y-111643809D02*
X121484057Y-111596190D01*
X121484057Y-111596190D02*
X121579295Y-111548571D01*
X121579295Y-111548571D02*
X121722152Y-111548571D01*
X121722152Y-111548571D02*
X121817390Y-111596190D01*
X121817390Y-111596190D02*
X121865009Y-111643809D01*
X121865009Y-111643809D02*
X121912628Y-111739047D01*
X121912628Y-111739047D02*
X121912628Y-112119999D01*
X122388819Y-111119999D02*
X121388819Y-111119999D01*
X121388819Y-111119999D02*
X122103104Y-110786666D01*
X122103104Y-110786666D02*
X121388819Y-110453333D01*
X121388819Y-110453333D02*
X122388819Y-110453333D01*
X122388819Y-109453333D02*
X122388819Y-110024761D01*
X122388819Y-109739047D02*
X121388819Y-109739047D01*
X121388819Y-109739047D02*
X121531676Y-109834285D01*
X121531676Y-109834285D02*
X121626914Y-109929523D01*
X121626914Y-109929523D02*
X121674533Y-110024761D01*
D11*
X123553333Y-100191887D02*
X123667619Y-100229982D01*
X123667619Y-100229982D02*
X123705714Y-100268078D01*
X123705714Y-100268078D02*
X123743810Y-100344268D01*
X123743810Y-100344268D02*
X123743810Y-100458554D01*
X123743810Y-100458554D02*
X123705714Y-100534744D01*
X123705714Y-100534744D02*
X123667619Y-100572840D01*
X123667619Y-100572840D02*
X123591429Y-100610935D01*
X123591429Y-100610935D02*
X123286667Y-100610935D01*
X123286667Y-100610935D02*
X123286667Y-99810935D01*
X123286667Y-99810935D02*
X123553333Y-99810935D01*
X123553333Y-99810935D02*
X123629524Y-99849030D01*
X123629524Y-99849030D02*
X123667619Y-99887125D01*
X123667619Y-99887125D02*
X123705714Y-99963316D01*
X123705714Y-99963316D02*
X123705714Y-100039506D01*
X123705714Y-100039506D02*
X123667619Y-100115697D01*
X123667619Y-100115697D02*
X123629524Y-100153792D01*
X123629524Y-100153792D02*
X123553333Y-100191887D01*
X123553333Y-100191887D02*
X123286667Y-100191887D01*
X124467619Y-100610935D02*
X124086667Y-100610935D01*
X124086667Y-100610935D02*
X124086667Y-99810935D01*
X124734286Y-100610935D02*
X124734286Y-99810935D01*
X125191429Y-100610935D02*
X124848571Y-100153792D01*
X125191429Y-99810935D02*
X124734286Y-100268078D01*
D10*
X128561905Y-114669819D02*
X128561905Y-113669819D01*
X128561905Y-113669819D02*
X128800000Y-113669819D01*
X128800000Y-113669819D02*
X128942857Y-113717438D01*
X128942857Y-113717438D02*
X129038095Y-113812676D01*
X129038095Y-113812676D02*
X129085714Y-113907914D01*
X129085714Y-113907914D02*
X129133333Y-114098390D01*
X129133333Y-114098390D02*
X129133333Y-114241247D01*
X129133333Y-114241247D02*
X129085714Y-114431723D01*
X129085714Y-114431723D02*
X129038095Y-114526961D01*
X129038095Y-114526961D02*
X128942857Y-114622200D01*
X128942857Y-114622200D02*
X128800000Y-114669819D01*
X128800000Y-114669819D02*
X128561905Y-114669819D01*
X129752381Y-113669819D02*
X129847619Y-113669819D01*
X129847619Y-113669819D02*
X129942857Y-113717438D01*
X129942857Y-113717438D02*
X129990476Y-113765057D01*
X129990476Y-113765057D02*
X130038095Y-113860295D01*
X130038095Y-113860295D02*
X130085714Y-114050771D01*
X130085714Y-114050771D02*
X130085714Y-114288866D01*
X130085714Y-114288866D02*
X130038095Y-114479342D01*
X130038095Y-114479342D02*
X129990476Y-114574580D01*
X129990476Y-114574580D02*
X129942857Y-114622200D01*
X129942857Y-114622200D02*
X129847619Y-114669819D01*
X129847619Y-114669819D02*
X129752381Y-114669819D01*
X129752381Y-114669819D02*
X129657143Y-114622200D01*
X129657143Y-114622200D02*
X129609524Y-114574580D01*
X129609524Y-114574580D02*
X129561905Y-114479342D01*
X129561905Y-114479342D02*
X129514286Y-114288866D01*
X129514286Y-114288866D02*
X129514286Y-114050771D01*
X129514286Y-114050771D02*
X129561905Y-113860295D01*
X129561905Y-113860295D02*
X129609524Y-113765057D01*
X129609524Y-113765057D02*
X129657143Y-113717438D01*
X129657143Y-113717438D02*
X129752381Y-113669819D01*
D11*
X123610476Y-116359030D02*
X123534286Y-116320935D01*
X123534286Y-116320935D02*
X123420000Y-116320935D01*
X123420000Y-116320935D02*
X123305714Y-116359030D01*
X123305714Y-116359030D02*
X123229524Y-116435220D01*
X123229524Y-116435220D02*
X123191429Y-116511411D01*
X123191429Y-116511411D02*
X123153333Y-116663792D01*
X123153333Y-116663792D02*
X123153333Y-116778078D01*
X123153333Y-116778078D02*
X123191429Y-116930459D01*
X123191429Y-116930459D02*
X123229524Y-117006649D01*
X123229524Y-117006649D02*
X123305714Y-117082840D01*
X123305714Y-117082840D02*
X123420000Y-117120935D01*
X123420000Y-117120935D02*
X123496191Y-117120935D01*
X123496191Y-117120935D02*
X123610476Y-117082840D01*
X123610476Y-117082840D02*
X123648572Y-117044744D01*
X123648572Y-117044744D02*
X123648572Y-116778078D01*
X123648572Y-116778078D02*
X123496191Y-116778078D01*
X124448572Y-117120935D02*
X124181905Y-116739982D01*
X123991429Y-117120935D02*
X123991429Y-116320935D01*
X123991429Y-116320935D02*
X124296191Y-116320935D01*
X124296191Y-116320935D02*
X124372381Y-116359030D01*
X124372381Y-116359030D02*
X124410476Y-116397125D01*
X124410476Y-116397125D02*
X124448572Y-116473316D01*
X124448572Y-116473316D02*
X124448572Y-116587601D01*
X124448572Y-116587601D02*
X124410476Y-116663792D01*
X124410476Y-116663792D02*
X124372381Y-116701887D01*
X124372381Y-116701887D02*
X124296191Y-116739982D01*
X124296191Y-116739982D02*
X123991429Y-116739982D01*
X124791429Y-117120935D02*
X124791429Y-116320935D01*
X124791429Y-116320935D02*
X125248572Y-117120935D01*
X125248572Y-117120935D02*
X125248572Y-116320935D01*
D10*
X85666667Y-116550057D02*
X85714286Y-116502438D01*
X85714286Y-116502438D02*
X85809524Y-116454819D01*
X85809524Y-116454819D02*
X86047619Y-116454819D01*
X86047619Y-116454819D02*
X86142857Y-116502438D01*
X86142857Y-116502438D02*
X86190476Y-116550057D01*
X86190476Y-116550057D02*
X86238095Y-116645295D01*
X86238095Y-116645295D02*
X86238095Y-116740533D01*
X86238095Y-116740533D02*
X86190476Y-116883390D01*
X86190476Y-116883390D02*
X85619048Y-117454819D01*
X85619048Y-117454819D02*
X86238095Y-117454819D01*
X86666667Y-117359580D02*
X86714286Y-117407200D01*
X86714286Y-117407200D02*
X86666667Y-117454819D01*
X86666667Y-117454819D02*
X86619048Y-117407200D01*
X86619048Y-117407200D02*
X86666667Y-117359580D01*
X86666667Y-117359580D02*
X86666667Y-117454819D01*
X87666666Y-117454819D02*
X87095238Y-117454819D01*
X87380952Y-117454819D02*
X87380952Y-116454819D01*
X87380952Y-116454819D02*
X87285714Y-116597676D01*
X87285714Y-116597676D02*
X87190476Y-116692914D01*
X87190476Y-116692914D02*
X87095238Y-116740533D01*
X88095238Y-117454819D02*
X88095238Y-116788152D01*
X88095238Y-116883390D02*
X88142857Y-116835771D01*
X88142857Y-116835771D02*
X88238095Y-116788152D01*
X88238095Y-116788152D02*
X88380952Y-116788152D01*
X88380952Y-116788152D02*
X88476190Y-116835771D01*
X88476190Y-116835771D02*
X88523809Y-116931009D01*
X88523809Y-116931009D02*
X88523809Y-117454819D01*
X88523809Y-116931009D02*
X88571428Y-116835771D01*
X88571428Y-116835771D02*
X88666666Y-116788152D01*
X88666666Y-116788152D02*
X88809523Y-116788152D01*
X88809523Y-116788152D02*
X88904762Y-116835771D01*
X88904762Y-116835771D02*
X88952381Y-116931009D01*
X88952381Y-116931009D02*
X88952381Y-117454819D01*
X89428571Y-117454819D02*
X89428571Y-116788152D01*
X89428571Y-116883390D02*
X89476190Y-116835771D01*
X89476190Y-116835771D02*
X89571428Y-116788152D01*
X89571428Y-116788152D02*
X89714285Y-116788152D01*
X89714285Y-116788152D02*
X89809523Y-116835771D01*
X89809523Y-116835771D02*
X89857142Y-116931009D01*
X89857142Y-116931009D02*
X89857142Y-117454819D01*
X89857142Y-116931009D02*
X89904761Y-116835771D01*
X89904761Y-116835771D02*
X89999999Y-116788152D01*
X89999999Y-116788152D02*
X90142856Y-116788152D01*
X90142856Y-116788152D02*
X90238095Y-116835771D01*
X90238095Y-116835771D02*
X90285714Y-116931009D01*
X90285714Y-116931009D02*
X90285714Y-117454819D01*
X186511905Y-98669104D02*
X186988095Y-98669104D01*
X186416667Y-98954819D02*
X186750000Y-97954819D01*
X186750000Y-97954819D02*
X187083333Y-98954819D01*
X90797618Y-98954819D02*
X90321428Y-98954819D01*
X90321428Y-98954819D02*
X90321428Y-97954819D01*
X91130952Y-98431009D02*
X91464285Y-98431009D01*
X91607142Y-98954819D02*
X91130952Y-98954819D01*
X91130952Y-98954819D02*
X91130952Y-97954819D01*
X91130952Y-97954819D02*
X91607142Y-97954819D01*
X92369047Y-98431009D02*
X92035714Y-98431009D01*
X92035714Y-98954819D02*
X92035714Y-97954819D01*
X92035714Y-97954819D02*
X92511904Y-97954819D01*
X92750000Y-97954819D02*
X93321428Y-97954819D01*
X93035714Y-98954819D02*
X93035714Y-97954819D01*
X198666667Y-74550057D02*
X198714286Y-74502438D01*
X198714286Y-74502438D02*
X198809524Y-74454819D01*
X198809524Y-74454819D02*
X199047619Y-74454819D01*
X199047619Y-74454819D02*
X199142857Y-74502438D01*
X199142857Y-74502438D02*
X199190476Y-74550057D01*
X199190476Y-74550057D02*
X199238095Y-74645295D01*
X199238095Y-74645295D02*
X199238095Y-74740533D01*
X199238095Y-74740533D02*
X199190476Y-74883390D01*
X199190476Y-74883390D02*
X198619048Y-75454819D01*
X198619048Y-75454819D02*
X199238095Y-75454819D01*
X199666667Y-75359580D02*
X199714286Y-75407200D01*
X199714286Y-75407200D02*
X199666667Y-75454819D01*
X199666667Y-75454819D02*
X199619048Y-75407200D01*
X199619048Y-75407200D02*
X199666667Y-75359580D01*
X199666667Y-75359580D02*
X199666667Y-75454819D01*
X200666666Y-75454819D02*
X200095238Y-75454819D01*
X200380952Y-75454819D02*
X200380952Y-74454819D01*
X200380952Y-74454819D02*
X200285714Y-74597676D01*
X200285714Y-74597676D02*
X200190476Y-74692914D01*
X200190476Y-74692914D02*
X200095238Y-74740533D01*
X201095238Y-75454819D02*
X201095238Y-74788152D01*
X201095238Y-74883390D02*
X201142857Y-74835771D01*
X201142857Y-74835771D02*
X201238095Y-74788152D01*
X201238095Y-74788152D02*
X201380952Y-74788152D01*
X201380952Y-74788152D02*
X201476190Y-74835771D01*
X201476190Y-74835771D02*
X201523809Y-74931009D01*
X201523809Y-74931009D02*
X201523809Y-75454819D01*
X201523809Y-74931009D02*
X201571428Y-74835771D01*
X201571428Y-74835771D02*
X201666666Y-74788152D01*
X201666666Y-74788152D02*
X201809523Y-74788152D01*
X201809523Y-74788152D02*
X201904762Y-74835771D01*
X201904762Y-74835771D02*
X201952381Y-74931009D01*
X201952381Y-74931009D02*
X201952381Y-75454819D01*
X202428571Y-75454819D02*
X202428571Y-74788152D01*
X202428571Y-74883390D02*
X202476190Y-74835771D01*
X202476190Y-74835771D02*
X202571428Y-74788152D01*
X202571428Y-74788152D02*
X202714285Y-74788152D01*
X202714285Y-74788152D02*
X202809523Y-74835771D01*
X202809523Y-74835771D02*
X202857142Y-74931009D01*
X202857142Y-74931009D02*
X202857142Y-75454819D01*
X202857142Y-74931009D02*
X202904761Y-74835771D01*
X202904761Y-74835771D02*
X202999999Y-74788152D01*
X202999999Y-74788152D02*
X203142856Y-74788152D01*
X203142856Y-74788152D02*
X203238095Y-74835771D01*
X203238095Y-74835771D02*
X203285714Y-74931009D01*
X203285714Y-74931009D02*
X203285714Y-75454819D01*
X109416666Y-98954819D02*
X109083333Y-98478628D01*
X108845238Y-98954819D02*
X108845238Y-97954819D01*
X108845238Y-97954819D02*
X109226190Y-97954819D01*
X109226190Y-97954819D02*
X109321428Y-98002438D01*
X109321428Y-98002438D02*
X109369047Y-98050057D01*
X109369047Y-98050057D02*
X109416666Y-98145295D01*
X109416666Y-98145295D02*
X109416666Y-98288152D01*
X109416666Y-98288152D02*
X109369047Y-98383390D01*
X109369047Y-98383390D02*
X109321428Y-98431009D01*
X109321428Y-98431009D02*
X109226190Y-98478628D01*
X109226190Y-98478628D02*
X108845238Y-98478628D01*
X109845238Y-98954819D02*
X109845238Y-97954819D01*
X110845237Y-98002438D02*
X110749999Y-97954819D01*
X110749999Y-97954819D02*
X110607142Y-97954819D01*
X110607142Y-97954819D02*
X110464285Y-98002438D01*
X110464285Y-98002438D02*
X110369047Y-98097676D01*
X110369047Y-98097676D02*
X110321428Y-98192914D01*
X110321428Y-98192914D02*
X110273809Y-98383390D01*
X110273809Y-98383390D02*
X110273809Y-98526247D01*
X110273809Y-98526247D02*
X110321428Y-98716723D01*
X110321428Y-98716723D02*
X110369047Y-98811961D01*
X110369047Y-98811961D02*
X110464285Y-98907200D01*
X110464285Y-98907200D02*
X110607142Y-98954819D01*
X110607142Y-98954819D02*
X110702380Y-98954819D01*
X110702380Y-98954819D02*
X110845237Y-98907200D01*
X110845237Y-98907200D02*
X110892856Y-98859580D01*
X110892856Y-98859580D02*
X110892856Y-98526247D01*
X110892856Y-98526247D02*
X110702380Y-98526247D01*
X111321428Y-98954819D02*
X111321428Y-97954819D01*
X111321428Y-98431009D02*
X111892856Y-98431009D01*
X111892856Y-98954819D02*
X111892856Y-97954819D01*
X112226190Y-97954819D02*
X112797618Y-97954819D01*
X112511904Y-98954819D02*
X112511904Y-97954819D01*
X80666667Y-74550057D02*
X80714286Y-74502438D01*
X80714286Y-74502438D02*
X80809524Y-74454819D01*
X80809524Y-74454819D02*
X81047619Y-74454819D01*
X81047619Y-74454819D02*
X81142857Y-74502438D01*
X81142857Y-74502438D02*
X81190476Y-74550057D01*
X81190476Y-74550057D02*
X81238095Y-74645295D01*
X81238095Y-74645295D02*
X81238095Y-74740533D01*
X81238095Y-74740533D02*
X81190476Y-74883390D01*
X81190476Y-74883390D02*
X80619048Y-75454819D01*
X80619048Y-75454819D02*
X81238095Y-75454819D01*
X81666667Y-75359580D02*
X81714286Y-75407200D01*
X81714286Y-75407200D02*
X81666667Y-75454819D01*
X81666667Y-75454819D02*
X81619048Y-75407200D01*
X81619048Y-75407200D02*
X81666667Y-75359580D01*
X81666667Y-75359580D02*
X81666667Y-75454819D01*
X82666666Y-75454819D02*
X82095238Y-75454819D01*
X82380952Y-75454819D02*
X82380952Y-74454819D01*
X82380952Y-74454819D02*
X82285714Y-74597676D01*
X82285714Y-74597676D02*
X82190476Y-74692914D01*
X82190476Y-74692914D02*
X82095238Y-74740533D01*
X83095238Y-75454819D02*
X83095238Y-74788152D01*
X83095238Y-74883390D02*
X83142857Y-74835771D01*
X83142857Y-74835771D02*
X83238095Y-74788152D01*
X83238095Y-74788152D02*
X83380952Y-74788152D01*
X83380952Y-74788152D02*
X83476190Y-74835771D01*
X83476190Y-74835771D02*
X83523809Y-74931009D01*
X83523809Y-74931009D02*
X83523809Y-75454819D01*
X83523809Y-74931009D02*
X83571428Y-74835771D01*
X83571428Y-74835771D02*
X83666666Y-74788152D01*
X83666666Y-74788152D02*
X83809523Y-74788152D01*
X83809523Y-74788152D02*
X83904762Y-74835771D01*
X83904762Y-74835771D02*
X83952381Y-74931009D01*
X83952381Y-74931009D02*
X83952381Y-75454819D01*
X84428571Y-75454819D02*
X84428571Y-74788152D01*
X84428571Y-74883390D02*
X84476190Y-74835771D01*
X84476190Y-74835771D02*
X84571428Y-74788152D01*
X84571428Y-74788152D02*
X84714285Y-74788152D01*
X84714285Y-74788152D02*
X84809523Y-74835771D01*
X84809523Y-74835771D02*
X84857142Y-74931009D01*
X84857142Y-74931009D02*
X84857142Y-75454819D01*
X84857142Y-74931009D02*
X84904761Y-74835771D01*
X84904761Y-74835771D02*
X84999999Y-74788152D01*
X84999999Y-74788152D02*
X85142856Y-74788152D01*
X85142856Y-74788152D02*
X85238095Y-74835771D01*
X85238095Y-74835771D02*
X85285714Y-74931009D01*
X85285714Y-74931009D02*
X85285714Y-75454819D01*
X161904761Y-90431009D02*
X161571428Y-90431009D01*
X161571428Y-90954819D02*
X161571428Y-89954819D01*
X161571428Y-89954819D02*
X162047618Y-89954819D01*
X162285714Y-89954819D02*
X162857142Y-89954819D01*
X162571428Y-90954819D02*
X162571428Y-89954819D01*
X163142857Y-90050057D02*
X163190476Y-90002438D01*
X163190476Y-90002438D02*
X163285714Y-89954819D01*
X163285714Y-89954819D02*
X163523809Y-89954819D01*
X163523809Y-89954819D02*
X163619047Y-90002438D01*
X163619047Y-90002438D02*
X163666666Y-90050057D01*
X163666666Y-90050057D02*
X163714285Y-90145295D01*
X163714285Y-90145295D02*
X163714285Y-90240533D01*
X163714285Y-90240533D02*
X163666666Y-90383390D01*
X163666666Y-90383390D02*
X163095238Y-90954819D01*
X163095238Y-90954819D02*
X163714285Y-90954819D01*
X164047619Y-89954819D02*
X164666666Y-89954819D01*
X164666666Y-89954819D02*
X164333333Y-90335771D01*
X164333333Y-90335771D02*
X164476190Y-90335771D01*
X164476190Y-90335771D02*
X164571428Y-90383390D01*
X164571428Y-90383390D02*
X164619047Y-90431009D01*
X164619047Y-90431009D02*
X164666666Y-90526247D01*
X164666666Y-90526247D02*
X164666666Y-90764342D01*
X164666666Y-90764342D02*
X164619047Y-90859580D01*
X164619047Y-90859580D02*
X164571428Y-90907200D01*
X164571428Y-90907200D02*
X164476190Y-90954819D01*
X164476190Y-90954819D02*
X164190476Y-90954819D01*
X164190476Y-90954819D02*
X164095238Y-90907200D01*
X164095238Y-90907200D02*
X164047619Y-90859580D01*
X165047619Y-90050057D02*
X165095238Y-90002438D01*
X165095238Y-90002438D02*
X165190476Y-89954819D01*
X165190476Y-89954819D02*
X165428571Y-89954819D01*
X165428571Y-89954819D02*
X165523809Y-90002438D01*
X165523809Y-90002438D02*
X165571428Y-90050057D01*
X165571428Y-90050057D02*
X165619047Y-90145295D01*
X165619047Y-90145295D02*
X165619047Y-90240533D01*
X165619047Y-90240533D02*
X165571428Y-90383390D01*
X165571428Y-90383390D02*
X165000000Y-90954819D01*
X165000000Y-90954819D02*
X165619047Y-90954819D01*
X166619047Y-90954819D02*
X166285714Y-90478628D01*
X166047619Y-90954819D02*
X166047619Y-89954819D01*
X166047619Y-89954819D02*
X166428571Y-89954819D01*
X166428571Y-89954819D02*
X166523809Y-90002438D01*
X166523809Y-90002438D02*
X166571428Y-90050057D01*
X166571428Y-90050057D02*
X166619047Y-90145295D01*
X166619047Y-90145295D02*
X166619047Y-90288152D01*
X166619047Y-90288152D02*
X166571428Y-90383390D01*
X166571428Y-90383390D02*
X166523809Y-90431009D01*
X166523809Y-90431009D02*
X166428571Y-90478628D01*
X166428571Y-90478628D02*
X166047619Y-90478628D01*
X167523809Y-90954819D02*
X167047619Y-90954819D01*
X167047619Y-90954819D02*
X167047619Y-89954819D01*
X168190476Y-90431009D02*
X167857143Y-90431009D01*
X167857143Y-90954819D02*
X167857143Y-89954819D01*
X167857143Y-89954819D02*
X168333333Y-89954819D01*
X168571429Y-89954819D02*
X169142857Y-89954819D01*
X168857143Y-90954819D02*
X168857143Y-89954819D01*
X169476191Y-90954819D02*
X169476191Y-89954819D01*
X169476191Y-89954819D02*
X169714286Y-89954819D01*
X169714286Y-89954819D02*
X169857143Y-90002438D01*
X169857143Y-90002438D02*
X169952381Y-90097676D01*
X169952381Y-90097676D02*
X170000000Y-90192914D01*
X170000000Y-90192914D02*
X170047619Y-90383390D01*
X170047619Y-90383390D02*
X170047619Y-90526247D01*
X170047619Y-90526247D02*
X170000000Y-90716723D01*
X170000000Y-90716723D02*
X169952381Y-90811961D01*
X169952381Y-90811961D02*
X169857143Y-90907200D01*
X169857143Y-90907200D02*
X169714286Y-90954819D01*
X169714286Y-90954819D02*
X169476191Y-90954819D01*
X170476191Y-90954819D02*
X170476191Y-89954819D01*
X171476190Y-90954819D02*
X170904762Y-90954819D01*
X171190476Y-90954819D02*
X171190476Y-89954819D01*
X171190476Y-89954819D02*
X171095238Y-90097676D01*
X171095238Y-90097676D02*
X171000000Y-90192914D01*
X171000000Y-90192914D02*
X170904762Y-90240533D01*
X99369048Y-106454819D02*
X99369048Y-105454819D01*
X99369048Y-105454819D02*
X99607143Y-105454819D01*
X99607143Y-105454819D02*
X99750000Y-105502438D01*
X99750000Y-105502438D02*
X99845238Y-105597676D01*
X99845238Y-105597676D02*
X99892857Y-105692914D01*
X99892857Y-105692914D02*
X99940476Y-105883390D01*
X99940476Y-105883390D02*
X99940476Y-106026247D01*
X99940476Y-106026247D02*
X99892857Y-106216723D01*
X99892857Y-106216723D02*
X99845238Y-106311961D01*
X99845238Y-106311961D02*
X99750000Y-106407200D01*
X99750000Y-106407200D02*
X99607143Y-106454819D01*
X99607143Y-106454819D02*
X99369048Y-106454819D01*
X100559524Y-105454819D02*
X100750000Y-105454819D01*
X100750000Y-105454819D02*
X100845238Y-105502438D01*
X100845238Y-105502438D02*
X100940476Y-105597676D01*
X100940476Y-105597676D02*
X100988095Y-105788152D01*
X100988095Y-105788152D02*
X100988095Y-106121485D01*
X100988095Y-106121485D02*
X100940476Y-106311961D01*
X100940476Y-106311961D02*
X100845238Y-106407200D01*
X100845238Y-106407200D02*
X100750000Y-106454819D01*
X100750000Y-106454819D02*
X100559524Y-106454819D01*
X100559524Y-106454819D02*
X100464286Y-106407200D01*
X100464286Y-106407200D02*
X100369048Y-106311961D01*
X100369048Y-106311961D02*
X100321429Y-106121485D01*
X100321429Y-106121485D02*
X100321429Y-105788152D01*
X100321429Y-105788152D02*
X100369048Y-105597676D01*
X100369048Y-105597676D02*
X100464286Y-105502438D01*
X100464286Y-105502438D02*
X100559524Y-105454819D01*
X101321429Y-105454819D02*
X101559524Y-106454819D01*
X101559524Y-106454819D02*
X101750000Y-105740533D01*
X101750000Y-105740533D02*
X101940476Y-106454819D01*
X101940476Y-106454819D02*
X102178572Y-105454819D01*
X102559524Y-106454819D02*
X102559524Y-105454819D01*
X102559524Y-105454819D02*
X103130952Y-106454819D01*
X103130952Y-106454819D02*
X103130952Y-105454819D01*
X94819047Y-71231009D02*
X94961904Y-71278628D01*
X94961904Y-71278628D02*
X95009523Y-71326247D01*
X95009523Y-71326247D02*
X95057142Y-71421485D01*
X95057142Y-71421485D02*
X95057142Y-71564342D01*
X95057142Y-71564342D02*
X95009523Y-71659580D01*
X95009523Y-71659580D02*
X94961904Y-71707200D01*
X94961904Y-71707200D02*
X94866666Y-71754819D01*
X94866666Y-71754819D02*
X94485714Y-71754819D01*
X94485714Y-71754819D02*
X94485714Y-70754819D01*
X94485714Y-70754819D02*
X94819047Y-70754819D01*
X94819047Y-70754819D02*
X94914285Y-70802438D01*
X94914285Y-70802438D02*
X94961904Y-70850057D01*
X94961904Y-70850057D02*
X95009523Y-70945295D01*
X95009523Y-70945295D02*
X95009523Y-71040533D01*
X95009523Y-71040533D02*
X94961904Y-71135771D01*
X94961904Y-71135771D02*
X94914285Y-71183390D01*
X94914285Y-71183390D02*
X94819047Y-71231009D01*
X94819047Y-71231009D02*
X94485714Y-71231009D01*
X95390476Y-70754819D02*
X96057142Y-70754819D01*
X96057142Y-70754819D02*
X95390476Y-71754819D01*
X95390476Y-71754819D02*
X96057142Y-71754819D01*
X96961904Y-71754819D02*
X96390476Y-71754819D01*
X96676190Y-71754819D02*
X96676190Y-70754819D01*
X96676190Y-70754819D02*
X96580952Y-70897676D01*
X96580952Y-70897676D02*
X96485714Y-70992914D01*
X96485714Y-70992914D02*
X96390476Y-71040533D01*
X91509048Y-76033866D02*
X92270953Y-76033866D01*
X91890000Y-76414819D02*
X91890000Y-75652914D01*
X193666667Y-116550057D02*
X193714286Y-116502438D01*
X193714286Y-116502438D02*
X193809524Y-116454819D01*
X193809524Y-116454819D02*
X194047619Y-116454819D01*
X194047619Y-116454819D02*
X194142857Y-116502438D01*
X194142857Y-116502438D02*
X194190476Y-116550057D01*
X194190476Y-116550057D02*
X194238095Y-116645295D01*
X194238095Y-116645295D02*
X194238095Y-116740533D01*
X194238095Y-116740533D02*
X194190476Y-116883390D01*
X194190476Y-116883390D02*
X193619048Y-117454819D01*
X193619048Y-117454819D02*
X194238095Y-117454819D01*
X194666667Y-117359580D02*
X194714286Y-117407200D01*
X194714286Y-117407200D02*
X194666667Y-117454819D01*
X194666667Y-117454819D02*
X194619048Y-117407200D01*
X194619048Y-117407200D02*
X194666667Y-117359580D01*
X194666667Y-117359580D02*
X194666667Y-117454819D01*
X195666666Y-117454819D02*
X195095238Y-117454819D01*
X195380952Y-117454819D02*
X195380952Y-116454819D01*
X195380952Y-116454819D02*
X195285714Y-116597676D01*
X195285714Y-116597676D02*
X195190476Y-116692914D01*
X195190476Y-116692914D02*
X195095238Y-116740533D01*
X196095238Y-117454819D02*
X196095238Y-116788152D01*
X196095238Y-116883390D02*
X196142857Y-116835771D01*
X196142857Y-116835771D02*
X196238095Y-116788152D01*
X196238095Y-116788152D02*
X196380952Y-116788152D01*
X196380952Y-116788152D02*
X196476190Y-116835771D01*
X196476190Y-116835771D02*
X196523809Y-116931009D01*
X196523809Y-116931009D02*
X196523809Y-117454819D01*
X196523809Y-116931009D02*
X196571428Y-116835771D01*
X196571428Y-116835771D02*
X196666666Y-116788152D01*
X196666666Y-116788152D02*
X196809523Y-116788152D01*
X196809523Y-116788152D02*
X196904762Y-116835771D01*
X196904762Y-116835771D02*
X196952381Y-116931009D01*
X196952381Y-116931009D02*
X196952381Y-117454819D01*
X197428571Y-117454819D02*
X197428571Y-116788152D01*
X197428571Y-116883390D02*
X197476190Y-116835771D01*
X197476190Y-116835771D02*
X197571428Y-116788152D01*
X197571428Y-116788152D02*
X197714285Y-116788152D01*
X197714285Y-116788152D02*
X197809523Y-116835771D01*
X197809523Y-116835771D02*
X197857142Y-116931009D01*
X197857142Y-116931009D02*
X197857142Y-117454819D01*
X197857142Y-116931009D02*
X197904761Y-116835771D01*
X197904761Y-116835771D02*
X197999999Y-116788152D01*
X197999999Y-116788152D02*
X198142856Y-116788152D01*
X198142856Y-116788152D02*
X198238095Y-116835771D01*
X198238095Y-116835771D02*
X198285714Y-116931009D01*
X198285714Y-116931009D02*
X198285714Y-117454819D01*
D12*
%TO.C,B*%
X171250000Y-111500000D02*
X171250000Y-113000000D01*
X172500000Y-115500000D02*
X177000000Y-115500000D01*
X177000000Y-109000000D02*
X172500000Y-109000000D01*
X178250000Y-113000000D02*
X178250000Y-111500000D01*
%TO.C,UP*%
X97750000Y-94500000D02*
X97750000Y-96000000D01*
X99000000Y-98500000D02*
X103500000Y-98500000D01*
X103500000Y-92000000D02*
X99000000Y-92000000D01*
X104750000Y-96000000D02*
X104750000Y-94500000D01*
%TO.C,SSD1306*%
X135050000Y-69670000D02*
X136380000Y-69670000D01*
X135050000Y-71000000D02*
X135050000Y-69670000D01*
X137650000Y-69670000D02*
X145330000Y-69670000D01*
X137650000Y-72330000D02*
X137650000Y-69670000D01*
X137650000Y-72330000D02*
X145330000Y-72330000D01*
X145330000Y-72330000D02*
X145330000Y-69670000D01*
D10*
%TO.C,Ard-PM1*%
X122950000Y-99610000D02*
X122950000Y-117390000D01*
X122950000Y-99610000D02*
X155970000Y-99610000D01*
X122950000Y-117390000D02*
X155970000Y-117390000D01*
X155970000Y-99610000D02*
X155970000Y-117390000D01*
D12*
%TO.C,A*%
X183250000Y-102000000D02*
X183250000Y-103500000D01*
X184500000Y-106000000D02*
X189000000Y-106000000D01*
X189000000Y-99500000D02*
X184500000Y-99500000D01*
X190250000Y-103500000D02*
X190250000Y-102000000D01*
%TO.C,LEFT*%
X88250000Y-102000000D02*
X88250000Y-103500000D01*
X89500000Y-106000000D02*
X94000000Y-106000000D01*
X94000000Y-99500000D02*
X89500000Y-99500000D01*
X95250000Y-103500000D02*
X95250000Y-102000000D01*
%TO.C,RIGHT*%
X107250000Y-102000000D02*
X107250000Y-103500000D01*
X108500000Y-106000000D02*
X113000000Y-106000000D01*
X113000000Y-99500000D02*
X108500000Y-99500000D01*
X114250000Y-103500000D02*
X114250000Y-102000000D01*
%TO.C,FT232RLFTDI1*%
X165120000Y-86850000D02*
X165120000Y-74040000D01*
X167880000Y-74040000D02*
X165120000Y-74040000D01*
X167880000Y-86850000D02*
X165120000Y-86850000D01*
X167880000Y-86850000D02*
X167880000Y-74040000D01*
X167880000Y-88120000D02*
X167880000Y-89500000D01*
X167880000Y-89500000D02*
X166500000Y-89500000D01*
%TO.C,DOWN*%
X97750000Y-109500000D02*
X97750000Y-111000000D01*
X99000000Y-113500000D02*
X103500000Y-113500000D01*
X103500000Y-107000000D02*
X99000000Y-107000000D01*
X104750000Y-111000000D02*
X104750000Y-109500000D01*
%TO.C,BZ1*%
X101800000Y-78500000D02*
G75*
G02*
X89600000Y-78500000I-6100000J0D01*
G01*
X89600000Y-78500000D02*
G75*
G02*
X101800000Y-78500000I6100000J0D01*
G01*
D13*
%TO.C,G\u002A\u002A\u002A*%
G36*
X154300284Y-85600275D02*
G01*
X154362948Y-85717427D01*
X154414245Y-85856719D01*
X154399742Y-85967787D01*
X154297725Y-86097141D01*
X154101069Y-86278350D01*
X153893371Y-86454635D01*
X153736173Y-86573352D01*
X153675627Y-86605337D01*
X153614127Y-86534083D01*
X153515880Y-86350518D01*
X153438029Y-86177812D01*
X153257405Y-85750287D01*
X153484725Y-85662380D01*
X153741613Y-85582595D01*
X153984203Y-85528982D01*
X154185018Y-85518215D01*
X154300284Y-85600275D01*
G37*
G36*
X131877505Y-84905845D02*
G01*
X131903467Y-85119859D01*
X131905071Y-85437110D01*
X131881601Y-85825331D01*
X131855517Y-86076170D01*
X131810933Y-86345079D01*
X131732047Y-86481896D01*
X131577091Y-86514631D01*
X131304300Y-86471293D01*
X131275379Y-86465219D01*
X131028634Y-86414834D01*
X130876696Y-86369008D01*
X130818214Y-86298837D01*
X130851833Y-86175420D01*
X130976201Y-85969853D01*
X131189964Y-85653234D01*
X131234289Y-85587487D01*
X131449498Y-85278109D01*
X131636186Y-85029383D01*
X131771648Y-84870387D01*
X131827896Y-84827337D01*
X131877505Y-84905845D01*
G37*
G36*
X154727096Y-87044993D02*
G01*
X154907512Y-87116454D01*
X154922779Y-87130270D01*
X155001765Y-87301459D01*
X155019776Y-87534434D01*
X154970956Y-87730866D01*
X154959583Y-87748337D01*
X154813206Y-87888869D01*
X154597895Y-88032818D01*
X154360480Y-88156933D01*
X154147792Y-88237964D01*
X154006662Y-88252660D01*
X153980532Y-88234414D01*
X153940597Y-88115505D01*
X153891411Y-87906985D01*
X153885015Y-87875337D01*
X153832952Y-87629761D01*
X153786424Y-87437335D01*
X153784143Y-87429127D01*
X153821817Y-87294483D01*
X153981859Y-87176436D01*
X154217360Y-87087296D01*
X154481409Y-87039378D01*
X154727096Y-87044993D01*
G37*
G36*
X127494028Y-79780749D02*
G01*
X128736031Y-79879493D01*
X130019319Y-80076673D01*
X131357154Y-80375682D01*
X132762800Y-80779916D01*
X134249518Y-81292769D01*
X135830572Y-81917637D01*
X137498379Y-82648381D01*
X138059543Y-82896674D01*
X138662899Y-83149830D01*
X139255530Y-83386538D01*
X139784516Y-83585488D01*
X140080713Y-83688280D01*
X141751954Y-84151167D01*
X143482570Y-84460761D01*
X145262282Y-84618115D01*
X147080809Y-84624280D01*
X148927874Y-84480309D01*
X150793196Y-84187252D01*
X152666496Y-83746162D01*
X154537495Y-83158091D01*
X156395914Y-82424090D01*
X157522046Y-81903643D01*
X157982085Y-81676818D01*
X158420849Y-81456570D01*
X158801575Y-81261634D01*
X159087501Y-81110743D01*
X159194131Y-81051531D01*
X159426284Y-80934376D01*
X159599617Y-80877542D01*
X159659798Y-80883436D01*
X159640560Y-80973419D01*
X159552169Y-81191404D01*
X159404677Y-81515727D01*
X159208135Y-81924724D01*
X158972597Y-82396730D01*
X158813213Y-82707987D01*
X158555869Y-83207965D01*
X158326738Y-83657235D01*
X158136661Y-84034197D01*
X157996483Y-84317255D01*
X157917045Y-84484809D01*
X157903046Y-84521028D01*
X157983850Y-84535624D01*
X158210819Y-84548652D01*
X158560787Y-84559513D01*
X159010587Y-84567609D01*
X159537055Y-84572343D01*
X159930049Y-84573337D01*
X160527069Y-84576511D01*
X161051236Y-84585497D01*
X161481278Y-84599488D01*
X161795926Y-84617681D01*
X161973905Y-84639268D01*
X162005627Y-84651933D01*
X161960608Y-84735668D01*
X161791313Y-84918567D01*
X161505371Y-85193614D01*
X161110411Y-85553789D01*
X160614063Y-85992074D01*
X160023957Y-86501451D01*
X159638713Y-86829264D01*
X159011466Y-87340857D01*
X158274830Y-87909080D01*
X157461891Y-88510746D01*
X156605735Y-89122669D01*
X155739446Y-89721665D01*
X154896110Y-90284547D01*
X154108814Y-90788131D01*
X153410642Y-91209230D01*
X153288713Y-91279184D01*
X151781356Y-92078985D01*
X150316171Y-92743055D01*
X148902359Y-93268000D01*
X147549124Y-93650425D01*
X146265667Y-93886936D01*
X146193677Y-93896091D01*
X145743833Y-93932430D01*
X145157851Y-93950053D01*
X144467792Y-93949828D01*
X143705713Y-93932620D01*
X142903676Y-93899298D01*
X142093739Y-93850728D01*
X141307962Y-93787775D01*
X140969713Y-93754874D01*
X139971374Y-93640064D01*
X138998283Y-93502609D01*
X138025385Y-93337053D01*
X137027628Y-93137940D01*
X135979959Y-92899816D01*
X134857324Y-92617224D01*
X133634671Y-92284709D01*
X132286946Y-91896814D01*
X131868046Y-91772864D01*
X130379073Y-91334903D01*
X129036835Y-90951268D01*
X128403038Y-90777084D01*
X136580892Y-90777084D01*
X136627765Y-90919819D01*
X136737363Y-91008530D01*
X136970631Y-91043732D01*
X137240892Y-90941794D01*
X137525199Y-90723946D01*
X137800607Y-90411418D01*
X138044170Y-90025441D01*
X138213692Y-89642578D01*
X138321470Y-89387782D01*
X138426313Y-89262465D01*
X138553426Y-89230003D01*
X138633901Y-89241109D01*
X138696961Y-89292120D01*
X138752271Y-89409571D01*
X138809499Y-89620000D01*
X138878311Y-89949944D01*
X138946649Y-90309503D01*
X139045439Y-90803430D01*
X139132872Y-91156283D01*
X139217254Y-91395178D01*
X139306888Y-91547230D01*
X139335590Y-91579503D01*
X139582809Y-91737774D01*
X139841749Y-91750397D01*
X140067311Y-91615430D01*
X140071209Y-91611171D01*
X140208416Y-91382053D01*
X140257581Y-91079656D01*
X140218921Y-90680414D01*
X140092656Y-90160757D01*
X140084882Y-90134044D01*
X139966552Y-89756385D01*
X139857261Y-89445124D01*
X143177691Y-89445124D01*
X143225089Y-90071982D01*
X143340951Y-90647047D01*
X143509488Y-91090587D01*
X143804229Y-91504269D01*
X144183360Y-91788042D01*
X144620160Y-91930869D01*
X145087910Y-91921713D01*
X145345701Y-91849030D01*
X145662964Y-91672798D01*
X145880644Y-91438316D01*
X145964927Y-91182495D01*
X145965046Y-91172945D01*
X145930935Y-90954619D01*
X145812249Y-90841303D01*
X145584456Y-90821384D01*
X145312140Y-90863859D01*
X144946233Y-90905739D01*
X144670295Y-90842465D01*
X144447744Y-90654100D01*
X144242004Y-90320710D01*
X144214611Y-90265732D01*
X144078539Y-89938830D01*
X144008713Y-89617935D01*
X143986982Y-89218193D01*
X143986866Y-89201099D01*
X144017490Y-88697585D01*
X144121374Y-88328604D01*
X144306794Y-88072321D01*
X144454690Y-87966862D01*
X144619808Y-87892670D01*
X144763770Y-87900536D01*
X144967419Y-87995358D01*
X144972802Y-87998253D01*
X145256748Y-88101606D01*
X145448588Y-88071049D01*
X145535873Y-87922102D01*
X145506150Y-87670285D01*
X145413279Y-87449232D01*
X145321841Y-87332944D01*
X146397981Y-87332944D01*
X146404637Y-87621734D01*
X146440309Y-88015161D01*
X146504970Y-88537909D01*
X146550036Y-88869006D01*
X146615902Y-89356197D01*
X146678493Y-89841197D01*
X146731074Y-90270423D01*
X146766911Y-90590297D01*
X146769024Y-90611273D01*
X146806262Y-90894307D01*
X146867883Y-91099699D01*
X146975226Y-91232797D01*
X147149630Y-91298948D01*
X147412434Y-91303496D01*
X147784979Y-91251788D01*
X148288603Y-91149172D01*
X148620098Y-91075035D01*
X149119891Y-90937212D01*
X149458902Y-90785029D01*
X149645411Y-90613722D01*
X149690379Y-90459283D01*
X149614492Y-90338383D01*
X149405818Y-90273461D01*
X149092839Y-90268856D01*
X148758153Y-90317234D01*
X148418616Y-90374012D01*
X148082399Y-90409432D01*
X147935188Y-90415337D01*
X147587190Y-90415337D01*
X147539252Y-89843837D01*
X147456597Y-88966509D01*
X147368321Y-88248602D01*
X147272293Y-87680239D01*
X147166384Y-87251543D01*
X147048465Y-86952638D01*
X146989249Y-86872378D01*
X149123256Y-86872378D01*
X149127849Y-86908464D01*
X149192131Y-87251474D01*
X149297618Y-87680777D01*
X149430299Y-88150589D01*
X149576162Y-88615127D01*
X149721198Y-89028607D01*
X149851395Y-89345246D01*
X149906504Y-89452862D01*
X150186976Y-89785947D01*
X150562183Y-90022098D01*
X150986902Y-90145858D01*
X151415912Y-90141771D01*
X151682853Y-90059985D01*
X151951934Y-89846694D01*
X152143704Y-89496525D01*
X152255049Y-89024812D01*
X152282858Y-88446890D01*
X152224018Y-87778092D01*
X152189419Y-87564358D01*
X152054095Y-86914420D01*
X151906320Y-86425497D01*
X151742232Y-86089490D01*
X151557968Y-85898298D01*
X151368775Y-85843337D01*
X151208414Y-85888864D01*
X151115401Y-86035353D01*
X151087854Y-86297667D01*
X151123893Y-86690668D01*
X151204176Y-87143846D01*
X151306104Y-87737488D01*
X151364917Y-88276270D01*
X151379347Y-88731325D01*
X151348126Y-89073789D01*
X151296067Y-89235569D01*
X151142793Y-89364436D01*
X150920217Y-89394863D01*
X150730830Y-89331573D01*
X150630615Y-89220207D01*
X150522229Y-89000572D01*
X150400263Y-88657652D01*
X150259305Y-88176433D01*
X150112219Y-87614602D01*
X149971513Y-87090958D01*
X149847387Y-86714558D01*
X149729783Y-86465422D01*
X149608641Y-86323570D01*
X149473904Y-86269022D01*
X149433624Y-86266670D01*
X149232503Y-86336168D01*
X149128000Y-86540268D01*
X149123256Y-86872378D01*
X146989249Y-86872378D01*
X146916405Y-86773647D01*
X146869908Y-86739540D01*
X146736323Y-86699735D01*
X146609359Y-86782440D01*
X146552408Y-86847550D01*
X146471838Y-86970537D01*
X146420372Y-87124107D01*
X146397981Y-87332944D01*
X145321841Y-87332944D01*
X145180706Y-87153453D01*
X144878829Y-86990477D01*
X144537076Y-86955535D01*
X144184876Y-87043858D01*
X143851656Y-87250676D01*
X143566845Y-87571222D01*
X143454726Y-87766619D01*
X143291664Y-88241160D01*
X143199601Y-88817756D01*
X143177691Y-89445124D01*
X139857261Y-89445124D01*
X139841917Y-89401424D01*
X139732516Y-89129317D01*
X139702580Y-89066291D01*
X139538924Y-88745498D01*
X139800078Y-88500917D01*
X140083096Y-88205134D01*
X140350284Y-87872094D01*
X140575948Y-87539924D01*
X140734391Y-87246751D01*
X140799917Y-87030703D01*
X140800379Y-87016699D01*
X140752809Y-86788766D01*
X140611014Y-86700132D01*
X140376373Y-86750326D01*
X140050262Y-86938880D01*
X139634057Y-87265328D01*
X139366029Y-87504600D01*
X139113988Y-87728086D01*
X138923006Y-87878916D01*
X138815053Y-87940986D01*
X138802522Y-87917670D01*
X138835401Y-87763026D01*
X138869635Y-87485113D01*
X138900167Y-87129877D01*
X138914523Y-86900252D01*
X138933275Y-86512386D01*
X138935066Y-86252378D01*
X138913113Y-86079061D01*
X138860633Y-85951266D01*
X138770841Y-85827825D01*
X138729671Y-85778419D01*
X138596247Y-85658483D01*
X152575243Y-85658483D01*
X152601823Y-85837678D01*
X152664924Y-86081514D01*
X152727790Y-86307269D01*
X152822583Y-86642972D01*
X152938475Y-87050775D01*
X153064640Y-87492827D01*
X153190251Y-87931279D01*
X153304479Y-88328280D01*
X153396499Y-88645981D01*
X153455481Y-88846532D01*
X153462641Y-88870170D01*
X153571208Y-88955202D01*
X153802915Y-88967441D01*
X154128992Y-88908912D01*
X154475534Y-88798842D01*
X154862488Y-88609269D01*
X155214157Y-88356681D01*
X155490430Y-88076141D01*
X155651196Y-87802711D01*
X155664042Y-87759903D01*
X155673497Y-87441259D01*
X155577497Y-87086510D01*
X155402602Y-86748322D01*
X155175372Y-86479360D01*
X154947924Y-86339963D01*
X154875021Y-86277265D01*
X154915939Y-86142241D01*
X154927571Y-86120022D01*
X155016033Y-85815480D01*
X155016415Y-85456578D01*
X154934519Y-85121814D01*
X154841535Y-84956391D01*
X154716046Y-84819851D01*
X154581209Y-84757457D01*
X154374345Y-84749588D01*
X154216242Y-84760633D01*
X153863393Y-84829641D01*
X153466842Y-84967372D01*
X153086875Y-85147234D01*
X152783779Y-85342633D01*
X152679181Y-85438639D01*
X152600639Y-85543084D01*
X152575243Y-85658483D01*
X138596247Y-85658483D01*
X138508490Y-85579598D01*
X138299720Y-85504685D01*
X138297138Y-85504670D01*
X138128152Y-85540377D01*
X137997943Y-85660491D01*
X137898997Y-85884499D01*
X137823800Y-86231890D01*
X137764837Y-86722150D01*
X137746525Y-86932578D01*
X137658153Y-87708020D01*
X137518339Y-88382011D01*
X137309091Y-89019098D01*
X137012416Y-89683825D01*
X136938862Y-89829961D01*
X136732387Y-90255861D01*
X136614415Y-90563666D01*
X136580892Y-90777084D01*
X128403038Y-90777084D01*
X127828634Y-90619223D01*
X126741776Y-90336032D01*
X125763565Y-90098959D01*
X124881306Y-89905267D01*
X124082303Y-89752220D01*
X123353861Y-89637082D01*
X122683285Y-89557117D01*
X122057878Y-89509588D01*
X121464945Y-89491759D01*
X121284713Y-89491842D01*
X120809471Y-89502880D01*
X120356363Y-89526707D01*
X119958529Y-89560256D01*
X119649109Y-89600459D01*
X119461244Y-89644249D01*
X119425559Y-89663935D01*
X119369926Y-89795073D01*
X119306624Y-90070303D01*
X119238675Y-90464721D01*
X119169100Y-90953423D01*
X119100921Y-91511505D01*
X119037161Y-92114063D01*
X118980840Y-92736194D01*
X118934980Y-93352993D01*
X118902603Y-93939557D01*
X118900351Y-93992503D01*
X118845236Y-95326003D01*
X118223474Y-95326003D01*
X117601713Y-95326003D01*
X117601713Y-95005975D01*
X117615497Y-94725974D01*
X117653767Y-94315189D01*
X117711900Y-93809649D01*
X117785273Y-93245383D01*
X117869262Y-92658419D01*
X117959244Y-92084788D01*
X118027819Y-91685337D01*
X118347896Y-90141672D01*
X118755511Y-88604259D01*
X119259135Y-87048640D01*
X119366319Y-86766929D01*
X123626941Y-86766929D01*
X123643000Y-87083736D01*
X123751569Y-87279988D01*
X123953380Y-87363244D01*
X124026837Y-87367337D01*
X124364254Y-87284288D01*
X124698756Y-87034460D01*
X125031521Y-86616826D01*
X125194696Y-86349918D01*
X125360956Y-86054522D01*
X125493277Y-85814545D01*
X125570469Y-85668607D01*
X125580812Y-85646185D01*
X125661329Y-85650525D01*
X125855072Y-85702859D01*
X126118262Y-85787757D01*
X126407118Y-85889790D01*
X126677860Y-85993526D01*
X126886708Y-86083536D01*
X126987646Y-86142016D01*
X126983712Y-86231970D01*
X126949033Y-86450844D01*
X126889858Y-86762314D01*
X126837729Y-87013545D01*
X126749535Y-87470049D01*
X126711397Y-87791689D01*
X126720857Y-88004584D01*
X126738491Y-88068010D01*
X126877988Y-88293305D01*
X127075406Y-88367791D01*
X127330251Y-88297480D01*
X128862379Y-88297480D01*
X128913949Y-88568898D01*
X129054748Y-88709067D01*
X129263909Y-88715395D01*
X129520567Y-88585292D01*
X129724186Y-88404503D01*
X129923381Y-88178039D01*
X130083349Y-87964818D01*
X130131303Y-87885376D01*
X130201412Y-87775004D01*
X130297088Y-87721327D01*
X130466095Y-87712888D01*
X130748289Y-87737406D01*
X131024286Y-87770870D01*
X131223714Y-87803713D01*
X131295688Y-87825090D01*
X131289918Y-87916666D01*
X131243117Y-88126575D01*
X131165086Y-88411627D01*
X131154380Y-88447854D01*
X131042958Y-88851211D01*
X130991087Y-89129452D01*
X130996417Y-89315073D01*
X131056597Y-89440571D01*
X131080646Y-89467070D01*
X131286170Y-89562778D01*
X131547514Y-89514774D01*
X131839545Y-89328079D01*
X131858406Y-89311776D01*
X131994290Y-89178273D01*
X132097072Y-89029564D01*
X132183516Y-88827120D01*
X132270383Y-88532409D01*
X132315954Y-88346803D01*
X133435631Y-88346803D01*
X133487054Y-89030019D01*
X133642147Y-89595045D01*
X133897503Y-90035077D01*
X134249715Y-90343313D01*
X134492713Y-90457500D01*
X134870170Y-90560630D01*
X135168129Y-90561049D01*
X135442584Y-90457610D01*
X135477968Y-90437356D01*
X135715336Y-90212789D01*
X135803522Y-89919682D01*
X135791081Y-89770349D01*
X135694528Y-89649733D01*
X135447677Y-89554422D01*
X135347823Y-89530819D01*
X135003211Y-89418186D01*
X134772867Y-89237648D01*
X134639080Y-88962088D01*
X134584142Y-88564391D01*
X134580314Y-88355657D01*
X134656707Y-87647207D01*
X134866135Y-86931801D01*
X135188874Y-86275549D01*
X135211863Y-86238787D01*
X135447932Y-85935640D01*
X135676839Y-85795547D01*
X135914474Y-85813806D01*
X136148696Y-85961538D01*
X136390155Y-86132097D01*
X136573629Y-86170013D01*
X136738950Y-86080865D01*
X136772665Y-86048956D01*
X136890550Y-85822094D01*
X136895180Y-85532472D01*
X136800878Y-85228675D01*
X136621966Y-84959287D01*
X136400484Y-84786436D01*
X136066133Y-84685672D01*
X135661806Y-84665581D01*
X135266172Y-84725732D01*
X135078997Y-84793706D01*
X134686835Y-85064520D01*
X134325629Y-85475283D01*
X134008537Y-85997547D01*
X133748716Y-86602868D01*
X133559323Y-87262798D01*
X133453515Y-87948892D01*
X133435631Y-88346803D01*
X132315954Y-88346803D01*
X132364861Y-88147610D01*
X132566031Y-87192740D01*
X132692267Y-86338745D01*
X132749846Y-85537911D01*
X132755026Y-85181043D01*
X132724957Y-84513176D01*
X132637224Y-83999192D01*
X132489379Y-83632896D01*
X132278975Y-83408093D01*
X132019665Y-83320021D01*
X131743690Y-83363057D01*
X131470247Y-83553308D01*
X131191595Y-83898034D01*
X130934232Y-84338176D01*
X130793162Y-84604078D01*
X130588721Y-84984280D01*
X130339317Y-85444807D01*
X130063358Y-85951681D01*
X129779254Y-86470927D01*
X129737188Y-86547572D01*
X129478012Y-87026655D01*
X129249333Y-87462878D01*
X129063227Y-87832085D01*
X128931770Y-88110116D01*
X128867041Y-88272816D01*
X128862379Y-88297480D01*
X127330251Y-88297480D01*
X127343053Y-88293948D01*
X127481946Y-88217729D01*
X127701558Y-88051626D01*
X127869648Y-87870876D01*
X127878155Y-87858212D01*
X127950470Y-87702131D01*
X128059018Y-87411455D01*
X128194768Y-87014759D01*
X128348691Y-86540621D01*
X128511756Y-86017614D01*
X128674933Y-85474317D01*
X128829191Y-84939305D01*
X128965499Y-84441154D01*
X129001315Y-84304047D01*
X129120381Y-83794145D01*
X129175524Y-83414181D01*
X129165412Y-83136751D01*
X129088714Y-82934450D01*
X128944096Y-82779876D01*
X128926574Y-82766528D01*
X128763556Y-82659328D01*
X128633253Y-82641871D01*
X128453351Y-82709193D01*
X128399271Y-82734732D01*
X128258961Y-82818535D01*
X128133183Y-82942553D01*
X128001096Y-83136763D01*
X127841856Y-83431141D01*
X127666997Y-83787911D01*
X127495879Y-84143834D01*
X127352818Y-84439004D01*
X127252753Y-84642762D01*
X127210626Y-84724448D01*
X127210600Y-84724481D01*
X127126795Y-84712114D01*
X126936615Y-84652014D01*
X126689476Y-84562799D01*
X126434793Y-84463093D01*
X126221983Y-84371516D01*
X126100460Y-84306690D01*
X126099094Y-84305633D01*
X126045392Y-84182955D01*
X126068341Y-83942004D01*
X126082359Y-83875738D01*
X126117685Y-83503838D01*
X126080448Y-83094489D01*
X125983479Y-82694001D01*
X125839607Y-82348684D01*
X125661663Y-82104847D01*
X125573909Y-82040578D01*
X125288210Y-81949485D01*
X125047936Y-82010322D01*
X124849121Y-82226967D01*
X124687802Y-82603301D01*
X124586095Y-83007026D01*
X124273430Y-84363532D01*
X123895094Y-85662166D01*
X123869426Y-85741403D01*
X123702660Y-86322004D01*
X123626941Y-86766929D01*
X119366319Y-86766929D01*
X119867241Y-85450361D01*
X120588297Y-83784966D01*
X121239152Y-82414337D01*
X121565037Y-81757765D01*
X121830005Y-81241395D01*
X122043554Y-80851427D01*
X122215182Y-80574065D01*
X122354389Y-80395510D01*
X122470672Y-80301966D01*
X122573530Y-80279634D01*
X122672461Y-80314718D01*
X122681000Y-80319909D01*
X122809629Y-80365924D01*
X122988396Y-80351556D01*
X123264410Y-80271634D01*
X123332430Y-80248369D01*
X123862050Y-80081482D01*
X124380951Y-79958015D01*
X124934647Y-79870692D01*
X125568654Y-79812235D01*
X126280046Y-79777046D01*
X127494028Y-79780749D01*
G37*
%TD*%
M02*
