%TF.GenerationSoftware,KiCad,Pcbnew,9.0.7*%
%TF.CreationDate,2026-03-16T20:17:23-07:00*%
%TF.ProjectId,Game Console,47616d65-2043-46f6-9e73-6f6c652e6b69,0*%
%TF.SameCoordinates,Original*%
%TF.FileFunction,Soldermask,Top*%
%TF.FilePolarity,Negative*%
%FSLAX46Y46*%
G04 Gerber Fmt 4.6, Leading zero omitted, Abs format (unit mm)*
G04 Created by KiCad (PCBNEW 9.0.7) date 2026-03-16 20:17:23*
%MOMM*%
%LPD*%
G01*
G04 APERTURE LIST*
%ADD10C,2.000000*%
%ADD11R,1.700000X1.700000*%
%ADD12C,1.700000*%
%ADD13C,1.727200*%
%ADD14R,1.727200X1.727200*%
%ADD15C,2.100000*%
%ADD16R,2.000000X2.000000*%
G04 APERTURE END LIST*
D10*
%TO.C,SW6*%
X167300000Y-110250000D03*
X173800000Y-110250000D03*
X167300000Y-114750000D03*
X173800000Y-114750000D03*
%TD*%
%TO.C,SW1*%
X96900000Y-74750000D03*
X103400000Y-74750000D03*
X96900000Y-79250000D03*
X103400000Y-79250000D03*
%TD*%
D11*
%TO.C,SSD1306*%
X136000000Y-80925000D03*
D12*
X138540000Y-80925000D03*
X141080000Y-80925000D03*
X143620000Y-80925000D03*
%TD*%
D13*
%TO.C,Ard-PM1*%
X186040000Y-72950000D03*
X183500000Y-72950000D03*
X180960000Y-72950000D03*
X178420000Y-72950000D03*
X179690000Y-75490000D03*
X177150000Y-75490000D03*
X196200000Y-78030000D03*
X196200000Y-75490000D03*
X170800000Y-88190000D03*
X168260000Y-88190000D03*
X178420000Y-88190000D03*
X180960000Y-88190000D03*
X183500000Y-88190000D03*
X186040000Y-88190000D03*
X188580000Y-88190000D03*
X191120000Y-88190000D03*
X193660000Y-88190000D03*
X196200000Y-88190000D03*
X196200000Y-72950000D03*
X193660000Y-72950000D03*
X191120000Y-72950000D03*
X188580000Y-72950000D03*
X165720000Y-86920000D03*
D14*
X175880000Y-88190000D03*
X170800000Y-72950000D03*
X196200000Y-80570000D03*
X165720000Y-76760000D03*
X165720000Y-74220000D03*
D13*
X168260000Y-72950000D03*
X173340000Y-88190000D03*
X173340000Y-72950000D03*
X165720000Y-81840000D03*
X165720000Y-84380000D03*
X175880000Y-72950000D03*
X165720000Y-79300000D03*
%TD*%
D15*
%TO.C,2.1mm*%
X83000000Y-117000000D03*
%TD*%
D10*
%TO.C,SW5*%
X182800000Y-100450000D03*
X189300000Y-100450000D03*
X182800000Y-104950000D03*
X189300000Y-104950000D03*
%TD*%
%TO.C,SW3*%
X84750000Y-84100000D03*
X91250000Y-84100000D03*
X84750000Y-88600000D03*
X91250000Y-88600000D03*
%TD*%
D15*
%TO.C,2.1mm*%
X201000000Y-72000000D03*
%TD*%
D10*
%TO.C,SW4*%
X108300000Y-84450000D03*
X114800000Y-84450000D03*
X108300000Y-88950000D03*
X114800000Y-88950000D03*
%TD*%
D15*
%TO.C,2.1mm*%
X83000000Y-72000000D03*
%TD*%
D10*
%TO.C,SW2*%
X96300000Y-93250000D03*
X102800000Y-93250000D03*
X96300000Y-97750000D03*
X102800000Y-97750000D03*
%TD*%
D16*
%TO.C,BZ1*%
X96600000Y-111650000D03*
D10*
X104200000Y-111650000D03*
%TD*%
D15*
%TO.C,2.1mm*%
X201000000Y-117000000D03*
%TD*%
M02*
