M48
; DRILL file {KiCad 9.0.7} date 2026-03-16T20:17:25-0700
; FORMAT={-:-/ absolute / metric / decimal}
; #@! TF.CreationDate,2026-03-16T20:17:25-07:00
; #@! TF.GenerationSoftware,Kicad,Pcbnew,9.0.7
; #@! TF.FileFunction,Plated,1,2,PTH
FMAT,2
METRIC
; #@! TA.AperFunction,Plated,PTH,ViaDrill
T1C0.300
; #@! TA.AperFunction,Plated,PTH,ComponentDrill
T2C1.000
; #@! TA.AperFunction,Plated,PTH,ComponentDrill
T3C1.016
; #@! TA.AperFunction,Plated,PTH,ComponentDrill
T4C1.100
%
G90
G05
T1
X140.8Y-92.65
X141.6Y-93.05
X144.3Y-87.424
X146.2Y-88.624
X161.5Y-70.55
X168.0Y-80.35
X169.5Y-80.05
X171.2Y-79.05
X173.2Y-106.55
X173.8Y-77.95
X179.0Y-83.95
X189.3Y-93.15
T2
X96.6Y-111.65
X104.2Y-111.65
X136.0Y-80.925
X138.54Y-80.925
X141.08Y-80.925
X143.62Y-80.925
T3
X165.72Y-74.22
X165.72Y-76.76
X165.72Y-79.3
X165.72Y-81.84
X165.72Y-84.38
X165.72Y-86.92
X168.26Y-72.95
X168.26Y-88.19
X170.8Y-72.95
X170.8Y-88.19
X173.34Y-72.95
X173.34Y-88.19
X175.88Y-72.95
X175.88Y-88.19
X177.15Y-75.49
X178.42Y-72.95
X178.42Y-88.19
X179.69Y-75.49
X180.96Y-72.95
X180.96Y-88.19
X183.5Y-72.95
X183.5Y-88.19
X186.04Y-72.95
X186.04Y-88.19
X188.58Y-72.95
X188.58Y-88.19
X191.12Y-72.95
X191.12Y-88.19
X193.66Y-72.95
X193.66Y-88.19
X196.2Y-72.95
X196.2Y-75.49
X196.2Y-78.03
X196.2Y-80.57
X196.2Y-88.19
T4
X84.75Y-84.1
X84.75Y-88.6
X91.25Y-84.1
X91.25Y-88.6
X96.3Y-93.25
X96.3Y-97.75
X96.9Y-74.75
X96.9Y-79.25
X102.8Y-93.25
X102.8Y-97.75
X103.4Y-74.75
X103.4Y-79.25
X108.3Y-84.45
X108.3Y-88.95
X114.8Y-84.45
X114.8Y-88.95
X167.3Y-110.25
X167.3Y-114.75
X173.8Y-110.25
X173.8Y-114.75
X182.8Y-100.45
X182.8Y-104.95
X189.3Y-100.45
X189.3Y-104.95
M30
