%TF.GenerationSoftware,KiCad,Pcbnew,9.0.7*%
%TF.CreationDate,2026-03-16T20:17:23-07:00*%
%TF.ProjectId,Game Console,47616d65-2043-46f6-9e73-6f6c652e6b69,0*%
%TF.SameCoordinates,Original*%
%TF.FileFunction,Legend,Top*%
%TF.FilePolarity,Positive*%
%FSLAX46Y46*%
G04 Gerber Fmt 4.6, Leading zero omitted, Abs format (unit mm)*
G04 Created by KiCad (PCBNEW 9.0.7) date 2026-03-16 20:17:23*
%MOMM*%
%LPD*%
G01*
G04 APERTURE LIST*
%ADD10C,0.150000*%
%ADD11C,0.080000*%
%ADD12C,0.120000*%
%ADD13C,0.000000*%
G04 APERTURE END LIST*
D10*
X169216667Y-108657200D02*
X169359524Y-108704819D01*
X169359524Y-108704819D02*
X169597619Y-108704819D01*
X169597619Y-108704819D02*
X169692857Y-108657200D01*
X169692857Y-108657200D02*
X169740476Y-108609580D01*
X169740476Y-108609580D02*
X169788095Y-108514342D01*
X169788095Y-108514342D02*
X169788095Y-108419104D01*
X169788095Y-108419104D02*
X169740476Y-108323866D01*
X169740476Y-108323866D02*
X169692857Y-108276247D01*
X169692857Y-108276247D02*
X169597619Y-108228628D01*
X169597619Y-108228628D02*
X169407143Y-108181009D01*
X169407143Y-108181009D02*
X169311905Y-108133390D01*
X169311905Y-108133390D02*
X169264286Y-108085771D01*
X169264286Y-108085771D02*
X169216667Y-107990533D01*
X169216667Y-107990533D02*
X169216667Y-107895295D01*
X169216667Y-107895295D02*
X169264286Y-107800057D01*
X169264286Y-107800057D02*
X169311905Y-107752438D01*
X169311905Y-107752438D02*
X169407143Y-107704819D01*
X169407143Y-107704819D02*
X169645238Y-107704819D01*
X169645238Y-107704819D02*
X169788095Y-107752438D01*
X170121429Y-107704819D02*
X170359524Y-108704819D01*
X170359524Y-108704819D02*
X170550000Y-107990533D01*
X170550000Y-107990533D02*
X170740476Y-108704819D01*
X170740476Y-108704819D02*
X170978572Y-107704819D01*
X171788095Y-107704819D02*
X171597619Y-107704819D01*
X171597619Y-107704819D02*
X171502381Y-107752438D01*
X171502381Y-107752438D02*
X171454762Y-107800057D01*
X171454762Y-107800057D02*
X171359524Y-107942914D01*
X171359524Y-107942914D02*
X171311905Y-108133390D01*
X171311905Y-108133390D02*
X171311905Y-108514342D01*
X171311905Y-108514342D02*
X171359524Y-108609580D01*
X171359524Y-108609580D02*
X171407143Y-108657200D01*
X171407143Y-108657200D02*
X171502381Y-108704819D01*
X171502381Y-108704819D02*
X171692857Y-108704819D01*
X171692857Y-108704819D02*
X171788095Y-108657200D01*
X171788095Y-108657200D02*
X171835714Y-108609580D01*
X171835714Y-108609580D02*
X171883333Y-108514342D01*
X171883333Y-108514342D02*
X171883333Y-108276247D01*
X171883333Y-108276247D02*
X171835714Y-108181009D01*
X171835714Y-108181009D02*
X171788095Y-108133390D01*
X171788095Y-108133390D02*
X171692857Y-108085771D01*
X171692857Y-108085771D02*
X171502381Y-108085771D01*
X171502381Y-108085771D02*
X171407143Y-108133390D01*
X171407143Y-108133390D02*
X171359524Y-108181009D01*
X171359524Y-108181009D02*
X171311905Y-108276247D01*
X98816667Y-73157200D02*
X98959524Y-73204819D01*
X98959524Y-73204819D02*
X99197619Y-73204819D01*
X99197619Y-73204819D02*
X99292857Y-73157200D01*
X99292857Y-73157200D02*
X99340476Y-73109580D01*
X99340476Y-73109580D02*
X99388095Y-73014342D01*
X99388095Y-73014342D02*
X99388095Y-72919104D01*
X99388095Y-72919104D02*
X99340476Y-72823866D01*
X99340476Y-72823866D02*
X99292857Y-72776247D01*
X99292857Y-72776247D02*
X99197619Y-72728628D01*
X99197619Y-72728628D02*
X99007143Y-72681009D01*
X99007143Y-72681009D02*
X98911905Y-72633390D01*
X98911905Y-72633390D02*
X98864286Y-72585771D01*
X98864286Y-72585771D02*
X98816667Y-72490533D01*
X98816667Y-72490533D02*
X98816667Y-72395295D01*
X98816667Y-72395295D02*
X98864286Y-72300057D01*
X98864286Y-72300057D02*
X98911905Y-72252438D01*
X98911905Y-72252438D02*
X99007143Y-72204819D01*
X99007143Y-72204819D02*
X99245238Y-72204819D01*
X99245238Y-72204819D02*
X99388095Y-72252438D01*
X99721429Y-72204819D02*
X99959524Y-73204819D01*
X99959524Y-73204819D02*
X100150000Y-72490533D01*
X100150000Y-72490533D02*
X100340476Y-73204819D01*
X100340476Y-73204819D02*
X100578572Y-72204819D01*
X101483333Y-73204819D02*
X100911905Y-73204819D01*
X101197619Y-73204819D02*
X101197619Y-72204819D01*
X101197619Y-72204819D02*
X101102381Y-72347676D01*
X101102381Y-72347676D02*
X101007143Y-72442914D01*
X101007143Y-72442914D02*
X100911905Y-72490533D01*
X133637200Y-84091666D02*
X133684819Y-83948809D01*
X133684819Y-83948809D02*
X133684819Y-83710714D01*
X133684819Y-83710714D02*
X133637200Y-83615476D01*
X133637200Y-83615476D02*
X133589580Y-83567857D01*
X133589580Y-83567857D02*
X133494342Y-83520238D01*
X133494342Y-83520238D02*
X133399104Y-83520238D01*
X133399104Y-83520238D02*
X133303866Y-83567857D01*
X133303866Y-83567857D02*
X133256247Y-83615476D01*
X133256247Y-83615476D02*
X133208628Y-83710714D01*
X133208628Y-83710714D02*
X133161009Y-83901190D01*
X133161009Y-83901190D02*
X133113390Y-83996428D01*
X133113390Y-83996428D02*
X133065771Y-84044047D01*
X133065771Y-84044047D02*
X132970533Y-84091666D01*
X132970533Y-84091666D02*
X132875295Y-84091666D01*
X132875295Y-84091666D02*
X132780057Y-84044047D01*
X132780057Y-84044047D02*
X132732438Y-83996428D01*
X132732438Y-83996428D02*
X132684819Y-83901190D01*
X132684819Y-83901190D02*
X132684819Y-83663095D01*
X132684819Y-83663095D02*
X132732438Y-83520238D01*
X133637200Y-83139285D02*
X133684819Y-82996428D01*
X133684819Y-82996428D02*
X133684819Y-82758333D01*
X133684819Y-82758333D02*
X133637200Y-82663095D01*
X133637200Y-82663095D02*
X133589580Y-82615476D01*
X133589580Y-82615476D02*
X133494342Y-82567857D01*
X133494342Y-82567857D02*
X133399104Y-82567857D01*
X133399104Y-82567857D02*
X133303866Y-82615476D01*
X133303866Y-82615476D02*
X133256247Y-82663095D01*
X133256247Y-82663095D02*
X133208628Y-82758333D01*
X133208628Y-82758333D02*
X133161009Y-82948809D01*
X133161009Y-82948809D02*
X133113390Y-83044047D01*
X133113390Y-83044047D02*
X133065771Y-83091666D01*
X133065771Y-83091666D02*
X132970533Y-83139285D01*
X132970533Y-83139285D02*
X132875295Y-83139285D01*
X132875295Y-83139285D02*
X132780057Y-83091666D01*
X132780057Y-83091666D02*
X132732438Y-83044047D01*
X132732438Y-83044047D02*
X132684819Y-82948809D01*
X132684819Y-82948809D02*
X132684819Y-82710714D01*
X132684819Y-82710714D02*
X132732438Y-82567857D01*
X133684819Y-82139285D02*
X132684819Y-82139285D01*
X132684819Y-82139285D02*
X132684819Y-81901190D01*
X132684819Y-81901190D02*
X132732438Y-81758333D01*
X132732438Y-81758333D02*
X132827676Y-81663095D01*
X132827676Y-81663095D02*
X132922914Y-81615476D01*
X132922914Y-81615476D02*
X133113390Y-81567857D01*
X133113390Y-81567857D02*
X133256247Y-81567857D01*
X133256247Y-81567857D02*
X133446723Y-81615476D01*
X133446723Y-81615476D02*
X133541961Y-81663095D01*
X133541961Y-81663095D02*
X133637200Y-81758333D01*
X133637200Y-81758333D02*
X133684819Y-81901190D01*
X133684819Y-81901190D02*
X133684819Y-82139285D01*
X133684819Y-80615476D02*
X133684819Y-81186904D01*
X133684819Y-80901190D02*
X132684819Y-80901190D01*
X132684819Y-80901190D02*
X132827676Y-80996428D01*
X132827676Y-80996428D02*
X132922914Y-81091666D01*
X132922914Y-81091666D02*
X132970533Y-81186904D01*
X132684819Y-80282142D02*
X132684819Y-79663095D01*
X132684819Y-79663095D02*
X133065771Y-79996428D01*
X133065771Y-79996428D02*
X133065771Y-79853571D01*
X133065771Y-79853571D02*
X133113390Y-79758333D01*
X133113390Y-79758333D02*
X133161009Y-79710714D01*
X133161009Y-79710714D02*
X133256247Y-79663095D01*
X133256247Y-79663095D02*
X133494342Y-79663095D01*
X133494342Y-79663095D02*
X133589580Y-79710714D01*
X133589580Y-79710714D02*
X133637200Y-79758333D01*
X133637200Y-79758333D02*
X133684819Y-79853571D01*
X133684819Y-79853571D02*
X133684819Y-80139285D01*
X133684819Y-80139285D02*
X133637200Y-80234523D01*
X133637200Y-80234523D02*
X133589580Y-80282142D01*
X132684819Y-79044047D02*
X132684819Y-78948809D01*
X132684819Y-78948809D02*
X132732438Y-78853571D01*
X132732438Y-78853571D02*
X132780057Y-78805952D01*
X132780057Y-78805952D02*
X132875295Y-78758333D01*
X132875295Y-78758333D02*
X133065771Y-78710714D01*
X133065771Y-78710714D02*
X133303866Y-78710714D01*
X133303866Y-78710714D02*
X133494342Y-78758333D01*
X133494342Y-78758333D02*
X133589580Y-78805952D01*
X133589580Y-78805952D02*
X133637200Y-78853571D01*
X133637200Y-78853571D02*
X133684819Y-78948809D01*
X133684819Y-78948809D02*
X133684819Y-79044047D01*
X133684819Y-79044047D02*
X133637200Y-79139285D01*
X133637200Y-79139285D02*
X133589580Y-79186904D01*
X133589580Y-79186904D02*
X133494342Y-79234523D01*
X133494342Y-79234523D02*
X133303866Y-79282142D01*
X133303866Y-79282142D02*
X133065771Y-79282142D01*
X133065771Y-79282142D02*
X132875295Y-79234523D01*
X132875295Y-79234523D02*
X132780057Y-79186904D01*
X132780057Y-79186904D02*
X132732438Y-79139285D01*
X132732438Y-79139285D02*
X132684819Y-79044047D01*
X132684819Y-77853571D02*
X132684819Y-78044047D01*
X132684819Y-78044047D02*
X132732438Y-78139285D01*
X132732438Y-78139285D02*
X132780057Y-78186904D01*
X132780057Y-78186904D02*
X132922914Y-78282142D01*
X132922914Y-78282142D02*
X133113390Y-78329761D01*
X133113390Y-78329761D02*
X133494342Y-78329761D01*
X133494342Y-78329761D02*
X133589580Y-78282142D01*
X133589580Y-78282142D02*
X133637200Y-78234523D01*
X133637200Y-78234523D02*
X133684819Y-78139285D01*
X133684819Y-78139285D02*
X133684819Y-77948809D01*
X133684819Y-77948809D02*
X133637200Y-77853571D01*
X133637200Y-77853571D02*
X133589580Y-77805952D01*
X133589580Y-77805952D02*
X133494342Y-77758333D01*
X133494342Y-77758333D02*
X133256247Y-77758333D01*
X133256247Y-77758333D02*
X133161009Y-77805952D01*
X133161009Y-77805952D02*
X133113390Y-77853571D01*
X133113390Y-77853571D02*
X133065771Y-77948809D01*
X133065771Y-77948809D02*
X133065771Y-78139285D01*
X133065771Y-78139285D02*
X133113390Y-78234523D01*
X133113390Y-78234523D02*
X133161009Y-78282142D01*
X133161009Y-78282142D02*
X133256247Y-78329761D01*
X163603104Y-90594666D02*
X163603104Y-90118476D01*
X163888819Y-90689904D02*
X162888819Y-90356571D01*
X162888819Y-90356571D02*
X163888819Y-90023238D01*
X163888819Y-89689904D02*
X163222152Y-89689904D01*
X163412628Y-89689904D02*
X163317390Y-89642285D01*
X163317390Y-89642285D02*
X163269771Y-89594666D01*
X163269771Y-89594666D02*
X163222152Y-89499428D01*
X163222152Y-89499428D02*
X163222152Y-89404190D01*
X163888819Y-88642285D02*
X162888819Y-88642285D01*
X163841200Y-88642285D02*
X163888819Y-88737523D01*
X163888819Y-88737523D02*
X163888819Y-88927999D01*
X163888819Y-88927999D02*
X163841200Y-89023237D01*
X163841200Y-89023237D02*
X163793580Y-89070856D01*
X163793580Y-89070856D02*
X163698342Y-89118475D01*
X163698342Y-89118475D02*
X163412628Y-89118475D01*
X163412628Y-89118475D02*
X163317390Y-89070856D01*
X163317390Y-89070856D02*
X163269771Y-89023237D01*
X163269771Y-89023237D02*
X163222152Y-88927999D01*
X163222152Y-88927999D02*
X163222152Y-88737523D01*
X163222152Y-88737523D02*
X163269771Y-88642285D01*
X163507866Y-88166094D02*
X163507866Y-87404190D01*
X163888819Y-86927999D02*
X162888819Y-86927999D01*
X162888819Y-86927999D02*
X162888819Y-86547047D01*
X162888819Y-86547047D02*
X162936438Y-86451809D01*
X162936438Y-86451809D02*
X162984057Y-86404190D01*
X162984057Y-86404190D02*
X163079295Y-86356571D01*
X163079295Y-86356571D02*
X163222152Y-86356571D01*
X163222152Y-86356571D02*
X163317390Y-86404190D01*
X163317390Y-86404190D02*
X163365009Y-86451809D01*
X163365009Y-86451809D02*
X163412628Y-86547047D01*
X163412628Y-86547047D02*
X163412628Y-86927999D01*
X163888819Y-85927999D02*
X162888819Y-85927999D01*
X162888819Y-85927999D02*
X163603104Y-85594666D01*
X163603104Y-85594666D02*
X162888819Y-85261333D01*
X162888819Y-85261333D02*
X163888819Y-85261333D01*
X163888819Y-84261333D02*
X163888819Y-84832761D01*
X163888819Y-84547047D02*
X162888819Y-84547047D01*
X162888819Y-84547047D02*
X163031676Y-84642285D01*
X163031676Y-84642285D02*
X163126914Y-84737523D01*
X163126914Y-84737523D02*
X163174533Y-84832761D01*
D11*
X165053333Y-72261887D02*
X165167619Y-72299982D01*
X165167619Y-72299982D02*
X165205714Y-72338078D01*
X165205714Y-72338078D02*
X165243810Y-72414268D01*
X165243810Y-72414268D02*
X165243810Y-72528554D01*
X165243810Y-72528554D02*
X165205714Y-72604744D01*
X165205714Y-72604744D02*
X165167619Y-72642840D01*
X165167619Y-72642840D02*
X165091429Y-72680935D01*
X165091429Y-72680935D02*
X164786667Y-72680935D01*
X164786667Y-72680935D02*
X164786667Y-71880935D01*
X164786667Y-71880935D02*
X165053333Y-71880935D01*
X165053333Y-71880935D02*
X165129524Y-71919030D01*
X165129524Y-71919030D02*
X165167619Y-71957125D01*
X165167619Y-71957125D02*
X165205714Y-72033316D01*
X165205714Y-72033316D02*
X165205714Y-72109506D01*
X165205714Y-72109506D02*
X165167619Y-72185697D01*
X165167619Y-72185697D02*
X165129524Y-72223792D01*
X165129524Y-72223792D02*
X165053333Y-72261887D01*
X165053333Y-72261887D02*
X164786667Y-72261887D01*
X165967619Y-72680935D02*
X165586667Y-72680935D01*
X165586667Y-72680935D02*
X165586667Y-71880935D01*
X166234286Y-72680935D02*
X166234286Y-71880935D01*
X166691429Y-72680935D02*
X166348571Y-72223792D01*
X166691429Y-71880935D02*
X166234286Y-72338078D01*
D10*
X170061905Y-86739819D02*
X170061905Y-85739819D01*
X170061905Y-85739819D02*
X170300000Y-85739819D01*
X170300000Y-85739819D02*
X170442857Y-85787438D01*
X170442857Y-85787438D02*
X170538095Y-85882676D01*
X170538095Y-85882676D02*
X170585714Y-85977914D01*
X170585714Y-85977914D02*
X170633333Y-86168390D01*
X170633333Y-86168390D02*
X170633333Y-86311247D01*
X170633333Y-86311247D02*
X170585714Y-86501723D01*
X170585714Y-86501723D02*
X170538095Y-86596961D01*
X170538095Y-86596961D02*
X170442857Y-86692200D01*
X170442857Y-86692200D02*
X170300000Y-86739819D01*
X170300000Y-86739819D02*
X170061905Y-86739819D01*
X171252381Y-85739819D02*
X171347619Y-85739819D01*
X171347619Y-85739819D02*
X171442857Y-85787438D01*
X171442857Y-85787438D02*
X171490476Y-85835057D01*
X171490476Y-85835057D02*
X171538095Y-85930295D01*
X171538095Y-85930295D02*
X171585714Y-86120771D01*
X171585714Y-86120771D02*
X171585714Y-86358866D01*
X171585714Y-86358866D02*
X171538095Y-86549342D01*
X171538095Y-86549342D02*
X171490476Y-86644580D01*
X171490476Y-86644580D02*
X171442857Y-86692200D01*
X171442857Y-86692200D02*
X171347619Y-86739819D01*
X171347619Y-86739819D02*
X171252381Y-86739819D01*
X171252381Y-86739819D02*
X171157143Y-86692200D01*
X171157143Y-86692200D02*
X171109524Y-86644580D01*
X171109524Y-86644580D02*
X171061905Y-86549342D01*
X171061905Y-86549342D02*
X171014286Y-86358866D01*
X171014286Y-86358866D02*
X171014286Y-86120771D01*
X171014286Y-86120771D02*
X171061905Y-85930295D01*
X171061905Y-85930295D02*
X171109524Y-85835057D01*
X171109524Y-85835057D02*
X171157143Y-85787438D01*
X171157143Y-85787438D02*
X171252381Y-85739819D01*
D11*
X165110476Y-88429030D02*
X165034286Y-88390935D01*
X165034286Y-88390935D02*
X164920000Y-88390935D01*
X164920000Y-88390935D02*
X164805714Y-88429030D01*
X164805714Y-88429030D02*
X164729524Y-88505220D01*
X164729524Y-88505220D02*
X164691429Y-88581411D01*
X164691429Y-88581411D02*
X164653333Y-88733792D01*
X164653333Y-88733792D02*
X164653333Y-88848078D01*
X164653333Y-88848078D02*
X164691429Y-89000459D01*
X164691429Y-89000459D02*
X164729524Y-89076649D01*
X164729524Y-89076649D02*
X164805714Y-89152840D01*
X164805714Y-89152840D02*
X164920000Y-89190935D01*
X164920000Y-89190935D02*
X164996191Y-89190935D01*
X164996191Y-89190935D02*
X165110476Y-89152840D01*
X165110476Y-89152840D02*
X165148572Y-89114744D01*
X165148572Y-89114744D02*
X165148572Y-88848078D01*
X165148572Y-88848078D02*
X164996191Y-88848078D01*
X165948572Y-89190935D02*
X165681905Y-88809982D01*
X165491429Y-89190935D02*
X165491429Y-88390935D01*
X165491429Y-88390935D02*
X165796191Y-88390935D01*
X165796191Y-88390935D02*
X165872381Y-88429030D01*
X165872381Y-88429030D02*
X165910476Y-88467125D01*
X165910476Y-88467125D02*
X165948572Y-88543316D01*
X165948572Y-88543316D02*
X165948572Y-88657601D01*
X165948572Y-88657601D02*
X165910476Y-88733792D01*
X165910476Y-88733792D02*
X165872381Y-88771887D01*
X165872381Y-88771887D02*
X165796191Y-88809982D01*
X165796191Y-88809982D02*
X165491429Y-88809982D01*
X166291429Y-89190935D02*
X166291429Y-88390935D01*
X166291429Y-88390935D02*
X166748572Y-89190935D01*
X166748572Y-89190935D02*
X166748572Y-88390935D01*
D10*
X85666667Y-116550057D02*
X85714286Y-116502438D01*
X85714286Y-116502438D02*
X85809524Y-116454819D01*
X85809524Y-116454819D02*
X86047619Y-116454819D01*
X86047619Y-116454819D02*
X86142857Y-116502438D01*
X86142857Y-116502438D02*
X86190476Y-116550057D01*
X86190476Y-116550057D02*
X86238095Y-116645295D01*
X86238095Y-116645295D02*
X86238095Y-116740533D01*
X86238095Y-116740533D02*
X86190476Y-116883390D01*
X86190476Y-116883390D02*
X85619048Y-117454819D01*
X85619048Y-117454819D02*
X86238095Y-117454819D01*
X86666667Y-117359580D02*
X86714286Y-117407200D01*
X86714286Y-117407200D02*
X86666667Y-117454819D01*
X86666667Y-117454819D02*
X86619048Y-117407200D01*
X86619048Y-117407200D02*
X86666667Y-117359580D01*
X86666667Y-117359580D02*
X86666667Y-117454819D01*
X87666666Y-117454819D02*
X87095238Y-117454819D01*
X87380952Y-117454819D02*
X87380952Y-116454819D01*
X87380952Y-116454819D02*
X87285714Y-116597676D01*
X87285714Y-116597676D02*
X87190476Y-116692914D01*
X87190476Y-116692914D02*
X87095238Y-116740533D01*
X88095238Y-117454819D02*
X88095238Y-116788152D01*
X88095238Y-116883390D02*
X88142857Y-116835771D01*
X88142857Y-116835771D02*
X88238095Y-116788152D01*
X88238095Y-116788152D02*
X88380952Y-116788152D01*
X88380952Y-116788152D02*
X88476190Y-116835771D01*
X88476190Y-116835771D02*
X88523809Y-116931009D01*
X88523809Y-116931009D02*
X88523809Y-117454819D01*
X88523809Y-116931009D02*
X88571428Y-116835771D01*
X88571428Y-116835771D02*
X88666666Y-116788152D01*
X88666666Y-116788152D02*
X88809523Y-116788152D01*
X88809523Y-116788152D02*
X88904762Y-116835771D01*
X88904762Y-116835771D02*
X88952381Y-116931009D01*
X88952381Y-116931009D02*
X88952381Y-117454819D01*
X89428571Y-117454819D02*
X89428571Y-116788152D01*
X89428571Y-116883390D02*
X89476190Y-116835771D01*
X89476190Y-116835771D02*
X89571428Y-116788152D01*
X89571428Y-116788152D02*
X89714285Y-116788152D01*
X89714285Y-116788152D02*
X89809523Y-116835771D01*
X89809523Y-116835771D02*
X89857142Y-116931009D01*
X89857142Y-116931009D02*
X89857142Y-117454819D01*
X89857142Y-116931009D02*
X89904761Y-116835771D01*
X89904761Y-116835771D02*
X89999999Y-116788152D01*
X89999999Y-116788152D02*
X90142856Y-116788152D01*
X90142856Y-116788152D02*
X90238095Y-116835771D01*
X90238095Y-116835771D02*
X90285714Y-116931009D01*
X90285714Y-116931009D02*
X90285714Y-117454819D01*
X184716667Y-98857200D02*
X184859524Y-98904819D01*
X184859524Y-98904819D02*
X185097619Y-98904819D01*
X185097619Y-98904819D02*
X185192857Y-98857200D01*
X185192857Y-98857200D02*
X185240476Y-98809580D01*
X185240476Y-98809580D02*
X185288095Y-98714342D01*
X185288095Y-98714342D02*
X185288095Y-98619104D01*
X185288095Y-98619104D02*
X185240476Y-98523866D01*
X185240476Y-98523866D02*
X185192857Y-98476247D01*
X185192857Y-98476247D02*
X185097619Y-98428628D01*
X185097619Y-98428628D02*
X184907143Y-98381009D01*
X184907143Y-98381009D02*
X184811905Y-98333390D01*
X184811905Y-98333390D02*
X184764286Y-98285771D01*
X184764286Y-98285771D02*
X184716667Y-98190533D01*
X184716667Y-98190533D02*
X184716667Y-98095295D01*
X184716667Y-98095295D02*
X184764286Y-98000057D01*
X184764286Y-98000057D02*
X184811905Y-97952438D01*
X184811905Y-97952438D02*
X184907143Y-97904819D01*
X184907143Y-97904819D02*
X185145238Y-97904819D01*
X185145238Y-97904819D02*
X185288095Y-97952438D01*
X185621429Y-97904819D02*
X185859524Y-98904819D01*
X185859524Y-98904819D02*
X186050000Y-98190533D01*
X186050000Y-98190533D02*
X186240476Y-98904819D01*
X186240476Y-98904819D02*
X186478572Y-97904819D01*
X187335714Y-97904819D02*
X186859524Y-97904819D01*
X186859524Y-97904819D02*
X186811905Y-98381009D01*
X186811905Y-98381009D02*
X186859524Y-98333390D01*
X186859524Y-98333390D02*
X186954762Y-98285771D01*
X186954762Y-98285771D02*
X187192857Y-98285771D01*
X187192857Y-98285771D02*
X187288095Y-98333390D01*
X187288095Y-98333390D02*
X187335714Y-98381009D01*
X187335714Y-98381009D02*
X187383333Y-98476247D01*
X187383333Y-98476247D02*
X187383333Y-98714342D01*
X187383333Y-98714342D02*
X187335714Y-98809580D01*
X187335714Y-98809580D02*
X187288095Y-98857200D01*
X187288095Y-98857200D02*
X187192857Y-98904819D01*
X187192857Y-98904819D02*
X186954762Y-98904819D01*
X186954762Y-98904819D02*
X186859524Y-98857200D01*
X186859524Y-98857200D02*
X186811905Y-98809580D01*
X86666667Y-82507200D02*
X86809524Y-82554819D01*
X86809524Y-82554819D02*
X87047619Y-82554819D01*
X87047619Y-82554819D02*
X87142857Y-82507200D01*
X87142857Y-82507200D02*
X87190476Y-82459580D01*
X87190476Y-82459580D02*
X87238095Y-82364342D01*
X87238095Y-82364342D02*
X87238095Y-82269104D01*
X87238095Y-82269104D02*
X87190476Y-82173866D01*
X87190476Y-82173866D02*
X87142857Y-82126247D01*
X87142857Y-82126247D02*
X87047619Y-82078628D01*
X87047619Y-82078628D02*
X86857143Y-82031009D01*
X86857143Y-82031009D02*
X86761905Y-81983390D01*
X86761905Y-81983390D02*
X86714286Y-81935771D01*
X86714286Y-81935771D02*
X86666667Y-81840533D01*
X86666667Y-81840533D02*
X86666667Y-81745295D01*
X86666667Y-81745295D02*
X86714286Y-81650057D01*
X86714286Y-81650057D02*
X86761905Y-81602438D01*
X86761905Y-81602438D02*
X86857143Y-81554819D01*
X86857143Y-81554819D02*
X87095238Y-81554819D01*
X87095238Y-81554819D02*
X87238095Y-81602438D01*
X87571429Y-81554819D02*
X87809524Y-82554819D01*
X87809524Y-82554819D02*
X88000000Y-81840533D01*
X88000000Y-81840533D02*
X88190476Y-82554819D01*
X88190476Y-82554819D02*
X88428572Y-81554819D01*
X88714286Y-81554819D02*
X89333333Y-81554819D01*
X89333333Y-81554819D02*
X89000000Y-81935771D01*
X89000000Y-81935771D02*
X89142857Y-81935771D01*
X89142857Y-81935771D02*
X89238095Y-81983390D01*
X89238095Y-81983390D02*
X89285714Y-82031009D01*
X89285714Y-82031009D02*
X89333333Y-82126247D01*
X89333333Y-82126247D02*
X89333333Y-82364342D01*
X89333333Y-82364342D02*
X89285714Y-82459580D01*
X89285714Y-82459580D02*
X89238095Y-82507200D01*
X89238095Y-82507200D02*
X89142857Y-82554819D01*
X89142857Y-82554819D02*
X88857143Y-82554819D01*
X88857143Y-82554819D02*
X88761905Y-82507200D01*
X88761905Y-82507200D02*
X88714286Y-82459580D01*
X198666667Y-74550057D02*
X198714286Y-74502438D01*
X198714286Y-74502438D02*
X198809524Y-74454819D01*
X198809524Y-74454819D02*
X199047619Y-74454819D01*
X199047619Y-74454819D02*
X199142857Y-74502438D01*
X199142857Y-74502438D02*
X199190476Y-74550057D01*
X199190476Y-74550057D02*
X199238095Y-74645295D01*
X199238095Y-74645295D02*
X199238095Y-74740533D01*
X199238095Y-74740533D02*
X199190476Y-74883390D01*
X199190476Y-74883390D02*
X198619048Y-75454819D01*
X198619048Y-75454819D02*
X199238095Y-75454819D01*
X199666667Y-75359580D02*
X199714286Y-75407200D01*
X199714286Y-75407200D02*
X199666667Y-75454819D01*
X199666667Y-75454819D02*
X199619048Y-75407200D01*
X199619048Y-75407200D02*
X199666667Y-75359580D01*
X199666667Y-75359580D02*
X199666667Y-75454819D01*
X200666666Y-75454819D02*
X200095238Y-75454819D01*
X200380952Y-75454819D02*
X200380952Y-74454819D01*
X200380952Y-74454819D02*
X200285714Y-74597676D01*
X200285714Y-74597676D02*
X200190476Y-74692914D01*
X200190476Y-74692914D02*
X200095238Y-74740533D01*
X201095238Y-75454819D02*
X201095238Y-74788152D01*
X201095238Y-74883390D02*
X201142857Y-74835771D01*
X201142857Y-74835771D02*
X201238095Y-74788152D01*
X201238095Y-74788152D02*
X201380952Y-74788152D01*
X201380952Y-74788152D02*
X201476190Y-74835771D01*
X201476190Y-74835771D02*
X201523809Y-74931009D01*
X201523809Y-74931009D02*
X201523809Y-75454819D01*
X201523809Y-74931009D02*
X201571428Y-74835771D01*
X201571428Y-74835771D02*
X201666666Y-74788152D01*
X201666666Y-74788152D02*
X201809523Y-74788152D01*
X201809523Y-74788152D02*
X201904762Y-74835771D01*
X201904762Y-74835771D02*
X201952381Y-74931009D01*
X201952381Y-74931009D02*
X201952381Y-75454819D01*
X202428571Y-75454819D02*
X202428571Y-74788152D01*
X202428571Y-74883390D02*
X202476190Y-74835771D01*
X202476190Y-74835771D02*
X202571428Y-74788152D01*
X202571428Y-74788152D02*
X202714285Y-74788152D01*
X202714285Y-74788152D02*
X202809523Y-74835771D01*
X202809523Y-74835771D02*
X202857142Y-74931009D01*
X202857142Y-74931009D02*
X202857142Y-75454819D01*
X202857142Y-74931009D02*
X202904761Y-74835771D01*
X202904761Y-74835771D02*
X202999999Y-74788152D01*
X202999999Y-74788152D02*
X203142856Y-74788152D01*
X203142856Y-74788152D02*
X203238095Y-74835771D01*
X203238095Y-74835771D02*
X203285714Y-74931009D01*
X203285714Y-74931009D02*
X203285714Y-75454819D01*
X110216667Y-82857200D02*
X110359524Y-82904819D01*
X110359524Y-82904819D02*
X110597619Y-82904819D01*
X110597619Y-82904819D02*
X110692857Y-82857200D01*
X110692857Y-82857200D02*
X110740476Y-82809580D01*
X110740476Y-82809580D02*
X110788095Y-82714342D01*
X110788095Y-82714342D02*
X110788095Y-82619104D01*
X110788095Y-82619104D02*
X110740476Y-82523866D01*
X110740476Y-82523866D02*
X110692857Y-82476247D01*
X110692857Y-82476247D02*
X110597619Y-82428628D01*
X110597619Y-82428628D02*
X110407143Y-82381009D01*
X110407143Y-82381009D02*
X110311905Y-82333390D01*
X110311905Y-82333390D02*
X110264286Y-82285771D01*
X110264286Y-82285771D02*
X110216667Y-82190533D01*
X110216667Y-82190533D02*
X110216667Y-82095295D01*
X110216667Y-82095295D02*
X110264286Y-82000057D01*
X110264286Y-82000057D02*
X110311905Y-81952438D01*
X110311905Y-81952438D02*
X110407143Y-81904819D01*
X110407143Y-81904819D02*
X110645238Y-81904819D01*
X110645238Y-81904819D02*
X110788095Y-81952438D01*
X111121429Y-81904819D02*
X111359524Y-82904819D01*
X111359524Y-82904819D02*
X111550000Y-82190533D01*
X111550000Y-82190533D02*
X111740476Y-82904819D01*
X111740476Y-82904819D02*
X111978572Y-81904819D01*
X112788095Y-82238152D02*
X112788095Y-82904819D01*
X112550000Y-81857200D02*
X112311905Y-82571485D01*
X112311905Y-82571485D02*
X112930952Y-82571485D01*
X80666667Y-74550057D02*
X80714286Y-74502438D01*
X80714286Y-74502438D02*
X80809524Y-74454819D01*
X80809524Y-74454819D02*
X81047619Y-74454819D01*
X81047619Y-74454819D02*
X81142857Y-74502438D01*
X81142857Y-74502438D02*
X81190476Y-74550057D01*
X81190476Y-74550057D02*
X81238095Y-74645295D01*
X81238095Y-74645295D02*
X81238095Y-74740533D01*
X81238095Y-74740533D02*
X81190476Y-74883390D01*
X81190476Y-74883390D02*
X80619048Y-75454819D01*
X80619048Y-75454819D02*
X81238095Y-75454819D01*
X81666667Y-75359580D02*
X81714286Y-75407200D01*
X81714286Y-75407200D02*
X81666667Y-75454819D01*
X81666667Y-75454819D02*
X81619048Y-75407200D01*
X81619048Y-75407200D02*
X81666667Y-75359580D01*
X81666667Y-75359580D02*
X81666667Y-75454819D01*
X82666666Y-75454819D02*
X82095238Y-75454819D01*
X82380952Y-75454819D02*
X82380952Y-74454819D01*
X82380952Y-74454819D02*
X82285714Y-74597676D01*
X82285714Y-74597676D02*
X82190476Y-74692914D01*
X82190476Y-74692914D02*
X82095238Y-74740533D01*
X83095238Y-75454819D02*
X83095238Y-74788152D01*
X83095238Y-74883390D02*
X83142857Y-74835771D01*
X83142857Y-74835771D02*
X83238095Y-74788152D01*
X83238095Y-74788152D02*
X83380952Y-74788152D01*
X83380952Y-74788152D02*
X83476190Y-74835771D01*
X83476190Y-74835771D02*
X83523809Y-74931009D01*
X83523809Y-74931009D02*
X83523809Y-75454819D01*
X83523809Y-74931009D02*
X83571428Y-74835771D01*
X83571428Y-74835771D02*
X83666666Y-74788152D01*
X83666666Y-74788152D02*
X83809523Y-74788152D01*
X83809523Y-74788152D02*
X83904762Y-74835771D01*
X83904762Y-74835771D02*
X83952381Y-74931009D01*
X83952381Y-74931009D02*
X83952381Y-75454819D01*
X84428571Y-75454819D02*
X84428571Y-74788152D01*
X84428571Y-74883390D02*
X84476190Y-74835771D01*
X84476190Y-74835771D02*
X84571428Y-74788152D01*
X84571428Y-74788152D02*
X84714285Y-74788152D01*
X84714285Y-74788152D02*
X84809523Y-74835771D01*
X84809523Y-74835771D02*
X84857142Y-74931009D01*
X84857142Y-74931009D02*
X84857142Y-75454819D01*
X84857142Y-74931009D02*
X84904761Y-74835771D01*
X84904761Y-74835771D02*
X84999999Y-74788152D01*
X84999999Y-74788152D02*
X85142856Y-74788152D01*
X85142856Y-74788152D02*
X85238095Y-74835771D01*
X85238095Y-74835771D02*
X85285714Y-74931009D01*
X85285714Y-74931009D02*
X85285714Y-75454819D01*
X98216667Y-91657200D02*
X98359524Y-91704819D01*
X98359524Y-91704819D02*
X98597619Y-91704819D01*
X98597619Y-91704819D02*
X98692857Y-91657200D01*
X98692857Y-91657200D02*
X98740476Y-91609580D01*
X98740476Y-91609580D02*
X98788095Y-91514342D01*
X98788095Y-91514342D02*
X98788095Y-91419104D01*
X98788095Y-91419104D02*
X98740476Y-91323866D01*
X98740476Y-91323866D02*
X98692857Y-91276247D01*
X98692857Y-91276247D02*
X98597619Y-91228628D01*
X98597619Y-91228628D02*
X98407143Y-91181009D01*
X98407143Y-91181009D02*
X98311905Y-91133390D01*
X98311905Y-91133390D02*
X98264286Y-91085771D01*
X98264286Y-91085771D02*
X98216667Y-90990533D01*
X98216667Y-90990533D02*
X98216667Y-90895295D01*
X98216667Y-90895295D02*
X98264286Y-90800057D01*
X98264286Y-90800057D02*
X98311905Y-90752438D01*
X98311905Y-90752438D02*
X98407143Y-90704819D01*
X98407143Y-90704819D02*
X98645238Y-90704819D01*
X98645238Y-90704819D02*
X98788095Y-90752438D01*
X99121429Y-90704819D02*
X99359524Y-91704819D01*
X99359524Y-91704819D02*
X99550000Y-90990533D01*
X99550000Y-90990533D02*
X99740476Y-91704819D01*
X99740476Y-91704819D02*
X99978572Y-90704819D01*
X100311905Y-90800057D02*
X100359524Y-90752438D01*
X100359524Y-90752438D02*
X100454762Y-90704819D01*
X100454762Y-90704819D02*
X100692857Y-90704819D01*
X100692857Y-90704819D02*
X100788095Y-90752438D01*
X100788095Y-90752438D02*
X100835714Y-90800057D01*
X100835714Y-90800057D02*
X100883333Y-90895295D01*
X100883333Y-90895295D02*
X100883333Y-90990533D01*
X100883333Y-90990533D02*
X100835714Y-91133390D01*
X100835714Y-91133390D02*
X100264286Y-91704819D01*
X100264286Y-91704819D02*
X100883333Y-91704819D01*
X99519047Y-104381009D02*
X99661904Y-104428628D01*
X99661904Y-104428628D02*
X99709523Y-104476247D01*
X99709523Y-104476247D02*
X99757142Y-104571485D01*
X99757142Y-104571485D02*
X99757142Y-104714342D01*
X99757142Y-104714342D02*
X99709523Y-104809580D01*
X99709523Y-104809580D02*
X99661904Y-104857200D01*
X99661904Y-104857200D02*
X99566666Y-104904819D01*
X99566666Y-104904819D02*
X99185714Y-104904819D01*
X99185714Y-104904819D02*
X99185714Y-103904819D01*
X99185714Y-103904819D02*
X99519047Y-103904819D01*
X99519047Y-103904819D02*
X99614285Y-103952438D01*
X99614285Y-103952438D02*
X99661904Y-104000057D01*
X99661904Y-104000057D02*
X99709523Y-104095295D01*
X99709523Y-104095295D02*
X99709523Y-104190533D01*
X99709523Y-104190533D02*
X99661904Y-104285771D01*
X99661904Y-104285771D02*
X99614285Y-104333390D01*
X99614285Y-104333390D02*
X99519047Y-104381009D01*
X99519047Y-104381009D02*
X99185714Y-104381009D01*
X100090476Y-103904819D02*
X100757142Y-103904819D01*
X100757142Y-103904819D02*
X100090476Y-104904819D01*
X100090476Y-104904819D02*
X100757142Y-104904819D01*
X101661904Y-104904819D02*
X101090476Y-104904819D01*
X101376190Y-104904819D02*
X101376190Y-103904819D01*
X101376190Y-103904819D02*
X101280952Y-104047676D01*
X101280952Y-104047676D02*
X101185714Y-104142914D01*
X101185714Y-104142914D02*
X101090476Y-104190533D01*
X96209048Y-109183866D02*
X96970953Y-109183866D01*
X96590000Y-109564819D02*
X96590000Y-108802914D01*
X193666667Y-116550057D02*
X193714286Y-116502438D01*
X193714286Y-116502438D02*
X193809524Y-116454819D01*
X193809524Y-116454819D02*
X194047619Y-116454819D01*
X194047619Y-116454819D02*
X194142857Y-116502438D01*
X194142857Y-116502438D02*
X194190476Y-116550057D01*
X194190476Y-116550057D02*
X194238095Y-116645295D01*
X194238095Y-116645295D02*
X194238095Y-116740533D01*
X194238095Y-116740533D02*
X194190476Y-116883390D01*
X194190476Y-116883390D02*
X193619048Y-117454819D01*
X193619048Y-117454819D02*
X194238095Y-117454819D01*
X194666667Y-117359580D02*
X194714286Y-117407200D01*
X194714286Y-117407200D02*
X194666667Y-117454819D01*
X194666667Y-117454819D02*
X194619048Y-117407200D01*
X194619048Y-117407200D02*
X194666667Y-117359580D01*
X194666667Y-117359580D02*
X194666667Y-117454819D01*
X195666666Y-117454819D02*
X195095238Y-117454819D01*
X195380952Y-117454819D02*
X195380952Y-116454819D01*
X195380952Y-116454819D02*
X195285714Y-116597676D01*
X195285714Y-116597676D02*
X195190476Y-116692914D01*
X195190476Y-116692914D02*
X195095238Y-116740533D01*
X196095238Y-117454819D02*
X196095238Y-116788152D01*
X196095238Y-116883390D02*
X196142857Y-116835771D01*
X196142857Y-116835771D02*
X196238095Y-116788152D01*
X196238095Y-116788152D02*
X196380952Y-116788152D01*
X196380952Y-116788152D02*
X196476190Y-116835771D01*
X196476190Y-116835771D02*
X196523809Y-116931009D01*
X196523809Y-116931009D02*
X196523809Y-117454819D01*
X196523809Y-116931009D02*
X196571428Y-116835771D01*
X196571428Y-116835771D02*
X196666666Y-116788152D01*
X196666666Y-116788152D02*
X196809523Y-116788152D01*
X196809523Y-116788152D02*
X196904762Y-116835771D01*
X196904762Y-116835771D02*
X196952381Y-116931009D01*
X196952381Y-116931009D02*
X196952381Y-117454819D01*
X197428571Y-117454819D02*
X197428571Y-116788152D01*
X197428571Y-116883390D02*
X197476190Y-116835771D01*
X197476190Y-116835771D02*
X197571428Y-116788152D01*
X197571428Y-116788152D02*
X197714285Y-116788152D01*
X197714285Y-116788152D02*
X197809523Y-116835771D01*
X197809523Y-116835771D02*
X197857142Y-116931009D01*
X197857142Y-116931009D02*
X197857142Y-117454819D01*
X197857142Y-116931009D02*
X197904761Y-116835771D01*
X197904761Y-116835771D02*
X197999999Y-116788152D01*
X197999999Y-116788152D02*
X198142856Y-116788152D01*
X198142856Y-116788152D02*
X198238095Y-116835771D01*
X198238095Y-116835771D02*
X198285714Y-116931009D01*
X198285714Y-116931009D02*
X198285714Y-117454819D01*
D12*
%TO.C,SW6*%
X167050000Y-111750000D02*
X167050000Y-113250000D01*
X168300000Y-115750000D02*
X172800000Y-115750000D01*
X172800000Y-109250000D02*
X168300000Y-109250000D01*
X174050000Y-113250000D02*
X174050000Y-111750000D01*
%TO.C,SW1*%
X96650000Y-76250000D02*
X96650000Y-77750000D01*
X97900000Y-80250000D02*
X102400000Y-80250000D01*
X102400000Y-73750000D02*
X97900000Y-73750000D01*
X103650000Y-77750000D02*
X103650000Y-76250000D01*
%TO.C,SSD1306*%
X134670000Y-79595000D02*
X136000000Y-79595000D01*
X134670000Y-80925000D02*
X134670000Y-79595000D01*
X137270000Y-79595000D02*
X144950000Y-79595000D01*
X137270000Y-82255000D02*
X137270000Y-79595000D01*
X137270000Y-82255000D02*
X144950000Y-82255000D01*
X144950000Y-82255000D02*
X144950000Y-79595000D01*
D10*
%TO.C,Ard-PM1*%
X164450000Y-71680000D02*
X164450000Y-89460000D01*
X164450000Y-71680000D02*
X197470000Y-71680000D01*
X164450000Y-89460000D02*
X197470000Y-89460000D01*
X197470000Y-71680000D02*
X197470000Y-89460000D01*
D12*
%TO.C,SW5*%
X182550000Y-101950000D02*
X182550000Y-103450000D01*
X183800000Y-105950000D02*
X188300000Y-105950000D01*
X188300000Y-99450000D02*
X183800000Y-99450000D01*
X189550000Y-103450000D02*
X189550000Y-101950000D01*
%TO.C,SW3*%
X84500000Y-85600000D02*
X84500000Y-87100000D01*
X85750000Y-89600000D02*
X90250000Y-89600000D01*
X90250000Y-83100000D02*
X85750000Y-83100000D01*
X91500000Y-87100000D02*
X91500000Y-85600000D01*
%TO.C,SW4*%
X108050000Y-85950000D02*
X108050000Y-87450000D01*
X109300000Y-89950000D02*
X113800000Y-89950000D01*
X113800000Y-83450000D02*
X109300000Y-83450000D01*
X115050000Y-87450000D02*
X115050000Y-85950000D01*
%TO.C,SW2*%
X96050000Y-94750000D02*
X96050000Y-96250000D01*
X97300000Y-98750000D02*
X101800000Y-98750000D01*
X101800000Y-92250000D02*
X97300000Y-92250000D01*
X103050000Y-96250000D02*
X103050000Y-94750000D01*
%TO.C,BZ1*%
X106500000Y-111650000D02*
G75*
G02*
X94300000Y-111650000I-6100000J0D01*
G01*
X94300000Y-111650000D02*
G75*
G02*
X106500000Y-111650000I6100000J0D01*
G01*
D13*
%TO.C,G\u002A\u002A\u002A*%
G36*
X154031238Y-103183728D02*
G01*
X154093902Y-103300880D01*
X154145199Y-103440172D01*
X154130696Y-103551240D01*
X154028679Y-103680594D01*
X153832023Y-103861803D01*
X153624325Y-104038088D01*
X153467127Y-104156805D01*
X153406581Y-104188790D01*
X153345081Y-104117536D01*
X153246834Y-103933971D01*
X153168983Y-103761265D01*
X152988359Y-103333740D01*
X153215679Y-103245833D01*
X153472567Y-103166048D01*
X153715157Y-103112435D01*
X153915972Y-103101668D01*
X154031238Y-103183728D01*
G37*
G36*
X131608459Y-102489298D02*
G01*
X131634421Y-102703312D01*
X131636025Y-103020563D01*
X131612555Y-103408784D01*
X131586471Y-103659623D01*
X131541887Y-103928532D01*
X131463001Y-104065349D01*
X131308045Y-104098084D01*
X131035254Y-104054746D01*
X131006333Y-104048672D01*
X130759588Y-103998287D01*
X130607650Y-103952461D01*
X130549168Y-103882290D01*
X130582787Y-103758873D01*
X130707155Y-103553306D01*
X130920918Y-103236687D01*
X130965243Y-103170940D01*
X131180452Y-102861562D01*
X131367140Y-102612836D01*
X131502602Y-102453840D01*
X131558850Y-102410790D01*
X131608459Y-102489298D01*
G37*
G36*
X154458050Y-104628446D02*
G01*
X154638466Y-104699907D01*
X154653733Y-104713723D01*
X154732719Y-104884912D01*
X154750730Y-105117887D01*
X154701910Y-105314319D01*
X154690537Y-105331790D01*
X154544160Y-105472322D01*
X154328849Y-105616271D01*
X154091434Y-105740386D01*
X153878746Y-105821417D01*
X153737616Y-105836113D01*
X153711486Y-105817867D01*
X153671551Y-105698958D01*
X153622365Y-105490438D01*
X153615969Y-105458790D01*
X153563906Y-105213214D01*
X153517378Y-105020788D01*
X153515097Y-105012580D01*
X153552771Y-104877936D01*
X153712813Y-104759889D01*
X153948314Y-104670749D01*
X154212363Y-104622831D01*
X154458050Y-104628446D01*
G37*
G36*
X127224982Y-97364202D02*
G01*
X128466985Y-97462946D01*
X129750273Y-97660126D01*
X131088108Y-97959135D01*
X132493754Y-98363369D01*
X133980472Y-98876222D01*
X135561526Y-99501090D01*
X137229333Y-100231834D01*
X137790497Y-100480127D01*
X138393853Y-100733283D01*
X138986484Y-100969991D01*
X139515470Y-101168941D01*
X139811667Y-101271733D01*
X141482908Y-101734620D01*
X143213524Y-102044214D01*
X144993236Y-102201568D01*
X146811763Y-102207733D01*
X148658828Y-102063762D01*
X150524150Y-101770705D01*
X152397450Y-101329615D01*
X154268449Y-100741544D01*
X156126868Y-100007543D01*
X157253000Y-99487096D01*
X157713039Y-99260271D01*
X158151803Y-99040023D01*
X158532529Y-98845087D01*
X158818455Y-98694196D01*
X158925085Y-98634984D01*
X159157238Y-98517829D01*
X159330571Y-98460995D01*
X159390752Y-98466889D01*
X159371514Y-98556872D01*
X159283123Y-98774857D01*
X159135631Y-99099180D01*
X158939089Y-99508177D01*
X158703551Y-99980183D01*
X158544167Y-100291440D01*
X158286823Y-100791418D01*
X158057692Y-101240688D01*
X157867615Y-101617650D01*
X157727437Y-101900708D01*
X157647999Y-102068262D01*
X157634000Y-102104481D01*
X157714804Y-102119077D01*
X157941773Y-102132105D01*
X158291741Y-102142966D01*
X158741541Y-102151062D01*
X159268009Y-102155796D01*
X159661003Y-102156790D01*
X160258023Y-102159964D01*
X160782190Y-102168950D01*
X161212232Y-102182941D01*
X161526880Y-102201134D01*
X161704859Y-102222721D01*
X161736581Y-102235386D01*
X161691562Y-102319121D01*
X161522267Y-102502020D01*
X161236325Y-102777067D01*
X160841365Y-103137242D01*
X160345017Y-103575527D01*
X159754911Y-104084904D01*
X159369667Y-104412717D01*
X158742420Y-104924310D01*
X158005784Y-105492533D01*
X157192845Y-106094199D01*
X156336689Y-106706122D01*
X155470400Y-107305118D01*
X154627064Y-107868000D01*
X153839768Y-108371584D01*
X153141596Y-108792683D01*
X153019667Y-108862637D01*
X151512310Y-109662438D01*
X150047125Y-110326508D01*
X148633313Y-110851453D01*
X147280078Y-111233878D01*
X145996621Y-111470389D01*
X145924631Y-111479544D01*
X145474787Y-111515883D01*
X144888805Y-111533506D01*
X144198746Y-111533281D01*
X143436667Y-111516073D01*
X142634630Y-111482751D01*
X141824693Y-111434181D01*
X141038916Y-111371228D01*
X140700667Y-111338327D01*
X139702328Y-111223517D01*
X138729237Y-111086062D01*
X137756339Y-110920506D01*
X136758582Y-110721393D01*
X135710913Y-110483269D01*
X134588278Y-110200677D01*
X133365625Y-109868162D01*
X132017900Y-109480267D01*
X131599000Y-109356317D01*
X130110027Y-108918356D01*
X128767789Y-108534721D01*
X128133992Y-108360537D01*
X136311846Y-108360537D01*
X136358719Y-108503272D01*
X136468317Y-108591983D01*
X136701585Y-108627185D01*
X136971846Y-108525247D01*
X137256153Y-108307399D01*
X137531561Y-107994871D01*
X137775124Y-107608894D01*
X137944646Y-107226031D01*
X138052424Y-106971235D01*
X138157267Y-106845918D01*
X138284380Y-106813456D01*
X138364855Y-106824562D01*
X138427915Y-106875573D01*
X138483225Y-106993024D01*
X138540453Y-107203453D01*
X138609265Y-107533397D01*
X138677603Y-107892956D01*
X138776393Y-108386883D01*
X138863826Y-108739736D01*
X138948208Y-108978631D01*
X139037842Y-109130683D01*
X139066544Y-109162956D01*
X139313763Y-109321227D01*
X139572703Y-109333850D01*
X139798265Y-109198883D01*
X139802163Y-109194624D01*
X139939370Y-108965506D01*
X139988535Y-108663109D01*
X139949875Y-108263867D01*
X139823610Y-107744210D01*
X139815836Y-107717497D01*
X139697506Y-107339838D01*
X139588215Y-107028577D01*
X142908645Y-107028577D01*
X142956043Y-107655435D01*
X143071905Y-108230500D01*
X143240442Y-108674040D01*
X143535183Y-109087722D01*
X143914314Y-109371495D01*
X144351114Y-109514322D01*
X144818864Y-109505166D01*
X145076655Y-109432483D01*
X145393918Y-109256251D01*
X145611598Y-109021769D01*
X145695881Y-108765948D01*
X145696000Y-108756398D01*
X145661889Y-108538072D01*
X145543203Y-108424756D01*
X145315410Y-108404837D01*
X145043094Y-108447312D01*
X144677187Y-108489192D01*
X144401249Y-108425918D01*
X144178698Y-108237553D01*
X143972958Y-107904163D01*
X143945565Y-107849185D01*
X143809493Y-107522283D01*
X143739667Y-107201388D01*
X143717936Y-106801646D01*
X143717820Y-106784552D01*
X143748444Y-106281038D01*
X143852328Y-105912057D01*
X144037748Y-105655774D01*
X144185644Y-105550315D01*
X144350762Y-105476123D01*
X144494724Y-105483989D01*
X144698373Y-105578811D01*
X144703756Y-105581706D01*
X144987702Y-105685059D01*
X145179542Y-105654502D01*
X145266827Y-105505555D01*
X145237104Y-105253738D01*
X145144233Y-105032685D01*
X145052795Y-104916397D01*
X146128935Y-104916397D01*
X146135591Y-105205187D01*
X146171263Y-105598614D01*
X146235924Y-106121362D01*
X146280990Y-106452459D01*
X146346856Y-106939650D01*
X146409447Y-107424650D01*
X146462028Y-107853876D01*
X146497865Y-108173750D01*
X146499978Y-108194726D01*
X146537216Y-108477760D01*
X146598837Y-108683152D01*
X146706180Y-108816250D01*
X146880584Y-108882401D01*
X147143388Y-108886949D01*
X147515933Y-108835241D01*
X148019557Y-108732625D01*
X148351052Y-108658488D01*
X148850845Y-108520665D01*
X149189856Y-108368482D01*
X149376365Y-108197175D01*
X149421333Y-108042736D01*
X149345446Y-107921836D01*
X149136772Y-107856914D01*
X148823793Y-107852309D01*
X148489107Y-107900687D01*
X148149570Y-107957465D01*
X147813353Y-107992885D01*
X147666142Y-107998790D01*
X147318144Y-107998790D01*
X147270206Y-107427290D01*
X147187551Y-106549962D01*
X147099275Y-105832055D01*
X147003247Y-105263692D01*
X146897338Y-104834996D01*
X146779419Y-104536091D01*
X146720203Y-104455831D01*
X148854210Y-104455831D01*
X148858803Y-104491917D01*
X148923085Y-104834927D01*
X149028572Y-105264230D01*
X149161253Y-105734042D01*
X149307116Y-106198580D01*
X149452152Y-106612060D01*
X149582349Y-106928699D01*
X149637458Y-107036315D01*
X149917930Y-107369400D01*
X150293137Y-107605551D01*
X150717856Y-107729311D01*
X151146866Y-107725224D01*
X151413807Y-107643438D01*
X151682888Y-107430147D01*
X151874658Y-107079978D01*
X151986003Y-106608265D01*
X152013812Y-106030343D01*
X151954972Y-105361545D01*
X151920373Y-105147811D01*
X151785049Y-104497873D01*
X151637274Y-104008950D01*
X151473186Y-103672943D01*
X151288922Y-103481751D01*
X151099729Y-103426790D01*
X150939368Y-103472317D01*
X150846355Y-103618806D01*
X150818808Y-103881120D01*
X150854847Y-104274121D01*
X150935130Y-104727299D01*
X151037058Y-105320941D01*
X151095871Y-105859723D01*
X151110301Y-106314778D01*
X151079080Y-106657242D01*
X151027021Y-106819022D01*
X150873747Y-106947889D01*
X150651171Y-106978316D01*
X150461784Y-106915026D01*
X150361569Y-106803660D01*
X150253183Y-106584025D01*
X150131217Y-106241105D01*
X149990259Y-105759886D01*
X149843173Y-105198055D01*
X149702467Y-104674411D01*
X149578341Y-104298011D01*
X149460737Y-104048875D01*
X149339595Y-103907023D01*
X149204858Y-103852475D01*
X149164578Y-103850123D01*
X148963457Y-103919621D01*
X148858954Y-104123721D01*
X148854210Y-104455831D01*
X146720203Y-104455831D01*
X146647359Y-104357100D01*
X146600862Y-104322993D01*
X146467277Y-104283188D01*
X146340313Y-104365893D01*
X146283362Y-104431003D01*
X146202792Y-104553990D01*
X146151326Y-104707560D01*
X146128935Y-104916397D01*
X145052795Y-104916397D01*
X144911660Y-104736906D01*
X144609783Y-104573930D01*
X144268030Y-104538988D01*
X143915830Y-104627311D01*
X143582610Y-104834129D01*
X143297799Y-105154675D01*
X143185680Y-105350072D01*
X143022618Y-105824613D01*
X142930555Y-106401209D01*
X142908645Y-107028577D01*
X139588215Y-107028577D01*
X139572871Y-106984877D01*
X139463470Y-106712770D01*
X139433534Y-106649744D01*
X139269878Y-106328951D01*
X139531032Y-106084370D01*
X139814050Y-105788587D01*
X140081238Y-105455547D01*
X140306902Y-105123377D01*
X140465345Y-104830204D01*
X140530871Y-104614156D01*
X140531333Y-104600152D01*
X140483763Y-104372219D01*
X140341968Y-104283585D01*
X140107327Y-104333779D01*
X139781216Y-104522333D01*
X139365011Y-104848781D01*
X139096983Y-105088053D01*
X138844942Y-105311539D01*
X138653960Y-105462369D01*
X138546007Y-105524439D01*
X138533476Y-105501123D01*
X138566355Y-105346479D01*
X138600589Y-105068566D01*
X138631121Y-104713330D01*
X138645477Y-104483705D01*
X138664229Y-104095839D01*
X138666020Y-103835831D01*
X138644067Y-103662514D01*
X138591587Y-103534719D01*
X138501795Y-103411278D01*
X138460625Y-103361872D01*
X138327201Y-103241936D01*
X152306197Y-103241936D01*
X152332777Y-103421131D01*
X152395878Y-103664967D01*
X152458744Y-103890722D01*
X152553537Y-104226425D01*
X152669429Y-104634228D01*
X152795594Y-105076280D01*
X152921205Y-105514732D01*
X153035433Y-105911733D01*
X153127453Y-106229434D01*
X153186435Y-106429985D01*
X153193595Y-106453623D01*
X153302162Y-106538655D01*
X153533869Y-106550894D01*
X153859946Y-106492365D01*
X154206488Y-106382295D01*
X154593442Y-106192722D01*
X154945111Y-105940134D01*
X155221384Y-105659594D01*
X155382150Y-105386164D01*
X155394996Y-105343356D01*
X155404451Y-105024712D01*
X155308451Y-104669963D01*
X155133556Y-104331775D01*
X154906326Y-104062813D01*
X154678878Y-103923416D01*
X154605975Y-103860718D01*
X154646893Y-103725694D01*
X154658525Y-103703475D01*
X154746987Y-103398933D01*
X154747369Y-103040031D01*
X154665473Y-102705267D01*
X154572489Y-102539844D01*
X154447000Y-102403304D01*
X154312163Y-102340910D01*
X154105299Y-102333041D01*
X153947196Y-102344086D01*
X153594347Y-102413094D01*
X153197796Y-102550825D01*
X152817829Y-102730687D01*
X152514733Y-102926086D01*
X152410135Y-103022092D01*
X152331593Y-103126537D01*
X152306197Y-103241936D01*
X138327201Y-103241936D01*
X138239444Y-103163051D01*
X138030674Y-103088138D01*
X138028092Y-103088123D01*
X137859106Y-103123830D01*
X137728897Y-103243944D01*
X137629951Y-103467952D01*
X137554754Y-103815343D01*
X137495791Y-104305603D01*
X137477479Y-104516031D01*
X137389107Y-105291473D01*
X137249293Y-105965464D01*
X137040045Y-106602551D01*
X136743370Y-107267278D01*
X136669816Y-107413414D01*
X136463341Y-107839314D01*
X136345369Y-108147119D01*
X136311846Y-108360537D01*
X128133992Y-108360537D01*
X127559588Y-108202676D01*
X126472730Y-107919485D01*
X125494519Y-107682412D01*
X124612260Y-107488720D01*
X123813257Y-107335673D01*
X123084815Y-107220535D01*
X122414239Y-107140570D01*
X121788832Y-107093041D01*
X121195899Y-107075212D01*
X121015667Y-107075295D01*
X120540425Y-107086333D01*
X120087317Y-107110160D01*
X119689483Y-107143709D01*
X119380063Y-107183912D01*
X119192198Y-107227702D01*
X119156513Y-107247388D01*
X119100880Y-107378526D01*
X119037578Y-107653756D01*
X118969629Y-108048174D01*
X118900054Y-108536876D01*
X118831875Y-109094958D01*
X118768115Y-109697516D01*
X118711794Y-110319647D01*
X118665934Y-110936446D01*
X118633557Y-111523010D01*
X118631305Y-111575956D01*
X118576190Y-112909456D01*
X117954428Y-112909456D01*
X117332667Y-112909456D01*
X117332667Y-112589428D01*
X117346451Y-112309427D01*
X117384721Y-111898642D01*
X117442854Y-111393102D01*
X117516227Y-110828836D01*
X117600216Y-110241872D01*
X117690198Y-109668241D01*
X117758773Y-109268790D01*
X118078850Y-107725125D01*
X118486465Y-106187712D01*
X118990089Y-104632093D01*
X119097273Y-104350382D01*
X123357895Y-104350382D01*
X123373954Y-104667189D01*
X123482523Y-104863441D01*
X123684334Y-104946697D01*
X123757791Y-104950790D01*
X124095208Y-104867741D01*
X124429710Y-104617913D01*
X124762475Y-104200279D01*
X124925650Y-103933371D01*
X125091910Y-103637975D01*
X125224231Y-103397998D01*
X125301423Y-103252060D01*
X125311766Y-103229638D01*
X125392283Y-103233978D01*
X125586026Y-103286312D01*
X125849216Y-103371210D01*
X126138072Y-103473243D01*
X126408814Y-103576979D01*
X126617662Y-103666989D01*
X126718600Y-103725469D01*
X126714666Y-103815423D01*
X126679987Y-104034297D01*
X126620812Y-104345767D01*
X126568683Y-104596998D01*
X126480489Y-105053502D01*
X126442351Y-105375142D01*
X126451811Y-105588037D01*
X126469445Y-105651463D01*
X126608942Y-105876758D01*
X126806360Y-105951244D01*
X127061205Y-105880933D01*
X128593333Y-105880933D01*
X128644903Y-106152351D01*
X128785702Y-106292520D01*
X128994863Y-106298848D01*
X129251521Y-106168745D01*
X129455140Y-105987956D01*
X129654335Y-105761492D01*
X129814303Y-105548271D01*
X129862257Y-105468829D01*
X129932366Y-105358457D01*
X130028042Y-105304780D01*
X130197049Y-105296341D01*
X130479243Y-105320859D01*
X130755240Y-105354323D01*
X130954668Y-105387166D01*
X131026642Y-105408543D01*
X131020872Y-105500119D01*
X130974071Y-105710028D01*
X130896040Y-105995080D01*
X130885334Y-106031307D01*
X130773912Y-106434664D01*
X130722041Y-106712905D01*
X130727371Y-106898526D01*
X130787551Y-107024024D01*
X130811600Y-107050523D01*
X131017124Y-107146231D01*
X131278468Y-107098227D01*
X131570499Y-106911532D01*
X131589360Y-106895229D01*
X131725244Y-106761726D01*
X131828026Y-106613017D01*
X131914470Y-106410573D01*
X132001337Y-106115862D01*
X132046908Y-105930256D01*
X133166585Y-105930256D01*
X133218008Y-106613472D01*
X133373101Y-107178498D01*
X133628457Y-107618530D01*
X133980669Y-107926766D01*
X134223667Y-108040953D01*
X134601124Y-108144083D01*
X134899083Y-108144502D01*
X135173538Y-108041063D01*
X135208922Y-108020809D01*
X135446290Y-107796242D01*
X135534476Y-107503135D01*
X135522035Y-107353802D01*
X135425482Y-107233186D01*
X135178631Y-107137875D01*
X135078777Y-107114272D01*
X134734165Y-107001639D01*
X134503821Y-106821101D01*
X134370034Y-106545541D01*
X134315096Y-106147844D01*
X134311268Y-105939110D01*
X134387661Y-105230660D01*
X134597089Y-104515254D01*
X134919828Y-103859002D01*
X134942817Y-103822240D01*
X135178886Y-103519093D01*
X135407793Y-103379000D01*
X135645428Y-103397259D01*
X135879650Y-103544991D01*
X136121109Y-103715550D01*
X136304583Y-103753466D01*
X136469904Y-103664318D01*
X136503619Y-103632409D01*
X136621504Y-103405547D01*
X136626134Y-103115925D01*
X136531832Y-102812128D01*
X136352920Y-102542740D01*
X136131438Y-102369889D01*
X135797087Y-102269125D01*
X135392760Y-102249034D01*
X134997126Y-102309185D01*
X134809951Y-102377159D01*
X134417789Y-102647973D01*
X134056583Y-103058736D01*
X133739491Y-103581000D01*
X133479670Y-104186321D01*
X133290277Y-104846251D01*
X133184469Y-105532345D01*
X133166585Y-105930256D01*
X132046908Y-105930256D01*
X132095815Y-105731063D01*
X132296985Y-104776193D01*
X132423221Y-103922198D01*
X132480800Y-103121364D01*
X132485980Y-102764496D01*
X132455911Y-102096629D01*
X132368178Y-101582645D01*
X132220333Y-101216349D01*
X132009929Y-100991546D01*
X131750619Y-100903474D01*
X131474644Y-100946510D01*
X131201201Y-101136761D01*
X130922549Y-101481487D01*
X130665186Y-101921629D01*
X130524116Y-102187531D01*
X130319675Y-102567733D01*
X130070271Y-103028260D01*
X129794312Y-103535134D01*
X129510208Y-104054380D01*
X129468142Y-104131025D01*
X129208966Y-104610108D01*
X128980287Y-105046331D01*
X128794181Y-105415538D01*
X128662724Y-105693569D01*
X128597995Y-105856269D01*
X128593333Y-105880933D01*
X127061205Y-105880933D01*
X127074007Y-105877401D01*
X127212900Y-105801182D01*
X127432512Y-105635079D01*
X127600602Y-105454329D01*
X127609109Y-105441665D01*
X127681424Y-105285584D01*
X127789972Y-104994908D01*
X127925722Y-104598212D01*
X128079645Y-104124074D01*
X128242710Y-103601067D01*
X128405887Y-103057770D01*
X128560145Y-102522758D01*
X128696453Y-102024607D01*
X128732269Y-101887500D01*
X128851335Y-101377598D01*
X128906478Y-100997634D01*
X128896366Y-100720204D01*
X128819668Y-100517903D01*
X128675050Y-100363329D01*
X128657528Y-100349981D01*
X128494510Y-100242781D01*
X128364207Y-100225324D01*
X128184305Y-100292646D01*
X128130225Y-100318185D01*
X127989915Y-100401988D01*
X127864137Y-100526006D01*
X127732050Y-100720216D01*
X127572810Y-101014594D01*
X127397951Y-101371364D01*
X127226833Y-101727287D01*
X127083772Y-102022457D01*
X126983707Y-102226215D01*
X126941580Y-102307901D01*
X126941554Y-102307934D01*
X126857749Y-102295567D01*
X126667569Y-102235467D01*
X126420430Y-102146252D01*
X126165747Y-102046546D01*
X125952937Y-101954969D01*
X125831414Y-101890143D01*
X125830048Y-101889086D01*
X125776346Y-101766408D01*
X125799295Y-101525457D01*
X125813313Y-101459191D01*
X125848639Y-101087291D01*
X125811402Y-100677942D01*
X125714433Y-100277454D01*
X125570561Y-99932137D01*
X125392617Y-99688300D01*
X125304863Y-99624031D01*
X125019164Y-99532938D01*
X124778890Y-99593775D01*
X124580075Y-99810420D01*
X124418756Y-100186754D01*
X124317049Y-100590479D01*
X124004384Y-101946985D01*
X123626048Y-103245619D01*
X123600380Y-103324856D01*
X123433614Y-103905457D01*
X123357895Y-104350382D01*
X119097273Y-104350382D01*
X119598195Y-103033814D01*
X120319251Y-101368419D01*
X120970106Y-99997790D01*
X121295991Y-99341218D01*
X121560959Y-98824848D01*
X121774508Y-98434880D01*
X121946136Y-98157518D01*
X122085343Y-97978963D01*
X122201626Y-97885419D01*
X122304484Y-97863087D01*
X122403415Y-97898171D01*
X122411954Y-97903362D01*
X122540583Y-97949377D01*
X122719350Y-97935009D01*
X122995364Y-97855087D01*
X123063384Y-97831822D01*
X123593004Y-97664935D01*
X124111905Y-97541468D01*
X124665601Y-97454145D01*
X125299608Y-97395688D01*
X126011000Y-97360499D01*
X127224982Y-97364202D01*
G37*
%TD*%
M02*
