%TF.GenerationSoftware,KiCad,Pcbnew,9.0.7*%
%TF.CreationDate,2026-04-09T14:54:04-07:00*%
%TF.ProjectId,Game Console,47616d65-2043-46f6-9e73-6f6c652e6b69,0*%
%TF.SameCoordinates,Original*%
%TF.FileFunction,Copper,L2,Bot*%
%TF.FilePolarity,Positive*%
%FSLAX46Y46*%
G04 Gerber Fmt 4.6, Leading zero omitted, Abs format (unit mm)*
G04 Created by KiCad (PCBNEW 9.0.7) date 2026-04-09 14:54:04*
%MOMM*%
%LPD*%
G01*
G04 APERTURE LIST*
%TA.AperFunction,ComponentPad*%
%ADD10C,2.000000*%
%TD*%
%TA.AperFunction,ComponentPad*%
%ADD11R,1.700000X1.700000*%
%TD*%
%TA.AperFunction,ComponentPad*%
%ADD12C,1.700000*%
%TD*%
%TA.AperFunction,ComponentPad*%
%ADD13C,1.727200*%
%TD*%
%TA.AperFunction,ComponentPad*%
%ADD14R,1.727200X1.727200*%
%TD*%
%TA.AperFunction,ComponentPad*%
%ADD15R,2.000000X2.000000*%
%TD*%
%TA.AperFunction,ViaPad*%
%ADD16C,0.600000*%
%TD*%
%TA.AperFunction,Conductor*%
%ADD17C,0.200000*%
%TD*%
G04 APERTURE END LIST*
D10*
%TO.P,B,1,1*%
%TO.N,Net-(Ard-PM1-7)*%
X171500000Y-110000000D03*
X178000000Y-110000000D03*
%TO.P,B,2,2*%
%TO.N,GND*%
X171500000Y-114500000D03*
X178000000Y-114500000D03*
%TD*%
%TO.P,UP,1,1*%
%TO.N,Net-(Ard-PM1-2)*%
X98000000Y-93000000D03*
X104500000Y-93000000D03*
%TO.P,UP,2,2*%
%TO.N,GND*%
X98000000Y-97500000D03*
X104500000Y-97500000D03*
%TD*%
D11*
%TO.P,SSD1306,1,Pin_1*%
%TO.N,GND*%
X136380000Y-71000000D03*
D12*
%TO.P,SSD1306,2,Pin_2*%
%TO.N,VCC*%
X138920000Y-71000000D03*
%TO.P,SSD1306,3,Pin_3*%
%TO.N,Net-(SSD1306-Pin_3)*%
X141460000Y-71000000D03*
%TO.P,SSD1306,4,Pin_4*%
%TO.N,Net-(SSD1306-Pin_4)*%
X144000000Y-71000000D03*
%TD*%
D13*
%TO.P,Ard-PM1,A0,A0*%
%TO.N,unconnected-(Ard-PM1-PadA0)*%
X144540000Y-100880000D03*
%TO.P,Ard-PM1,A1,A1*%
%TO.N,unconnected-(Ard-PM1-PadA1)*%
X142000000Y-100880000D03*
%TO.P,Ard-PM1,A2,A2*%
%TO.N,unconnected-(Ard-PM1-PadA2)*%
X139460000Y-100880000D03*
%TO.P,Ard-PM1,A3,A3*%
%TO.N,unconnected-(Ard-PM1-PadA3)*%
X136920000Y-100880000D03*
%TO.P,Ard-PM1,A4,A4*%
%TO.N,Net-(SSD1306-Pin_4)*%
X138190000Y-103420000D03*
%TO.P,Ard-PM1,A5,A5*%
%TO.N,Net-(SSD1306-Pin_3)*%
X135650000Y-103420000D03*
%TO.P,Ard-PM1,A6,A6*%
%TO.N,unconnected-(Ard-PM1-PadA6)*%
X154700000Y-105960000D03*
%TO.P,Ard-PM1,A7,A7*%
%TO.N,unconnected-(Ard-PM1-PadA7)*%
X154700000Y-103420000D03*
%TO.P,Ard-PM1,D0*%
%TO.N,N/C*%
X129300000Y-116120000D03*
%TO.P,Ard-PM1,D1*%
X126760000Y-116120000D03*
%TO.P,Ard-PM1,D2,2*%
%TO.N,Net-(Ard-PM1-2)*%
X136920000Y-116120000D03*
%TO.P,Ard-PM1,D3,3*%
%TO.N,Net-(Ard-PM1-3)*%
X139460000Y-116120000D03*
%TO.P,Ard-PM1,D4,4*%
%TO.N,Net-(Ard-PM1-4)*%
X142000000Y-116120000D03*
%TO.P,Ard-PM1,D5,5*%
%TO.N,Net-(Ard-PM1-5)*%
X144540000Y-116120000D03*
%TO.P,Ard-PM1,D6,6*%
%TO.N,Net-(Ard-PM1-6)*%
X147080000Y-116120000D03*
%TO.P,Ard-PM1,D7,7*%
%TO.N,Net-(Ard-PM1-7)*%
X149620000Y-116120000D03*
%TO.P,Ard-PM1,D8,8*%
%TO.N,unconnected-(Ard-PM1-8-PadD8)*%
X152160000Y-116120000D03*
%TO.P,Ard-PM1,D9,9*%
%TO.N,Net-(Ard-PM1-9)*%
X154700000Y-116120000D03*
%TO.P,Ard-PM1,D10,10*%
%TO.N,unconnected-(Ard-PM1-10-PadD10)*%
X154700000Y-100880000D03*
%TO.P,Ard-PM1,D11,11*%
%TO.N,unconnected-(Ard-PM1-11-PadD11)*%
X152160000Y-100880000D03*
%TO.P,Ard-PM1,D12,12*%
%TO.N,unconnected-(Ard-PM1-12-PadD12)*%
X149620000Y-100880000D03*
%TO.P,Ard-PM1,D13,13*%
%TO.N,unconnected-(Ard-PM1-13-PadD13)*%
X147080000Y-100880000D03*
%TO.P,Ard-PM1,DTR,DTR*%
%TO.N,Net-(FT232RLFTDI1-Pin_6)*%
X124220000Y-114850000D03*
D14*
%TO.P,Ard-PM1,GND1,GND*%
%TO.N,GND*%
X134380000Y-116120000D03*
%TO.P,Ard-PM1,GND2,GND*%
X129300000Y-100880000D03*
%TO.P,Ard-PM1,GND3,GND*%
X154700000Y-108500000D03*
%TO.P,Ard-PM1,GND4*%
%TO.N,N/C*%
X124220000Y-104690000D03*
%TO.P,Ard-PM1,GND5*%
X124220000Y-102150000D03*
D13*
%TO.P,Ard-PM1,RAW,RAW*%
%TO.N,unconnected-(Ard-PM1-PadRAW)*%
X126760000Y-100880000D03*
%TO.P,Ard-PM1,RST1,RST*%
%TO.N,unconnected-(Ard-PM1-RST-PadRST1)*%
X131840000Y-116120000D03*
%TO.P,Ard-PM1,RST2*%
%TO.N,N/C*%
X131840000Y-100880000D03*
%TO.P,Ard-PM1,RXI,RXI*%
%TO.N,Net-(FT232RLFTDI1-Pin_5)*%
X124220000Y-109770000D03*
%TO.P,Ard-PM1,TXO,TXO*%
%TO.N,Net-(FT232RLFTDI1-Pin_4)*%
X124220000Y-112310000D03*
%TO.P,Ard-PM1,Vcc1,VCC*%
%TO.N,Net-(Ard-PM1-VCC-PadVcc1)*%
X134380000Y-100880000D03*
%TO.P,Ard-PM1,Vcc2,VCC*%
%TO.N,VCC*%
X124220000Y-107230000D03*
%TD*%
D10*
%TO.P,A,1,1*%
%TO.N,Net-(Ard-PM1-6)*%
X183500000Y-100500000D03*
X190000000Y-100500000D03*
%TO.P,A,2,2*%
%TO.N,GND*%
X183500000Y-105000000D03*
X190000000Y-105000000D03*
%TD*%
%TO.P,LEFT,1,1*%
%TO.N,Net-(Ard-PM1-4)*%
X88500000Y-100500000D03*
X95000000Y-100500000D03*
%TO.P,LEFT,2,2*%
%TO.N,GND*%
X88500000Y-105000000D03*
X95000000Y-105000000D03*
%TD*%
%TO.P,RIGHT,1,1*%
%TO.N,Net-(Ard-PM1-5)*%
X107500000Y-100500000D03*
X114000000Y-100500000D03*
%TO.P,RIGHT,2,2*%
%TO.N,GND*%
X107500000Y-105000000D03*
X114000000Y-105000000D03*
%TD*%
D11*
%TO.P,FT232RLFTDI1,1,Pin_1*%
%TO.N,GND*%
X166500000Y-88120000D03*
D12*
%TO.P,FT232RLFTDI1,2,Pin_2*%
X166500000Y-85580000D03*
%TO.P,FT232RLFTDI1,3,Pin_3*%
%TO.N,VCC*%
X166500000Y-83040000D03*
%TO.P,FT232RLFTDI1,4,Pin_4*%
%TO.N,Net-(FT232RLFTDI1-Pin_4)*%
X166500000Y-80500000D03*
%TO.P,FT232RLFTDI1,5,Pin_5*%
%TO.N,Net-(FT232RLFTDI1-Pin_5)*%
X166500000Y-77960000D03*
%TO.P,FT232RLFTDI1,6,Pin_6*%
%TO.N,Net-(FT232RLFTDI1-Pin_6)*%
X166500000Y-75420000D03*
%TD*%
D10*
%TO.P,DOWN,1,1*%
%TO.N,Net-(Ard-PM1-3)*%
X98000000Y-108000000D03*
X104500000Y-108000000D03*
%TO.P,DOWN,2,2*%
%TO.N,GND*%
X98000000Y-112500000D03*
X104500000Y-112500000D03*
%TD*%
D15*
%TO.P,BZ1,1,+*%
%TO.N,GND*%
X91900000Y-78500000D03*
D10*
%TO.P,BZ1,2,-*%
%TO.N,Net-(Ard-PM1-9)*%
X99500000Y-78500000D03*
%TD*%
D16*
%TO.N,Net-(FT232RLFTDI1-Pin_4)*%
X157000000Y-111000000D03*
%TO.N,Net-(Ard-PM1-9)*%
X152000000Y-112000000D03*
%TO.N,Net-(FT232RLFTDI1-Pin_5)*%
X152000000Y-110500000D03*
%TO.N,GND*%
X136000000Y-118900000D03*
X146500000Y-119000000D03*
X123000000Y-98500000D03*
X113000000Y-115000000D03*
%TO.N,Net-(Ard-PM1-3)*%
X107500000Y-113500000D03*
%TO.N,Net-(FT232RLFTDI1-Pin_6)*%
X136000000Y-112900000D03*
X128000000Y-112900000D03*
%TO.N,Net-(Ard-PM1-2)*%
X133000000Y-111000000D03*
X136000000Y-114100000D03*
X118500000Y-110500000D03*
%TD*%
D17*
%TO.N,Net-(FT232RLFTDI1-Pin_4)*%
X136949057Y-111101000D02*
X135751057Y-112299000D01*
X156899000Y-111101000D02*
X136949057Y-111101000D01*
X157000000Y-111000000D02*
X156899000Y-111101000D01*
X124231000Y-112299000D02*
X124220000Y-112310000D01*
X135751057Y-112299000D02*
X124231000Y-112299000D01*
%TO.N,Net-(Ard-PM1-9)*%
X154700000Y-114700000D02*
X154700000Y-116120000D01*
X152000000Y-112000000D02*
X154700000Y-114700000D01*
%TO.N,Net-(FT232RLFTDI1-Pin_5)*%
X151270000Y-109770000D02*
X124220000Y-109770000D01*
X152000000Y-110500000D02*
X151270000Y-109770000D01*
%TO.N,GND*%
X136100000Y-119000000D02*
X146500000Y-119000000D01*
X136000000Y-118900000D02*
X136100000Y-119000000D01*
%TO.N,VCC*%
X166500000Y-83040000D02*
X154960000Y-83040000D01*
X150995400Y-105004600D02*
X148770000Y-107230000D01*
X154960000Y-83040000D02*
X150995400Y-87004600D01*
X148770000Y-107230000D02*
X124220000Y-107230000D01*
X150995400Y-87004600D02*
X150995400Y-105004600D01*
%TO.N,Net-(Ard-PM1-3)*%
X107500000Y-113500000D02*
X136840000Y-113500000D01*
X136840000Y-113500000D02*
X139460000Y-116120000D01*
%TO.N,Net-(FT232RLFTDI1-Pin_6)*%
X136000000Y-112900000D02*
X128000000Y-112900000D01*
%TO.N,Net-(Ard-PM1-2)*%
X136000000Y-115200000D02*
X136920000Y-116120000D01*
X119000000Y-111000000D02*
X133000000Y-111000000D01*
X136000000Y-114100000D02*
X136000000Y-115200000D01*
X118500000Y-110500000D02*
X119000000Y-111000000D01*
%TD*%
%TA.AperFunction,Conductor*%
%TO.N,GND*%
G36*
X135149191Y-114120185D02*
G01*
X135194946Y-114172989D01*
X135203769Y-114200308D01*
X135230261Y-114333491D01*
X135230264Y-114333501D01*
X135290602Y-114479172D01*
X135290609Y-114479185D01*
X135346953Y-114563509D01*
X135367831Y-114630187D01*
X135349346Y-114697567D01*
X135297368Y-114744257D01*
X135243851Y-114756400D01*
X134630000Y-114756400D01*
X134630000Y-115677748D01*
X134576081Y-115646619D01*
X134446880Y-115612000D01*
X134313120Y-115612000D01*
X134183919Y-115646619D01*
X134130000Y-115677748D01*
X134130000Y-114756400D01*
X133468555Y-114756400D01*
X133409027Y-114762801D01*
X133409020Y-114762803D01*
X133274313Y-114813045D01*
X133274306Y-114813049D01*
X133159212Y-114899209D01*
X133159209Y-114899212D01*
X133073049Y-115014306D01*
X133073045Y-115014313D01*
X133029202Y-115131863D01*
X132987330Y-115187797D01*
X132921866Y-115212214D01*
X132853593Y-115197362D01*
X132825339Y-115176211D01*
X132728653Y-115079525D01*
X132728651Y-115079523D01*
X132554944Y-114953317D01*
X132508203Y-114929501D01*
X132363633Y-114855838D01*
X132363630Y-114855837D01*
X132159428Y-114789489D01*
X131990940Y-114762803D01*
X131947357Y-114755900D01*
X131732643Y-114755900D01*
X131689060Y-114762803D01*
X131520571Y-114789489D01*
X131316369Y-114855837D01*
X131316366Y-114855838D01*
X131125055Y-114953317D01*
X131025949Y-115025322D01*
X130951349Y-115079523D01*
X130951347Y-115079525D01*
X130951346Y-115079525D01*
X130799525Y-115231346D01*
X130799525Y-115231347D01*
X130799523Y-115231349D01*
X130696147Y-115373633D01*
X130670453Y-115408998D01*
X130668562Y-115407624D01*
X130623848Y-115448030D01*
X130554911Y-115459411D01*
X130490765Y-115431715D01*
X130470488Y-115408314D01*
X130469547Y-115408998D01*
X130466682Y-115405055D01*
X130340477Y-115231349D01*
X130188651Y-115079523D01*
X130014944Y-114953317D01*
X129968203Y-114929501D01*
X129823633Y-114855838D01*
X129823630Y-114855837D01*
X129619428Y-114789489D01*
X129450940Y-114762803D01*
X129407357Y-114755900D01*
X129192643Y-114755900D01*
X129149060Y-114762803D01*
X128980571Y-114789489D01*
X128776369Y-114855837D01*
X128776366Y-114855838D01*
X128585055Y-114953317D01*
X128485949Y-115025322D01*
X128411349Y-115079523D01*
X128411347Y-115079525D01*
X128411346Y-115079525D01*
X128259525Y-115231346D01*
X128259525Y-115231347D01*
X128259523Y-115231349D01*
X128156147Y-115373633D01*
X128130453Y-115408998D01*
X128128562Y-115407624D01*
X128083848Y-115448030D01*
X128014911Y-115459411D01*
X127950765Y-115431715D01*
X127930488Y-115408314D01*
X127929547Y-115408998D01*
X127926682Y-115405055D01*
X127800477Y-115231349D01*
X127648651Y-115079523D01*
X127474944Y-114953317D01*
X127428203Y-114929501D01*
X127283633Y-114855838D01*
X127283630Y-114855837D01*
X127079428Y-114789489D01*
X126910940Y-114762803D01*
X126867357Y-114755900D01*
X126652643Y-114755900D01*
X126609060Y-114762803D01*
X126440571Y-114789489D01*
X126236369Y-114855837D01*
X126236366Y-114855838D01*
X126045055Y-114953317D01*
X125871350Y-115079522D01*
X125776905Y-115173967D01*
X125715581Y-115207451D01*
X125645890Y-115202467D01*
X125589957Y-115160595D01*
X125565540Y-115095130D01*
X125566750Y-115066895D01*
X125584100Y-114957357D01*
X125584100Y-114742643D01*
X125550511Y-114530573D01*
X125484161Y-114326367D01*
X125484161Y-114326366D01*
X125460941Y-114280795D01*
X125448045Y-114212126D01*
X125474321Y-114147385D01*
X125531428Y-114107128D01*
X125571426Y-114100500D01*
X135082152Y-114100500D01*
X135149191Y-114120185D01*
G37*
%TD.AperFunction*%
%TA.AperFunction,Conductor*%
G36*
X129550000Y-102243600D02*
G01*
X130211428Y-102243600D01*
X130211444Y-102243599D01*
X130270972Y-102237198D01*
X130270979Y-102237196D01*
X130405686Y-102186954D01*
X130405693Y-102186950D01*
X130520787Y-102100790D01*
X130520790Y-102100787D01*
X130606950Y-101985693D01*
X130606955Y-101985684D01*
X130650797Y-101868137D01*
X130692668Y-101812203D01*
X130758132Y-101787785D01*
X130826405Y-101802636D01*
X130854660Y-101823788D01*
X130951349Y-101920477D01*
X131125056Y-102046683D01*
X131209067Y-102089489D01*
X131316366Y-102144161D01*
X131316369Y-102144162D01*
X131352308Y-102155839D01*
X131520573Y-102210511D01*
X131732643Y-102244100D01*
X131732644Y-102244100D01*
X131947356Y-102244100D01*
X131947357Y-102244100D01*
X132159427Y-102210511D01*
X132363633Y-102144161D01*
X132554944Y-102046683D01*
X132728651Y-101920477D01*
X132880477Y-101768651D01*
X133006683Y-101594944D01*
X133006683Y-101594943D01*
X133009547Y-101591002D01*
X133011478Y-101592405D01*
X133055927Y-101552078D01*
X133124840Y-101540558D01*
X133189042Y-101568125D01*
X133209478Y-101591709D01*
X133210453Y-101591002D01*
X133213316Y-101594943D01*
X133213317Y-101594944D01*
X133339523Y-101768651D01*
X133491349Y-101920477D01*
X133665056Y-102046683D01*
X133749067Y-102089489D01*
X133856366Y-102144161D01*
X133856369Y-102144162D01*
X133892308Y-102155839D01*
X134060573Y-102210511D01*
X134272643Y-102244100D01*
X134272644Y-102244100D01*
X134487355Y-102244100D01*
X134487357Y-102244100D01*
X134596889Y-102226751D01*
X134666180Y-102235705D01*
X134719632Y-102280701D01*
X134740272Y-102347452D01*
X134721548Y-102414766D01*
X134703967Y-102436905D01*
X134609522Y-102531350D01*
X134483317Y-102705055D01*
X134385838Y-102896366D01*
X134385837Y-102896369D01*
X134319489Y-103100571D01*
X134285900Y-103312643D01*
X134285900Y-103527356D01*
X134319489Y-103739428D01*
X134385837Y-103943630D01*
X134385838Y-103943633D01*
X134469652Y-104108125D01*
X134483317Y-104134944D01*
X134609523Y-104308651D01*
X134761349Y-104460477D01*
X134935056Y-104586683D01*
X135028888Y-104634492D01*
X135126366Y-104684161D01*
X135126369Y-104684162D01*
X135190777Y-104705089D01*
X135330573Y-104750511D01*
X135542643Y-104784100D01*
X135542644Y-104784100D01*
X135757356Y-104784100D01*
X135757357Y-104784100D01*
X135969427Y-104750511D01*
X136173633Y-104684161D01*
X136364944Y-104586683D01*
X136538651Y-104460477D01*
X136690477Y-104308651D01*
X136816683Y-104134944D01*
X136816683Y-104134943D01*
X136819547Y-104131002D01*
X136821478Y-104132405D01*
X136865927Y-104092078D01*
X136934840Y-104080558D01*
X136999042Y-104108125D01*
X137019478Y-104131709D01*
X137020453Y-104131002D01*
X137023316Y-104134943D01*
X137023317Y-104134944D01*
X137149523Y-104308651D01*
X137301349Y-104460477D01*
X137475056Y-104586683D01*
X137568888Y-104634492D01*
X137666366Y-104684161D01*
X137666369Y-104684162D01*
X137730777Y-104705089D01*
X137870573Y-104750511D01*
X138082643Y-104784100D01*
X138082644Y-104784100D01*
X138297356Y-104784100D01*
X138297357Y-104784100D01*
X138509427Y-104750511D01*
X138713633Y-104684161D01*
X138904944Y-104586683D01*
X139078651Y-104460477D01*
X139230477Y-104308651D01*
X139356683Y-104134944D01*
X139454161Y-103943633D01*
X139520511Y-103739427D01*
X139554100Y-103527357D01*
X139554100Y-103312643D01*
X139520511Y-103100573D01*
X139454161Y-102896367D01*
X139454161Y-102896366D01*
X139370266Y-102731715D01*
X139356683Y-102705056D01*
X139230477Y-102531349D01*
X139136033Y-102436905D01*
X139102548Y-102375582D01*
X139107532Y-102305890D01*
X139149404Y-102249957D01*
X139214868Y-102225540D01*
X139243104Y-102226750D01*
X139352643Y-102244100D01*
X139352645Y-102244100D01*
X139567356Y-102244100D01*
X139567357Y-102244100D01*
X139779427Y-102210511D01*
X139983633Y-102144161D01*
X140174944Y-102046683D01*
X140348651Y-101920477D01*
X140500477Y-101768651D01*
X140626683Y-101594944D01*
X140626683Y-101594943D01*
X140629547Y-101591002D01*
X140631478Y-101592405D01*
X140675927Y-101552078D01*
X140744840Y-101540558D01*
X140809042Y-101568125D01*
X140829478Y-101591709D01*
X140830453Y-101591002D01*
X140833316Y-101594943D01*
X140833317Y-101594944D01*
X140959523Y-101768651D01*
X141111349Y-101920477D01*
X141285056Y-102046683D01*
X141369067Y-102089489D01*
X141476366Y-102144161D01*
X141476369Y-102144162D01*
X141512308Y-102155839D01*
X141680573Y-102210511D01*
X141892643Y-102244100D01*
X141892644Y-102244100D01*
X142107356Y-102244100D01*
X142107357Y-102244100D01*
X142319427Y-102210511D01*
X142523633Y-102144161D01*
X142714944Y-102046683D01*
X142888651Y-101920477D01*
X143040477Y-101768651D01*
X143166683Y-101594944D01*
X143166683Y-101594943D01*
X143169547Y-101591002D01*
X143171478Y-101592405D01*
X143215927Y-101552078D01*
X143284840Y-101540558D01*
X143349042Y-101568125D01*
X143369478Y-101591709D01*
X143370453Y-101591002D01*
X143373316Y-101594943D01*
X143373317Y-101594944D01*
X143499523Y-101768651D01*
X143651349Y-101920477D01*
X143825056Y-102046683D01*
X143909067Y-102089489D01*
X144016366Y-102144161D01*
X144016369Y-102144162D01*
X144052308Y-102155839D01*
X144220573Y-102210511D01*
X144432643Y-102244100D01*
X144432644Y-102244100D01*
X144647356Y-102244100D01*
X144647357Y-102244100D01*
X144859427Y-102210511D01*
X145063633Y-102144161D01*
X145254944Y-102046683D01*
X145428651Y-101920477D01*
X145580477Y-101768651D01*
X145706683Y-101594944D01*
X145706683Y-101594943D01*
X145709547Y-101591002D01*
X145711478Y-101592405D01*
X145755927Y-101552078D01*
X145824840Y-101540558D01*
X145889042Y-101568125D01*
X145909478Y-101591709D01*
X145910453Y-101591002D01*
X145913316Y-101594943D01*
X145913317Y-101594944D01*
X146039523Y-101768651D01*
X146191349Y-101920477D01*
X146365056Y-102046683D01*
X146449067Y-102089489D01*
X146556366Y-102144161D01*
X146556369Y-102144162D01*
X146592308Y-102155839D01*
X146760573Y-102210511D01*
X146972643Y-102244100D01*
X146972644Y-102244100D01*
X147187356Y-102244100D01*
X147187357Y-102244100D01*
X147399427Y-102210511D01*
X147603633Y-102144161D01*
X147794944Y-102046683D01*
X147968651Y-101920477D01*
X148120477Y-101768651D01*
X148246683Y-101594944D01*
X148246683Y-101594943D01*
X148249547Y-101591002D01*
X148251478Y-101592405D01*
X148295927Y-101552078D01*
X148364840Y-101540558D01*
X148429042Y-101568125D01*
X148449478Y-101591709D01*
X148450453Y-101591002D01*
X148453316Y-101594943D01*
X148453317Y-101594944D01*
X148579523Y-101768651D01*
X148731349Y-101920477D01*
X148905056Y-102046683D01*
X148989067Y-102089489D01*
X149096366Y-102144161D01*
X149096369Y-102144162D01*
X149132308Y-102155839D01*
X149300573Y-102210511D01*
X149512643Y-102244100D01*
X149512644Y-102244100D01*
X149727356Y-102244100D01*
X149727357Y-102244100D01*
X149939427Y-102210511D01*
X150143633Y-102144161D01*
X150214605Y-102107998D01*
X150283273Y-102095102D01*
X150348014Y-102121377D01*
X150388271Y-102178483D01*
X150394900Y-102218483D01*
X150394900Y-104704503D01*
X150375215Y-104771542D01*
X150358581Y-104792184D01*
X148557584Y-106593181D01*
X148496261Y-106626666D01*
X148469903Y-106629500D01*
X125520983Y-106629500D01*
X125453944Y-106609815D01*
X125410499Y-106561796D01*
X125386684Y-106515057D01*
X125348909Y-106463065D01*
X125260477Y-106341349D01*
X125164176Y-106245048D01*
X125130691Y-106183725D01*
X125135675Y-106114033D01*
X125177547Y-106058100D01*
X125208521Y-106041186D01*
X125325931Y-105997396D01*
X125441146Y-105911146D01*
X125527396Y-105795931D01*
X125577691Y-105661083D01*
X125584100Y-105601473D01*
X125584099Y-103778528D01*
X125577691Y-103718917D01*
X125577008Y-103717087D01*
X125527397Y-103584071D01*
X125527396Y-103584069D01*
X125460203Y-103494311D01*
X125435786Y-103428847D01*
X125450637Y-103360574D01*
X125460203Y-103345689D01*
X125484941Y-103312643D01*
X125527396Y-103255931D01*
X125577691Y-103121083D01*
X125584100Y-103061473D01*
X125584099Y-101932588D01*
X125603784Y-101865550D01*
X125656587Y-101819795D01*
X125725746Y-101809851D01*
X125789302Y-101838876D01*
X125795780Y-101844908D01*
X125871349Y-101920477D01*
X126045056Y-102046683D01*
X126129067Y-102089489D01*
X126236366Y-102144161D01*
X126236369Y-102144162D01*
X126272308Y-102155839D01*
X126440573Y-102210511D01*
X126652643Y-102244100D01*
X126652644Y-102244100D01*
X126867356Y-102244100D01*
X126867357Y-102244100D01*
X127079427Y-102210511D01*
X127283633Y-102144161D01*
X127474944Y-102046683D01*
X127648651Y-101920477D01*
X127745342Y-101823785D01*
X127806661Y-101790303D01*
X127876353Y-101795287D01*
X127932287Y-101837158D01*
X127949202Y-101868136D01*
X127993045Y-101985686D01*
X127993049Y-101985693D01*
X128079209Y-102100787D01*
X128079212Y-102100790D01*
X128194306Y-102186950D01*
X128194313Y-102186954D01*
X128329020Y-102237196D01*
X128329027Y-102237198D01*
X128388555Y-102243599D01*
X128388572Y-102243600D01*
X129050000Y-102243600D01*
X129050000Y-101322251D01*
X129103919Y-101353381D01*
X129233120Y-101388000D01*
X129366880Y-101388000D01*
X129496081Y-101353381D01*
X129550000Y-101322251D01*
X129550000Y-102243600D01*
G37*
%TD.AperFunction*%
%TA.AperFunction,Conductor*%
G36*
X201203736Y-68850726D02*
G01*
X201493796Y-68868271D01*
X201508659Y-68870076D01*
X201790798Y-68921780D01*
X201805335Y-68925363D01*
X202079172Y-69010695D01*
X202093163Y-69016000D01*
X202354743Y-69133727D01*
X202367989Y-69140680D01*
X202613465Y-69289075D01*
X202625776Y-69297573D01*
X202851573Y-69474473D01*
X202862781Y-69484403D01*
X203065596Y-69687218D01*
X203075526Y-69698426D01*
X203239648Y-69907913D01*
X203252422Y-69924217D01*
X203260926Y-69936537D01*
X203349961Y-70083819D01*
X203409316Y-70182004D01*
X203416275Y-70195263D01*
X203533997Y-70456831D01*
X203539306Y-70470832D01*
X203624635Y-70744663D01*
X203628219Y-70759201D01*
X203679923Y-71041340D01*
X203681728Y-71056205D01*
X203699274Y-71346263D01*
X203699500Y-71353750D01*
X203699500Y-117546249D01*
X203699274Y-117553736D01*
X203681728Y-117843794D01*
X203679923Y-117858659D01*
X203628219Y-118140798D01*
X203624635Y-118155336D01*
X203539306Y-118429167D01*
X203533997Y-118443168D01*
X203416275Y-118704736D01*
X203409316Y-118717995D01*
X203260928Y-118963459D01*
X203252422Y-118975782D01*
X203075526Y-119201573D01*
X203065596Y-119212781D01*
X202862781Y-119415596D01*
X202851573Y-119425526D01*
X202625782Y-119602422D01*
X202613459Y-119610928D01*
X202367995Y-119759316D01*
X202354736Y-119766275D01*
X202093168Y-119883997D01*
X202079167Y-119889306D01*
X201805336Y-119974635D01*
X201790798Y-119978219D01*
X201508659Y-120029923D01*
X201493794Y-120031728D01*
X201203736Y-120049274D01*
X201196249Y-120049500D01*
X82303751Y-120049500D01*
X82296264Y-120049274D01*
X82006205Y-120031728D01*
X81991340Y-120029923D01*
X81709201Y-119978219D01*
X81694663Y-119974635D01*
X81420832Y-119889306D01*
X81406831Y-119883997D01*
X81145263Y-119766275D01*
X81132004Y-119759316D01*
X80886540Y-119610928D01*
X80874217Y-119602422D01*
X80648426Y-119425526D01*
X80637218Y-119415596D01*
X80434403Y-119212781D01*
X80424473Y-119201573D01*
X80247573Y-118975776D01*
X80239075Y-118963465D01*
X80090680Y-118717989D01*
X80083727Y-118704743D01*
X79966000Y-118443163D01*
X79960693Y-118429167D01*
X79890908Y-118205220D01*
X79875363Y-118155335D01*
X79871780Y-118140798D01*
X79844506Y-117991971D01*
X79820075Y-117858657D01*
X79818271Y-117843794D01*
X79800726Y-117553736D01*
X79800500Y-117546249D01*
X79800500Y-116897648D01*
X81699500Y-116897648D01*
X81699500Y-117102351D01*
X81731522Y-117304534D01*
X81794781Y-117499223D01*
X81887715Y-117681613D01*
X82008028Y-117847213D01*
X82152786Y-117991971D01*
X82252272Y-118064250D01*
X82318390Y-118112287D01*
X82434607Y-118171503D01*
X82500776Y-118205218D01*
X82500778Y-118205218D01*
X82500781Y-118205220D01*
X82605137Y-118239127D01*
X82695465Y-118268477D01*
X82796557Y-118284488D01*
X82897648Y-118300500D01*
X82897649Y-118300500D01*
X83102351Y-118300500D01*
X83102352Y-118300500D01*
X83304534Y-118268477D01*
X83499219Y-118205220D01*
X83681610Y-118112287D01*
X83774590Y-118044732D01*
X83847213Y-117991971D01*
X83847215Y-117991968D01*
X83847219Y-117991966D01*
X83991966Y-117847219D01*
X83991968Y-117847215D01*
X83991971Y-117847213D01*
X84044732Y-117774590D01*
X84112287Y-117681610D01*
X84205220Y-117499219D01*
X84268477Y-117304534D01*
X84300500Y-117102352D01*
X84300500Y-116897648D01*
X84283779Y-116792078D01*
X84268477Y-116695465D01*
X84205218Y-116500776D01*
X84171503Y-116434607D01*
X84112287Y-116318390D01*
X84104556Y-116307749D01*
X83991971Y-116152786D01*
X83847213Y-116008028D01*
X83681613Y-115887715D01*
X83681612Y-115887714D01*
X83681610Y-115887713D01*
X83624653Y-115858691D01*
X83499223Y-115794781D01*
X83304534Y-115731522D01*
X83129995Y-115703878D01*
X83102352Y-115699500D01*
X82897648Y-115699500D01*
X82873329Y-115703351D01*
X82695465Y-115731522D01*
X82500776Y-115794781D01*
X82318386Y-115887715D01*
X82152786Y-116008028D01*
X82008028Y-116152786D01*
X81887715Y-116318386D01*
X81794781Y-116500776D01*
X81731522Y-116695465D01*
X81699500Y-116897648D01*
X79800500Y-116897648D01*
X79800500Y-112381947D01*
X96500000Y-112381947D01*
X96500000Y-112618052D01*
X96536934Y-112851247D01*
X96609897Y-113075802D01*
X96717087Y-113286174D01*
X96777338Y-113369104D01*
X96777340Y-113369105D01*
X97476212Y-112670233D01*
X97487482Y-112712292D01*
X97559890Y-112837708D01*
X97662292Y-112940110D01*
X97787708Y-113012518D01*
X97829765Y-113023787D01*
X97130893Y-113722658D01*
X97213828Y-113782914D01*
X97424197Y-113890102D01*
X97648752Y-113963065D01*
X97648751Y-113963065D01*
X97881948Y-114000000D01*
X98118052Y-114000000D01*
X98351247Y-113963065D01*
X98575802Y-113890102D01*
X98786163Y-113782918D01*
X98786169Y-113782914D01*
X98869104Y-113722658D01*
X98869105Y-113722658D01*
X98170233Y-113023787D01*
X98212292Y-113012518D01*
X98337708Y-112940110D01*
X98440110Y-112837708D01*
X98512518Y-112712292D01*
X98523787Y-112670234D01*
X99222658Y-113369105D01*
X99222658Y-113369104D01*
X99282914Y-113286169D01*
X99282918Y-113286163D01*
X99390102Y-113075802D01*
X99463065Y-112851247D01*
X99500000Y-112618052D01*
X99500000Y-112381947D01*
X103000000Y-112381947D01*
X103000000Y-112618052D01*
X103036934Y-112851247D01*
X103109897Y-113075802D01*
X103217087Y-113286174D01*
X103277338Y-113369104D01*
X103277340Y-113369105D01*
X103976212Y-112670233D01*
X103987482Y-112712292D01*
X104059890Y-112837708D01*
X104162292Y-112940110D01*
X104287708Y-113012518D01*
X104329765Y-113023787D01*
X103630893Y-113722658D01*
X103713828Y-113782914D01*
X103924197Y-113890102D01*
X104148752Y-113963065D01*
X104148751Y-113963065D01*
X104381948Y-114000000D01*
X104618052Y-114000000D01*
X104851247Y-113963065D01*
X105075802Y-113890102D01*
X105286163Y-113782918D01*
X105286169Y-113782914D01*
X105369104Y-113722658D01*
X105369105Y-113722658D01*
X105067600Y-113421153D01*
X106699500Y-113421153D01*
X106699500Y-113578846D01*
X106730261Y-113733489D01*
X106730264Y-113733501D01*
X106790602Y-113879172D01*
X106790609Y-113879185D01*
X106878210Y-114010288D01*
X106878213Y-114010292D01*
X106989707Y-114121786D01*
X106989711Y-114121789D01*
X107120814Y-114209390D01*
X107120827Y-114209397D01*
X107199894Y-114242147D01*
X107266503Y-114269737D01*
X107421153Y-114300499D01*
X107421156Y-114300500D01*
X107421158Y-114300500D01*
X107578844Y-114300500D01*
X107578845Y-114300499D01*
X107733497Y-114269737D01*
X107846166Y-114223067D01*
X107879172Y-114209397D01*
X107879172Y-114209396D01*
X107879179Y-114209394D01*
X107892777Y-114200308D01*
X108010875Y-114121398D01*
X108077553Y-114100520D01*
X108079766Y-114100500D01*
X122868574Y-114100500D01*
X122935613Y-114120185D01*
X122981368Y-114172989D01*
X122991312Y-114242147D01*
X122979059Y-114280795D01*
X122955838Y-114326366D01*
X122955837Y-114326369D01*
X122889489Y-114530571D01*
X122855900Y-114742643D01*
X122855900Y-114957356D01*
X122889489Y-115169428D01*
X122955837Y-115373630D01*
X122955838Y-115373633D01*
X123053317Y-115564944D01*
X123179523Y-115738651D01*
X123331349Y-115890477D01*
X123505056Y-116016683D01*
X123576568Y-116053120D01*
X123696366Y-116114161D01*
X123696369Y-116114162D01*
X123798470Y-116147336D01*
X123900573Y-116180511D01*
X124112643Y-116214100D01*
X124112644Y-116214100D01*
X124327356Y-116214100D01*
X124327357Y-116214100D01*
X124539427Y-116180511D01*
X124743633Y-116114161D01*
X124934944Y-116016683D01*
X125108651Y-115890477D01*
X125203097Y-115796030D01*
X125264416Y-115762548D01*
X125334108Y-115767532D01*
X125390042Y-115809403D01*
X125414459Y-115874867D01*
X125413248Y-115903112D01*
X125395900Y-116012643D01*
X125395900Y-116227356D01*
X125429489Y-116439428D01*
X125495837Y-116643630D01*
X125495838Y-116643633D01*
X125579652Y-116808125D01*
X125593317Y-116834944D01*
X125719523Y-117008651D01*
X125871349Y-117160477D01*
X126045056Y-117286683D01*
X126138888Y-117334492D01*
X126236366Y-117384161D01*
X126236369Y-117384162D01*
X126338470Y-117417336D01*
X126440573Y-117450511D01*
X126652643Y-117484100D01*
X126652644Y-117484100D01*
X126867356Y-117484100D01*
X126867357Y-117484100D01*
X127079427Y-117450511D01*
X127283633Y-117384161D01*
X127474944Y-117286683D01*
X127648651Y-117160477D01*
X127800477Y-117008651D01*
X127926683Y-116834944D01*
X127926683Y-116834943D01*
X127929547Y-116831002D01*
X127931478Y-116832405D01*
X127975927Y-116792078D01*
X128044840Y-116780558D01*
X128109042Y-116808125D01*
X128129478Y-116831709D01*
X128130453Y-116831002D01*
X128133316Y-116834943D01*
X128133317Y-116834944D01*
X128259523Y-117008651D01*
X128411349Y-117160477D01*
X128585056Y-117286683D01*
X128678888Y-117334492D01*
X128776366Y-117384161D01*
X128776369Y-117384162D01*
X128878470Y-117417336D01*
X128980573Y-117450511D01*
X129192643Y-117484100D01*
X129192644Y-117484100D01*
X129407356Y-117484100D01*
X129407357Y-117484100D01*
X129619427Y-117450511D01*
X129823633Y-117384161D01*
X130014944Y-117286683D01*
X130188651Y-117160477D01*
X130340477Y-117008651D01*
X130466683Y-116834944D01*
X130466683Y-116834943D01*
X130469547Y-116831002D01*
X130471478Y-116832405D01*
X130515927Y-116792078D01*
X130584840Y-116780558D01*
X130649042Y-116808125D01*
X130669478Y-116831709D01*
X130670453Y-116831002D01*
X130673316Y-116834943D01*
X130673317Y-116834944D01*
X130799523Y-117008651D01*
X130951349Y-117160477D01*
X131125056Y-117286683D01*
X131218888Y-117334492D01*
X131316366Y-117384161D01*
X131316369Y-117384162D01*
X131418470Y-117417336D01*
X131520573Y-117450511D01*
X131732643Y-117484100D01*
X131732644Y-117484100D01*
X131947356Y-117484100D01*
X131947357Y-117484100D01*
X132159427Y-117450511D01*
X132363633Y-117384161D01*
X132554944Y-117286683D01*
X132728651Y-117160477D01*
X132825342Y-117063785D01*
X132886661Y-117030303D01*
X132956353Y-117035287D01*
X133012287Y-117077158D01*
X133029202Y-117108136D01*
X133073045Y-117225686D01*
X133073049Y-117225693D01*
X133159209Y-117340787D01*
X133159212Y-117340790D01*
X133274306Y-117426950D01*
X133274313Y-117426954D01*
X133409020Y-117477196D01*
X133409027Y-117477198D01*
X133468555Y-117483599D01*
X133468572Y-117483600D01*
X134130000Y-117483600D01*
X134130000Y-116562251D01*
X134183919Y-116593381D01*
X134313120Y-116628000D01*
X134446880Y-116628000D01*
X134576081Y-116593381D01*
X134630000Y-116562251D01*
X134630000Y-117483600D01*
X135291428Y-117483600D01*
X135291444Y-117483599D01*
X135350972Y-117477198D01*
X135350979Y-117477196D01*
X135485686Y-117426954D01*
X135485693Y-117426950D01*
X135600787Y-117340790D01*
X135600790Y-117340787D01*
X135686950Y-117225693D01*
X135686955Y-117225684D01*
X135730797Y-117108137D01*
X135772668Y-117052203D01*
X135838132Y-117027785D01*
X135906405Y-117042636D01*
X135934660Y-117063788D01*
X136031349Y-117160477D01*
X136205056Y-117286683D01*
X136298888Y-117334492D01*
X136396366Y-117384161D01*
X136396369Y-117384162D01*
X136498470Y-117417336D01*
X136600573Y-117450511D01*
X136812643Y-117484100D01*
X136812644Y-117484100D01*
X137027356Y-117484100D01*
X137027357Y-117484100D01*
X137239427Y-117450511D01*
X137443633Y-117384161D01*
X137634944Y-117286683D01*
X137808651Y-117160477D01*
X137960477Y-117008651D01*
X138086683Y-116834944D01*
X138086683Y-116834943D01*
X138089547Y-116831002D01*
X138091478Y-116832405D01*
X138135927Y-116792078D01*
X138204840Y-116780558D01*
X138269042Y-116808125D01*
X138289478Y-116831709D01*
X138290453Y-116831002D01*
X138293316Y-116834943D01*
X138293317Y-116834944D01*
X138419523Y-117008651D01*
X138571349Y-117160477D01*
X138745056Y-117286683D01*
X138838888Y-117334492D01*
X138936366Y-117384161D01*
X138936369Y-117384162D01*
X139038470Y-117417336D01*
X139140573Y-117450511D01*
X139352643Y-117484100D01*
X139352644Y-117484100D01*
X139567356Y-117484100D01*
X139567357Y-117484100D01*
X139779427Y-117450511D01*
X139983633Y-117384161D01*
X140174944Y-117286683D01*
X140348651Y-117160477D01*
X140500477Y-117008651D01*
X140626683Y-116834944D01*
X140626683Y-116834943D01*
X140629547Y-116831002D01*
X140631478Y-116832405D01*
X140675927Y-116792078D01*
X140744840Y-116780558D01*
X140809042Y-116808125D01*
X140829478Y-116831709D01*
X140830453Y-116831002D01*
X140833316Y-116834943D01*
X140833317Y-116834944D01*
X140959523Y-117008651D01*
X141111349Y-117160477D01*
X141285056Y-117286683D01*
X141378888Y-117334492D01*
X141476366Y-117384161D01*
X141476369Y-117384162D01*
X141578470Y-117417336D01*
X141680573Y-117450511D01*
X141892643Y-117484100D01*
X141892644Y-117484100D01*
X142107356Y-117484100D01*
X142107357Y-117484100D01*
X142319427Y-117450511D01*
X142523633Y-117384161D01*
X142714944Y-117286683D01*
X142888651Y-117160477D01*
X143040477Y-117008651D01*
X143166683Y-116834944D01*
X143166683Y-116834943D01*
X143169547Y-116831002D01*
X143171478Y-116832405D01*
X143215927Y-116792078D01*
X143284840Y-116780558D01*
X143349042Y-116808125D01*
X143369478Y-116831709D01*
X143370453Y-116831002D01*
X143373316Y-116834943D01*
X143373317Y-116834944D01*
X143499523Y-117008651D01*
X143651349Y-117160477D01*
X143825056Y-117286683D01*
X143918888Y-117334492D01*
X144016366Y-117384161D01*
X144016369Y-117384162D01*
X144118470Y-117417336D01*
X144220573Y-117450511D01*
X144432643Y-117484100D01*
X144432644Y-117484100D01*
X144647356Y-117484100D01*
X144647357Y-117484100D01*
X144859427Y-117450511D01*
X145063633Y-117384161D01*
X145254944Y-117286683D01*
X145428651Y-117160477D01*
X145580477Y-117008651D01*
X145706683Y-116834944D01*
X145706683Y-116834943D01*
X145709547Y-116831002D01*
X145711478Y-116832405D01*
X145755927Y-116792078D01*
X145824840Y-116780558D01*
X145889042Y-116808125D01*
X145909478Y-116831709D01*
X145910453Y-116831002D01*
X145913316Y-116834943D01*
X145913317Y-116834944D01*
X146039523Y-117008651D01*
X146191349Y-117160477D01*
X146365056Y-117286683D01*
X146458888Y-117334492D01*
X146556366Y-117384161D01*
X146556369Y-117384162D01*
X146658470Y-117417336D01*
X146760573Y-117450511D01*
X146972643Y-117484100D01*
X146972644Y-117484100D01*
X147187356Y-117484100D01*
X147187357Y-117484100D01*
X147399427Y-117450511D01*
X147603633Y-117384161D01*
X147794944Y-117286683D01*
X147968651Y-117160477D01*
X148120477Y-117008651D01*
X148246683Y-116834944D01*
X148246683Y-116834943D01*
X148249547Y-116831002D01*
X148251478Y-116832405D01*
X148295927Y-116792078D01*
X148364840Y-116780558D01*
X148429042Y-116808125D01*
X148449478Y-116831709D01*
X148450453Y-116831002D01*
X148453316Y-116834943D01*
X148453317Y-116834944D01*
X148579523Y-117008651D01*
X148731349Y-117160477D01*
X148905056Y-117286683D01*
X148998888Y-117334492D01*
X149096366Y-117384161D01*
X149096369Y-117384162D01*
X149198470Y-117417336D01*
X149300573Y-117450511D01*
X149512643Y-117484100D01*
X149512644Y-117484100D01*
X149727356Y-117484100D01*
X149727357Y-117484100D01*
X149939427Y-117450511D01*
X150143633Y-117384161D01*
X150334944Y-117286683D01*
X150508651Y-117160477D01*
X150660477Y-117008651D01*
X150786683Y-116834944D01*
X150786683Y-116834943D01*
X150789547Y-116831002D01*
X150791478Y-116832405D01*
X150835927Y-116792078D01*
X150904840Y-116780558D01*
X150969042Y-116808125D01*
X150989478Y-116831709D01*
X150990453Y-116831002D01*
X150993316Y-116834943D01*
X150993317Y-116834944D01*
X151119523Y-117008651D01*
X151271349Y-117160477D01*
X151445056Y-117286683D01*
X151538888Y-117334492D01*
X151636366Y-117384161D01*
X151636369Y-117384162D01*
X151738470Y-117417336D01*
X151840573Y-117450511D01*
X152052643Y-117484100D01*
X152052644Y-117484100D01*
X152267356Y-117484100D01*
X152267357Y-117484100D01*
X152479427Y-117450511D01*
X152683633Y-117384161D01*
X152874944Y-117286683D01*
X153048651Y-117160477D01*
X153200477Y-117008651D01*
X153326683Y-116834944D01*
X153326683Y-116834943D01*
X153329547Y-116831002D01*
X153331478Y-116832405D01*
X153375927Y-116792078D01*
X153444840Y-116780558D01*
X153509042Y-116808125D01*
X153529478Y-116831709D01*
X153530453Y-116831002D01*
X153533316Y-116834943D01*
X153533317Y-116834944D01*
X153659523Y-117008651D01*
X153811349Y-117160477D01*
X153985056Y-117286683D01*
X154078888Y-117334492D01*
X154176366Y-117384161D01*
X154176369Y-117384162D01*
X154278470Y-117417336D01*
X154380573Y-117450511D01*
X154592643Y-117484100D01*
X154592644Y-117484100D01*
X154807356Y-117484100D01*
X154807357Y-117484100D01*
X155019427Y-117450511D01*
X155223633Y-117384161D01*
X155414944Y-117286683D01*
X155588651Y-117160477D01*
X155740477Y-117008651D01*
X155821126Y-116897648D01*
X199699500Y-116897648D01*
X199699500Y-117102351D01*
X199731522Y-117304534D01*
X199794781Y-117499223D01*
X199887715Y-117681613D01*
X200008028Y-117847213D01*
X200152786Y-117991971D01*
X200252272Y-118064250D01*
X200318390Y-118112287D01*
X200434607Y-118171503D01*
X200500776Y-118205218D01*
X200500778Y-118205218D01*
X200500781Y-118205220D01*
X200605137Y-118239127D01*
X200695465Y-118268477D01*
X200796557Y-118284488D01*
X200897648Y-118300500D01*
X200897649Y-118300500D01*
X201102351Y-118300500D01*
X201102352Y-118300500D01*
X201304534Y-118268477D01*
X201499219Y-118205220D01*
X201681610Y-118112287D01*
X201774590Y-118044732D01*
X201847213Y-117991971D01*
X201847215Y-117991968D01*
X201847219Y-117991966D01*
X201991966Y-117847219D01*
X201991968Y-117847215D01*
X201991971Y-117847213D01*
X202044732Y-117774590D01*
X202112287Y-117681610D01*
X202205220Y-117499219D01*
X202268477Y-117304534D01*
X202300500Y-117102352D01*
X202300500Y-116897648D01*
X202283779Y-116792078D01*
X202268477Y-116695465D01*
X202205218Y-116500776D01*
X202171503Y-116434607D01*
X202112287Y-116318390D01*
X202104556Y-116307749D01*
X201991971Y-116152786D01*
X201847213Y-116008028D01*
X201681613Y-115887715D01*
X201681612Y-115887714D01*
X201681610Y-115887713D01*
X201624653Y-115858691D01*
X201499223Y-115794781D01*
X201304534Y-115731522D01*
X201129995Y-115703878D01*
X201102352Y-115699500D01*
X200897648Y-115699500D01*
X200873329Y-115703351D01*
X200695465Y-115731522D01*
X200500776Y-115794781D01*
X200318386Y-115887715D01*
X200152786Y-116008028D01*
X200008028Y-116152786D01*
X199887715Y-116318386D01*
X199794781Y-116500776D01*
X199731522Y-116695465D01*
X199699500Y-116897648D01*
X155821126Y-116897648D01*
X155866683Y-116834944D01*
X155964161Y-116643633D01*
X156030511Y-116439427D01*
X156064100Y-116227357D01*
X156064100Y-116012643D01*
X156030511Y-115800573D01*
X155970000Y-115614337D01*
X155964162Y-115596369D01*
X155964161Y-115596366D01*
X155880266Y-115431715D01*
X155866683Y-115405056D01*
X155740477Y-115231349D01*
X155588651Y-115079523D01*
X155420505Y-114957357D01*
X155414942Y-114953315D01*
X155368204Y-114929501D01*
X155357140Y-114919052D01*
X155343297Y-114912730D01*
X155332255Y-114895549D01*
X155317409Y-114881527D01*
X155313167Y-114865847D01*
X155305523Y-114853952D01*
X155300500Y-114819017D01*
X155300500Y-114789060D01*
X155300501Y-114789047D01*
X155300501Y-114620944D01*
X155285111Y-114563509D01*
X155259577Y-114468216D01*
X155242751Y-114439072D01*
X155209770Y-114381947D01*
X170000000Y-114381947D01*
X170000000Y-114618052D01*
X170036934Y-114851247D01*
X170109897Y-115075802D01*
X170217087Y-115286174D01*
X170277338Y-115369104D01*
X170277340Y-115369105D01*
X170976212Y-114670233D01*
X170987482Y-114712292D01*
X171059890Y-114837708D01*
X171162292Y-114940110D01*
X171287708Y-115012518D01*
X171329765Y-115023787D01*
X170630893Y-115722658D01*
X170713828Y-115782914D01*
X170924197Y-115890102D01*
X171148752Y-115963065D01*
X171148751Y-115963065D01*
X171381948Y-116000000D01*
X171618052Y-116000000D01*
X171851247Y-115963065D01*
X172075802Y-115890102D01*
X172286163Y-115782918D01*
X172286169Y-115782914D01*
X172369104Y-115722658D01*
X172369105Y-115722658D01*
X171670233Y-115023787D01*
X171712292Y-115012518D01*
X171837708Y-114940110D01*
X171940110Y-114837708D01*
X172012518Y-114712292D01*
X172023787Y-114670233D01*
X172722658Y-115369105D01*
X172722658Y-115369104D01*
X172782914Y-115286169D01*
X172782918Y-115286163D01*
X172890102Y-115075802D01*
X172963065Y-114851247D01*
X173000000Y-114618052D01*
X173000000Y-114381947D01*
X176500000Y-114381947D01*
X176500000Y-114618052D01*
X176536934Y-114851247D01*
X176609897Y-115075802D01*
X176717087Y-115286174D01*
X176777338Y-115369104D01*
X176777340Y-115369105D01*
X177476212Y-114670233D01*
X177487482Y-114712292D01*
X177559890Y-114837708D01*
X177662292Y-114940110D01*
X177787708Y-115012518D01*
X177829765Y-115023787D01*
X177130893Y-115722658D01*
X177213828Y-115782914D01*
X177424197Y-115890102D01*
X177648752Y-115963065D01*
X177648751Y-115963065D01*
X177881948Y-116000000D01*
X178118052Y-116000000D01*
X178351247Y-115963065D01*
X178575802Y-115890102D01*
X178786163Y-115782918D01*
X178786169Y-115782914D01*
X178869104Y-115722658D01*
X178869105Y-115722658D01*
X178170233Y-115023787D01*
X178212292Y-115012518D01*
X178337708Y-114940110D01*
X178440110Y-114837708D01*
X178512518Y-114712292D01*
X178523787Y-114670234D01*
X179222658Y-115369105D01*
X179222658Y-115369104D01*
X179282914Y-115286169D01*
X179282918Y-115286163D01*
X179390102Y-115075802D01*
X179463065Y-114851247D01*
X179500000Y-114618052D01*
X179500000Y-114381947D01*
X179463065Y-114148752D01*
X179390102Y-113924197D01*
X179282914Y-113713828D01*
X179222658Y-113630894D01*
X179222658Y-113630893D01*
X178523787Y-114329765D01*
X178512518Y-114287708D01*
X178440110Y-114162292D01*
X178337708Y-114059890D01*
X178212292Y-113987482D01*
X178170234Y-113976212D01*
X178869105Y-113277340D01*
X178869104Y-113277338D01*
X178786174Y-113217087D01*
X178575802Y-113109897D01*
X178351247Y-113036934D01*
X178351248Y-113036934D01*
X178118052Y-113000000D01*
X177881948Y-113000000D01*
X177648752Y-113036934D01*
X177424197Y-113109897D01*
X177213830Y-113217084D01*
X177130894Y-113277340D01*
X177829766Y-113976212D01*
X177787708Y-113987482D01*
X177662292Y-114059890D01*
X177559890Y-114162292D01*
X177487482Y-114287708D01*
X177476212Y-114329766D01*
X176777340Y-113630894D01*
X176717084Y-113713830D01*
X176609897Y-113924197D01*
X176536934Y-114148752D01*
X176500000Y-114381947D01*
X173000000Y-114381947D01*
X172963065Y-114148752D01*
X172890102Y-113924197D01*
X172782914Y-113713828D01*
X172722658Y-113630894D01*
X172722658Y-113630893D01*
X172023787Y-114329765D01*
X172012518Y-114287708D01*
X171940110Y-114162292D01*
X171837708Y-114059890D01*
X171712292Y-113987482D01*
X171670234Y-113976212D01*
X172369105Y-113277340D01*
X172369104Y-113277339D01*
X172286174Y-113217087D01*
X172075802Y-113109897D01*
X171851247Y-113036934D01*
X171851248Y-113036934D01*
X171618052Y-113000000D01*
X171381948Y-113000000D01*
X171148752Y-113036934D01*
X170924197Y-113109897D01*
X170713830Y-113217084D01*
X170630894Y-113277340D01*
X171329766Y-113976212D01*
X171287708Y-113987482D01*
X171162292Y-114059890D01*
X171059890Y-114162292D01*
X170987482Y-114287708D01*
X170976212Y-114329765D01*
X170277340Y-113630894D01*
X170217084Y-113713830D01*
X170109897Y-113924197D01*
X170036934Y-114148752D01*
X170000000Y-114381947D01*
X155209770Y-114381947D01*
X155180522Y-114331287D01*
X155180518Y-114331282D01*
X152834573Y-111985337D01*
X152825510Y-111968740D01*
X152812378Y-111955130D01*
X152801971Y-111925632D01*
X152801088Y-111924014D01*
X152800636Y-111921846D01*
X152800500Y-111921162D01*
X152800500Y-111921158D01*
X152786284Y-111849689D01*
X152792513Y-111780099D01*
X152835376Y-111724922D01*
X152901266Y-111701678D01*
X152907902Y-111701500D01*
X156577098Y-111701500D01*
X156624550Y-111710939D01*
X156699894Y-111742147D01*
X156766503Y-111769737D01*
X156921153Y-111800499D01*
X156921156Y-111800500D01*
X156921158Y-111800500D01*
X157078844Y-111800500D01*
X157078845Y-111800499D01*
X157233497Y-111769737D01*
X157350713Y-111721185D01*
X157379172Y-111709397D01*
X157379172Y-111709396D01*
X157379179Y-111709394D01*
X157510289Y-111621789D01*
X157621789Y-111510289D01*
X157709394Y-111379179D01*
X157769737Y-111233497D01*
X157800500Y-111078842D01*
X157800500Y-110921158D01*
X157800500Y-110921155D01*
X157800499Y-110921153D01*
X157769738Y-110766510D01*
X157769737Y-110766503D01*
X157755563Y-110732284D01*
X157709397Y-110620827D01*
X157709390Y-110620814D01*
X157621789Y-110489711D01*
X157621786Y-110489707D01*
X157510292Y-110378213D01*
X157510288Y-110378210D01*
X157379185Y-110290609D01*
X157379172Y-110290602D01*
X157233501Y-110230264D01*
X157233489Y-110230261D01*
X157078845Y-110199500D01*
X157078842Y-110199500D01*
X156921158Y-110199500D01*
X156921155Y-110199500D01*
X156766510Y-110230261D01*
X156766498Y-110230264D01*
X156620827Y-110290602D01*
X156620814Y-110290609D01*
X156489711Y-110378210D01*
X156489707Y-110378213D01*
X156403740Y-110464181D01*
X156342417Y-110497666D01*
X156316059Y-110500500D01*
X152918046Y-110500500D01*
X152851007Y-110480815D01*
X152805252Y-110428011D01*
X152796429Y-110400691D01*
X152777797Y-110307023D01*
X152769737Y-110266503D01*
X152757592Y-110237182D01*
X152709397Y-110120827D01*
X152709390Y-110120814D01*
X152621789Y-109989711D01*
X152621786Y-109989707D01*
X152513981Y-109881902D01*
X169999500Y-109881902D01*
X169999500Y-110118097D01*
X170036446Y-110351368D01*
X170109433Y-110575996D01*
X170189685Y-110733497D01*
X170216657Y-110786433D01*
X170355483Y-110977510D01*
X170522490Y-111144517D01*
X170713567Y-111283343D01*
X170811068Y-111333022D01*
X170924003Y-111390566D01*
X170924005Y-111390566D01*
X170924008Y-111390568D01*
X171044412Y-111429689D01*
X171148631Y-111463553D01*
X171381903Y-111500500D01*
X171381908Y-111500500D01*
X171618097Y-111500500D01*
X171851368Y-111463553D01*
X172075992Y-111390568D01*
X172286433Y-111283343D01*
X172477510Y-111144517D01*
X172644517Y-110977510D01*
X172783343Y-110786433D01*
X172890568Y-110575992D01*
X172963553Y-110351368D01*
X172973177Y-110290606D01*
X173000500Y-110118097D01*
X173000500Y-109881902D01*
X176499500Y-109881902D01*
X176499500Y-110118097D01*
X176536446Y-110351368D01*
X176609433Y-110575996D01*
X176689685Y-110733497D01*
X176716657Y-110786433D01*
X176855483Y-110977510D01*
X177022490Y-111144517D01*
X177213567Y-111283343D01*
X177311068Y-111333022D01*
X177424003Y-111390566D01*
X177424005Y-111390566D01*
X177424008Y-111390568D01*
X177544412Y-111429689D01*
X177648631Y-111463553D01*
X177881903Y-111500500D01*
X177881908Y-111500500D01*
X178118097Y-111500500D01*
X178351368Y-111463553D01*
X178575992Y-111390568D01*
X178786433Y-111283343D01*
X178977510Y-111144517D01*
X179144517Y-110977510D01*
X179283343Y-110786433D01*
X179390568Y-110575992D01*
X179463553Y-110351368D01*
X179473177Y-110290606D01*
X179500500Y-110118097D01*
X179500500Y-109881902D01*
X179463553Y-109648631D01*
X179405830Y-109470979D01*
X179390568Y-109424008D01*
X179390566Y-109424005D01*
X179390566Y-109424003D01*
X179322023Y-109289481D01*
X179283343Y-109213567D01*
X179144517Y-109022490D01*
X178977510Y-108855483D01*
X178786433Y-108716657D01*
X178575996Y-108609433D01*
X178351368Y-108536446D01*
X178118097Y-108499500D01*
X178118092Y-108499500D01*
X177881908Y-108499500D01*
X177881903Y-108499500D01*
X177648631Y-108536446D01*
X177424003Y-108609433D01*
X177213566Y-108716657D01*
X177167674Y-108750000D01*
X177022490Y-108855483D01*
X177022488Y-108855485D01*
X177022487Y-108855485D01*
X176855485Y-109022487D01*
X176855485Y-109022488D01*
X176855483Y-109022490D01*
X176831822Y-109055057D01*
X176716657Y-109213566D01*
X176609433Y-109424003D01*
X176536446Y-109648631D01*
X176499500Y-109881902D01*
X173000500Y-109881902D01*
X172963553Y-109648631D01*
X172905830Y-109470979D01*
X172890568Y-109424008D01*
X172890566Y-109424005D01*
X172890566Y-109424003D01*
X172822023Y-109289481D01*
X172783343Y-109213567D01*
X172644517Y-109022490D01*
X172477510Y-108855483D01*
X172286433Y-108716657D01*
X172075996Y-108609433D01*
X171851368Y-108536446D01*
X171618097Y-108499500D01*
X171618092Y-108499500D01*
X171381908Y-108499500D01*
X171381903Y-108499500D01*
X171148631Y-108536446D01*
X170924003Y-108609433D01*
X170713566Y-108716657D01*
X170667674Y-108750000D01*
X170522490Y-108855483D01*
X170522488Y-108855485D01*
X170522487Y-108855485D01*
X170355485Y-109022487D01*
X170355485Y-109022488D01*
X170355483Y-109022490D01*
X170331822Y-109055057D01*
X170216657Y-109213566D01*
X170109433Y-109424003D01*
X170036446Y-109648631D01*
X169999500Y-109881902D01*
X152513981Y-109881902D01*
X152510292Y-109878213D01*
X152510288Y-109878210D01*
X152379185Y-109790609D01*
X152379172Y-109790602D01*
X152233501Y-109730264D01*
X152233491Y-109730261D01*
X152078149Y-109699361D01*
X152016238Y-109666976D01*
X152014660Y-109665425D01*
X151757590Y-109408355D01*
X151757588Y-109408352D01*
X151638717Y-109289481D01*
X151638716Y-109289480D01*
X151551904Y-109239360D01*
X151551904Y-109239359D01*
X151551900Y-109239358D01*
X151501785Y-109210423D01*
X151349057Y-109169499D01*
X151190943Y-109169499D01*
X151183347Y-109169499D01*
X151183331Y-109169500D01*
X125520983Y-109169500D01*
X125453944Y-109149815D01*
X125410499Y-109101796D01*
X125386684Y-109055057D01*
X125363020Y-109022487D01*
X125260477Y-108881349D01*
X125108651Y-108729523D01*
X124934944Y-108603317D01*
X124934943Y-108603316D01*
X124931002Y-108600453D01*
X124932405Y-108598521D01*
X124892078Y-108554073D01*
X124880558Y-108485160D01*
X124908125Y-108420958D01*
X124931709Y-108400521D01*
X124931002Y-108399547D01*
X124934944Y-108396683D01*
X125108651Y-108270477D01*
X125260477Y-108118651D01*
X125386683Y-107944944D01*
X125387215Y-107943898D01*
X125410499Y-107898204D01*
X125458473Y-107847409D01*
X125520983Y-107830500D01*
X148683331Y-107830500D01*
X148683347Y-107830501D01*
X148690943Y-107830501D01*
X148849054Y-107830501D01*
X148849057Y-107830501D01*
X149001785Y-107789577D01*
X149064041Y-107753633D01*
X149138716Y-107710520D01*
X149250520Y-107598716D01*
X149250520Y-107598714D01*
X149260724Y-107588511D01*
X149260728Y-107588506D01*
X151364113Y-105485121D01*
X151364116Y-105485120D01*
X151475920Y-105373316D01*
X151526039Y-105286504D01*
X151554977Y-105236385D01*
X151595901Y-105083657D01*
X151595901Y-104925543D01*
X151595901Y-104917948D01*
X151595900Y-104917930D01*
X151595900Y-102301683D01*
X151615585Y-102234644D01*
X151668389Y-102188889D01*
X151737547Y-102178945D01*
X151758210Y-102183750D01*
X151840573Y-102210511D01*
X152052643Y-102244100D01*
X152052644Y-102244100D01*
X152267356Y-102244100D01*
X152267357Y-102244100D01*
X152479427Y-102210511D01*
X152683633Y-102144161D01*
X152874944Y-102046683D01*
X153048651Y-101920477D01*
X153200477Y-101768651D01*
X153326683Y-101594944D01*
X153326683Y-101594943D01*
X153329547Y-101591002D01*
X153331478Y-101592405D01*
X153375927Y-101552078D01*
X153444840Y-101540558D01*
X153509042Y-101568125D01*
X153529478Y-101591709D01*
X153530453Y-101591002D01*
X153533316Y-101594943D01*
X153533317Y-101594944D01*
X153659523Y-101768651D01*
X153811349Y-101920477D01*
X153921491Y-102000500D01*
X153988998Y-102049547D01*
X153987624Y-102051437D01*
X154028030Y-102096152D01*
X154039411Y-102165089D01*
X154011715Y-102229235D01*
X153988314Y-102249511D01*
X153988998Y-102250453D01*
X153985056Y-102253316D01*
X153985056Y-102253317D01*
X153811349Y-102379523D01*
X153811347Y-102379525D01*
X153811346Y-102379525D01*
X153659525Y-102531346D01*
X153659525Y-102531347D01*
X153659523Y-102531349D01*
X153605322Y-102605949D01*
X153533317Y-102705055D01*
X153435838Y-102896366D01*
X153435837Y-102896369D01*
X153369489Y-103100571D01*
X153335900Y-103312643D01*
X153335900Y-103527356D01*
X153369489Y-103739428D01*
X153435837Y-103943630D01*
X153435838Y-103943633D01*
X153519652Y-104108125D01*
X153533317Y-104134944D01*
X153659523Y-104308651D01*
X153811349Y-104460477D01*
X153948179Y-104559890D01*
X153988998Y-104589547D01*
X153987624Y-104591437D01*
X154028030Y-104636152D01*
X154039411Y-104705089D01*
X154011715Y-104769235D01*
X153988314Y-104789511D01*
X153988998Y-104790453D01*
X153985056Y-104793316D01*
X153985056Y-104793317D01*
X153811349Y-104919523D01*
X153811347Y-104919525D01*
X153811346Y-104919525D01*
X153659525Y-105071346D01*
X153659525Y-105071347D01*
X153659523Y-105071349D01*
X153658753Y-105072409D01*
X153533317Y-105245055D01*
X153435838Y-105436366D01*
X153435837Y-105436369D01*
X153369489Y-105640571D01*
X153335900Y-105852643D01*
X153335900Y-106067356D01*
X153369489Y-106279428D01*
X153435837Y-106483630D01*
X153435838Y-106483633D01*
X153499937Y-106609432D01*
X153533317Y-106674944D01*
X153659523Y-106848651D01*
X153659525Y-106848653D01*
X153756211Y-106945339D01*
X153789696Y-107006662D01*
X153784712Y-107076354D01*
X153742840Y-107132287D01*
X153711863Y-107149202D01*
X153594313Y-107193045D01*
X153594306Y-107193049D01*
X153479212Y-107279209D01*
X153479209Y-107279212D01*
X153393049Y-107394306D01*
X153393045Y-107394313D01*
X153342803Y-107529020D01*
X153342801Y-107529027D01*
X153336400Y-107588555D01*
X153336400Y-108250000D01*
X154257749Y-108250000D01*
X154226619Y-108303919D01*
X154192000Y-108433120D01*
X154192000Y-108566880D01*
X154226619Y-108696081D01*
X154257749Y-108750000D01*
X153336400Y-108750000D01*
X153336400Y-109411444D01*
X153342801Y-109470972D01*
X153342803Y-109470979D01*
X153393045Y-109605686D01*
X153393049Y-109605693D01*
X153479209Y-109720787D01*
X153479212Y-109720790D01*
X153594306Y-109806950D01*
X153594313Y-109806954D01*
X153729020Y-109857196D01*
X153729027Y-109857198D01*
X153788555Y-109863599D01*
X153788572Y-109863600D01*
X154450000Y-109863600D01*
X154450000Y-108942251D01*
X154503919Y-108973381D01*
X154633120Y-109008000D01*
X154766880Y-109008000D01*
X154896081Y-108973381D01*
X154950000Y-108942251D01*
X154950000Y-109863600D01*
X155611428Y-109863600D01*
X155611444Y-109863599D01*
X155670972Y-109857198D01*
X155670979Y-109857196D01*
X155805686Y-109806954D01*
X155805689Y-109806952D01*
X155844672Y-109777770D01*
X155844673Y-109777769D01*
X155920790Y-109720786D01*
X156006950Y-109605693D01*
X156006954Y-109605686D01*
X156057196Y-109470979D01*
X156057198Y-109470972D01*
X156063599Y-109411444D01*
X156063600Y-109411427D01*
X156063600Y-108750000D01*
X155142251Y-108750000D01*
X155173381Y-108696081D01*
X155208000Y-108566880D01*
X155208000Y-108433120D01*
X155173381Y-108303919D01*
X155142251Y-108250000D01*
X156063600Y-108250000D01*
X156063600Y-107588572D01*
X156063599Y-107588555D01*
X156057198Y-107529027D01*
X156057196Y-107529020D01*
X156006954Y-107394313D01*
X156006950Y-107394306D01*
X155920790Y-107279212D01*
X155920787Y-107279209D01*
X155805693Y-107193049D01*
X155805686Y-107193045D01*
X155688136Y-107149202D01*
X155632202Y-107107331D01*
X155607785Y-107041866D01*
X155622637Y-106973593D01*
X155643782Y-106945345D01*
X155740477Y-106848651D01*
X155866683Y-106674944D01*
X155964161Y-106483633D01*
X156030511Y-106279427D01*
X156064100Y-106067357D01*
X156064100Y-105852643D01*
X156030511Y-105640573D01*
X155980002Y-105485120D01*
X155964162Y-105436369D01*
X155964161Y-105436366D01*
X155866682Y-105245055D01*
X155842878Y-105212292D01*
X155740477Y-105071349D01*
X155588651Y-104919523D01*
X155536932Y-104881947D01*
X182000000Y-104881947D01*
X182000000Y-105118052D01*
X182036934Y-105351247D01*
X182109897Y-105575802D01*
X182217087Y-105786174D01*
X182277338Y-105869104D01*
X182277340Y-105869105D01*
X182976212Y-105170233D01*
X182987482Y-105212292D01*
X183059890Y-105337708D01*
X183162292Y-105440110D01*
X183287708Y-105512518D01*
X183329765Y-105523787D01*
X182630893Y-106222658D01*
X182713828Y-106282914D01*
X182924197Y-106390102D01*
X183148752Y-106463065D01*
X183148751Y-106463065D01*
X183381948Y-106500000D01*
X183618052Y-106500000D01*
X183851247Y-106463065D01*
X184075802Y-106390102D01*
X184286163Y-106282918D01*
X184286169Y-106282914D01*
X184369104Y-106222658D01*
X184369105Y-106222658D01*
X183670233Y-105523787D01*
X183712292Y-105512518D01*
X183837708Y-105440110D01*
X183940110Y-105337708D01*
X184012518Y-105212292D01*
X184023787Y-105170233D01*
X184722658Y-105869105D01*
X184722658Y-105869104D01*
X184782914Y-105786169D01*
X184782918Y-105786163D01*
X184890102Y-105575802D01*
X184963065Y-105351247D01*
X185000000Y-105118052D01*
X185000000Y-104881947D01*
X188500000Y-104881947D01*
X188500000Y-105118052D01*
X188536934Y-105351247D01*
X188609897Y-105575802D01*
X188717087Y-105786174D01*
X188777338Y-105869104D01*
X188777340Y-105869105D01*
X189476212Y-105170233D01*
X189487482Y-105212292D01*
X189559890Y-105337708D01*
X189662292Y-105440110D01*
X189787708Y-105512518D01*
X189829765Y-105523787D01*
X189130893Y-106222658D01*
X189213828Y-106282914D01*
X189424197Y-106390102D01*
X189648752Y-106463065D01*
X189648751Y-106463065D01*
X189881948Y-106500000D01*
X190118052Y-106500000D01*
X190351247Y-106463065D01*
X190575802Y-106390102D01*
X190786163Y-106282918D01*
X190786169Y-106282914D01*
X190869104Y-106222658D01*
X190869105Y-106222658D01*
X190170233Y-105523787D01*
X190212292Y-105512518D01*
X190337708Y-105440110D01*
X190440110Y-105337708D01*
X190512518Y-105212292D01*
X190523787Y-105170233D01*
X191222658Y-105869105D01*
X191222658Y-105869104D01*
X191282914Y-105786169D01*
X191282918Y-105786163D01*
X191390102Y-105575802D01*
X191463065Y-105351247D01*
X191500000Y-105118052D01*
X191500000Y-104881947D01*
X191463065Y-104648752D01*
X191390102Y-104424197D01*
X191282914Y-104213828D01*
X191222658Y-104130894D01*
X191222658Y-104130893D01*
X190523787Y-104829765D01*
X190512518Y-104787708D01*
X190440110Y-104662292D01*
X190337708Y-104559890D01*
X190212292Y-104487482D01*
X190170234Y-104476212D01*
X190869105Y-103777340D01*
X190869104Y-103777338D01*
X190786174Y-103717087D01*
X190575802Y-103609897D01*
X190351247Y-103536934D01*
X190351248Y-103536934D01*
X190118052Y-103500000D01*
X189881948Y-103500000D01*
X189648752Y-103536934D01*
X189424197Y-103609897D01*
X189213830Y-103717084D01*
X189130894Y-103777340D01*
X189829766Y-104476212D01*
X189787708Y-104487482D01*
X189662292Y-104559890D01*
X189559890Y-104662292D01*
X189487482Y-104787708D01*
X189476212Y-104829766D01*
X188777340Y-104130894D01*
X188717084Y-104213830D01*
X188609897Y-104424197D01*
X188536934Y-104648752D01*
X188500000Y-104881947D01*
X185000000Y-104881947D01*
X184963065Y-104648752D01*
X184890102Y-104424197D01*
X184782914Y-104213828D01*
X184722658Y-104130894D01*
X184722658Y-104130893D01*
X184023787Y-104829765D01*
X184012518Y-104787708D01*
X183940110Y-104662292D01*
X183837708Y-104559890D01*
X183712292Y-104487482D01*
X183670234Y-104476212D01*
X184369105Y-103777340D01*
X184369104Y-103777339D01*
X184286174Y-103717087D01*
X184075802Y-103609897D01*
X183851247Y-103536934D01*
X183851248Y-103536934D01*
X183618052Y-103500000D01*
X183381948Y-103500000D01*
X183148752Y-103536934D01*
X182924197Y-103609897D01*
X182713830Y-103717084D01*
X182630894Y-103777340D01*
X183329766Y-104476212D01*
X183287708Y-104487482D01*
X183162292Y-104559890D01*
X183059890Y-104662292D01*
X182987482Y-104787708D01*
X182976212Y-104829766D01*
X182277340Y-104130894D01*
X182217084Y-104213830D01*
X182109897Y-104424197D01*
X182036934Y-104648752D01*
X182000000Y-104881947D01*
X155536932Y-104881947D01*
X155414944Y-104793317D01*
X155414943Y-104793316D01*
X155411002Y-104790453D01*
X155412405Y-104788521D01*
X155372078Y-104744073D01*
X155360558Y-104675160D01*
X155388125Y-104610958D01*
X155411709Y-104590521D01*
X155411002Y-104589547D01*
X155414945Y-104586682D01*
X155588651Y-104460477D01*
X155740477Y-104308651D01*
X155866683Y-104134944D01*
X155964161Y-103943633D01*
X155970000Y-103925662D01*
X156015288Y-103786281D01*
X156015288Y-103786280D01*
X156030510Y-103739430D01*
X156030509Y-103739430D01*
X156030511Y-103739427D01*
X156064100Y-103527357D01*
X156064100Y-103312643D01*
X156030511Y-103100573D01*
X155964161Y-102896367D01*
X155964161Y-102896366D01*
X155880266Y-102731715D01*
X155866683Y-102705056D01*
X155740477Y-102531349D01*
X155588651Y-102379523D01*
X155414944Y-102253317D01*
X155414943Y-102253316D01*
X155411002Y-102250453D01*
X155412405Y-102248521D01*
X155372078Y-102204073D01*
X155360558Y-102135160D01*
X155388125Y-102070958D01*
X155411709Y-102050521D01*
X155411002Y-102049547D01*
X155452637Y-102019297D01*
X155588651Y-101920477D01*
X155740477Y-101768651D01*
X155866683Y-101594944D01*
X155964161Y-101403633D01*
X156030511Y-101199427D01*
X156064100Y-100987357D01*
X156064100Y-100772643D01*
X156030511Y-100560573D01*
X155972458Y-100381902D01*
X181999500Y-100381902D01*
X181999500Y-100618097D01*
X182036446Y-100851368D01*
X182109433Y-101075996D01*
X182192252Y-101238535D01*
X182216657Y-101286433D01*
X182355483Y-101477510D01*
X182522490Y-101644517D01*
X182713567Y-101783343D01*
X182751432Y-101802636D01*
X182924003Y-101890566D01*
X182924005Y-101890566D01*
X182924008Y-101890568D01*
X183016049Y-101920474D01*
X183148631Y-101963553D01*
X183381903Y-102000500D01*
X183381908Y-102000500D01*
X183618097Y-102000500D01*
X183851368Y-101963553D01*
X183885247Y-101952545D01*
X184075992Y-101890568D01*
X184286433Y-101783343D01*
X184477510Y-101644517D01*
X184644517Y-101477510D01*
X184783343Y-101286433D01*
X184890568Y-101075992D01*
X184963553Y-100851368D01*
X184973922Y-100785900D01*
X185000500Y-100618097D01*
X185000500Y-100381902D01*
X188499500Y-100381902D01*
X188499500Y-100618097D01*
X188536446Y-100851368D01*
X188609433Y-101075996D01*
X188692252Y-101238535D01*
X188716657Y-101286433D01*
X188855483Y-101477510D01*
X189022490Y-101644517D01*
X189213567Y-101783343D01*
X189251432Y-101802636D01*
X189424003Y-101890566D01*
X189424005Y-101890566D01*
X189424008Y-101890568D01*
X189516049Y-101920474D01*
X189648631Y-101963553D01*
X189881903Y-102000500D01*
X189881908Y-102000500D01*
X190118097Y-102000500D01*
X190351368Y-101963553D01*
X190385247Y-101952545D01*
X190575992Y-101890568D01*
X190786433Y-101783343D01*
X190977510Y-101644517D01*
X191144517Y-101477510D01*
X191283343Y-101286433D01*
X191390568Y-101075992D01*
X191463553Y-100851368D01*
X191473922Y-100785900D01*
X191500500Y-100618097D01*
X191500500Y-100381902D01*
X191463553Y-100148631D01*
X191412448Y-99991347D01*
X191390568Y-99924008D01*
X191390566Y-99924005D01*
X191390566Y-99924003D01*
X191334002Y-99812991D01*
X191283343Y-99713567D01*
X191144517Y-99522490D01*
X190977510Y-99355483D01*
X190786433Y-99216657D01*
X190575996Y-99109433D01*
X190351368Y-99036446D01*
X190118097Y-98999500D01*
X190118092Y-98999500D01*
X189881908Y-98999500D01*
X189881903Y-98999500D01*
X189648631Y-99036446D01*
X189424003Y-99109433D01*
X189213566Y-99216657D01*
X189104550Y-99295862D01*
X189022490Y-99355483D01*
X189022488Y-99355485D01*
X189022487Y-99355485D01*
X188855485Y-99522487D01*
X188855485Y-99522488D01*
X188855483Y-99522490D01*
X188835867Y-99549489D01*
X188716657Y-99713566D01*
X188609433Y-99924003D01*
X188536446Y-100148631D01*
X188499500Y-100381902D01*
X185000500Y-100381902D01*
X184963553Y-100148631D01*
X184912448Y-99991347D01*
X184890568Y-99924008D01*
X184890566Y-99924005D01*
X184890566Y-99924003D01*
X184834002Y-99812991D01*
X184783343Y-99713567D01*
X184644517Y-99522490D01*
X184477510Y-99355483D01*
X184286433Y-99216657D01*
X184075996Y-99109433D01*
X183851368Y-99036446D01*
X183618097Y-98999500D01*
X183618092Y-98999500D01*
X183381908Y-98999500D01*
X183381903Y-98999500D01*
X183148631Y-99036446D01*
X182924003Y-99109433D01*
X182713566Y-99216657D01*
X182604550Y-99295862D01*
X182522490Y-99355483D01*
X182522488Y-99355485D01*
X182522487Y-99355485D01*
X182355485Y-99522487D01*
X182355485Y-99522488D01*
X182355483Y-99522490D01*
X182335867Y-99549489D01*
X182216657Y-99713566D01*
X182109433Y-99924003D01*
X182036446Y-100148631D01*
X181999500Y-100381902D01*
X155972458Y-100381902D01*
X155970000Y-100374337D01*
X155964163Y-100356372D01*
X155964161Y-100356366D01*
X155880266Y-100191715D01*
X155866683Y-100165056D01*
X155740477Y-99991349D01*
X155588651Y-99839523D01*
X155414944Y-99713317D01*
X155223633Y-99615838D01*
X155223630Y-99615837D01*
X155019428Y-99549489D01*
X154850940Y-99522803D01*
X154807357Y-99515900D01*
X154592643Y-99515900D01*
X154549060Y-99522803D01*
X154380571Y-99549489D01*
X154176369Y-99615837D01*
X154176366Y-99615838D01*
X153985055Y-99713317D01*
X153885949Y-99785322D01*
X153811349Y-99839523D01*
X153811347Y-99839525D01*
X153811346Y-99839525D01*
X153659525Y-99991346D01*
X153659525Y-99991347D01*
X153659523Y-99991349D01*
X153545251Y-100148631D01*
X153530453Y-100168998D01*
X153528562Y-100167624D01*
X153483848Y-100208030D01*
X153414911Y-100219411D01*
X153350765Y-100191715D01*
X153330488Y-100168314D01*
X153329547Y-100168998D01*
X153314749Y-100148631D01*
X153200477Y-99991349D01*
X153048651Y-99839523D01*
X152874944Y-99713317D01*
X152683633Y-99615838D01*
X152683630Y-99615837D01*
X152479428Y-99549489D01*
X152310940Y-99522803D01*
X152267357Y-99515900D01*
X152052643Y-99515900D01*
X152009060Y-99522803D01*
X151840571Y-99549489D01*
X151758218Y-99576247D01*
X151688376Y-99578242D01*
X151628544Y-99542161D01*
X151597716Y-99479460D01*
X151595900Y-99458316D01*
X151595900Y-87304697D01*
X151604544Y-87275256D01*
X151611068Y-87245270D01*
X151614822Y-87240254D01*
X151615585Y-87237658D01*
X151632219Y-87217016D01*
X155172416Y-83676819D01*
X155233739Y-83643334D01*
X155260097Y-83640500D01*
X165214281Y-83640500D01*
X165281320Y-83660185D01*
X165324765Y-83708205D01*
X165344947Y-83747814D01*
X165344948Y-83747815D01*
X165469890Y-83919786D01*
X165620213Y-84070109D01*
X165792179Y-84195048D01*
X165792181Y-84195049D01*
X165792184Y-84195051D01*
X165801493Y-84199794D01*
X165852290Y-84247766D01*
X165869087Y-84315587D01*
X165846552Y-84381722D01*
X165801505Y-84420760D01*
X165792446Y-84425376D01*
X165792440Y-84425380D01*
X165738282Y-84464727D01*
X165738282Y-84464728D01*
X166370591Y-85097037D01*
X166307007Y-85114075D01*
X166192993Y-85179901D01*
X166099901Y-85272993D01*
X166034075Y-85387007D01*
X166017037Y-85450591D01*
X165384728Y-84818282D01*
X165384727Y-84818282D01*
X165345380Y-84872439D01*
X165248904Y-85061782D01*
X165183242Y-85263869D01*
X165183242Y-85263872D01*
X165150000Y-85473753D01*
X165150000Y-85686246D01*
X165183242Y-85896127D01*
X165183242Y-85896130D01*
X165248904Y-86098217D01*
X165345375Y-86287550D01*
X165384728Y-86341716D01*
X166017036Y-85709407D01*
X166034075Y-85772993D01*
X166099901Y-85887007D01*
X166192993Y-85980099D01*
X166307007Y-86045925D01*
X166370590Y-86062962D01*
X165701195Y-86732356D01*
X165639872Y-86765841D01*
X165625167Y-86764924D01*
X165625444Y-86767497D01*
X165542626Y-86776401D01*
X165542619Y-86776403D01*
X165407913Y-86826645D01*
X165407906Y-86826649D01*
X165292812Y-86912809D01*
X165292809Y-86912812D01*
X165206649Y-87027906D01*
X165206645Y-87027913D01*
X165156403Y-87162620D01*
X165156401Y-87162627D01*
X165150000Y-87222155D01*
X165150000Y-87870000D01*
X166066988Y-87870000D01*
X166034075Y-87927007D01*
X166000000Y-88054174D01*
X166000000Y-88185826D01*
X166034075Y-88312993D01*
X166066988Y-88370000D01*
X165150000Y-88370000D01*
X165150000Y-89017844D01*
X165156401Y-89077372D01*
X165156403Y-89077379D01*
X165206645Y-89212086D01*
X165206649Y-89212093D01*
X165292809Y-89327187D01*
X165292812Y-89327190D01*
X165407906Y-89413350D01*
X165407913Y-89413354D01*
X165542620Y-89463596D01*
X165542627Y-89463598D01*
X165602155Y-89469999D01*
X165602172Y-89470000D01*
X166250000Y-89470000D01*
X166250000Y-88553012D01*
X166307007Y-88585925D01*
X166434174Y-88620000D01*
X166565826Y-88620000D01*
X166692993Y-88585925D01*
X166750000Y-88553012D01*
X166750000Y-89470000D01*
X167397828Y-89470000D01*
X167397844Y-89469999D01*
X167457372Y-89463598D01*
X167457379Y-89463596D01*
X167592086Y-89413354D01*
X167592093Y-89413350D01*
X167707187Y-89327190D01*
X167707190Y-89327187D01*
X167793350Y-89212093D01*
X167793354Y-89212086D01*
X167843596Y-89077379D01*
X167843598Y-89077372D01*
X167849999Y-89017844D01*
X167850000Y-89017827D01*
X167850000Y-88370000D01*
X166933012Y-88370000D01*
X166965925Y-88312993D01*
X167000000Y-88185826D01*
X167000000Y-88054174D01*
X166965925Y-87927007D01*
X166933012Y-87870000D01*
X167850000Y-87870000D01*
X167850000Y-87222172D01*
X167849999Y-87222155D01*
X167843598Y-87162627D01*
X167843596Y-87162620D01*
X167793354Y-87027913D01*
X167793350Y-87027906D01*
X167707190Y-86912812D01*
X167707187Y-86912809D01*
X167592093Y-86826649D01*
X167592086Y-86826645D01*
X167457380Y-86776403D01*
X167457373Y-86776401D01*
X167374555Y-86767497D01*
X167374884Y-86764431D01*
X167357875Y-86765330D01*
X167298803Y-86732356D01*
X166629408Y-86062962D01*
X166692993Y-86045925D01*
X166807007Y-85980099D01*
X166900099Y-85887007D01*
X166965925Y-85772993D01*
X166982962Y-85709409D01*
X167615270Y-86341717D01*
X167615270Y-86341716D01*
X167654622Y-86287554D01*
X167751095Y-86098217D01*
X167816757Y-85896130D01*
X167816757Y-85896127D01*
X167850000Y-85686246D01*
X167850000Y-85473753D01*
X167816757Y-85263872D01*
X167816757Y-85263869D01*
X167751095Y-85061782D01*
X167654624Y-84872449D01*
X167615270Y-84818282D01*
X167615269Y-84818282D01*
X166982962Y-85450590D01*
X166965925Y-85387007D01*
X166900099Y-85272993D01*
X166807007Y-85179901D01*
X166692993Y-85114075D01*
X166629409Y-85097037D01*
X167261716Y-84464728D01*
X167207547Y-84425373D01*
X167207547Y-84425372D01*
X167198500Y-84420763D01*
X167147706Y-84372788D01*
X167130912Y-84304966D01*
X167153451Y-84238832D01*
X167198508Y-84199793D01*
X167207816Y-84195051D01*
X167287007Y-84137515D01*
X167379786Y-84070109D01*
X167379788Y-84070106D01*
X167379792Y-84070104D01*
X167530104Y-83919792D01*
X167530106Y-83919788D01*
X167530109Y-83919786D01*
X167655048Y-83747820D01*
X167655047Y-83747820D01*
X167655051Y-83747816D01*
X167751557Y-83558412D01*
X167817246Y-83356243D01*
X167850500Y-83146287D01*
X167850500Y-82933713D01*
X167817246Y-82723757D01*
X167751557Y-82521588D01*
X167655051Y-82332184D01*
X167655049Y-82332181D01*
X167655048Y-82332179D01*
X167530109Y-82160213D01*
X167379786Y-82009890D01*
X167207820Y-81884951D01*
X167207115Y-81884591D01*
X167199054Y-81880485D01*
X167148259Y-81832512D01*
X167131463Y-81764692D01*
X167153999Y-81698556D01*
X167199054Y-81659515D01*
X167207816Y-81655051D01*
X167229789Y-81639086D01*
X167379786Y-81530109D01*
X167379788Y-81530106D01*
X167379792Y-81530104D01*
X167530104Y-81379792D01*
X167530106Y-81379788D01*
X167530109Y-81379786D01*
X167655048Y-81207820D01*
X167655047Y-81207820D01*
X167655051Y-81207816D01*
X167751557Y-81018412D01*
X167817246Y-80816243D01*
X167850500Y-80606287D01*
X167850500Y-80393713D01*
X167817246Y-80183757D01*
X167751557Y-79981588D01*
X167655051Y-79792184D01*
X167655049Y-79792181D01*
X167655048Y-79792179D01*
X167530109Y-79620213D01*
X167379786Y-79469890D01*
X167207820Y-79344951D01*
X167207115Y-79344591D01*
X167199054Y-79340485D01*
X167148259Y-79292512D01*
X167131463Y-79224692D01*
X167153999Y-79158556D01*
X167199054Y-79119515D01*
X167207816Y-79115051D01*
X167261571Y-79075996D01*
X167379786Y-78990109D01*
X167379788Y-78990106D01*
X167379792Y-78990104D01*
X167530104Y-78839792D01*
X167530106Y-78839788D01*
X167530109Y-78839786D01*
X167655048Y-78667820D01*
X167655047Y-78667820D01*
X167655051Y-78667816D01*
X167751557Y-78478412D01*
X167817246Y-78276243D01*
X167850500Y-78066287D01*
X167850500Y-77853713D01*
X167817246Y-77643757D01*
X167751557Y-77441588D01*
X167655051Y-77252184D01*
X167655049Y-77252181D01*
X167655048Y-77252179D01*
X167530109Y-77080213D01*
X167379786Y-76929890D01*
X167207820Y-76804951D01*
X167207115Y-76804591D01*
X167199054Y-76800485D01*
X167148259Y-76752512D01*
X167131463Y-76684692D01*
X167153999Y-76618556D01*
X167199054Y-76579515D01*
X167207816Y-76575051D01*
X167229789Y-76559086D01*
X167379786Y-76450109D01*
X167379788Y-76450106D01*
X167379792Y-76450104D01*
X167530104Y-76299792D01*
X167530106Y-76299788D01*
X167530109Y-76299786D01*
X167655048Y-76127820D01*
X167655047Y-76127820D01*
X167655051Y-76127816D01*
X167751557Y-75938412D01*
X167817246Y-75736243D01*
X167850500Y-75526287D01*
X167850500Y-75313713D01*
X167817246Y-75103757D01*
X167751557Y-74901588D01*
X167655051Y-74712184D01*
X167655049Y-74712181D01*
X167655048Y-74712179D01*
X167530109Y-74540213D01*
X167379786Y-74389890D01*
X167207820Y-74264951D01*
X167018414Y-74168444D01*
X167018413Y-74168443D01*
X167018412Y-74168443D01*
X166816243Y-74102754D01*
X166816241Y-74102753D01*
X166816240Y-74102753D01*
X166654957Y-74077208D01*
X166606287Y-74069500D01*
X166393713Y-74069500D01*
X166345042Y-74077208D01*
X166183760Y-74102753D01*
X165981585Y-74168444D01*
X165792179Y-74264951D01*
X165620213Y-74389890D01*
X165469890Y-74540213D01*
X165344951Y-74712179D01*
X165248444Y-74901585D01*
X165182753Y-75103760D01*
X165149500Y-75313713D01*
X165149500Y-75526286D01*
X165182753Y-75736239D01*
X165248444Y-75938414D01*
X165344951Y-76127820D01*
X165469890Y-76299786D01*
X165620213Y-76450109D01*
X165792182Y-76575050D01*
X165800946Y-76579516D01*
X165851742Y-76627491D01*
X165868536Y-76695312D01*
X165845998Y-76761447D01*
X165800946Y-76800484D01*
X165792182Y-76804949D01*
X165620213Y-76929890D01*
X165469890Y-77080213D01*
X165344951Y-77252179D01*
X165248444Y-77441585D01*
X165182753Y-77643760D01*
X165149500Y-77853713D01*
X165149500Y-78066286D01*
X165182753Y-78276239D01*
X165248444Y-78478414D01*
X165344951Y-78667820D01*
X165469890Y-78839786D01*
X165620213Y-78990109D01*
X165792182Y-79115050D01*
X165800946Y-79119516D01*
X165851742Y-79167491D01*
X165868536Y-79235312D01*
X165845998Y-79301447D01*
X165800946Y-79340484D01*
X165792182Y-79344949D01*
X165620213Y-79469890D01*
X165469890Y-79620213D01*
X165344951Y-79792179D01*
X165248444Y-79981585D01*
X165182753Y-80183760D01*
X165149500Y-80393713D01*
X165149500Y-80606286D01*
X165182753Y-80816239D01*
X165248444Y-81018414D01*
X165344951Y-81207820D01*
X165469890Y-81379786D01*
X165620213Y-81530109D01*
X165792182Y-81655050D01*
X165800946Y-81659516D01*
X165851742Y-81707491D01*
X165868536Y-81775312D01*
X165845998Y-81841447D01*
X165800946Y-81880484D01*
X165792182Y-81884949D01*
X165620213Y-82009890D01*
X165469890Y-82160213D01*
X165344948Y-82332184D01*
X165344947Y-82332185D01*
X165324765Y-82371795D01*
X165276791Y-82422591D01*
X165214281Y-82439500D01*
X155039057Y-82439500D01*
X154880943Y-82439500D01*
X154728215Y-82480423D01*
X154728214Y-82480423D01*
X154728212Y-82480424D01*
X154728209Y-82480425D01*
X154678096Y-82509359D01*
X154678095Y-82509360D01*
X154634689Y-82534420D01*
X154591285Y-82559479D01*
X154591282Y-82559481D01*
X150514881Y-86635882D01*
X150514879Y-86635885D01*
X150464761Y-86722694D01*
X150464759Y-86722696D01*
X150435825Y-86772809D01*
X150435824Y-86772810D01*
X150421399Y-86826645D01*
X150394899Y-86925543D01*
X150394899Y-86925545D01*
X150394899Y-87093646D01*
X150394900Y-87093659D01*
X150394900Y-99541516D01*
X150375215Y-99608555D01*
X150322411Y-99654310D01*
X150253253Y-99664254D01*
X150214605Y-99652001D01*
X150143633Y-99615838D01*
X150143630Y-99615837D01*
X149939428Y-99549489D01*
X149770940Y-99522803D01*
X149727357Y-99515900D01*
X149512643Y-99515900D01*
X149469060Y-99522803D01*
X149300571Y-99549489D01*
X149096369Y-99615837D01*
X149096366Y-99615838D01*
X148905055Y-99713317D01*
X148805949Y-99785322D01*
X148731349Y-99839523D01*
X148731347Y-99839525D01*
X148731346Y-99839525D01*
X148579525Y-99991346D01*
X148579525Y-99991347D01*
X148579523Y-99991349D01*
X148465251Y-100148631D01*
X148450453Y-100168998D01*
X148448562Y-100167624D01*
X148403848Y-100208030D01*
X148334911Y-100219411D01*
X148270765Y-100191715D01*
X148250488Y-100168314D01*
X148249547Y-100168998D01*
X148234749Y-100148631D01*
X148120477Y-99991349D01*
X147968651Y-99839523D01*
X147794944Y-99713317D01*
X147603633Y-99615838D01*
X147603630Y-99615837D01*
X147399428Y-99549489D01*
X147230940Y-99522803D01*
X147187357Y-99515900D01*
X146972643Y-99515900D01*
X146929060Y-99522803D01*
X146760571Y-99549489D01*
X146556369Y-99615837D01*
X146556366Y-99615838D01*
X146365055Y-99713317D01*
X146265949Y-99785322D01*
X146191349Y-99839523D01*
X146191347Y-99839525D01*
X146191346Y-99839525D01*
X146039525Y-99991346D01*
X146039525Y-99991347D01*
X146039523Y-99991349D01*
X145925251Y-100148631D01*
X145910453Y-100168998D01*
X145908562Y-100167624D01*
X145863848Y-100208030D01*
X145794911Y-100219411D01*
X145730765Y-100191715D01*
X145710488Y-100168314D01*
X145709547Y-100168998D01*
X145694749Y-100148631D01*
X145580477Y-99991349D01*
X145428651Y-99839523D01*
X145254944Y-99713317D01*
X145063633Y-99615838D01*
X145063630Y-99615837D01*
X144859428Y-99549489D01*
X144690940Y-99522803D01*
X144647357Y-99515900D01*
X144432643Y-99515900D01*
X144389060Y-99522803D01*
X144220571Y-99549489D01*
X144016369Y-99615837D01*
X144016366Y-99615838D01*
X143825055Y-99713317D01*
X143725949Y-99785322D01*
X143651349Y-99839523D01*
X143651347Y-99839525D01*
X143651346Y-99839525D01*
X143499525Y-99991346D01*
X143499525Y-99991347D01*
X143499523Y-99991349D01*
X143385251Y-100148631D01*
X143370453Y-100168998D01*
X143368562Y-100167624D01*
X143323848Y-100208030D01*
X143254911Y-100219411D01*
X143190765Y-100191715D01*
X143170488Y-100168314D01*
X143169547Y-100168998D01*
X143154749Y-100148631D01*
X143040477Y-99991349D01*
X142888651Y-99839523D01*
X142714944Y-99713317D01*
X142523633Y-99615838D01*
X142523630Y-99615837D01*
X142319428Y-99549489D01*
X142150940Y-99522803D01*
X142107357Y-99515900D01*
X141892643Y-99515900D01*
X141849060Y-99522803D01*
X141680571Y-99549489D01*
X141476369Y-99615837D01*
X141476366Y-99615838D01*
X141285055Y-99713317D01*
X141185949Y-99785322D01*
X141111349Y-99839523D01*
X141111347Y-99839525D01*
X141111346Y-99839525D01*
X140959525Y-99991346D01*
X140959525Y-99991347D01*
X140959523Y-99991349D01*
X140845251Y-100148631D01*
X140830453Y-100168998D01*
X140828562Y-100167624D01*
X140783848Y-100208030D01*
X140714911Y-100219411D01*
X140650765Y-100191715D01*
X140630488Y-100168314D01*
X140629547Y-100168998D01*
X140614749Y-100148631D01*
X140500477Y-99991349D01*
X140348651Y-99839523D01*
X140174944Y-99713317D01*
X139983633Y-99615838D01*
X139983630Y-99615837D01*
X139779428Y-99549489D01*
X139610940Y-99522803D01*
X139567357Y-99515900D01*
X139352643Y-99515900D01*
X139309060Y-99522803D01*
X139140571Y-99549489D01*
X138936369Y-99615837D01*
X138936366Y-99615838D01*
X138745055Y-99713317D01*
X138645949Y-99785322D01*
X138571349Y-99839523D01*
X138571347Y-99839525D01*
X138571346Y-99839525D01*
X138419525Y-99991346D01*
X138419525Y-99991347D01*
X138419523Y-99991349D01*
X138305251Y-100148631D01*
X138290453Y-100168998D01*
X138288562Y-100167624D01*
X138243848Y-100208030D01*
X138174911Y-100219411D01*
X138110765Y-100191715D01*
X138090488Y-100168314D01*
X138089547Y-100168998D01*
X138074749Y-100148631D01*
X137960477Y-99991349D01*
X137808651Y-99839523D01*
X137634944Y-99713317D01*
X137443633Y-99615838D01*
X137443630Y-99615837D01*
X137239428Y-99549489D01*
X137070940Y-99522803D01*
X137027357Y-99515900D01*
X136812643Y-99515900D01*
X136769060Y-99522803D01*
X136600571Y-99549489D01*
X136396369Y-99615837D01*
X136396366Y-99615838D01*
X136205055Y-99713317D01*
X136105949Y-99785322D01*
X136031349Y-99839523D01*
X136031347Y-99839525D01*
X136031346Y-99839525D01*
X135879525Y-99991346D01*
X135879525Y-99991347D01*
X135879523Y-99991349D01*
X135765251Y-100148631D01*
X135750453Y-100168998D01*
X135748562Y-100167624D01*
X135703848Y-100208030D01*
X135634911Y-100219411D01*
X135570765Y-100191715D01*
X135550488Y-100168314D01*
X135549547Y-100168998D01*
X135534749Y-100148631D01*
X135420477Y-99991349D01*
X135268651Y-99839523D01*
X135094944Y-99713317D01*
X134903633Y-99615838D01*
X134903630Y-99615837D01*
X134699428Y-99549489D01*
X134530940Y-99522803D01*
X134487357Y-99515900D01*
X134272643Y-99515900D01*
X134229060Y-99522803D01*
X134060571Y-99549489D01*
X133856369Y-99615837D01*
X133856366Y-99615838D01*
X133665055Y-99713317D01*
X133565949Y-99785322D01*
X133491349Y-99839523D01*
X133491347Y-99839525D01*
X133491346Y-99839525D01*
X133339525Y-99991346D01*
X133339525Y-99991347D01*
X133339523Y-99991349D01*
X133225251Y-100148631D01*
X133210453Y-100168998D01*
X133208562Y-100167624D01*
X133163848Y-100208030D01*
X133094911Y-100219411D01*
X133030765Y-100191715D01*
X133010488Y-100168314D01*
X133009547Y-100168998D01*
X132994749Y-100148631D01*
X132880477Y-99991349D01*
X132728651Y-99839523D01*
X132554944Y-99713317D01*
X132363633Y-99615838D01*
X132363630Y-99615837D01*
X132159428Y-99549489D01*
X131990940Y-99522803D01*
X131947357Y-99515900D01*
X131732643Y-99515900D01*
X131689060Y-99522803D01*
X131520571Y-99549489D01*
X131316369Y-99615837D01*
X131316366Y-99615838D01*
X131125055Y-99713317D01*
X130951350Y-99839522D01*
X130854660Y-99936212D01*
X130793336Y-99969696D01*
X130723645Y-99964712D01*
X130667712Y-99922840D01*
X130650797Y-99891863D01*
X130606954Y-99774313D01*
X130606950Y-99774306D01*
X130520790Y-99659212D01*
X130520787Y-99659209D01*
X130405693Y-99573049D01*
X130405686Y-99573045D01*
X130270979Y-99522803D01*
X130270972Y-99522801D01*
X130211444Y-99516400D01*
X129550000Y-99516400D01*
X129550000Y-100437748D01*
X129496081Y-100406619D01*
X129366880Y-100372000D01*
X129233120Y-100372000D01*
X129103919Y-100406619D01*
X129050000Y-100437748D01*
X129050000Y-99516400D01*
X128388555Y-99516400D01*
X128329027Y-99522801D01*
X128329020Y-99522803D01*
X128194313Y-99573045D01*
X128194306Y-99573049D01*
X128079212Y-99659209D01*
X128079209Y-99659212D01*
X127993049Y-99774306D01*
X127993045Y-99774313D01*
X127949202Y-99891863D01*
X127907330Y-99947797D01*
X127841866Y-99972214D01*
X127773593Y-99957362D01*
X127745339Y-99936211D01*
X127648653Y-99839525D01*
X127648651Y-99839523D01*
X127474944Y-99713317D01*
X127283633Y-99615838D01*
X127283630Y-99615837D01*
X127079428Y-99549489D01*
X126910940Y-99522803D01*
X126867357Y-99515900D01*
X126652643Y-99515900D01*
X126609060Y-99522803D01*
X126440571Y-99549489D01*
X126236369Y-99615837D01*
X126236366Y-99615838D01*
X126045055Y-99713317D01*
X125945949Y-99785322D01*
X125871349Y-99839523D01*
X125871347Y-99839525D01*
X125871346Y-99839525D01*
X125719525Y-99991346D01*
X125719525Y-99991347D01*
X125719523Y-99991349D01*
X125665322Y-100065949D01*
X125593317Y-100165055D01*
X125495838Y-100356366D01*
X125495837Y-100356369D01*
X125429489Y-100560571D01*
X125405257Y-100713564D01*
X125375328Y-100776699D01*
X125316016Y-100813630D01*
X125246153Y-100812632D01*
X125239453Y-100810349D01*
X125191081Y-100792308D01*
X125191083Y-100792308D01*
X125131483Y-100785901D01*
X125131481Y-100785900D01*
X125131473Y-100785900D01*
X125131464Y-100785900D01*
X123308529Y-100785900D01*
X123308523Y-100785901D01*
X123248916Y-100792308D01*
X123114071Y-100842602D01*
X123114064Y-100842606D01*
X122998855Y-100928852D01*
X122998852Y-100928855D01*
X122912606Y-101044064D01*
X122912602Y-101044071D01*
X122862308Y-101178917D01*
X122855901Y-101238516D01*
X122855900Y-101238535D01*
X122855900Y-103061470D01*
X122855901Y-103061476D01*
X122862308Y-103121083D01*
X122912602Y-103255928D01*
X122912603Y-103255930D01*
X122979797Y-103345689D01*
X123004214Y-103411153D01*
X122989363Y-103479426D01*
X122979797Y-103494311D01*
X122912603Y-103584069D01*
X122912602Y-103584071D01*
X122862308Y-103718917D01*
X122855901Y-103778516D01*
X122855901Y-103778523D01*
X122855900Y-103778535D01*
X122855900Y-105601470D01*
X122855901Y-105601476D01*
X122862308Y-105661083D01*
X122912602Y-105795928D01*
X122912606Y-105795935D01*
X122998852Y-105911144D01*
X122998855Y-105911147D01*
X123114064Y-105997393D01*
X123114073Y-105997398D01*
X123199719Y-106029341D01*
X123231474Y-106041185D01*
X123287408Y-106083055D01*
X123311826Y-106148520D01*
X123296975Y-106216793D01*
X123275824Y-106245048D01*
X123179522Y-106341350D01*
X123053317Y-106515055D01*
X122955838Y-106706366D01*
X122955837Y-106706369D01*
X122889489Y-106910571D01*
X122855900Y-107122643D01*
X122855900Y-107337356D01*
X122889489Y-107549428D01*
X122955837Y-107753630D01*
X122955838Y-107753631D01*
X122955839Y-107753633D01*
X123053317Y-107944944D01*
X123179523Y-108118651D01*
X123331349Y-108270477D01*
X123505056Y-108396683D01*
X123508998Y-108399547D01*
X123507624Y-108401437D01*
X123548030Y-108446152D01*
X123559411Y-108515089D01*
X123531715Y-108579235D01*
X123508314Y-108599511D01*
X123508998Y-108600453D01*
X123505056Y-108603316D01*
X123505056Y-108603317D01*
X123331349Y-108729523D01*
X123331347Y-108729525D01*
X123331346Y-108729525D01*
X123179525Y-108881346D01*
X123179525Y-108881347D01*
X123179523Y-108881349D01*
X123125322Y-108955949D01*
X123053317Y-109055055D01*
X122955838Y-109246366D01*
X122955837Y-109246369D01*
X122889489Y-109450571D01*
X122855900Y-109662643D01*
X122855900Y-109877356D01*
X122889489Y-110089428D01*
X122937497Y-110237182D01*
X122939492Y-110307023D01*
X122903412Y-110366856D01*
X122840711Y-110397684D01*
X122819566Y-110399500D01*
X119397956Y-110399500D01*
X119330917Y-110379815D01*
X119285162Y-110327011D01*
X119276339Y-110299691D01*
X119269738Y-110266510D01*
X119269737Y-110266503D01*
X119257592Y-110237182D01*
X119209397Y-110120827D01*
X119209390Y-110120814D01*
X119121789Y-109989711D01*
X119121786Y-109989707D01*
X119010292Y-109878213D01*
X119010288Y-109878210D01*
X118879185Y-109790609D01*
X118879172Y-109790602D01*
X118733501Y-109730264D01*
X118733489Y-109730261D01*
X118578845Y-109699500D01*
X118578842Y-109699500D01*
X118421158Y-109699500D01*
X118421155Y-109699500D01*
X118266510Y-109730261D01*
X118266498Y-109730264D01*
X118120827Y-109790602D01*
X118120814Y-109790609D01*
X117989711Y-109878210D01*
X117989707Y-109878213D01*
X117878213Y-109989707D01*
X117878210Y-109989711D01*
X117790609Y-110120814D01*
X117790602Y-110120827D01*
X117730264Y-110266498D01*
X117730261Y-110266510D01*
X117699500Y-110421153D01*
X117699500Y-110578846D01*
X117730261Y-110733489D01*
X117730264Y-110733501D01*
X117790602Y-110879172D01*
X117790609Y-110879185D01*
X117878210Y-111010288D01*
X117878213Y-111010292D01*
X117989707Y-111121786D01*
X117989711Y-111121789D01*
X118120814Y-111209390D01*
X118120827Y-111209397D01*
X118266498Y-111269735D01*
X118266503Y-111269737D01*
X118421158Y-111300500D01*
X118421847Y-111300637D01*
X118483758Y-111333022D01*
X118485337Y-111334573D01*
X118631284Y-111480520D01*
X118631286Y-111480521D01*
X118631290Y-111480524D01*
X118763498Y-111556853D01*
X118768216Y-111559577D01*
X118920943Y-111600501D01*
X118920945Y-111600501D01*
X119086654Y-111600501D01*
X119086670Y-111600500D01*
X122848193Y-111600500D01*
X122915232Y-111620185D01*
X122960987Y-111672989D01*
X122970931Y-111742147D01*
X122958677Y-111780795D01*
X122955843Y-111786356D01*
X122955837Y-111786369D01*
X122889489Y-111990571D01*
X122855900Y-112202643D01*
X122855900Y-112417356D01*
X122889489Y-112629428D01*
X122924500Y-112737182D01*
X122926495Y-112807023D01*
X122890414Y-112866856D01*
X122827713Y-112897684D01*
X122806569Y-112899500D01*
X108079766Y-112899500D01*
X108012727Y-112879815D01*
X108010875Y-112878602D01*
X107879185Y-112790609D01*
X107879172Y-112790602D01*
X107733501Y-112730264D01*
X107733489Y-112730261D01*
X107578845Y-112699500D01*
X107578842Y-112699500D01*
X107421158Y-112699500D01*
X107421155Y-112699500D01*
X107266510Y-112730261D01*
X107266498Y-112730264D01*
X107120827Y-112790602D01*
X107120814Y-112790609D01*
X106989711Y-112878210D01*
X106989707Y-112878213D01*
X106878213Y-112989707D01*
X106878210Y-112989711D01*
X106790609Y-113120814D01*
X106790602Y-113120827D01*
X106730264Y-113266498D01*
X106730261Y-113266510D01*
X106699500Y-113421153D01*
X105067600Y-113421153D01*
X104670233Y-113023787D01*
X104712292Y-113012518D01*
X104837708Y-112940110D01*
X104940110Y-112837708D01*
X105012518Y-112712292D01*
X105023787Y-112670234D01*
X105722658Y-113369105D01*
X105722658Y-113369104D01*
X105742221Y-113342180D01*
X105742222Y-113342178D01*
X105782910Y-113286176D01*
X105782918Y-113286163D01*
X105890102Y-113075802D01*
X105963065Y-112851247D01*
X106000000Y-112618052D01*
X106000000Y-112381947D01*
X105963065Y-112148752D01*
X105890102Y-111924197D01*
X105782914Y-111713828D01*
X105722658Y-111630894D01*
X105722658Y-111630893D01*
X105023787Y-112329765D01*
X105012518Y-112287708D01*
X104940110Y-112162292D01*
X104837708Y-112059890D01*
X104712292Y-111987482D01*
X104670234Y-111976212D01*
X105369105Y-111277340D01*
X105369104Y-111277338D01*
X105286174Y-111217087D01*
X105075802Y-111109897D01*
X104851247Y-111036934D01*
X104851248Y-111036934D01*
X104618052Y-111000000D01*
X104381948Y-111000000D01*
X104148752Y-111036934D01*
X103924197Y-111109897D01*
X103713830Y-111217084D01*
X103630894Y-111277340D01*
X104329766Y-111976212D01*
X104287708Y-111987482D01*
X104162292Y-112059890D01*
X104059890Y-112162292D01*
X103987482Y-112287708D01*
X103976212Y-112329766D01*
X103277340Y-111630894D01*
X103217084Y-111713830D01*
X103109897Y-111924197D01*
X103036934Y-112148752D01*
X103000000Y-112381947D01*
X99500000Y-112381947D01*
X99463065Y-112148752D01*
X99390102Y-111924197D01*
X99282914Y-111713828D01*
X99222658Y-111630894D01*
X99222658Y-111630893D01*
X98523787Y-112329765D01*
X98512518Y-112287708D01*
X98440110Y-112162292D01*
X98337708Y-112059890D01*
X98212292Y-111987482D01*
X98170234Y-111976212D01*
X98869105Y-111277340D01*
X98869104Y-111277339D01*
X98786174Y-111217087D01*
X98575802Y-111109897D01*
X98351247Y-111036934D01*
X98351248Y-111036934D01*
X98118052Y-111000000D01*
X97881948Y-111000000D01*
X97648752Y-111036934D01*
X97424197Y-111109897D01*
X97213830Y-111217084D01*
X97130894Y-111277340D01*
X97829766Y-111976212D01*
X97787708Y-111987482D01*
X97662292Y-112059890D01*
X97559890Y-112162292D01*
X97487482Y-112287708D01*
X97476212Y-112329766D01*
X96777340Y-111630894D01*
X96717084Y-111713830D01*
X96609897Y-111924197D01*
X96536934Y-112148752D01*
X96500000Y-112381947D01*
X79800500Y-112381947D01*
X79800500Y-107881902D01*
X96499500Y-107881902D01*
X96499500Y-108118097D01*
X96536446Y-108351368D01*
X96609433Y-108575996D01*
X96670620Y-108696081D01*
X96716657Y-108786433D01*
X96855483Y-108977510D01*
X97022490Y-109144517D01*
X97213567Y-109283343D01*
X97225610Y-109289479D01*
X97424003Y-109390566D01*
X97424005Y-109390566D01*
X97424008Y-109390568D01*
X97544412Y-109429689D01*
X97648631Y-109463553D01*
X97881903Y-109500500D01*
X97881908Y-109500500D01*
X98118097Y-109500500D01*
X98351368Y-109463553D01*
X98391322Y-109450571D01*
X98575992Y-109390568D01*
X98786433Y-109283343D01*
X98977510Y-109144517D01*
X99144517Y-108977510D01*
X99283343Y-108786433D01*
X99390568Y-108575992D01*
X99463553Y-108351368D01*
X99476365Y-108270477D01*
X99500500Y-108118097D01*
X99500500Y-107881902D01*
X102999500Y-107881902D01*
X102999500Y-108118097D01*
X103036446Y-108351368D01*
X103109433Y-108575996D01*
X103170620Y-108696081D01*
X103216657Y-108786433D01*
X103355483Y-108977510D01*
X103522490Y-109144517D01*
X103713567Y-109283343D01*
X103725610Y-109289479D01*
X103924003Y-109390566D01*
X103924005Y-109390566D01*
X103924008Y-109390568D01*
X104044412Y-109429689D01*
X104148631Y-109463553D01*
X104381903Y-109500500D01*
X104381908Y-109500500D01*
X104618097Y-109500500D01*
X104851368Y-109463553D01*
X104891322Y-109450571D01*
X105075992Y-109390568D01*
X105286433Y-109283343D01*
X105477510Y-109144517D01*
X105644517Y-108977510D01*
X105783343Y-108786433D01*
X105890568Y-108575992D01*
X105963553Y-108351368D01*
X105976365Y-108270477D01*
X106000500Y-108118097D01*
X106000500Y-107881902D01*
X105963553Y-107648631D01*
X105890566Y-107424003D01*
X105816789Y-107279209D01*
X105783343Y-107213567D01*
X105644517Y-107022490D01*
X105477510Y-106855483D01*
X105286433Y-106716657D01*
X105204567Y-106674944D01*
X105075996Y-106609433D01*
X104851368Y-106536446D01*
X104618097Y-106499500D01*
X104618092Y-106499500D01*
X104381908Y-106499500D01*
X104381903Y-106499500D01*
X104148631Y-106536446D01*
X103924003Y-106609433D01*
X103713566Y-106716657D01*
X103604550Y-106795862D01*
X103522490Y-106855483D01*
X103522488Y-106855485D01*
X103522487Y-106855485D01*
X103355485Y-107022487D01*
X103355485Y-107022488D01*
X103355483Y-107022490D01*
X103295862Y-107104550D01*
X103216657Y-107213566D01*
X103109433Y-107424003D01*
X103036446Y-107648631D01*
X102999500Y-107881902D01*
X99500500Y-107881902D01*
X99463553Y-107648631D01*
X99390566Y-107424003D01*
X99316789Y-107279209D01*
X99283343Y-107213567D01*
X99144517Y-107022490D01*
X98977510Y-106855483D01*
X98786433Y-106716657D01*
X98704567Y-106674944D01*
X98575996Y-106609433D01*
X98351368Y-106536446D01*
X98118097Y-106499500D01*
X98118092Y-106499500D01*
X97881908Y-106499500D01*
X97881903Y-106499500D01*
X97648631Y-106536446D01*
X97424003Y-106609433D01*
X97213566Y-106716657D01*
X97104550Y-106795862D01*
X97022490Y-106855483D01*
X97022488Y-106855485D01*
X97022487Y-106855485D01*
X96855485Y-107022487D01*
X96855485Y-107022488D01*
X96855483Y-107022490D01*
X96795862Y-107104550D01*
X96716657Y-107213566D01*
X96609433Y-107424003D01*
X96536446Y-107648631D01*
X96499500Y-107881902D01*
X79800500Y-107881902D01*
X79800500Y-104881947D01*
X87000000Y-104881947D01*
X87000000Y-105118052D01*
X87036934Y-105351247D01*
X87109897Y-105575802D01*
X87217087Y-105786174D01*
X87277338Y-105869104D01*
X87277340Y-105869105D01*
X87976212Y-105170233D01*
X87987482Y-105212292D01*
X88059890Y-105337708D01*
X88162292Y-105440110D01*
X88287708Y-105512518D01*
X88329765Y-105523787D01*
X87630893Y-106222658D01*
X87713828Y-106282914D01*
X87924197Y-106390102D01*
X88148752Y-106463065D01*
X88148751Y-106463065D01*
X88381948Y-106500000D01*
X88618052Y-106500000D01*
X88851247Y-106463065D01*
X89075802Y-106390102D01*
X89286163Y-106282918D01*
X89286169Y-106282914D01*
X89369104Y-106222658D01*
X89369105Y-106222658D01*
X88670233Y-105523787D01*
X88712292Y-105512518D01*
X88837708Y-105440110D01*
X88940110Y-105337708D01*
X89012518Y-105212292D01*
X89023787Y-105170234D01*
X89722658Y-105869105D01*
X89722658Y-105869104D01*
X89782914Y-105786169D01*
X89782918Y-105786163D01*
X89890102Y-105575802D01*
X89963065Y-105351247D01*
X90000000Y-105118052D01*
X90000000Y-104881947D01*
X93500000Y-104881947D01*
X93500000Y-105118052D01*
X93536934Y-105351247D01*
X93609897Y-105575802D01*
X93717087Y-105786174D01*
X93777338Y-105869104D01*
X93777340Y-105869105D01*
X94476212Y-105170233D01*
X94487482Y-105212292D01*
X94559890Y-105337708D01*
X94662292Y-105440110D01*
X94787708Y-105512518D01*
X94829765Y-105523787D01*
X94130893Y-106222658D01*
X94213828Y-106282914D01*
X94424197Y-106390102D01*
X94648752Y-106463065D01*
X94648751Y-106463065D01*
X94881948Y-106500000D01*
X95118052Y-106500000D01*
X95351247Y-106463065D01*
X95575802Y-106390102D01*
X95786163Y-106282918D01*
X95786169Y-106282914D01*
X95869104Y-106222658D01*
X95869105Y-106222658D01*
X95170233Y-105523787D01*
X95212292Y-105512518D01*
X95337708Y-105440110D01*
X95440110Y-105337708D01*
X95512518Y-105212292D01*
X95523787Y-105170234D01*
X96222658Y-105869105D01*
X96222658Y-105869104D01*
X96282914Y-105786169D01*
X96282918Y-105786163D01*
X96390102Y-105575802D01*
X96463065Y-105351247D01*
X96500000Y-105118052D01*
X96500000Y-104881947D01*
X106000000Y-104881947D01*
X106000000Y-105118052D01*
X106036934Y-105351247D01*
X106109897Y-105575802D01*
X106217087Y-105786174D01*
X106277338Y-105869104D01*
X106277340Y-105869105D01*
X106976212Y-105170233D01*
X106987482Y-105212292D01*
X107059890Y-105337708D01*
X107162292Y-105440110D01*
X107287708Y-105512518D01*
X107329765Y-105523787D01*
X106630893Y-106222658D01*
X106713828Y-106282914D01*
X106924197Y-106390102D01*
X107148752Y-106463065D01*
X107148751Y-106463065D01*
X107381948Y-106500000D01*
X107618052Y-106500000D01*
X107851247Y-106463065D01*
X108075802Y-106390102D01*
X108286163Y-106282918D01*
X108286169Y-106282914D01*
X108369104Y-106222658D01*
X108369105Y-106222658D01*
X107670233Y-105523787D01*
X107712292Y-105512518D01*
X107837708Y-105440110D01*
X107940110Y-105337708D01*
X108012518Y-105212292D01*
X108023787Y-105170234D01*
X108722658Y-105869105D01*
X108722658Y-105869104D01*
X108782914Y-105786169D01*
X108782918Y-105786163D01*
X108890102Y-105575802D01*
X108963065Y-105351247D01*
X109000000Y-105118052D01*
X109000000Y-104881947D01*
X112500000Y-104881947D01*
X112500000Y-105118052D01*
X112536934Y-105351247D01*
X112609897Y-105575802D01*
X112717087Y-105786174D01*
X112777338Y-105869104D01*
X112777340Y-105869105D01*
X113476212Y-105170233D01*
X113487482Y-105212292D01*
X113559890Y-105337708D01*
X113662292Y-105440110D01*
X113787708Y-105512518D01*
X113829765Y-105523787D01*
X113130893Y-106222658D01*
X113213828Y-106282914D01*
X113424197Y-106390102D01*
X113648752Y-106463065D01*
X113648751Y-106463065D01*
X113881948Y-106500000D01*
X114118052Y-106500000D01*
X114351247Y-106463065D01*
X114575802Y-106390102D01*
X114786163Y-106282918D01*
X114786169Y-106282914D01*
X114869104Y-106222658D01*
X114869105Y-106222658D01*
X114170233Y-105523787D01*
X114212292Y-105512518D01*
X114337708Y-105440110D01*
X114440110Y-105337708D01*
X114512518Y-105212292D01*
X114523787Y-105170233D01*
X115222658Y-105869105D01*
X115222658Y-105869104D01*
X115282914Y-105786169D01*
X115282918Y-105786163D01*
X115390102Y-105575802D01*
X115463065Y-105351247D01*
X115500000Y-105118052D01*
X115500000Y-104881947D01*
X115463065Y-104648752D01*
X115390102Y-104424197D01*
X115282914Y-104213828D01*
X115222658Y-104130894D01*
X115222658Y-104130893D01*
X114523787Y-104829765D01*
X114512518Y-104787708D01*
X114440110Y-104662292D01*
X114337708Y-104559890D01*
X114212292Y-104487482D01*
X114170234Y-104476212D01*
X114869105Y-103777340D01*
X114869104Y-103777338D01*
X114786174Y-103717087D01*
X114575802Y-103609897D01*
X114351247Y-103536934D01*
X114351248Y-103536934D01*
X114118052Y-103500000D01*
X113881948Y-103500000D01*
X113648752Y-103536934D01*
X113424197Y-103609897D01*
X113213830Y-103717084D01*
X113130894Y-103777340D01*
X113829766Y-104476212D01*
X113787708Y-104487482D01*
X113662292Y-104559890D01*
X113559890Y-104662292D01*
X113487482Y-104787708D01*
X113476212Y-104829766D01*
X112777340Y-104130894D01*
X112717084Y-104213830D01*
X112609897Y-104424197D01*
X112536934Y-104648752D01*
X112500000Y-104881947D01*
X109000000Y-104881947D01*
X108963065Y-104648752D01*
X108890102Y-104424197D01*
X108782914Y-104213828D01*
X108722658Y-104130894D01*
X108722658Y-104130893D01*
X108023787Y-104829765D01*
X108012518Y-104787708D01*
X107940110Y-104662292D01*
X107837708Y-104559890D01*
X107712292Y-104487482D01*
X107670234Y-104476212D01*
X108369105Y-103777340D01*
X108369104Y-103777339D01*
X108286174Y-103717087D01*
X108075802Y-103609897D01*
X107851247Y-103536934D01*
X107851248Y-103536934D01*
X107618052Y-103500000D01*
X107381948Y-103500000D01*
X107148752Y-103536934D01*
X106924197Y-103609897D01*
X106713830Y-103717084D01*
X106630894Y-103777340D01*
X107329766Y-104476212D01*
X107287708Y-104487482D01*
X107162292Y-104559890D01*
X107059890Y-104662292D01*
X106987482Y-104787708D01*
X106976212Y-104829766D01*
X106277340Y-104130894D01*
X106217084Y-104213830D01*
X106109897Y-104424197D01*
X106036934Y-104648752D01*
X106000000Y-104881947D01*
X96500000Y-104881947D01*
X96463065Y-104648752D01*
X96390102Y-104424197D01*
X96282914Y-104213828D01*
X96222658Y-104130894D01*
X96222658Y-104130893D01*
X95523787Y-104829765D01*
X95512518Y-104787708D01*
X95440110Y-104662292D01*
X95337708Y-104559890D01*
X95212292Y-104487482D01*
X95170234Y-104476212D01*
X95869105Y-103777340D01*
X95869104Y-103777339D01*
X95786174Y-103717087D01*
X95575802Y-103609897D01*
X95351247Y-103536934D01*
X95351248Y-103536934D01*
X95118052Y-103500000D01*
X94881948Y-103500000D01*
X94648752Y-103536934D01*
X94424197Y-103609897D01*
X94213830Y-103717084D01*
X94130894Y-103777340D01*
X94829766Y-104476212D01*
X94787708Y-104487482D01*
X94662292Y-104559890D01*
X94559890Y-104662292D01*
X94487482Y-104787708D01*
X94476212Y-104829766D01*
X93777340Y-104130894D01*
X93717084Y-104213830D01*
X93609897Y-104424197D01*
X93536934Y-104648752D01*
X93500000Y-104881947D01*
X90000000Y-104881947D01*
X89963065Y-104648752D01*
X89890102Y-104424197D01*
X89782914Y-104213828D01*
X89722658Y-104130894D01*
X89722658Y-104130893D01*
X89023787Y-104829765D01*
X89012518Y-104787708D01*
X88940110Y-104662292D01*
X88837708Y-104559890D01*
X88712292Y-104487482D01*
X88670234Y-104476212D01*
X89369105Y-103777340D01*
X89369104Y-103777339D01*
X89286174Y-103717087D01*
X89075802Y-103609897D01*
X88851247Y-103536934D01*
X88851248Y-103536934D01*
X88618052Y-103500000D01*
X88381948Y-103500000D01*
X88148752Y-103536934D01*
X87924197Y-103609897D01*
X87713830Y-103717084D01*
X87630894Y-103777340D01*
X88329766Y-104476212D01*
X88287708Y-104487482D01*
X88162292Y-104559890D01*
X88059890Y-104662292D01*
X87987482Y-104787708D01*
X87976212Y-104829766D01*
X87277340Y-104130894D01*
X87217084Y-104213830D01*
X87109897Y-104424197D01*
X87036934Y-104648752D01*
X87000000Y-104881947D01*
X79800500Y-104881947D01*
X79800500Y-100381902D01*
X86999500Y-100381902D01*
X86999500Y-100618097D01*
X87036446Y-100851368D01*
X87109433Y-101075996D01*
X87192252Y-101238535D01*
X87216657Y-101286433D01*
X87355483Y-101477510D01*
X87522490Y-101644517D01*
X87713567Y-101783343D01*
X87751432Y-101802636D01*
X87924003Y-101890566D01*
X87924005Y-101890566D01*
X87924008Y-101890568D01*
X88016049Y-101920474D01*
X88148631Y-101963553D01*
X88381903Y-102000500D01*
X88381908Y-102000500D01*
X88618097Y-102000500D01*
X88851368Y-101963553D01*
X88885247Y-101952545D01*
X89075992Y-101890568D01*
X89286433Y-101783343D01*
X89477510Y-101644517D01*
X89644517Y-101477510D01*
X89783343Y-101286433D01*
X89890568Y-101075992D01*
X89963553Y-100851368D01*
X89973922Y-100785900D01*
X90000500Y-100618097D01*
X90000500Y-100381902D01*
X93499500Y-100381902D01*
X93499500Y-100618097D01*
X93536446Y-100851368D01*
X93609433Y-101075996D01*
X93692252Y-101238535D01*
X93716657Y-101286433D01*
X93855483Y-101477510D01*
X94022490Y-101644517D01*
X94213567Y-101783343D01*
X94251432Y-101802636D01*
X94424003Y-101890566D01*
X94424005Y-101890566D01*
X94424008Y-101890568D01*
X94516049Y-101920474D01*
X94648631Y-101963553D01*
X94881903Y-102000500D01*
X94881908Y-102000500D01*
X95118097Y-102000500D01*
X95351368Y-101963553D01*
X95385247Y-101952545D01*
X95575992Y-101890568D01*
X95786433Y-101783343D01*
X95977510Y-101644517D01*
X96144517Y-101477510D01*
X96283343Y-101286433D01*
X96390568Y-101075992D01*
X96463553Y-100851368D01*
X96473922Y-100785900D01*
X96500500Y-100618097D01*
X96500500Y-100381902D01*
X105999500Y-100381902D01*
X105999500Y-100618097D01*
X106036446Y-100851368D01*
X106109433Y-101075996D01*
X106192252Y-101238535D01*
X106216657Y-101286433D01*
X106355483Y-101477510D01*
X106522490Y-101644517D01*
X106713567Y-101783343D01*
X106751432Y-101802636D01*
X106924003Y-101890566D01*
X106924005Y-101890566D01*
X106924008Y-101890568D01*
X107016049Y-101920474D01*
X107148631Y-101963553D01*
X107381903Y-102000500D01*
X107381908Y-102000500D01*
X107618097Y-102000500D01*
X107851368Y-101963553D01*
X107885247Y-101952545D01*
X108075992Y-101890568D01*
X108286433Y-101783343D01*
X108477510Y-101644517D01*
X108644517Y-101477510D01*
X108783343Y-101286433D01*
X108890568Y-101075992D01*
X108963553Y-100851368D01*
X108973922Y-100785900D01*
X109000500Y-100618097D01*
X109000500Y-100381902D01*
X112499500Y-100381902D01*
X112499500Y-100618097D01*
X112536446Y-100851368D01*
X112609433Y-101075996D01*
X112692252Y-101238535D01*
X112716657Y-101286433D01*
X112855483Y-101477510D01*
X113022490Y-101644517D01*
X113213567Y-101783343D01*
X113251432Y-101802636D01*
X113424003Y-101890566D01*
X113424005Y-101890566D01*
X113424008Y-101890568D01*
X113516049Y-101920474D01*
X113648631Y-101963553D01*
X113881903Y-102000500D01*
X113881908Y-102000500D01*
X114118097Y-102000500D01*
X114351368Y-101963553D01*
X114385247Y-101952545D01*
X114575992Y-101890568D01*
X114786433Y-101783343D01*
X114977510Y-101644517D01*
X115144517Y-101477510D01*
X115283343Y-101286433D01*
X115390568Y-101075992D01*
X115463553Y-100851368D01*
X115473922Y-100785900D01*
X115500500Y-100618097D01*
X115500500Y-100381902D01*
X115463553Y-100148631D01*
X115412448Y-99991347D01*
X115390568Y-99924008D01*
X115390566Y-99924005D01*
X115390566Y-99924003D01*
X115334002Y-99812991D01*
X115283343Y-99713567D01*
X115144517Y-99522490D01*
X114977510Y-99355483D01*
X114786433Y-99216657D01*
X114575996Y-99109433D01*
X114351368Y-99036446D01*
X114118097Y-98999500D01*
X114118092Y-98999500D01*
X113881908Y-98999500D01*
X113881903Y-98999500D01*
X113648631Y-99036446D01*
X113424003Y-99109433D01*
X113213566Y-99216657D01*
X113104550Y-99295862D01*
X113022490Y-99355483D01*
X113022488Y-99355485D01*
X113022487Y-99355485D01*
X112855485Y-99522487D01*
X112855485Y-99522488D01*
X112855483Y-99522490D01*
X112835867Y-99549489D01*
X112716657Y-99713566D01*
X112609433Y-99924003D01*
X112536446Y-100148631D01*
X112499500Y-100381902D01*
X109000500Y-100381902D01*
X108963553Y-100148631D01*
X108912448Y-99991347D01*
X108890568Y-99924008D01*
X108890566Y-99924005D01*
X108890566Y-99924003D01*
X108834002Y-99812991D01*
X108783343Y-99713567D01*
X108644517Y-99522490D01*
X108477510Y-99355483D01*
X108286433Y-99216657D01*
X108075996Y-99109433D01*
X107851368Y-99036446D01*
X107618097Y-98999500D01*
X107618092Y-98999500D01*
X107381908Y-98999500D01*
X107381903Y-98999500D01*
X107148631Y-99036446D01*
X106924003Y-99109433D01*
X106713566Y-99216657D01*
X106604550Y-99295862D01*
X106522490Y-99355483D01*
X106522488Y-99355485D01*
X106522487Y-99355485D01*
X106355485Y-99522487D01*
X106355485Y-99522488D01*
X106355483Y-99522490D01*
X106335867Y-99549489D01*
X106216657Y-99713566D01*
X106109433Y-99924003D01*
X106036446Y-100148631D01*
X105999500Y-100381902D01*
X96500500Y-100381902D01*
X96463553Y-100148631D01*
X96412448Y-99991347D01*
X96390568Y-99924008D01*
X96390566Y-99924005D01*
X96390566Y-99924003D01*
X96334002Y-99812991D01*
X96283343Y-99713567D01*
X96144517Y-99522490D01*
X95977510Y-99355483D01*
X95786433Y-99216657D01*
X95575996Y-99109433D01*
X95351368Y-99036446D01*
X95118097Y-98999500D01*
X95118092Y-98999500D01*
X94881908Y-98999500D01*
X94881903Y-98999500D01*
X94648631Y-99036446D01*
X94424003Y-99109433D01*
X94213566Y-99216657D01*
X94104550Y-99295862D01*
X94022490Y-99355483D01*
X94022488Y-99355485D01*
X94022487Y-99355485D01*
X93855485Y-99522487D01*
X93855485Y-99522488D01*
X93855483Y-99522490D01*
X93835867Y-99549489D01*
X93716657Y-99713566D01*
X93609433Y-99924003D01*
X93536446Y-100148631D01*
X93499500Y-100381902D01*
X90000500Y-100381902D01*
X89963553Y-100148631D01*
X89912448Y-99991347D01*
X89890568Y-99924008D01*
X89890566Y-99924005D01*
X89890566Y-99924003D01*
X89834002Y-99812991D01*
X89783343Y-99713567D01*
X89644517Y-99522490D01*
X89477510Y-99355483D01*
X89286433Y-99216657D01*
X89075996Y-99109433D01*
X88851368Y-99036446D01*
X88618097Y-98999500D01*
X88618092Y-98999500D01*
X88381908Y-98999500D01*
X88381903Y-98999500D01*
X88148631Y-99036446D01*
X87924003Y-99109433D01*
X87713566Y-99216657D01*
X87604550Y-99295862D01*
X87522490Y-99355483D01*
X87522488Y-99355485D01*
X87522487Y-99355485D01*
X87355485Y-99522487D01*
X87355485Y-99522488D01*
X87355483Y-99522490D01*
X87335867Y-99549489D01*
X87216657Y-99713566D01*
X87109433Y-99924003D01*
X87036446Y-100148631D01*
X86999500Y-100381902D01*
X79800500Y-100381902D01*
X79800500Y-97381947D01*
X96500000Y-97381947D01*
X96500000Y-97618052D01*
X96536934Y-97851247D01*
X96609897Y-98075802D01*
X96717087Y-98286174D01*
X96777338Y-98369104D01*
X96777340Y-98369105D01*
X97476212Y-97670233D01*
X97487482Y-97712292D01*
X97559890Y-97837708D01*
X97662292Y-97940110D01*
X97787708Y-98012518D01*
X97829765Y-98023787D01*
X97130893Y-98722658D01*
X97213828Y-98782914D01*
X97424197Y-98890102D01*
X97648752Y-98963065D01*
X97648751Y-98963065D01*
X97881948Y-99000000D01*
X98118052Y-99000000D01*
X98351247Y-98963065D01*
X98575802Y-98890102D01*
X98786163Y-98782918D01*
X98786169Y-98782914D01*
X98869104Y-98722658D01*
X98869105Y-98722658D01*
X98170233Y-98023787D01*
X98212292Y-98012518D01*
X98337708Y-97940110D01*
X98440110Y-97837708D01*
X98512518Y-97712292D01*
X98523787Y-97670234D01*
X99222658Y-98369105D01*
X99222658Y-98369104D01*
X99282914Y-98286169D01*
X99282918Y-98286163D01*
X99390102Y-98075802D01*
X99463065Y-97851247D01*
X99500000Y-97618052D01*
X99500000Y-97381947D01*
X103000000Y-97381947D01*
X103000000Y-97618052D01*
X103036934Y-97851247D01*
X103109897Y-98075802D01*
X103217087Y-98286174D01*
X103277338Y-98369104D01*
X103277340Y-98369105D01*
X103976212Y-97670233D01*
X103987482Y-97712292D01*
X104059890Y-97837708D01*
X104162292Y-97940110D01*
X104287708Y-98012518D01*
X104329765Y-98023787D01*
X103630893Y-98722658D01*
X103713828Y-98782914D01*
X103924197Y-98890102D01*
X104148752Y-98963065D01*
X104148751Y-98963065D01*
X104381948Y-99000000D01*
X104618052Y-99000000D01*
X104851247Y-98963065D01*
X105075802Y-98890102D01*
X105286163Y-98782918D01*
X105286169Y-98782914D01*
X105369104Y-98722658D01*
X105369105Y-98722658D01*
X104670233Y-98023787D01*
X104712292Y-98012518D01*
X104837708Y-97940110D01*
X104940110Y-97837708D01*
X105012518Y-97712292D01*
X105023787Y-97670234D01*
X105722658Y-98369105D01*
X105722658Y-98369104D01*
X105782914Y-98286169D01*
X105782918Y-98286163D01*
X105890102Y-98075802D01*
X105963065Y-97851247D01*
X106000000Y-97618052D01*
X106000000Y-97381947D01*
X105963065Y-97148752D01*
X105890102Y-96924197D01*
X105782914Y-96713828D01*
X105722658Y-96630894D01*
X105722658Y-96630893D01*
X105023787Y-97329765D01*
X105012518Y-97287708D01*
X104940110Y-97162292D01*
X104837708Y-97059890D01*
X104712292Y-96987482D01*
X104670234Y-96976212D01*
X105369105Y-96277340D01*
X105369104Y-96277338D01*
X105286174Y-96217087D01*
X105075802Y-96109897D01*
X104851247Y-96036934D01*
X104851248Y-96036934D01*
X104618052Y-96000000D01*
X104381948Y-96000000D01*
X104148752Y-96036934D01*
X103924197Y-96109897D01*
X103713830Y-96217084D01*
X103630894Y-96277340D01*
X104329766Y-96976212D01*
X104287708Y-96987482D01*
X104162292Y-97059890D01*
X104059890Y-97162292D01*
X103987482Y-97287708D01*
X103976212Y-97329766D01*
X103277340Y-96630894D01*
X103217084Y-96713830D01*
X103109897Y-96924197D01*
X103036934Y-97148752D01*
X103000000Y-97381947D01*
X99500000Y-97381947D01*
X99463065Y-97148752D01*
X99390102Y-96924197D01*
X99282914Y-96713828D01*
X99222658Y-96630894D01*
X99222658Y-96630893D01*
X98523787Y-97329765D01*
X98512518Y-97287708D01*
X98440110Y-97162292D01*
X98337708Y-97059890D01*
X98212292Y-96987482D01*
X98170234Y-96976212D01*
X98869105Y-96277340D01*
X98869104Y-96277339D01*
X98786174Y-96217087D01*
X98575802Y-96109897D01*
X98351247Y-96036934D01*
X98351248Y-96036934D01*
X98118052Y-96000000D01*
X97881948Y-96000000D01*
X97648752Y-96036934D01*
X97424197Y-96109897D01*
X97213830Y-96217084D01*
X97130894Y-96277340D01*
X97829766Y-96976212D01*
X97787708Y-96987482D01*
X97662292Y-97059890D01*
X97559890Y-97162292D01*
X97487482Y-97287708D01*
X97476212Y-97329766D01*
X96777340Y-96630894D01*
X96717084Y-96713830D01*
X96609897Y-96924197D01*
X96536934Y-97148752D01*
X96500000Y-97381947D01*
X79800500Y-97381947D01*
X79800500Y-92881902D01*
X96499500Y-92881902D01*
X96499500Y-93118097D01*
X96536446Y-93351368D01*
X96609433Y-93575996D01*
X96716657Y-93786433D01*
X96855483Y-93977510D01*
X97022490Y-94144517D01*
X97213567Y-94283343D01*
X97312991Y-94334002D01*
X97424003Y-94390566D01*
X97424005Y-94390566D01*
X97424008Y-94390568D01*
X97544412Y-94429689D01*
X97648631Y-94463553D01*
X97881903Y-94500500D01*
X97881908Y-94500500D01*
X98118097Y-94500500D01*
X98351368Y-94463553D01*
X98575992Y-94390568D01*
X98786433Y-94283343D01*
X98977510Y-94144517D01*
X99144517Y-93977510D01*
X99283343Y-93786433D01*
X99390568Y-93575992D01*
X99463553Y-93351368D01*
X99500500Y-93118097D01*
X99500500Y-92881902D01*
X102999500Y-92881902D01*
X102999500Y-93118097D01*
X103036446Y-93351368D01*
X103109433Y-93575996D01*
X103216657Y-93786433D01*
X103355483Y-93977510D01*
X103522490Y-94144517D01*
X103713567Y-94283343D01*
X103812991Y-94334002D01*
X103924003Y-94390566D01*
X103924005Y-94390566D01*
X103924008Y-94390568D01*
X104044412Y-94429689D01*
X104148631Y-94463553D01*
X104381903Y-94500500D01*
X104381908Y-94500500D01*
X104618097Y-94500500D01*
X104851368Y-94463553D01*
X105075992Y-94390568D01*
X105286433Y-94283343D01*
X105477510Y-94144517D01*
X105644517Y-93977510D01*
X105783343Y-93786433D01*
X105890568Y-93575992D01*
X105963553Y-93351368D01*
X106000500Y-93118097D01*
X106000500Y-92881902D01*
X105963553Y-92648631D01*
X105890566Y-92424003D01*
X105783342Y-92213566D01*
X105644517Y-92022490D01*
X105477510Y-91855483D01*
X105286433Y-91716657D01*
X105075996Y-91609433D01*
X104851368Y-91536446D01*
X104618097Y-91499500D01*
X104618092Y-91499500D01*
X104381908Y-91499500D01*
X104381903Y-91499500D01*
X104148631Y-91536446D01*
X103924003Y-91609433D01*
X103713566Y-91716657D01*
X103604550Y-91795862D01*
X103522490Y-91855483D01*
X103522488Y-91855485D01*
X103522487Y-91855485D01*
X103355485Y-92022487D01*
X103355485Y-92022488D01*
X103355483Y-92022490D01*
X103295862Y-92104550D01*
X103216657Y-92213566D01*
X103109433Y-92424003D01*
X103036446Y-92648631D01*
X102999500Y-92881902D01*
X99500500Y-92881902D01*
X99463553Y-92648631D01*
X99390566Y-92424003D01*
X99283342Y-92213566D01*
X99144517Y-92022490D01*
X98977510Y-91855483D01*
X98786433Y-91716657D01*
X98575996Y-91609433D01*
X98351368Y-91536446D01*
X98118097Y-91499500D01*
X98118092Y-91499500D01*
X97881908Y-91499500D01*
X97881903Y-91499500D01*
X97648631Y-91536446D01*
X97424003Y-91609433D01*
X97213566Y-91716657D01*
X97104550Y-91795862D01*
X97022490Y-91855483D01*
X97022488Y-91855485D01*
X97022487Y-91855485D01*
X96855485Y-92022487D01*
X96855485Y-92022488D01*
X96855483Y-92022490D01*
X96795862Y-92104550D01*
X96716657Y-92213566D01*
X96609433Y-92424003D01*
X96536446Y-92648631D01*
X96499500Y-92881902D01*
X79800500Y-92881902D01*
X79800500Y-77452155D01*
X90400000Y-77452155D01*
X90400000Y-78250000D01*
X91466988Y-78250000D01*
X91434075Y-78307007D01*
X91400000Y-78434174D01*
X91400000Y-78565826D01*
X91434075Y-78692993D01*
X91466988Y-78750000D01*
X90400000Y-78750000D01*
X90400000Y-79547844D01*
X90406401Y-79607372D01*
X90406403Y-79607379D01*
X90456645Y-79742086D01*
X90456649Y-79742093D01*
X90542809Y-79857187D01*
X90542812Y-79857190D01*
X90657906Y-79943350D01*
X90657913Y-79943354D01*
X90792620Y-79993596D01*
X90792627Y-79993598D01*
X90852155Y-79999999D01*
X90852172Y-80000000D01*
X91650000Y-80000000D01*
X91650000Y-78933012D01*
X91707007Y-78965925D01*
X91834174Y-79000000D01*
X91965826Y-79000000D01*
X92092993Y-78965925D01*
X92150000Y-78933012D01*
X92150000Y-80000000D01*
X92947828Y-80000000D01*
X92947844Y-79999999D01*
X93007372Y-79993598D01*
X93007379Y-79993596D01*
X93142086Y-79943354D01*
X93142093Y-79943350D01*
X93257187Y-79857190D01*
X93257190Y-79857187D01*
X93343350Y-79742093D01*
X93343354Y-79742086D01*
X93393596Y-79607379D01*
X93393598Y-79607372D01*
X93399999Y-79547844D01*
X93400000Y-79547827D01*
X93400000Y-78750000D01*
X92333012Y-78750000D01*
X92365925Y-78692993D01*
X92400000Y-78565826D01*
X92400000Y-78434174D01*
X92385993Y-78381902D01*
X97999500Y-78381902D01*
X97999500Y-78618097D01*
X98036446Y-78851368D01*
X98109433Y-79075996D01*
X98197300Y-79248443D01*
X98216657Y-79286433D01*
X98355483Y-79477510D01*
X98522490Y-79644517D01*
X98713567Y-79783343D01*
X98812991Y-79834002D01*
X98924003Y-79890566D01*
X98924005Y-79890566D01*
X98924008Y-79890568D01*
X99044412Y-79929689D01*
X99148631Y-79963553D01*
X99381903Y-80000500D01*
X99381908Y-80000500D01*
X99618097Y-80000500D01*
X99851368Y-79963553D01*
X100075992Y-79890568D01*
X100286433Y-79783343D01*
X100477510Y-79644517D01*
X100644517Y-79477510D01*
X100783343Y-79286433D01*
X100890568Y-79075992D01*
X100963553Y-78851368D01*
X100988637Y-78692993D01*
X101000500Y-78618097D01*
X101000500Y-78381902D01*
X100963553Y-78148631D01*
X100890566Y-77924003D01*
X100783342Y-77713566D01*
X100644517Y-77522490D01*
X100477510Y-77355483D01*
X100286433Y-77216657D01*
X100075996Y-77109433D01*
X99851368Y-77036446D01*
X99618097Y-76999500D01*
X99618092Y-76999500D01*
X99381908Y-76999500D01*
X99381903Y-76999500D01*
X99148631Y-77036446D01*
X98924003Y-77109433D01*
X98713566Y-77216657D01*
X98656783Y-77257913D01*
X98522490Y-77355483D01*
X98522488Y-77355485D01*
X98522487Y-77355485D01*
X98355485Y-77522487D01*
X98355485Y-77522488D01*
X98355483Y-77522490D01*
X98295862Y-77604550D01*
X98216657Y-77713566D01*
X98109433Y-77924003D01*
X98036446Y-78148631D01*
X97999500Y-78381902D01*
X92385993Y-78381902D01*
X92365925Y-78307007D01*
X92333012Y-78250000D01*
X93400000Y-78250000D01*
X93400000Y-77452172D01*
X93399999Y-77452155D01*
X93393598Y-77392627D01*
X93393596Y-77392620D01*
X93343354Y-77257913D01*
X93343350Y-77257906D01*
X93257190Y-77142812D01*
X93257187Y-77142809D01*
X93142093Y-77056649D01*
X93142086Y-77056645D01*
X93007379Y-77006403D01*
X93007372Y-77006401D01*
X92947844Y-77000000D01*
X92150000Y-77000000D01*
X92150000Y-78066988D01*
X92092993Y-78034075D01*
X91965826Y-78000000D01*
X91834174Y-78000000D01*
X91707007Y-78034075D01*
X91650000Y-78066988D01*
X91650000Y-77000000D01*
X90852155Y-77000000D01*
X90792627Y-77006401D01*
X90792620Y-77006403D01*
X90657913Y-77056645D01*
X90657906Y-77056649D01*
X90542812Y-77142809D01*
X90542809Y-77142812D01*
X90456649Y-77257906D01*
X90456645Y-77257913D01*
X90406403Y-77392620D01*
X90406401Y-77392627D01*
X90400000Y-77452155D01*
X79800500Y-77452155D01*
X79800500Y-71897648D01*
X81699500Y-71897648D01*
X81699500Y-72102351D01*
X81731522Y-72304534D01*
X81794781Y-72499223D01*
X81887715Y-72681613D01*
X82008028Y-72847213D01*
X82152786Y-72991971D01*
X82307749Y-73104556D01*
X82318390Y-73112287D01*
X82434607Y-73171503D01*
X82500776Y-73205218D01*
X82500778Y-73205218D01*
X82500781Y-73205220D01*
X82605137Y-73239127D01*
X82695465Y-73268477D01*
X82796557Y-73284488D01*
X82897648Y-73300500D01*
X82897649Y-73300500D01*
X83102351Y-73300500D01*
X83102352Y-73300500D01*
X83304534Y-73268477D01*
X83499219Y-73205220D01*
X83681610Y-73112287D01*
X83774590Y-73044732D01*
X83847213Y-72991971D01*
X83847215Y-72991968D01*
X83847219Y-72991966D01*
X83991966Y-72847219D01*
X83991968Y-72847215D01*
X83991971Y-72847213D01*
X84044732Y-72774590D01*
X84112287Y-72681610D01*
X84205220Y-72499219D01*
X84268477Y-72304534D01*
X84300500Y-72102352D01*
X84300500Y-71897648D01*
X84268477Y-71695466D01*
X84205220Y-71500781D01*
X84205218Y-71500778D01*
X84205218Y-71500776D01*
X84153920Y-71400099D01*
X84112287Y-71318390D01*
X83991966Y-71152781D01*
X83847219Y-71008034D01*
X83847213Y-71008028D01*
X83681613Y-70887715D01*
X83681612Y-70887714D01*
X83681610Y-70887713D01*
X83624653Y-70858691D01*
X83499223Y-70794781D01*
X83304534Y-70731522D01*
X83129995Y-70703878D01*
X83102352Y-70699500D01*
X82897648Y-70699500D01*
X82873329Y-70703351D01*
X82695465Y-70731522D01*
X82500776Y-70794781D01*
X82318386Y-70887715D01*
X82152786Y-71008028D01*
X82008028Y-71152786D01*
X81887715Y-71318386D01*
X81794781Y-71500776D01*
X81731522Y-71695465D01*
X81699500Y-71897648D01*
X79800500Y-71897648D01*
X79800500Y-71353750D01*
X79800726Y-71346263D01*
X79812429Y-71152781D01*
X79818271Y-71056201D01*
X79820076Y-71041340D01*
X79871780Y-70759201D01*
X79875364Y-70744663D01*
X79879459Y-70731522D01*
X79960696Y-70470822D01*
X79965998Y-70456841D01*
X80083731Y-70195249D01*
X80090676Y-70182016D01*
X80138954Y-70102155D01*
X135030000Y-70102155D01*
X135030000Y-70750000D01*
X135946988Y-70750000D01*
X135914075Y-70807007D01*
X135880000Y-70934174D01*
X135880000Y-71065826D01*
X135914075Y-71192993D01*
X135946988Y-71250000D01*
X135030000Y-71250000D01*
X135030000Y-71897844D01*
X135036401Y-71957372D01*
X135036403Y-71957379D01*
X135086645Y-72092086D01*
X135086649Y-72092093D01*
X135172809Y-72207187D01*
X135172812Y-72207190D01*
X135287906Y-72293350D01*
X135287913Y-72293354D01*
X135422620Y-72343596D01*
X135422627Y-72343598D01*
X135482155Y-72349999D01*
X135482172Y-72350000D01*
X136130000Y-72350000D01*
X136130000Y-71433012D01*
X136187007Y-71465925D01*
X136314174Y-71500000D01*
X136445826Y-71500000D01*
X136572993Y-71465925D01*
X136630000Y-71433012D01*
X136630000Y-72350000D01*
X137277828Y-72350000D01*
X137277844Y-72349999D01*
X137337372Y-72343598D01*
X137337379Y-72343596D01*
X137472086Y-72293354D01*
X137472093Y-72293350D01*
X137587187Y-72207190D01*
X137587190Y-72207187D01*
X137673350Y-72092093D01*
X137673354Y-72092086D01*
X137722422Y-71960529D01*
X137764293Y-71904595D01*
X137829757Y-71880178D01*
X137898030Y-71895030D01*
X137926285Y-71916181D01*
X138040213Y-72030109D01*
X138212179Y-72155048D01*
X138212181Y-72155049D01*
X138212184Y-72155051D01*
X138401588Y-72251557D01*
X138603757Y-72317246D01*
X138813713Y-72350500D01*
X138813714Y-72350500D01*
X139026286Y-72350500D01*
X139026287Y-72350500D01*
X139236243Y-72317246D01*
X139438412Y-72251557D01*
X139627816Y-72155051D01*
X139649789Y-72139086D01*
X139799786Y-72030109D01*
X139799788Y-72030106D01*
X139799792Y-72030104D01*
X139950104Y-71879792D01*
X139950106Y-71879788D01*
X139950109Y-71879786D01*
X140075048Y-71707820D01*
X140075049Y-71707819D01*
X140075051Y-71707816D01*
X140079514Y-71699054D01*
X140127488Y-71648259D01*
X140195308Y-71631463D01*
X140261444Y-71653999D01*
X140300486Y-71699056D01*
X140304951Y-71707820D01*
X140429890Y-71879786D01*
X140580213Y-72030109D01*
X140752179Y-72155048D01*
X140752181Y-72155049D01*
X140752184Y-72155051D01*
X140941588Y-72251557D01*
X141143757Y-72317246D01*
X141353713Y-72350500D01*
X141353714Y-72350500D01*
X141566286Y-72350500D01*
X141566287Y-72350500D01*
X141776243Y-72317246D01*
X141978412Y-72251557D01*
X142167816Y-72155051D01*
X142189789Y-72139086D01*
X142339786Y-72030109D01*
X142339788Y-72030106D01*
X142339792Y-72030104D01*
X142490104Y-71879792D01*
X142490106Y-71879788D01*
X142490109Y-71879786D01*
X142615048Y-71707820D01*
X142615049Y-71707819D01*
X142615051Y-71707816D01*
X142619514Y-71699054D01*
X142667488Y-71648259D01*
X142735308Y-71631463D01*
X142801444Y-71653999D01*
X142840486Y-71699056D01*
X142844951Y-71707820D01*
X142969890Y-71879786D01*
X143120213Y-72030109D01*
X143292179Y-72155048D01*
X143292181Y-72155049D01*
X143292184Y-72155051D01*
X143481588Y-72251557D01*
X143683757Y-72317246D01*
X143893713Y-72350500D01*
X143893714Y-72350500D01*
X144106286Y-72350500D01*
X144106287Y-72350500D01*
X144316243Y-72317246D01*
X144518412Y-72251557D01*
X144707816Y-72155051D01*
X144729789Y-72139086D01*
X144879786Y-72030109D01*
X144879788Y-72030106D01*
X144879792Y-72030104D01*
X145012248Y-71897648D01*
X199699500Y-71897648D01*
X199699500Y-72102351D01*
X199731522Y-72304534D01*
X199794781Y-72499223D01*
X199887715Y-72681613D01*
X200008028Y-72847213D01*
X200152786Y-72991971D01*
X200307749Y-73104556D01*
X200318390Y-73112287D01*
X200434607Y-73171503D01*
X200500776Y-73205218D01*
X200500778Y-73205218D01*
X200500781Y-73205220D01*
X200605137Y-73239127D01*
X200695465Y-73268477D01*
X200796557Y-73284488D01*
X200897648Y-73300500D01*
X200897649Y-73300500D01*
X201102351Y-73300500D01*
X201102352Y-73300500D01*
X201304534Y-73268477D01*
X201499219Y-73205220D01*
X201681610Y-73112287D01*
X201774590Y-73044732D01*
X201847213Y-72991971D01*
X201847215Y-72991968D01*
X201847219Y-72991966D01*
X201991966Y-72847219D01*
X201991968Y-72847215D01*
X201991971Y-72847213D01*
X202044732Y-72774590D01*
X202112287Y-72681610D01*
X202205220Y-72499219D01*
X202268477Y-72304534D01*
X202300500Y-72102352D01*
X202300500Y-71897648D01*
X202268477Y-71695466D01*
X202205220Y-71500781D01*
X202205218Y-71500778D01*
X202205218Y-71500776D01*
X202153920Y-71400099D01*
X202112287Y-71318390D01*
X202078239Y-71271526D01*
X201991971Y-71152786D01*
X201847213Y-71008028D01*
X201681613Y-70887715D01*
X201681612Y-70887714D01*
X201681610Y-70887713D01*
X201624653Y-70858691D01*
X201499223Y-70794781D01*
X201304534Y-70731522D01*
X201129995Y-70703878D01*
X201102352Y-70699500D01*
X200897648Y-70699500D01*
X200873329Y-70703351D01*
X200695465Y-70731522D01*
X200500776Y-70794781D01*
X200318386Y-70887715D01*
X200152786Y-71008028D01*
X200008028Y-71152786D01*
X199887715Y-71318386D01*
X199794781Y-71500776D01*
X199731522Y-71695465D01*
X199699500Y-71897648D01*
X145012248Y-71897648D01*
X145030104Y-71879792D01*
X145155051Y-71707816D01*
X145251557Y-71518412D01*
X145317246Y-71316243D01*
X145350500Y-71106287D01*
X145350500Y-70893713D01*
X145317246Y-70683757D01*
X145251557Y-70481588D01*
X145155051Y-70292184D01*
X145155049Y-70292181D01*
X145155048Y-70292179D01*
X145030109Y-70120213D01*
X144879786Y-69969890D01*
X144707820Y-69844951D01*
X144518414Y-69748444D01*
X144518413Y-69748443D01*
X144518412Y-69748443D01*
X144316243Y-69682754D01*
X144316241Y-69682753D01*
X144316240Y-69682753D01*
X144154957Y-69657208D01*
X144106287Y-69649500D01*
X143893713Y-69649500D01*
X143845042Y-69657208D01*
X143683760Y-69682753D01*
X143481585Y-69748444D01*
X143292179Y-69844951D01*
X143120213Y-69969890D01*
X142969890Y-70120213D01*
X142844949Y-70292182D01*
X142840484Y-70300946D01*
X142792509Y-70351742D01*
X142724688Y-70368536D01*
X142658553Y-70345998D01*
X142619516Y-70300946D01*
X142615050Y-70292182D01*
X142490109Y-70120213D01*
X142339786Y-69969890D01*
X142167820Y-69844951D01*
X141978414Y-69748444D01*
X141978413Y-69748443D01*
X141978412Y-69748443D01*
X141776243Y-69682754D01*
X141776241Y-69682753D01*
X141776240Y-69682753D01*
X141614957Y-69657208D01*
X141566287Y-69649500D01*
X141353713Y-69649500D01*
X141305042Y-69657208D01*
X141143760Y-69682753D01*
X140941585Y-69748444D01*
X140752179Y-69844951D01*
X140580213Y-69969890D01*
X140429890Y-70120213D01*
X140304949Y-70292182D01*
X140300484Y-70300946D01*
X140252509Y-70351742D01*
X140184688Y-70368536D01*
X140118553Y-70345998D01*
X140079516Y-70300946D01*
X140075050Y-70292182D01*
X139950109Y-70120213D01*
X139799786Y-69969890D01*
X139627820Y-69844951D01*
X139438414Y-69748444D01*
X139438413Y-69748443D01*
X139438412Y-69748443D01*
X139236243Y-69682754D01*
X139236241Y-69682753D01*
X139236240Y-69682753D01*
X139074957Y-69657208D01*
X139026287Y-69649500D01*
X138813713Y-69649500D01*
X138765042Y-69657208D01*
X138603760Y-69682753D01*
X138401585Y-69748444D01*
X138212179Y-69844951D01*
X138040215Y-69969889D01*
X137926285Y-70083819D01*
X137864962Y-70117303D01*
X137795270Y-70112319D01*
X137739337Y-70070447D01*
X137722422Y-70039470D01*
X137673354Y-69907913D01*
X137673350Y-69907906D01*
X137587190Y-69792812D01*
X137587187Y-69792809D01*
X137472093Y-69706649D01*
X137472086Y-69706645D01*
X137337379Y-69656403D01*
X137337372Y-69656401D01*
X137277844Y-69650000D01*
X136630000Y-69650000D01*
X136630000Y-70566988D01*
X136572993Y-70534075D01*
X136445826Y-70500000D01*
X136314174Y-70500000D01*
X136187007Y-70534075D01*
X136130000Y-70566988D01*
X136130000Y-69650000D01*
X135482155Y-69650000D01*
X135422627Y-69656401D01*
X135422620Y-69656403D01*
X135287913Y-69706645D01*
X135287906Y-69706649D01*
X135172812Y-69792809D01*
X135172809Y-69792812D01*
X135086649Y-69907906D01*
X135086645Y-69907913D01*
X135036403Y-70042620D01*
X135036401Y-70042627D01*
X135030000Y-70102155D01*
X80138954Y-70102155D01*
X80239080Y-69936526D01*
X80247567Y-69924230D01*
X80424480Y-69698417D01*
X80434395Y-69687226D01*
X80637226Y-69484395D01*
X80648417Y-69474480D01*
X80874230Y-69297567D01*
X80886526Y-69289080D01*
X81132016Y-69140676D01*
X81145249Y-69133731D01*
X81406841Y-69015998D01*
X81420822Y-69010696D01*
X81694668Y-68925362D01*
X81709197Y-68921780D01*
X81991344Y-68870075D01*
X82006201Y-68868271D01*
X82296264Y-68850726D01*
X82303751Y-68850500D01*
X82365892Y-68850500D01*
X201134108Y-68850500D01*
X201196249Y-68850500D01*
X201203736Y-68850726D01*
G37*
%TD.AperFunction*%
%TD*%
M02*
